M48
; DRILL file {KiCad 9.0.2} date 2025-10-01T20:59:57+0100
; FORMAT={-:-/ absolute / metric / decimal}
; #@! TF.CreationDate,2025-10-01T20:59:57+01:00
; #@! TF.GenerationSoftware,Kicad,Pcbnew,9.0.2
; #@! TF.FileFunction,Plated,1,2,PTH
FMAT,2
METRIC
; #@! TA.AperFunction,Plated,PTH,ComponentDrill
T1C0.160
; #@! TA.AperFunction,Plated,PTH,ViaDrill
T2C0.300
; #@! TA.AperFunction,Plated,PTH,ComponentDrill
T3C0.305
; #@! TA.AperFunction,Plated,PTH,ViaDrill
T4C0.400
; #@! TA.AperFunction,Plated,PTH,ComponentDrill
T5C0.900
; #@! TA.AperFunction,Plated,PTH,ComponentDrill
T6C1.000
; #@! TA.AperFunction,Plated,PTH,ComponentDrill
T7C1.100
; #@! TA.AperFunction,Plated,PTH,ComponentDrill
T8C1.200
; #@! TA.AperFunction,Plated,PTH,ComponentDrill
T9C1.400
; #@! TA.AperFunction,Plated,PTH,ComponentDrill
T10C1.500
; #@! TA.AperFunction,Plated,PTH,ComponentDrill
T11C1.600
; #@! TA.AperFunction,Plated,PTH,ComponentDrill
T12C2.200
; #@! TA.AperFunction,Plated,PTH,ComponentDrill
T13C5.300
%
G90
G05
T1
X103.75Y-83.5
X103.75Y-84.0
X103.75Y-87.0
X103.75Y-87.5
X147.5Y-111.75
X148.0Y-111.75
X151.0Y-111.75
X151.5Y-111.75
X160.5Y-57.0
X160.5Y-57.5
X160.5Y-60.5
X160.5Y-61.0
X201.75Y-85.75
X201.75Y-86.25
X201.75Y-89.25
X201.75Y-89.75
T2
X103.25Y-102.5
X146.483Y-107.725
X177.75Y-62.0
X177.75Y-82.75
X178.25Y-66.25
X178.25Y-71.25
X178.25Y-88.5
X178.75Y-63.75
X178.75Y-70.75
X178.75Y-72.5
X178.75Y-89.0
X178.75Y-90.25
X179.25Y-56.0
X179.25Y-70.25
X179.25Y-74.0
X179.25Y-89.5
X180.0Y-69.25
X180.125Y-67.375
X191.262Y-75.524
X192.75Y-53.5
X193.5Y-80.5
T3
X90.9Y-89.21
X90.9Y-108.21
X90.9Y-70.21
X91.65Y-89.21
X91.65Y-108.21
X91.65Y-70.21
X96.35Y-89.21
X96.35Y-108.21
X96.35Y-70.21
X97.15Y-89.21
X97.15Y-108.21
X97.15Y-70.21
X109.9Y-92.96
X109.9Y-73.96
X109.9Y-54.96
X110.65Y-92.96
X110.65Y-73.96
X110.65Y-54.96
X115.35Y-92.96
X115.35Y-73.96
X115.35Y-54.96
X116.15Y-92.96
X116.15Y-73.96
X116.15Y-54.96
X128.9Y-86.96
X128.9Y-67.96
X128.9Y-48.959
X129.65Y-86.96
X129.65Y-67.96
X129.65Y-48.959
X134.35Y-86.96
X134.35Y-67.96
X134.35Y-48.959
X134.9Y-111.96
X135.15Y-86.96
X135.15Y-67.96
X135.15Y-48.959
X135.65Y-111.96
X140.35Y-111.96
X141.15Y-111.96
X147.9Y-54.96
X147.9Y-92.96
X147.9Y-73.96
X148.65Y-54.96
X148.65Y-92.96
X148.65Y-73.96
X153.35Y-54.96
X153.35Y-92.96
X153.35Y-73.96
X154.15Y-54.96
X154.15Y-92.96
X154.15Y-73.96
X157.501Y-113.85
X158.225Y-114.044
X162.765Y-115.26
X163.538Y-115.467
X166.9Y-92.96
X166.9Y-73.96
X166.9Y-54.96
X167.65Y-92.96
X167.65Y-73.96
X167.65Y-54.96
X172.35Y-92.96
X172.35Y-73.96
X172.35Y-54.96
X173.15Y-92.96
X173.15Y-73.96
X173.15Y-54.96
X178.773Y-122.054
X179.423Y-122.429
X183.493Y-124.779
X184.186Y-125.179
X188.365Y-105.363
X188.4Y-80.954
X189.015Y-105.738
X190.6Y-80.954
X193.085Y-108.088
X193.778Y-108.488
X197.379Y-135.237
X197.909Y-135.768
X201.232Y-139.091
X201.798Y-139.657
X210.879Y-121.737
X211.409Y-122.268
X214.732Y-125.591
X215.298Y-126.157
T4
X100.5Y-67.75
X100.5Y-87.0
X101.75Y-78.0
X101.75Y-97.25
X102.0Y-72.0
X102.25Y-56.0
X102.5Y-82.0
X103.375Y-91.875
X103.5Y-105.25
X104.75Y-64.25
X104.75Y-71.0
X106.0Y-50.0
X106.5Y-84.25
X112.0Y-108.75
X118.75Y-87.0
X120.0Y-50.25
X120.0Y-90.25
X120.75Y-63.75
X120.75Y-82.75
X120.75Y-101.75
X121.0Y-57.0
X121.5Y-71.25
X121.5Y-75.75
X121.5Y-95.0
X124.75Y-45.25
X130.28Y-46.28
X139.0Y-47.0
X139.75Y-57.75
X139.75Y-76.75
X139.75Y-95.75
X140.25Y-72.5
X140.5Y-73.5
X140.5Y-85.25
X141.25Y-88.75
X144.0Y-48.5
X144.5Y-70.75
X145.5Y-66.5
X146.067Y-110.683
X146.25Y-112.0
X148.0Y-52.25
X148.25Y-71.5
X157.0Y-112.5
X158.0Y-51.75
X158.5Y-60.75
X158.5Y-90.5
X158.75Y-64.0
X158.75Y-71.0
X158.75Y-82.75
X158.75Y-101.75
X159.25Y-111.25
X159.5Y-76.25
X159.5Y-94.75
X161.5Y-110.0
X162.0Y-72.25
X162.0Y-93.0
X162.475Y-57.25
X163.0Y-50.0
X163.5Y-89.5
X163.5Y-90.525
X163.75Y-69.0
X164.0Y-109.475
X171.75Y-52.25
X172.75Y-90.75
X176.0Y-112.5
X177.0Y-62.75
X177.25Y-115.75
X177.75Y-101.75
X177.75Y-109.25
X178.0Y-111.75
X179.25Y-112.0
X180.25Y-106.25
X181.25Y-118.5
X181.75Y-120.5
X185.517Y-55.336
X185.534Y-56.774
X185.534Y-59.524
X185.534Y-62.024
X185.534Y-67.274
X185.534Y-69.774
X185.534Y-72.274
X185.534Y-74.774
X185.534Y-77.274
X185.534Y-79.774
X185.584Y-54.524
X185.584Y-64.774
X187.25Y-53.5
X187.5Y-55.25
X188.375Y-127.875
X188.625Y-103.375
X189.5Y-49.25
X189.531Y-52.25
X190.75Y-53.75
X191.5Y-121.0
X192.024Y-69.774
X193.434Y-56.774
X193.434Y-57.774
X193.434Y-60.524
X193.434Y-63.024
X193.434Y-65.524
X193.434Y-68.024
X193.434Y-70.524
X193.434Y-73.024
X193.434Y-75.524
X195.0Y-123.75
X195.125Y-106.375
X197.25Y-91.25
X197.75Y-127.5
X198.25Y-92.25
X198.25Y-93.5
X198.75Y-63.75
X199.5Y-66.25
X200.771Y-93.5
X201.75Y-105.25
X202.375Y-135.125
X205.75Y-86.0
X205.75Y-93.25
X211.5Y-136.25
X215.0Y-128.75
T6
X90.424Y-83.5
X90.424Y-102.5
X90.424Y-121.5
X97.576Y-83.5
X97.576Y-102.5
X97.576Y-121.5
X109.424Y-68.25
X109.424Y-87.25
X109.424Y-106.25
X116.576Y-68.25
X116.576Y-87.25
X116.576Y-106.25
X128.424Y-62.25
X128.424Y-81.25
X128.424Y-100.25
X135.576Y-62.25
X135.576Y-81.25
X135.576Y-100.25
X147.033Y-122.295
X147.399Y-68.25
X147.424Y-87.25
X147.424Y-106.25
X147.967Y-115.205
X149.202Y-122.594
X150.135Y-115.504
X154.551Y-68.25
X154.576Y-87.25
X154.576Y-106.25
X160.5Y-63.0
X166.424Y-68.25
X166.424Y-87.25
X166.424Y-106.25
X173.576Y-68.25
X173.576Y-87.25
X173.576Y-106.25
X185.573Y-134.837
X187.573Y-136.337
X189.927Y-129.163
X191.927Y-130.663
X195.993Y-121.245
X197.104Y-82.804
X197.104Y-85.344
X198.073Y-122.837
X200.346Y-115.571
X202.427Y-117.163
T7
X130.5Y-114.5
X130.5Y-117.0
X130.5Y-119.5
X145.0Y-114.5
X145.0Y-119.5
X180.755Y-109.665
X181.864Y-49.784
X181.864Y-52.324
X181.864Y-54.864
X181.864Y-57.404
X181.864Y-59.944
X181.864Y-62.484
X181.864Y-65.024
X181.864Y-67.564
X181.864Y-70.104
X181.864Y-72.644
X181.864Y-75.184
X181.864Y-77.724
X181.864Y-80.264
X182.005Y-107.5
X183.255Y-105.335
X193.312Y-116.915
X194.44Y-95.0
X195.812Y-112.585
X196.98Y-95.0
X197.104Y-49.784
X197.104Y-52.324
X197.104Y-54.864
X197.104Y-57.404
X197.104Y-59.944
X197.104Y-62.484
X197.104Y-65.024
X197.104Y-67.564
X197.104Y-70.104
X197.104Y-72.644
X197.104Y-75.184
X197.104Y-77.724
X197.104Y-80.264
X199.52Y-95.0
X202.06Y-95.0
X202.376Y-123.977
X204.144Y-122.209
X205.912Y-120.442
X212.629Y-134.23
X216.165Y-130.695
T8
X89.0Y-79.05
X89.0Y-98.05
X89.0Y-117.05
X94.0Y-81.15
X94.0Y-100.15
X94.0Y-119.15
X99.0Y-79.05
X99.0Y-98.05
X99.0Y-117.05
X108.0Y-63.8
X108.0Y-101.8
X108.0Y-82.8
X113.0Y-65.9
X113.0Y-103.9
X113.0Y-84.9
X118.0Y-63.8
X118.0Y-101.8
X118.0Y-82.8
X127.0Y-57.799
X127.0Y-76.8
X127.0Y-95.8
X132.0Y-59.899
X132.0Y-78.9
X132.0Y-97.9
X133.0Y-120.8
X137.0Y-57.799
X137.0Y-76.8
X137.0Y-95.8
X138.0Y-122.9
X143.0Y-120.8
X146.0Y-63.8
X146.0Y-82.8
X146.0Y-101.8
X151.0Y-65.9
X151.0Y-84.9
X151.0Y-103.9
X153.378Y-122.167
X156.0Y-63.8
X156.0Y-82.8
X156.0Y-101.8
X157.664Y-125.489
X163.037Y-124.755
X165.0Y-63.8
X165.0Y-82.8
X165.0Y-101.8
X170.0Y-65.9
X170.0Y-84.9
X170.0Y-103.9
X172.708Y-128.761
X175.0Y-63.8
X175.0Y-82.8
X175.0Y-101.8
X175.988Y-133.079
X181.368Y-133.761
X182.262Y-112.175
X185.542Y-116.493
X189.721Y-140.168
X190.923Y-117.175
X191.771Y-145.188
X196.792Y-147.239
X203.225Y-126.664
X205.276Y-131.685
X210.296Y-133.735
T9
X99.25Y-57.75
X99.25Y-64.25
T10
X90.19Y-77.79
X90.19Y-96.79
X90.19Y-115.79
X91.46Y-80.33
X91.46Y-99.33
X91.46Y-118.33
X96.54Y-80.33
X96.54Y-99.33
X96.54Y-118.33
X97.81Y-77.79
X97.81Y-96.79
X97.81Y-115.79
X109.19Y-62.54
X109.19Y-100.54
X109.19Y-81.54
X110.46Y-65.08
X110.46Y-103.08
X110.46Y-84.08
X115.54Y-65.08
X115.54Y-103.08
X115.54Y-84.08
X116.81Y-62.54
X116.81Y-100.54
X116.81Y-81.54
X128.19Y-56.539
X128.19Y-75.54
X128.19Y-94.54
X129.46Y-59.079
X129.46Y-78.08
X129.46Y-97.08
X134.19Y-119.54
X134.54Y-59.079
X134.54Y-78.08
X134.54Y-97.08
X135.46Y-122.08
X135.81Y-56.539
X135.81Y-75.54
X135.81Y-94.54
X140.54Y-122.08
X141.81Y-119.54
X147.19Y-62.54
X147.19Y-81.54
X147.19Y-100.54
X148.46Y-65.08
X148.46Y-84.08
X148.46Y-103.08
X153.54Y-65.08
X153.54Y-84.08
X153.54Y-103.08
X154.81Y-62.54
X154.81Y-81.54
X154.81Y-100.54
X154.853Y-121.258
X155.423Y-124.04
X160.33Y-125.355
X162.214Y-123.23
X166.19Y-62.54
X166.19Y-81.54
X166.19Y-100.54
X167.46Y-65.08
X167.46Y-84.08
X167.46Y-103.08
X172.54Y-65.08
X172.54Y-84.08
X172.54Y-103.08
X173.81Y-62.54
X173.81Y-81.54
X173.81Y-100.54
X174.198Y-131.099
X174.368Y-128.265
X178.598Y-133.639
X180.967Y-132.075
X183.753Y-114.513
X183.923Y-111.678
X188.152Y-117.053
X190.522Y-115.488
X190.555Y-142.813
X191.453Y-140.118
X194.147Y-146.405
X196.841Y-145.507
X204.059Y-129.309
X204.957Y-126.615
X207.651Y-132.901
X210.345Y-132.003
T11
X89.0Y-70.1
X89.0Y-89.1
X89.0Y-108.1
X99.0Y-70.1
X99.0Y-89.1
X99.0Y-108.1
X108.0Y-54.85
X108.0Y-92.85
X108.0Y-73.85
X118.0Y-54.85
X118.0Y-92.85
X118.0Y-73.85
X127.0Y-48.849
X127.0Y-67.85
X127.0Y-86.85
X133.0Y-111.85
X137.0Y-48.849
X137.0Y-67.85
X137.0Y-86.85
X143.0Y-111.85
X146.0Y-54.85
X146.0Y-73.85
X146.0Y-92.85
X155.694Y-113.522
X156.0Y-54.85
X156.0Y-73.85
X156.0Y-92.85
X165.0Y-54.85
X165.0Y-73.85
X165.0Y-92.85
X165.353Y-116.11
X175.0Y-54.85
X175.0Y-73.85
X175.0Y-92.85
X177.183Y-121.01
X185.843Y-126.01
X186.737Y-104.424
X195.398Y-109.424
X196.049Y-133.839
X203.12Y-140.91
X209.554Y-120.335
X216.625Y-127.407
T12
X122.45Y-88.5
X141.5Y-69.45
X141.5Y-107.55
X160.55Y-88.5
T13
X89.5Y-56.5
X211.75Y-53.0
X211.75Y-143.25
T5
X89.6Y-80.5G85X89.6Y-79.4
G05
X89.6Y-99.5G85X89.6Y-98.4
G05
X89.6Y-118.5G85X89.6Y-117.4
G05
X91.95Y-81.0G85X90.85Y-81.0
G05
X91.95Y-100.0G85X90.85Y-100.0
G05
X91.95Y-119.0G85X90.85Y-119.0
G05
X97.15Y-81.0G85X96.05Y-81.0
G05
X97.15Y-100.0G85X96.05Y-100.0
G05
X97.15Y-119.0G85X96.05Y-119.0
G05
X98.4Y-80.5G85X98.4Y-79.4
G05
X98.4Y-99.5G85X98.4Y-98.4
G05
X98.4Y-118.5G85X98.4Y-117.4
G05
X108.6Y-65.25G85X108.6Y-64.15
G05
X108.6Y-103.25G85X108.6Y-102.15
G05
X108.6Y-84.25G85X108.6Y-83.15
G05
X110.95Y-65.75G85X109.85Y-65.75
G05
X110.95Y-103.75G85X109.85Y-103.75
G05
X110.95Y-84.75G85X109.85Y-84.75
G05
X116.15Y-65.75G85X115.05Y-65.75
G05
X116.15Y-103.75G85X115.05Y-103.75
G05
X116.15Y-84.75G85X115.05Y-84.75
G05
X117.4Y-65.25G85X117.4Y-64.15
G05
X117.4Y-103.25G85X117.4Y-102.15
G05
X117.4Y-84.25G85X117.4Y-83.15
G05
X127.6Y-59.249G85X127.6Y-58.149
G05
X127.6Y-78.25G85X127.6Y-77.15
G05
X127.6Y-97.25G85X127.6Y-96.15
G05
X129.95Y-59.749G85X128.85Y-59.749
G05
X129.95Y-78.75G85X128.85Y-78.75
G05
X129.95Y-97.75G85X128.85Y-97.75
G05
X133.6Y-122.25G85X133.6Y-121.15
G05
X135.15Y-59.749G85X134.05Y-59.749
G05
X135.15Y-78.75G85X134.05Y-78.75
G05
X135.15Y-97.75G85X134.05Y-97.75
G05
X135.95Y-122.75G85X134.85Y-122.75
G05
X136.4Y-59.249G85X136.4Y-58.149
G05
X136.4Y-78.25G85X136.4Y-77.15
G05
X136.4Y-97.25G85X136.4Y-96.15
G05
X141.15Y-122.75G85X140.05Y-122.75
G05
X142.4Y-122.25G85X142.4Y-121.15
G05
X146.6Y-65.25G85X146.6Y-64.15
G05
X146.6Y-84.25G85X146.6Y-83.15
G05
X146.6Y-103.25G85X146.6Y-102.15
G05
X148.95Y-65.75G85X147.85Y-65.75
G05
X148.95Y-84.75G85X147.85Y-84.75
G05
X148.95Y-103.75G85X147.85Y-103.75
G05
X154.15Y-65.75G85X153.05Y-65.75
G05
X154.15Y-84.75G85X153.05Y-84.75
G05
X154.15Y-103.75G85X153.05Y-103.75
G05
X153.582Y-123.723G85X153.867Y-122.66
G05
X155.723Y-124.814G85X154.66Y-124.529
G05
X155.4Y-65.25G85X155.4Y-64.15
G05
X155.4Y-84.25G85X155.4Y-83.15
G05
X155.4Y-103.25G85X155.4Y-102.15
G05
X160.745Y-126.16G85X159.683Y-125.875
G05
X162.082Y-126.0G85X162.367Y-124.938
G05
X165.6Y-65.25G85X165.6Y-64.15
G05
X165.6Y-84.25G85X165.6Y-83.15
G05
X165.6Y-103.25G85X165.6Y-102.15
G05
X167.95Y-65.75G85X166.85Y-65.75
G05
X167.95Y-84.75G85X166.85Y-84.75
G05
X167.95Y-103.75G85X166.85Y-103.75
G05
X173.15Y-65.75G85X172.05Y-65.75
G05
X173.15Y-84.75G85X172.05Y-84.75
G05
X173.15Y-103.75G85X172.05Y-103.75
G05
X172.502Y-130.317G85X173.052Y-129.364
G05
X174.287Y-131.925G85X173.335Y-131.375
G05
X174.4Y-65.25G85X174.4Y-64.15
G05
X174.4Y-84.25G85X174.4Y-83.15
G05
X174.4Y-103.25G85X174.4Y-102.15
G05
X178.791Y-134.525G85X177.838Y-133.975
G05
X180.123Y-134.717G85X180.673Y-133.764
G05
X182.057Y-113.73G85X182.607Y-112.778
G05
X183.842Y-115.338G85X182.889Y-114.788
G05
X188.345Y-117.938G85X187.393Y-117.388
G05
X189.12Y-141.618G85X189.897Y-140.84
G05
X189.678Y-118.13G85X190.228Y-117.178
G05
X190.428Y-143.633G85X189.65Y-142.855
G05
X194.105Y-147.31G85X193.327Y-146.532
G05
X195.342Y-147.84G85X196.12Y-147.062
G05
X202.624Y-128.114G85X203.402Y-127.336
G05
X203.932Y-130.129G85X203.154Y-129.351
G05
X207.609Y-133.806G85X206.831Y-133.028
G05
X208.846Y-134.336G85X209.624Y-133.558
G05
T6
X201.1Y-53.2G85X201.1Y-52.7
G05
X201.1Y-56.2G85X201.1Y-55.7
G05
X201.1Y-60.2G85X201.1Y-59.7
G05
X201.1Y-61.1G85X201.1Y-60.6
G05
X204.15Y-107.8G85X204.65Y-107.8
G05
X204.15Y-112.2G85X204.65Y-112.2
G05
X205.05Y-107.8G85X205.55Y-107.8
G05
X205.05Y-112.2G85X205.55Y-112.2
G05
X205.5Y-52.7G85X205.5Y-53.2
G05
X205.5Y-55.7G85X205.5Y-56.2
G05
X205.5Y-60.2G85X205.5Y-59.7
G05
X205.5Y-61.1G85X205.5Y-60.6
G05
X209.05Y-107.8G85X209.55Y-107.8
G05
X209.55Y-112.2G85X209.05Y-112.2
G05
X212.05Y-107.8G85X212.55Y-107.8
G05
X212.55Y-112.2G85X212.05Y-112.2
G05
M30
