G04 #@! TF.GenerationSoftware,KiCad,Pcbnew,9.0.2*
G04 #@! TF.CreationDate,2025-10-01T20:59:55+01:00*
G04 #@! TF.ProjectId,swoopt-soldered,73776f6f-7074-42d7-936f-6c6465726564,0.2.2*
G04 #@! TF.SameCoordinates,Original*
G04 #@! TF.FileFunction,Profile,NP*
%FSLAX46Y46*%
G04 Gerber Fmt 4.6, Leading zero omitted, Abs format (unit mm)*
G04 Created by KiCad (PCBNEW 9.0.2) date 2025-10-01 20:59:55*
%MOMM*%
%LPD*%
G01*
G04 APERTURE LIST*
G04 #@! TA.AperFunction,Profile*
%ADD10C,0.150000*%
G04 #@! TD*
%ADD11C,0.150000*%
G04 #@! TA.AperFunction,Profile*
%ADD12C,0.100000*%
G04 #@! TD*
G04 APERTURE END LIST*
D10*
X212250000Y-48250000D02*
X177500000Y-48250000D01*
X197500000Y-153000000D02*
G75*
G02*
X194500000Y-153000000I-1500000J1500001D01*
G01*
X130000000Y-126500000D02*
X138000000Y-126513794D01*
X221500000Y-126000000D02*
G75*
G02*
X221500000Y-129000000I-1500000J-1500000D01*
G01*
X216999981Y-53000000D02*
X217000000Y-116000000D01*
D11*
X130000000Y-126500000D02*
X128036604Y-126499986D01*
X127076343Y-126499952D01*
X126130234Y-126499886D01*
X125198172Y-126499776D01*
X124280054Y-126499614D01*
X123375775Y-126499387D01*
X122928792Y-126499246D01*
X122485229Y-126499084D01*
X122045075Y-126498902D01*
X121608314Y-126498696D01*
X121174935Y-126498467D01*
X120744925Y-126498212D01*
X120318269Y-126497930D01*
X119894956Y-126497620D01*
X119474972Y-126497280D01*
X119058304Y-126496910D01*
X118644939Y-126496508D01*
X118234864Y-126496071D01*
X117828066Y-126495601D01*
X117424532Y-126495093D01*
X117024249Y-126494549D01*
X116627203Y-126493965D01*
X116233382Y-126493341D01*
X115842773Y-126492676D01*
X115455363Y-126491967D01*
X115071138Y-126491215D01*
X114690086Y-126490417D01*
X114312193Y-126489572D01*
X113937446Y-126488678D01*
X113565833Y-126487735D01*
X113197341Y-126486741D01*
X112831955Y-126485695D01*
X112469664Y-126484595D01*
X112110453Y-126483440D01*
X111754311Y-126482229D01*
X111401224Y-126480960D01*
X111051179Y-126479632D01*
X110704163Y-126478244D01*
X110360163Y-126476794D01*
X110019165Y-126475281D01*
X109681157Y-126473703D01*
X109513271Y-126472890D01*
X109346126Y-126472060D01*
X109179723Y-126471214D01*
X109014059Y-126470350D01*
X108849133Y-126469470D01*
X108684942Y-126468572D01*
X108521486Y-126467656D01*
X108358763Y-126466723D01*
X108196771Y-126465773D01*
X108035508Y-126464804D01*
X107874974Y-126463817D01*
X107715165Y-126462812D01*
X107556081Y-126461789D01*
X107397720Y-126460747D01*
X107240081Y-126459686D01*
X107083161Y-126458606D01*
X106926959Y-126457507D01*
X106771474Y-126456389D01*
X106616703Y-126455251D01*
X106462646Y-126454094D01*
X106309300Y-126452917D01*
X106156664Y-126451720D01*
X106004736Y-126450503D01*
X105853515Y-126449266D01*
X105702999Y-126448008D01*
X105553187Y-126446730D01*
X105404076Y-126445430D01*
X105255665Y-126444110D01*
X105107953Y-126442769D01*
X104960938Y-126441406D01*
X104814617Y-126440022D01*
X104668991Y-126438617D01*
X104524056Y-126437189D01*
X104379812Y-126435740D01*
X104236256Y-126434268D01*
X104093388Y-126432774D01*
X103951205Y-126431258D01*
X103809706Y-126429719D01*
X103668889Y-126428157D01*
X103528752Y-126426573D01*
X103389295Y-126424965D01*
X103250514Y-126423334D01*
X103112410Y-126421679D01*
X102974979Y-126420001D01*
X102838221Y-126418299D01*
X102702133Y-126416573D01*
X102566715Y-126414822D01*
X102431964Y-126413048D01*
X102297879Y-126411249D01*
X102164458Y-126409425D01*
X102031700Y-126407577D01*
X101899603Y-126405704D01*
X101768165Y-126403805D01*
X101637384Y-126401881D01*
X101507260Y-126399932D01*
X101377791Y-126397957D01*
X101248974Y-126395956D01*
X101120808Y-126393929D01*
X100993292Y-126391876D01*
X100866423Y-126389797D01*
X100740201Y-126387691D01*
X100614624Y-126385559D01*
X100489690Y-126383400D01*
X100365397Y-126381214D01*
X100241743Y-126379000D01*
X100118728Y-126376760D01*
X99996350Y-126374491D01*
X99874606Y-126372196D01*
X99753496Y-126369872D01*
X99633017Y-126367520D01*
X99513168Y-126365141D01*
X99393947Y-126362732D01*
X99275353Y-126360296D01*
X99157384Y-126357830D01*
X99040039Y-126355336D01*
X98923315Y-126352813D01*
X98807212Y-126350261D01*
X98691727Y-126347679D01*
X98576859Y-126345068D01*
X98462606Y-126342427D01*
X98348967Y-126339756D01*
X98235940Y-126337056D01*
X98123523Y-126334325D01*
X98011715Y-126331564D01*
X97900514Y-126328772D01*
X97789919Y-126325950D01*
X97679927Y-126323096D01*
X97570538Y-126320212D01*
X97461749Y-126317297D01*
X97353560Y-126314350D01*
X97245967Y-126311372D01*
X97138971Y-126308362D01*
X97032568Y-126305320D01*
X96926758Y-126302246D01*
X96821538Y-126299140D01*
X96716908Y-126296002D01*
X96612865Y-126292831D01*
X96509409Y-126289627D01*
X96406536Y-126286391D01*
X96304246Y-126283121D01*
X96202537Y-126279819D01*
X96101408Y-126276483D01*
X96000856Y-126273113D01*
X95900881Y-126269710D01*
X95801480Y-126266273D01*
X95702651Y-126262802D01*
X95604394Y-126259296D01*
X95506707Y-126255756D01*
X95409587Y-126252182D01*
X95313034Y-126248573D01*
X95217046Y-126244929D01*
X95121620Y-126241251D01*
X95026756Y-126237537D01*
X94932452Y-126233787D01*
X94838706Y-126230002D01*
X94745516Y-126226182D01*
X94652882Y-126222325D01*
X94560801Y-126218432D01*
X94469271Y-126214504D01*
X94378291Y-126210538D01*
X94287860Y-126206537D01*
X94197975Y-126202498D01*
X94108636Y-126198423D01*
X94019840Y-126194311D01*
X93931586Y-126190161D01*
X93843872Y-126185974D01*
X93756697Y-126181750D01*
X93670058Y-126177487D01*
X93583955Y-126173187D01*
X93498386Y-126168849D01*
X93413349Y-126164473D01*
X93328842Y-126160058D01*
X93244864Y-126155605D01*
X93161413Y-126151113D01*
X93078488Y-126146582D01*
X92996086Y-126142012D01*
X92914207Y-126137402D01*
X92832849Y-126132754D01*
X92752009Y-126128066D01*
X92671687Y-126123338D01*
X92591881Y-126118570D01*
X92512589Y-126113762D01*
X92433809Y-126108914D01*
X92355540Y-126104025D01*
X92277780Y-126099096D01*
X92200528Y-126094126D01*
X92123782Y-126089116D01*
X92047540Y-126084064D01*
X91971801Y-126078971D01*
X91896563Y-126073836D01*
X91821824Y-126068660D01*
X91747583Y-126063443D01*
X91673838Y-126058183D01*
X91600588Y-126052881D01*
X91527831Y-126047537D01*
X91455565Y-126042151D01*
X91383788Y-126036722D01*
X91312500Y-126031250D01*
X91277038Y-126028498D01*
X91241698Y-126025735D01*
X91206479Y-126022962D01*
X91171381Y-126020178D01*
X91136403Y-126017383D01*
X91101547Y-126014577D01*
X91066810Y-126011760D01*
X91032194Y-126008932D01*
X90997698Y-126006094D01*
X90963321Y-126003244D01*
X90929064Y-126000384D01*
X90894926Y-125997513D01*
X90860908Y-125994630D01*
X90827008Y-125991737D01*
X90793228Y-125988832D01*
X90759565Y-125985917D01*
X90726021Y-125982991D01*
X90692596Y-125980053D01*
X90659288Y-125977104D01*
X90626098Y-125974145D01*
X90593025Y-125971174D01*
X90560070Y-125968192D01*
X90527231Y-125965198D01*
X90494510Y-125962194D01*
X90461905Y-125959178D01*
X90429417Y-125956151D01*
X90397045Y-125953113D01*
X90364790Y-125950063D01*
X90332650Y-125947002D01*
X90300625Y-125943930D01*
X90268717Y-125940847D01*
X90236923Y-125937752D01*
X90205245Y-125934645D01*
X90173681Y-125931528D01*
X90142232Y-125928398D01*
X90110898Y-125925258D01*
X90079678Y-125922106D01*
X90048572Y-125918942D01*
X90017579Y-125915767D01*
X89986701Y-125912580D01*
X89955936Y-125909382D01*
X89925284Y-125906172D01*
X89894745Y-125902950D01*
X89864319Y-125899717D01*
X89834005Y-125896473D01*
X89803804Y-125893216D01*
X89773715Y-125889948D01*
X89743738Y-125886668D01*
X89713873Y-125883377D01*
X89684120Y-125880073D01*
X89654478Y-125876758D01*
X89624947Y-125873431D01*
X89595527Y-125870093D01*
X89566218Y-125866742D01*
X89537019Y-125863380D01*
X89507931Y-125860005D01*
X89478953Y-125856619D01*
X89450085Y-125853221D01*
X89421327Y-125849811D01*
X89392678Y-125846389D01*
X89364139Y-125842955D01*
X89335709Y-125839509D01*
X89307387Y-125836051D01*
X89279175Y-125832581D01*
X89251071Y-125829098D01*
X89223075Y-125825604D01*
X89195188Y-125822098D01*
X89167408Y-125818579D01*
X89139736Y-125815049D01*
X89112172Y-125811506D01*
X89084715Y-125807951D01*
X89057365Y-125804383D01*
X89030122Y-125800804D01*
X89002986Y-125797212D01*
X88975956Y-125793608D01*
X88949033Y-125789992D01*
X88922215Y-125786363D01*
X88895504Y-125782722D01*
X88868898Y-125779069D01*
X88842398Y-125775403D01*
X88816003Y-125771725D01*
X88789713Y-125768034D01*
X88763528Y-125764331D01*
X88737447Y-125760616D01*
X88711471Y-125756888D01*
X88685599Y-125753147D01*
X88659832Y-125749394D01*
X88634168Y-125745629D01*
X88608608Y-125741851D01*
X88583151Y-125738060D01*
X88557797Y-125734256D01*
X88532547Y-125730440D01*
X88507399Y-125726612D01*
X88482354Y-125722771D01*
X88457412Y-125718916D01*
X88432571Y-125715050D01*
X88407833Y-125711170D01*
X88383196Y-125707278D01*
X88358662Y-125703373D01*
X88334228Y-125699455D01*
X88309896Y-125695525D01*
X88285664Y-125691581D01*
X88261534Y-125687625D01*
X88237504Y-125683655D01*
X88213574Y-125679673D01*
X88189745Y-125675678D01*
X88166015Y-125671670D01*
X88142386Y-125667649D01*
X88118856Y-125663615D01*
X88095425Y-125659568D01*
X88072093Y-125655508D01*
X88048861Y-125651435D01*
X88025727Y-125647349D01*
X88002691Y-125643249D01*
X87979754Y-125639137D01*
X87956915Y-125635012D01*
X87934175Y-125630873D01*
X87911531Y-125626721D01*
X87888986Y-125622556D01*
X87866537Y-125618378D01*
X87844186Y-125614186D01*
X87821932Y-125609981D01*
X87799774Y-125605763D01*
X87777713Y-125601532D01*
X87755748Y-125597287D01*
X87733880Y-125593029D01*
X87712107Y-125588757D01*
X87690430Y-125584473D01*
X87668848Y-125580174D01*
X87647362Y-125575863D01*
X87625970Y-125571538D01*
X87604674Y-125567199D01*
X87583472Y-125562847D01*
X87562365Y-125558481D01*
X87541352Y-125554102D01*
X87520433Y-125549709D01*
X87499608Y-125545303D01*
X87478877Y-125540883D01*
X87458239Y-125536450D01*
X87437694Y-125532003D01*
X87417242Y-125527542D01*
X87396883Y-125523067D01*
X87376617Y-125518579D01*
X87356443Y-125514077D01*
X87336362Y-125509562D01*
X87316372Y-125505032D01*
X87296475Y-125500489D01*
X87276668Y-125495932D01*
X87256954Y-125491361D01*
X87237330Y-125486776D01*
X87217798Y-125482178D01*
X87198356Y-125477565D01*
X87179005Y-125472939D01*
X87159744Y-125468298D01*
X87140573Y-125463644D01*
X87121493Y-125458976D01*
X87102502Y-125454294D01*
X87083601Y-125449597D01*
X87064789Y-125444887D01*
X87046066Y-125440163D01*
X87027433Y-125435424D01*
X87008888Y-125430672D01*
X86990431Y-125425905D01*
X86972063Y-125421124D01*
X86953783Y-125416329D01*
X86935591Y-125411520D01*
X86917487Y-125406697D01*
X86899470Y-125401859D01*
X86881541Y-125397007D01*
X86863698Y-125392141D01*
X86845943Y-125387260D01*
X86828274Y-125382366D01*
X86810692Y-125377457D01*
X86793196Y-125372533D01*
X86775787Y-125367595D01*
X86758463Y-125362643D01*
X86741225Y-125357677D01*
X86724072Y-125352696D01*
X86707005Y-125347700D01*
X86690023Y-125342690D01*
X86673125Y-125337666D01*
X86656312Y-125332627D01*
X86639584Y-125327573D01*
X86622940Y-125322505D01*
X86606380Y-125317422D01*
X86589904Y-125312325D01*
X86573512Y-125307213D01*
X86557203Y-125302086D01*
X86540977Y-125296945D01*
X86524835Y-125291789D01*
X86508775Y-125286618D01*
X86492798Y-125281433D01*
X86476903Y-125276233D01*
X86461091Y-125271018D01*
X86445360Y-125265788D01*
X86429712Y-125260544D01*
X86414145Y-125255284D01*
X86398659Y-125250010D01*
X86383255Y-125244721D01*
X86367931Y-125239417D01*
X86352689Y-125234098D01*
X86337527Y-125228764D01*
X86322445Y-125223416D01*
X86307444Y-125218052D01*
X86292522Y-125212673D01*
X86277680Y-125207279D01*
X86262918Y-125201870D01*
X86248236Y-125196446D01*
X86233632Y-125191007D01*
X86219108Y-125185553D01*
X86204662Y-125180084D01*
X86190295Y-125174600D01*
X86176006Y-125169100D01*
X86161795Y-125163585D01*
X86147662Y-125158055D01*
X86133607Y-125152510D01*
X86119630Y-125146950D01*
X86105729Y-125141374D01*
X86091906Y-125135783D01*
X86078160Y-125130176D01*
X86064491Y-125124555D01*
X86050898Y-125118918D01*
X86037381Y-125113265D01*
X86023941Y-125107597D01*
X86010576Y-125101914D01*
X85997288Y-125096215D01*
X85984074Y-125090501D01*
X85970936Y-125084772D01*
X85957873Y-125079026D01*
X85944885Y-125073266D01*
X85931972Y-125067489D01*
X85919133Y-125061698D01*
X85906368Y-125055890D01*
X85893678Y-125050067D01*
X85881061Y-125044229D01*
X85868518Y-125038374D01*
X85856048Y-125032504D01*
X85843652Y-125026619D01*
X85831329Y-125020717D01*
X85819078Y-125014800D01*
X85806901Y-125008867D01*
X85794795Y-125002919D01*
X85782762Y-124996954D01*
X85770801Y-124990974D01*
X85758912Y-124984978D01*
X85747094Y-124978966D01*
X85735348Y-124972938D01*
X85723673Y-124966894D01*
X85712069Y-124960834D01*
X85700536Y-124954759D01*
X85689073Y-124948667D01*
X85677681Y-124942559D01*
X85666359Y-124936436D01*
X85655107Y-124930296D01*
X85643925Y-124924141D01*
X85632813Y-124917969D01*
X85621769Y-124911781D01*
X85610795Y-124905577D01*
X85599890Y-124899357D01*
X85589054Y-124893121D01*
X85578286Y-124886868D01*
X85567587Y-124880599D01*
X85556955Y-124874315D01*
X85546392Y-124868014D01*
X85535897Y-124861696D01*
X85525469Y-124855362D01*
X85515108Y-124849013D01*
X85504815Y-124842646D01*
X85494588Y-124836264D01*
X85484428Y-124829865D01*
X85474335Y-124823449D01*
X85464308Y-124817018D01*
X85454347Y-124810569D01*
X85444452Y-124804105D01*
X85434623Y-124797624D01*
X85424859Y-124791126D01*
X85415160Y-124784612D01*
X85405527Y-124778081D01*
X85395959Y-124771534D01*
X85386455Y-124764970D01*
X85377016Y-124758390D01*
X85367641Y-124751793D01*
X85358330Y-124745179D01*
X85349082Y-124738549D01*
X85339899Y-124731902D01*
X85330779Y-124725238D01*
X85321722Y-124718558D01*
X85312729Y-124711861D01*
X85303798Y-124705147D01*
X85294930Y-124698416D01*
X85286124Y-124691669D01*
X85277381Y-124684904D01*
X85268700Y-124678123D01*
X85260080Y-124671325D01*
X85251522Y-124664510D01*
X85243026Y-124657678D01*
X85234590Y-124650829D01*
X85226216Y-124643964D01*
X85217903Y-124637081D01*
X85209650Y-124630181D01*
X85201457Y-124623265D01*
X85193325Y-124616331D01*
X85185253Y-124609380D01*
X85177240Y-124602412D01*
X85169288Y-124595427D01*
X85161394Y-124588425D01*
X85153560Y-124581406D01*
X85145784Y-124574370D01*
X85138068Y-124567316D01*
X85130410Y-124560245D01*
X85122810Y-124553157D01*
X85115269Y-124546052D01*
X85107785Y-124538929D01*
X85100360Y-124531790D01*
X85092992Y-124524632D01*
X85085681Y-124517458D01*
X85078427Y-124510266D01*
X85071230Y-124503057D01*
X85064090Y-124495830D01*
X85057007Y-124488586D01*
X85049980Y-124481325D01*
X85043009Y-124474046D01*
X85036094Y-124466750D01*
X85029234Y-124459436D01*
X85022430Y-124452105D01*
X85015682Y-124444756D01*
X85008988Y-124437389D01*
X85002350Y-124430005D01*
X84995766Y-124422604D01*
X84989236Y-124415184D01*
X84982761Y-124407747D01*
X84976340Y-124400293D01*
X84969973Y-124392821D01*
X84963660Y-124385331D01*
X84957400Y-124377823D01*
X84951193Y-124370297D01*
X84945039Y-124362754D01*
X84938938Y-124355193D01*
X84932890Y-124347614D01*
X84926895Y-124340018D01*
X84920951Y-124332403D01*
X84915060Y-124324771D01*
X84909220Y-124317121D01*
X84903432Y-124309452D01*
X84897696Y-124301766D01*
X84892010Y-124294062D01*
X84886376Y-124286340D01*
X84880793Y-124278600D01*
X84875260Y-124270842D01*
X84869777Y-124263066D01*
X84864345Y-124255272D01*
X84858963Y-124247459D01*
X84853631Y-124239629D01*
X84848348Y-124231781D01*
X84843114Y-124223914D01*
X84837930Y-124216029D01*
X84832795Y-124208126D01*
X84827708Y-124200205D01*
X84822671Y-124192265D01*
X84817681Y-124184308D01*
X84812740Y-124176332D01*
X84807846Y-124168337D01*
X84803001Y-124160325D01*
X84798203Y-124152294D01*
X84793452Y-124144245D01*
X84788748Y-124136177D01*
X84784092Y-124128091D01*
X84779482Y-124119987D01*
X84774919Y-124111864D01*
X84770402Y-124103722D01*
X84765931Y-124095562D01*
X84761506Y-124087384D01*
X84757126Y-124079187D01*
X84752793Y-124070972D01*
X84748504Y-124062738D01*
X84744261Y-124054485D01*
X84740063Y-124046214D01*
X84735909Y-124037924D01*
X84731800Y-124029616D01*
X84727735Y-124021289D01*
X84723714Y-124012943D01*
X84719737Y-124004578D01*
X84715804Y-123996195D01*
X84711914Y-123987793D01*
X84708068Y-123979372D01*
X84704264Y-123970933D01*
X84700504Y-123962474D01*
X84696786Y-123953997D01*
X84693110Y-123945501D01*
X84689477Y-123936986D01*
X84685886Y-123928452D01*
X84682337Y-123919899D01*
X84678829Y-123911327D01*
X84675363Y-123902737D01*
X84671938Y-123894127D01*
X84668554Y-123885498D01*
X84665211Y-123876850D01*
X84661908Y-123868184D01*
X84658646Y-123859498D01*
X84655424Y-123850793D01*
X84652242Y-123842069D01*
X84649100Y-123833326D01*
X84645998Y-123824563D01*
X84642935Y-123815782D01*
X84639911Y-123806981D01*
X84636926Y-123798161D01*
X84633980Y-123789322D01*
X84631072Y-123780464D01*
X84628203Y-123771586D01*
X84625372Y-123762689D01*
X84622579Y-123753773D01*
X84619824Y-123744837D01*
X84617106Y-123735882D01*
X84614426Y-123726907D01*
X84611783Y-123717914D01*
X84609177Y-123708900D01*
X84606607Y-123699868D01*
X84604074Y-123690816D01*
X84601578Y-123681744D01*
X84599117Y-123672653D01*
X84596693Y-123663542D01*
X84594304Y-123654412D01*
X84591951Y-123645262D01*
X84589633Y-123636093D01*
X84587350Y-123626904D01*
X84585102Y-123617695D01*
X84582889Y-123608467D01*
X84580710Y-123599219D01*
X84578566Y-123589951D01*
X84576455Y-123580664D01*
X84574379Y-123571357D01*
X84572336Y-123562030D01*
X84570327Y-123552683D01*
X84568351Y-123543317D01*
X84566408Y-123533930D01*
X84564498Y-123524524D01*
X84562621Y-123515098D01*
X84560776Y-123505652D01*
X84558963Y-123496187D01*
X84557183Y-123486701D01*
X84555434Y-123477195D01*
X84553717Y-123467670D01*
X84552031Y-123458124D01*
X84550377Y-123448558D01*
X84548753Y-123438973D01*
X84547161Y-123429367D01*
X84545599Y-123419741D01*
X84544067Y-123410095D01*
X84542566Y-123400429D01*
X84541095Y-123390743D01*
X84539653Y-123381037D01*
X84538242Y-123371310D01*
X84536859Y-123361564D01*
X84535506Y-123351797D01*
X84534182Y-123342009D01*
X84532886Y-123332202D01*
X84531619Y-123322374D01*
X84530381Y-123312526D01*
X84529171Y-123302658D01*
X84527988Y-123292769D01*
X84526834Y-123282860D01*
X84525707Y-123272931D01*
X84524607Y-123262981D01*
X84523535Y-123253011D01*
X84522489Y-123243020D01*
X84521471Y-123233009D01*
X84520478Y-123222977D01*
X84519513Y-123212925D01*
X84518573Y-123202852D01*
X84517659Y-123192759D01*
X84516771Y-123182645D01*
X84515908Y-123172511D01*
X84515071Y-123162355D01*
X84514259Y-123152180D01*
X84513472Y-123141983D01*
X84512710Y-123131766D01*
X84511972Y-123121528D01*
X84511258Y-123111270D01*
X84510569Y-123100991D01*
X84509903Y-123090691D01*
X84509261Y-123080370D01*
X84508643Y-123070028D01*
X84508047Y-123059666D01*
X84507475Y-123049282D01*
X84506926Y-123038878D01*
X84506400Y-123028453D01*
X84505896Y-123018007D01*
X84505414Y-123007540D01*
X84504954Y-122997052D01*
X84504516Y-122986544D01*
X84504100Y-122976014D01*
X84503705Y-122965463D01*
X84503332Y-122954891D01*
X84502979Y-122944298D01*
X84502648Y-122933684D01*
X84502337Y-122923049D01*
X84502046Y-122912393D01*
X84501776Y-122901715D01*
X84501525Y-122891017D01*
X84501295Y-122880297D01*
X84500892Y-122858794D01*
X84500567Y-122837206D01*
X84500316Y-122815532D01*
X84500140Y-122793774D01*
X84500035Y-122771930D01*
X84500000Y-122750000D01*
D10*
X215249999Y-139750000D02*
G75*
G02*
X208241129Y-146741106I-3499999J-3500000D01*
G01*
D11*
X221499999Y-126000000D02*
X221499999Y-126000000D01*
X221315051Y-125815031D01*
X221224478Y-125724408D01*
X221135161Y-125634994D01*
X221047092Y-125546765D01*
X220960261Y-125459696D01*
X220874661Y-125373762D01*
X220832319Y-125331214D01*
X220790282Y-125288940D01*
X220748548Y-125246938D01*
X220707117Y-125205205D01*
X220665986Y-125163738D01*
X220625155Y-125122534D01*
X220584624Y-125081589D01*
X220544390Y-125040900D01*
X220504453Y-125000465D01*
X220464812Y-124960281D01*
X220425466Y-124920344D01*
X220386413Y-124880652D01*
X220347653Y-124841201D01*
X220309184Y-124801988D01*
X220271006Y-124763011D01*
X220233117Y-124724266D01*
X220195516Y-124685750D01*
X220158202Y-124647461D01*
X220121175Y-124609394D01*
X220084432Y-124571548D01*
X220047974Y-124533919D01*
X220011798Y-124496504D01*
X219975904Y-124459299D01*
X219940291Y-124422303D01*
X219904958Y-124385512D01*
X219869903Y-124348923D01*
X219835125Y-124312532D01*
X219800625Y-124276337D01*
X219766399Y-124240335D01*
X219732448Y-124204523D01*
X219698770Y-124168897D01*
X219665364Y-124133455D01*
X219632229Y-124098194D01*
X219599365Y-124063110D01*
X219566769Y-124028201D01*
X219550571Y-124010811D01*
X219534441Y-123993463D01*
X219518377Y-123976158D01*
X219502380Y-123958894D01*
X219486449Y-123941671D01*
X219470584Y-123924490D01*
X219454786Y-123907349D01*
X219439053Y-123890248D01*
X219423387Y-123873187D01*
X219407786Y-123856166D01*
X219392251Y-123839184D01*
X219376781Y-123822240D01*
X219361377Y-123805335D01*
X219346038Y-123788467D01*
X219330764Y-123771637D01*
X219315555Y-123754845D01*
X219300411Y-123738089D01*
X219285332Y-123721369D01*
X219270317Y-123704686D01*
X219255366Y-123688038D01*
X219240480Y-123671426D01*
X219225658Y-123654848D01*
X219210900Y-123638305D01*
X219196206Y-123621796D01*
X219181575Y-123605321D01*
X219167008Y-123588879D01*
X219152505Y-123572470D01*
X219138065Y-123556094D01*
X219123688Y-123539750D01*
X219109374Y-123523437D01*
X219095124Y-123507157D01*
X219080936Y-123490907D01*
X219066810Y-123474688D01*
X219052748Y-123458500D01*
X219038747Y-123442341D01*
X219024809Y-123426212D01*
X219010933Y-123410112D01*
X218997119Y-123394041D01*
X218983367Y-123377998D01*
X218969677Y-123361984D01*
X218956048Y-123345997D01*
X218942481Y-123330037D01*
X218928975Y-123314105D01*
X218915530Y-123298198D01*
X218902147Y-123282318D01*
X218888824Y-123266464D01*
X218875562Y-123250635D01*
X218862361Y-123234831D01*
X218849220Y-123219052D01*
X218836140Y-123203297D01*
X218823120Y-123187566D01*
X218810160Y-123171859D01*
X218797260Y-123156174D01*
X218784420Y-123140512D01*
X218771639Y-123124873D01*
X218758918Y-123109256D01*
X218746257Y-123093660D01*
X218733655Y-123078085D01*
X218721112Y-123062531D01*
X218708628Y-123046998D01*
X218696204Y-123031485D01*
X218683837Y-123015991D01*
X218671530Y-123000517D01*
X218659281Y-122985061D01*
X218647091Y-122969625D01*
X218634958Y-122954206D01*
X218622884Y-122938805D01*
X218610868Y-122923422D01*
X218598910Y-122908056D01*
X218587009Y-122892706D01*
X218575166Y-122877372D01*
X218563380Y-122862055D01*
X218551652Y-122846753D01*
X218539981Y-122831466D01*
X218528367Y-122816194D01*
X218516810Y-122800936D01*
X218505309Y-122785692D01*
X218493866Y-122770462D01*
X218482478Y-122755245D01*
X218471147Y-122740041D01*
X218459873Y-122724849D01*
X218448654Y-122709670D01*
X218437492Y-122694502D01*
X218426385Y-122679345D01*
X218415334Y-122664200D01*
X218404338Y-122649065D01*
X218393398Y-122633940D01*
X218382514Y-122618825D01*
X218371684Y-122603720D01*
X218360910Y-122588623D01*
X218350190Y-122573535D01*
X218339525Y-122558456D01*
X218328915Y-122543384D01*
X218318359Y-122528320D01*
X218307858Y-122513263D01*
X218297410Y-122498213D01*
X218287017Y-122483169D01*
X218276678Y-122468132D01*
X218266393Y-122453100D01*
X218256161Y-122438073D01*
X218245983Y-122423051D01*
X218235859Y-122408033D01*
X218225787Y-122393020D01*
X218215769Y-122378010D01*
X218205804Y-122363004D01*
X218195892Y-122348001D01*
X218186032Y-122333000D01*
X218176225Y-122318001D01*
X218166471Y-122303005D01*
X218156769Y-122288010D01*
X218147119Y-122273015D01*
X218137521Y-122258022D01*
X218127975Y-122243029D01*
X218118481Y-122228036D01*
X218109039Y-122213042D01*
X218099648Y-122198047D01*
X218090308Y-122183052D01*
X218081020Y-122168054D01*
X218071783Y-122153055D01*
X218062597Y-122138054D01*
X218053462Y-122123049D01*
X218044378Y-122108042D01*
X218035344Y-122093031D01*
X218026360Y-122078016D01*
X218017427Y-122062997D01*
X218008545Y-122047974D01*
X217999712Y-122032945D01*
X217990929Y-122017911D01*
X217982196Y-122002871D01*
X217973513Y-121987825D01*
X217964879Y-121972773D01*
X217956295Y-121957713D01*
X217947760Y-121942647D01*
X217939274Y-121927572D01*
X217930837Y-121912490D01*
X217922448Y-121897399D01*
X217914109Y-121882299D01*
X217905818Y-121867191D01*
X217897576Y-121852072D01*
X217889382Y-121836944D01*
X217881236Y-121821805D01*
X217873138Y-121806656D01*
X217865088Y-121791495D01*
X217857086Y-121776323D01*
X217849132Y-121761140D01*
X217841225Y-121745944D01*
X217833365Y-121730735D01*
X217825553Y-121715514D01*
X217817788Y-121700279D01*
X217810070Y-121685030D01*
X217802399Y-121669767D01*
X217794774Y-121654490D01*
X217787196Y-121639198D01*
X217779664Y-121623890D01*
X217772179Y-121608567D01*
X217764740Y-121593228D01*
X217757347Y-121577872D01*
X217750000Y-121562500D01*
X217742698Y-121547110D01*
X217735443Y-121531703D01*
X217728233Y-121516278D01*
X217721068Y-121500835D01*
X217713948Y-121485373D01*
X217706874Y-121469892D01*
X217699844Y-121454392D01*
X217692859Y-121438871D01*
X217685920Y-121423331D01*
X217679024Y-121407770D01*
X217672173Y-121392188D01*
X217665367Y-121376584D01*
X217658604Y-121360959D01*
X217651886Y-121345312D01*
X217645211Y-121329642D01*
X217638580Y-121313949D01*
X217631993Y-121298234D01*
X217625449Y-121282494D01*
X217618949Y-121266731D01*
X217612492Y-121250943D01*
X217606078Y-121235130D01*
X217599707Y-121219292D01*
X217593379Y-121203429D01*
X217587093Y-121187540D01*
X217580850Y-121171624D01*
X217574650Y-121155682D01*
X217568492Y-121139713D01*
X217562375Y-121123717D01*
X217556301Y-121107692D01*
X217550269Y-121091639D01*
X217544279Y-121075558D01*
X217538330Y-121059448D01*
X217532423Y-121043309D01*
X217526557Y-121027140D01*
X217520732Y-121010940D01*
X217514948Y-120994711D01*
X217509206Y-120978450D01*
X217503504Y-120962158D01*
X217497842Y-120945835D01*
X217492222Y-120929480D01*
X217486641Y-120913092D01*
X217481101Y-120896671D01*
X217475602Y-120880218D01*
X217470142Y-120863731D01*
X217464722Y-120847210D01*
X217459342Y-120830654D01*
X217454001Y-120814064D01*
X217448700Y-120797439D01*
X217443438Y-120780779D01*
X217438215Y-120764083D01*
X217433032Y-120747351D01*
X217427887Y-120730582D01*
X217422782Y-120713776D01*
X217417714Y-120696933D01*
X217412686Y-120680052D01*
X217407696Y-120663134D01*
X217402744Y-120646176D01*
X217397830Y-120629180D01*
X217392954Y-120612145D01*
X217388116Y-120595070D01*
X217383316Y-120577955D01*
X217378553Y-120560800D01*
X217373828Y-120543604D01*
X217369141Y-120526367D01*
X217364490Y-120509089D01*
X217359876Y-120491768D01*
X217355300Y-120474406D01*
X217350760Y-120457000D01*
X217346257Y-120439552D01*
X217341790Y-120422061D01*
X217337360Y-120404525D01*
X217332966Y-120386946D01*
X217328608Y-120369322D01*
X217324286Y-120351653D01*
X217320000Y-120333938D01*
X217315750Y-120316178D01*
X217311535Y-120298373D01*
X217307356Y-120280520D01*
X217303212Y-120262621D01*
X217299103Y-120244675D01*
X217295029Y-120226681D01*
X217290990Y-120208639D01*
X217286986Y-120190549D01*
X217283017Y-120172410D01*
X217279082Y-120154222D01*
X217275181Y-120135984D01*
X217271315Y-120117697D01*
X217267483Y-120099359D01*
X217263684Y-120080971D01*
X217259920Y-120062532D01*
X217256189Y-120044042D01*
X217252492Y-120025500D01*
X217248829Y-120006905D01*
X217245198Y-119988258D01*
X217241601Y-119969559D01*
X217238037Y-119950806D01*
X217234506Y-119931999D01*
X217231007Y-119913138D01*
X217227542Y-119894223D01*
X217224108Y-119875253D01*
X217220707Y-119856228D01*
X217217338Y-119837148D01*
X217214002Y-119818011D01*
X217210697Y-119798819D01*
X217207424Y-119779569D01*
X217204183Y-119760263D01*
X217200974Y-119740899D01*
X217197795Y-119721477D01*
X217194648Y-119701997D01*
X217191533Y-119682458D01*
X217188448Y-119662861D01*
X217185394Y-119643204D01*
X217182371Y-119623487D01*
X217179379Y-119603710D01*
X217176417Y-119583873D01*
X217173485Y-119563975D01*
X217170584Y-119544016D01*
X217167713Y-119523995D01*
X217164871Y-119503912D01*
X217162060Y-119483766D01*
X217159278Y-119463558D01*
X217156526Y-119443287D01*
X217153803Y-119422952D01*
X217151109Y-119402554D01*
X217148445Y-119382091D01*
X217145809Y-119361563D01*
X217143203Y-119340971D01*
X217140625Y-119320312D01*
X217138076Y-119299589D01*
X217135555Y-119278798D01*
X217133063Y-119257942D01*
X217130599Y-119237018D01*
X217128162Y-119216027D01*
X217125754Y-119194969D01*
X217123374Y-119173842D01*
X217121021Y-119152647D01*
X217118696Y-119131383D01*
X217116398Y-119110050D01*
X217114128Y-119088647D01*
X217111885Y-119067174D01*
X217109668Y-119045631D01*
X217107479Y-119024017D01*
X217105316Y-119002332D01*
X217103180Y-118980576D01*
X217101070Y-118958747D01*
X217098987Y-118936846D01*
X217096930Y-118914873D01*
X217094899Y-118892827D01*
X217092894Y-118870707D01*
X217090914Y-118848513D01*
X217088960Y-118826246D01*
X217087032Y-118803904D01*
X217085130Y-118781486D01*
X217083252Y-118758994D01*
X217081400Y-118736426D01*
X217079572Y-118713782D01*
X217077770Y-118691061D01*
X217075992Y-118668263D01*
X217074239Y-118645389D01*
X217072510Y-118622436D01*
X217070805Y-118599406D01*
X217069125Y-118576298D01*
X217067469Y-118553110D01*
X217065836Y-118529844D01*
X217064228Y-118506498D01*
X217062643Y-118483072D01*
X217061082Y-118459566D01*
X217059544Y-118435980D01*
X217058029Y-118412312D01*
X217056537Y-118388563D01*
X217055069Y-118364732D01*
X217053623Y-118340820D01*
X217052200Y-118316824D01*
X217050799Y-118292746D01*
X217049421Y-118268584D01*
X217048065Y-118244339D01*
X217046732Y-118220010D01*
X217045420Y-118195596D01*
X217044130Y-118171097D01*
X217042862Y-118146514D01*
X217041616Y-118121844D01*
X217040391Y-118097089D01*
X217039188Y-118072248D01*
X217038006Y-118047319D01*
X217036845Y-118022304D01*
X217035705Y-117997201D01*
X217034585Y-117972011D01*
X217033487Y-117946732D01*
X217032409Y-117921364D01*
X217031351Y-117895908D01*
X217030314Y-117870362D01*
X217029297Y-117844727D01*
X217028300Y-117819001D01*
X217027323Y-117793185D01*
X217026365Y-117767278D01*
X217025427Y-117741279D01*
X217024509Y-117715189D01*
X217023610Y-117689007D01*
X217022730Y-117662733D01*
X217021870Y-117636366D01*
X217021028Y-117609906D01*
X217020205Y-117583352D01*
X217019401Y-117556704D01*
X217018615Y-117529962D01*
X217017848Y-117503125D01*
X217017099Y-117476193D01*
X217016368Y-117449166D01*
X217015656Y-117422043D01*
X217014961Y-117394824D01*
X217014283Y-117367508D01*
X217012982Y-117312585D01*
X217011750Y-117257271D01*
X217010586Y-117201563D01*
X217009489Y-117145458D01*
X217008459Y-117088953D01*
X217007493Y-117032045D01*
X217006592Y-116974731D01*
X217005753Y-116917008D01*
X217004977Y-116858873D01*
X217004261Y-116800323D01*
X217003605Y-116741354D01*
X217003007Y-116681964D01*
X217002468Y-116622150D01*
X217001984Y-116561908D01*
X217001556Y-116501236D01*
X217001183Y-116440130D01*
X217000863Y-116378588D01*
X217000595Y-116316607D01*
X217000378Y-116254183D01*
X217000211Y-116191313D01*
X217000093Y-116127995D01*
X217000023Y-116064225D01*
X217000000Y-116000000D01*
D10*
X84500000Y-55500000D02*
X84500000Y-122750000D01*
X212250000Y-48250000D02*
G75*
G02*
X217000000Y-53000000I0J-4750000D01*
G01*
X203749971Y-146749971D02*
G75*
G02*
X208241129Y-146741106I2250029J-2250029D01*
G01*
X215249998Y-139749999D02*
G75*
G02*
X215250000Y-135249999I2250002J2249999D01*
G01*
X197500000Y-152999999D02*
X203750000Y-146750000D01*
X87961108Y-51783588D02*
G75*
G02*
X170750000Y-46999999I50038892J-147216412D01*
G01*
D11*
X177500000Y-48250000D02*
X177471540Y-48249960D01*
X177442999Y-48249840D01*
X177414376Y-48249640D01*
X177385672Y-48249359D01*
X177356883Y-48248998D01*
X177328010Y-48248556D01*
X177299052Y-48248032D01*
X177270006Y-48247427D01*
X177240873Y-48246741D01*
X177211650Y-48245972D01*
X177182337Y-48245121D01*
X177152932Y-48244187D01*
X177123435Y-48243171D01*
X177093844Y-48242072D01*
X177064157Y-48240889D01*
X177034373Y-48239622D01*
X177004492Y-48238271D01*
X176974511Y-48236835D01*
X176944429Y-48235315D01*
X176914245Y-48233710D01*
X176883958Y-48232019D01*
X176853565Y-48230242D01*
X176823065Y-48228379D01*
X176792457Y-48226430D01*
X176761739Y-48224393D01*
X176730910Y-48222269D01*
X176699967Y-48220057D01*
X176668910Y-48217757D01*
X176637735Y-48215368D01*
X176606442Y-48212890D01*
X176575029Y-48210323D01*
X176543494Y-48207665D01*
X176511834Y-48204917D01*
X176480048Y-48202077D01*
X176448134Y-48199146D01*
X176416089Y-48196123D01*
X176383912Y-48193007D01*
X176351600Y-48189798D01*
X176319151Y-48186494D01*
X176286563Y-48183097D01*
X176253832Y-48179604D01*
X176220958Y-48176016D01*
X176187936Y-48172331D01*
X176154766Y-48168550D01*
X176121442Y-48164671D01*
X176087964Y-48160693D01*
X176054328Y-48156616D01*
X176020532Y-48152439D01*
X175986571Y-48148162D01*
X175952443Y-48143783D01*
X175918145Y-48139302D01*
X175883673Y-48134717D01*
X175849024Y-48130029D01*
X175814194Y-48125235D01*
X175779179Y-48120336D01*
X175743976Y-48115329D01*
X175708580Y-48110215D01*
X175672988Y-48104991D01*
X175637194Y-48099658D01*
X175601195Y-48094213D01*
X175564986Y-48088655D01*
X175528562Y-48082984D01*
X175491917Y-48077198D01*
X175455047Y-48071296D01*
X175417947Y-48065276D01*
X175380609Y-48059136D01*
X175343029Y-48052876D01*
X175305201Y-48046494D01*
X175267116Y-48039987D01*
X175228770Y-48033355D01*
X175190155Y-48026596D01*
X175151262Y-48019707D01*
X175112085Y-48012687D01*
X175072615Y-48005533D01*
X175032844Y-47998243D01*
X174992761Y-47990816D01*
X174952358Y-47983248D01*
X174911625Y-47975537D01*
X174870550Y-47967681D01*
X174829122Y-47959675D01*
X174787330Y-47951519D01*
X174745160Y-47943207D01*
X174702598Y-47934737D01*
X174659631Y-47926105D01*
X174616242Y-47917307D01*
X174572416Y-47908339D01*
X174528134Y-47899197D01*
X174483377Y-47889876D01*
X174438126Y-47880370D01*
X174392357Y-47870674D01*
X174346047Y-47860782D01*
X174299170Y-47850688D01*
X174251699Y-47840384D01*
X174203602Y-47829864D01*
X174154846Y-47819118D01*
X174105394Y-47808137D01*
X174055205Y-47796911D01*
X174004235Y-47785429D01*
X173952434Y-47773679D01*
X173899746Y-47761646D01*
X173846108Y-47749314D01*
X173791450Y-47736667D01*
X173735690Y-47723684D01*
X173678736Y-47710341D01*
X173620481Y-47696612D01*
X173560800Y-47682466D01*
X173499545Y-47667866D01*
X173436538Y-47652767D01*
X173371566Y-47637117D01*
X173304363Y-47620848D01*
X173234594Y-47603877D01*
X173161826Y-47586096D01*
X173085481Y-47567361D01*
X173004754Y-47547470D01*
X172918465Y-47526129D01*
X172824744Y-47502872D01*
X172720286Y-47476873D01*
X172598039Y-47446371D01*
X172435782Y-47405820D01*
X172337757Y-47381317D01*
X172239732Y-47356833D01*
X172141708Y-47332386D01*
X172043683Y-47307994D01*
X171994671Y-47295825D01*
X171945659Y-47283677D01*
X171896646Y-47271551D01*
X171847634Y-47259451D01*
X171798622Y-47247378D01*
X171749609Y-47235336D01*
X171700597Y-47223325D01*
X171651585Y-47211350D01*
X171602572Y-47199411D01*
X171553560Y-47187511D01*
X171504548Y-47175652D01*
X171455535Y-47163838D01*
X171406523Y-47152069D01*
X171357511Y-47140349D01*
X171308498Y-47128679D01*
X171259486Y-47117062D01*
X171210474Y-47105500D01*
X171161462Y-47093996D01*
X171112449Y-47082552D01*
X171063437Y-47071170D01*
X171014425Y-47059852D01*
X170965412Y-47048601D01*
X170916400Y-47037419D01*
X170867388Y-47026308D01*
X170841515Y-47020472D01*
X170815643Y-47014657D01*
X170790191Y-47008958D01*
X170764739Y-47003279D01*
X170750000Y-47000000D01*
D10*
X215250002Y-135249999D02*
X221500000Y-128999999D01*
D11*
X84500000Y-55500000D02*
X84499968Y-55442636D01*
X84499921Y-55401253D01*
X84499853Y-55333978D01*
X84499844Y-55300617D01*
X84499865Y-55267437D01*
X84499926Y-55234436D01*
X84500036Y-55201610D01*
X84500207Y-55168959D01*
X84500446Y-55136479D01*
X84500596Y-55120302D01*
X84500766Y-55104168D01*
X84500958Y-55088075D01*
X84501174Y-55072023D01*
X84501415Y-55056013D01*
X84501683Y-55040043D01*
X84501977Y-55024114D01*
X84502300Y-55008224D01*
X84502652Y-54992375D01*
X84503036Y-54976565D01*
X84503452Y-54960795D01*
X84503902Y-54945064D01*
X84504386Y-54929371D01*
X84504906Y-54913716D01*
X84505463Y-54898100D01*
X84506059Y-54882521D01*
X84506695Y-54866980D01*
X84507371Y-54851477D01*
X84508090Y-54836009D01*
X84508851Y-54820579D01*
X84509658Y-54805185D01*
X84510511Y-54789827D01*
X84511410Y-54774504D01*
X84512358Y-54759217D01*
X84513356Y-54743965D01*
X84514404Y-54728748D01*
X84515505Y-54713565D01*
X84516658Y-54698417D01*
X84517867Y-54683302D01*
X84519131Y-54668221D01*
X84520452Y-54653174D01*
X84521831Y-54638159D01*
X84523270Y-54623177D01*
X84524770Y-54608227D01*
X84526331Y-54593310D01*
X84527956Y-54578424D01*
X84529645Y-54563570D01*
X84531400Y-54548747D01*
X84533222Y-54533955D01*
X84535112Y-54519194D01*
X84537072Y-54504462D01*
X84539102Y-54489761D01*
X84541204Y-54475090D01*
X84543379Y-54460448D01*
X84545628Y-54445835D01*
X84547953Y-54431251D01*
X84549145Y-54423970D01*
X84550355Y-54416696D01*
X84551586Y-54409429D01*
X84552835Y-54402169D01*
X84554105Y-54394915D01*
X84555395Y-54387669D01*
X84556704Y-54380430D01*
X84558034Y-54373198D01*
X84559385Y-54365972D01*
X84560756Y-54358753D01*
X84562148Y-54351541D01*
X84563561Y-54344336D01*
X84564995Y-54337137D01*
X84566450Y-54329945D01*
X84567926Y-54322760D01*
X84569424Y-54315581D01*
X84570944Y-54308409D01*
X84572485Y-54301243D01*
X84574049Y-54294084D01*
X84575635Y-54286931D01*
X84577243Y-54279785D01*
X84578873Y-54272645D01*
X84580526Y-54265511D01*
X84582202Y-54258383D01*
X84583901Y-54251262D01*
X84585622Y-54244147D01*
X84587367Y-54237038D01*
X84589136Y-54229935D01*
X84590928Y-54222838D01*
X84592744Y-54215748D01*
X84594583Y-54208663D01*
X84596447Y-54201584D01*
X84598334Y-54194511D01*
X84600246Y-54187445D01*
X84602183Y-54180384D01*
X84604144Y-54173328D01*
X84606130Y-54166279D01*
X84608141Y-54159235D01*
X84610177Y-54152198D01*
X84612238Y-54145165D01*
X84614324Y-54138139D01*
X84616437Y-54131118D01*
X84618574Y-54124102D01*
X84620738Y-54117092D01*
X84622928Y-54110088D01*
X84625144Y-54103089D01*
X84627386Y-54096096D01*
X84629655Y-54089107D01*
X84631950Y-54082125D01*
X84634272Y-54075147D01*
X84636621Y-54068175D01*
X84638998Y-54061208D01*
X84641401Y-54054246D01*
X84643832Y-54047289D01*
X84646290Y-54040338D01*
X84648777Y-54033391D01*
X84651291Y-54026450D01*
X84653833Y-54019514D01*
X84656403Y-54012582D01*
X84659002Y-54005656D01*
X84661629Y-53998734D01*
X84664284Y-53991817D01*
X84666969Y-53984905D01*
X84669683Y-53977998D01*
X84672425Y-53971096D01*
X84675197Y-53964198D01*
X84677999Y-53957305D01*
X84680829Y-53950416D01*
X84683690Y-53943533D01*
X84686581Y-53936653D01*
X84689501Y-53929779D01*
X84692452Y-53922908D01*
X84695433Y-53916043D01*
X84698445Y-53909181D01*
X84701487Y-53902324D01*
X84704560Y-53895471D01*
X84707665Y-53888623D01*
X84710800Y-53881779D01*
X84713966Y-53874939D01*
X84717164Y-53868103D01*
X84720394Y-53861272D01*
X84723655Y-53854444D01*
X84726948Y-53847621D01*
X84730274Y-53840801D01*
X84733631Y-53833986D01*
X84737021Y-53827175D01*
X84740443Y-53820367D01*
X84743899Y-53813564D01*
X84747386Y-53806764D01*
X84750907Y-53799968D01*
X84754461Y-53793176D01*
X84758049Y-53786387D01*
X84761669Y-53779603D01*
X84765324Y-53772822D01*
X84769012Y-53766044D01*
X84772734Y-53759270D01*
X84776490Y-53752500D01*
X84780280Y-53745733D01*
X84784105Y-53738970D01*
X84787964Y-53732210D01*
X84791858Y-53725454D01*
X84795787Y-53718701D01*
X84799751Y-53711951D01*
X84803750Y-53705204D01*
X84807784Y-53698461D01*
X84811854Y-53691721D01*
X84815959Y-53684984D01*
X84820100Y-53678251D01*
X84824277Y-53671520D01*
X84828490Y-53664793D01*
X84832740Y-53658068D01*
X84837026Y-53651347D01*
X84841348Y-53644628D01*
X84845707Y-53637912D01*
X84850103Y-53631200D01*
X84854536Y-53624490D01*
X84859006Y-53617783D01*
X84863513Y-53611078D01*
X84868058Y-53604377D01*
X84872640Y-53597678D01*
X84877260Y-53590982D01*
X84881919Y-53584288D01*
X84886615Y-53577597D01*
X84891349Y-53570908D01*
X84896122Y-53564222D01*
X84900934Y-53557539D01*
X84905784Y-53550858D01*
X84910673Y-53544179D01*
X84915601Y-53537503D01*
X84920569Y-53530829D01*
X84925575Y-53524157D01*
X84930621Y-53517488D01*
X84935707Y-53510820D01*
X84940833Y-53504155D01*
X84945998Y-53497492D01*
X84951204Y-53490831D01*
X84956449Y-53484173D01*
X84961736Y-53477516D01*
X84967063Y-53470861D01*
X84972430Y-53464208D01*
X84977839Y-53457557D01*
X84983288Y-53450908D01*
X84988779Y-53444261D01*
X84994311Y-53437615D01*
X84999884Y-53430972D01*
X85005500Y-53424330D01*
X85011157Y-53417689D01*
X85016856Y-53411051D01*
X85022597Y-53404414D01*
X85028380Y-53397778D01*
X85034206Y-53391144D01*
X85040074Y-53384512D01*
X85045985Y-53377881D01*
X85051939Y-53371251D01*
X85057936Y-53364623D01*
X85063977Y-53357997D01*
X85070060Y-53351371D01*
X85076187Y-53344747D01*
X85082358Y-53338124D01*
X85088573Y-53331502D01*
X85094831Y-53324882D01*
X85101134Y-53318262D01*
X85107481Y-53311644D01*
X85113872Y-53305026D01*
X85120308Y-53298410D01*
X85126789Y-53291795D01*
X85133315Y-53285180D01*
X85139886Y-53278567D01*
X85146502Y-53271954D01*
X85153163Y-53265342D01*
X85159870Y-53258731D01*
X85166623Y-53252121D01*
X85173421Y-53245512D01*
X85180265Y-53238903D01*
X85187156Y-53232295D01*
X85194093Y-53225687D01*
X85201076Y-53219080D01*
X85208106Y-53212473D01*
X85215183Y-53205867D01*
X85222306Y-53199262D01*
X85229477Y-53192657D01*
X85236695Y-53186052D01*
X85243960Y-53179448D01*
X85251273Y-53172843D01*
X85258633Y-53166240D01*
X85266041Y-53159636D01*
X85273498Y-53153033D01*
X85281002Y-53146429D01*
X85288555Y-53139826D01*
X85296156Y-53133223D01*
X85303806Y-53126620D01*
X85311505Y-53120017D01*
X85319253Y-53113414D01*
X85327049Y-53106811D01*
X85334895Y-53100208D01*
X85342790Y-53093604D01*
X85350735Y-53087001D01*
X85358730Y-53080397D01*
X85366774Y-53073793D01*
X85374869Y-53067189D01*
X85383013Y-53060584D01*
X85391208Y-53053979D01*
X85399454Y-53047374D01*
X85407750Y-53040768D01*
X85416097Y-53034162D01*
X85424494Y-53027555D01*
X85432943Y-53020948D01*
X85441444Y-53014340D01*
X85449995Y-53007731D01*
X85458598Y-53001122D01*
X85467253Y-52994512D01*
X85475960Y-52987901D01*
X85484718Y-52981290D01*
X85493529Y-52974678D01*
X85502393Y-52968064D01*
X85511308Y-52961450D01*
X85520277Y-52954835D01*
X85529298Y-52948220D01*
X85538372Y-52941603D01*
X85547499Y-52934985D01*
X85556680Y-52928366D01*
X85565914Y-52921746D01*
X85575201Y-52915124D01*
X85584542Y-52908502D01*
X85593938Y-52901878D01*
X85603387Y-52895253D01*
X85612890Y-52888627D01*
X85622448Y-52882000D01*
X85632060Y-52875371D01*
X85641727Y-52868740D01*
X85651449Y-52862108D01*
X85661225Y-52855475D01*
X85671057Y-52848840D01*
X85680944Y-52842204D01*
X85690887Y-52835566D01*
X85700885Y-52828927D01*
X85710938Y-52822285D01*
X85721048Y-52815642D01*
X85731214Y-52808998D01*
X85741436Y-52802351D01*
X85751714Y-52795703D01*
X85762049Y-52789053D01*
X85772441Y-52782401D01*
X85782889Y-52775747D01*
X85793394Y-52769091D01*
X85803957Y-52762433D01*
X85814576Y-52755773D01*
X85825254Y-52749111D01*
X85835988Y-52742446D01*
X85846781Y-52735780D01*
X85857631Y-52729111D01*
X85868540Y-52722441D01*
X85879507Y-52715768D01*
X85890532Y-52709092D01*
X85901615Y-52702414D01*
X85912758Y-52695734D01*
X85923959Y-52689052D01*
X85935219Y-52682367D01*
X85946538Y-52675679D01*
X85957917Y-52668990D01*
X85969355Y-52662297D01*
X85980853Y-52655602D01*
X85992410Y-52648904D01*
X86004028Y-52642204D01*
X86015705Y-52635500D01*
X86027443Y-52628794D01*
X86039241Y-52622086D01*
X86051099Y-52615374D01*
X86063019Y-52608660D01*
X86074999Y-52601943D01*
X86087040Y-52595222D01*
X86099142Y-52588499D01*
X86111306Y-52581773D01*
X86123531Y-52575044D01*
X86135818Y-52568311D01*
X86148166Y-52561576D01*
X86160577Y-52554837D01*
X86173049Y-52548095D01*
X86185584Y-52541350D01*
X86198181Y-52534602D01*
X86210841Y-52527850D01*
X86223563Y-52521095D01*
X86236348Y-52514336D01*
X86249197Y-52507575D01*
X86262108Y-52500809D01*
X86275083Y-52494041D01*
X86288121Y-52487268D01*
X86301223Y-52480492D01*
X86314389Y-52473713D01*
X86327619Y-52466930D01*
X86340912Y-52460143D01*
X86354270Y-52453352D01*
X86367693Y-52446558D01*
X86381180Y-52439760D01*
X86394732Y-52432958D01*
X86408348Y-52426152D01*
X86422030Y-52419342D01*
X86435777Y-52412528D01*
X86449589Y-52405711D01*
X86463466Y-52398889D01*
X86477410Y-52392063D01*
X86491419Y-52385233D01*
X86505494Y-52378399D01*
X86519635Y-52371561D01*
X86533842Y-52364719D01*
X86548116Y-52357872D01*
X86562457Y-52351021D01*
X86576864Y-52344166D01*
X86591338Y-52337307D01*
X86605879Y-52330443D01*
X86620487Y-52323574D01*
X86635163Y-52316702D01*
X86649906Y-52309824D01*
X86664717Y-52302942D01*
X86679596Y-52296056D01*
X86694542Y-52289165D01*
X86709557Y-52282269D01*
X86724640Y-52275368D01*
X86739791Y-52268463D01*
X86755011Y-52261553D01*
X86770300Y-52254639D01*
X86785658Y-52247719D01*
X86801085Y-52240795D01*
X86816581Y-52233865D01*
X86832146Y-52226931D01*
X86847781Y-52219992D01*
X86863485Y-52213047D01*
X86879260Y-52206098D01*
X86895104Y-52199143D01*
X86911018Y-52192184D01*
X86927003Y-52185219D01*
X86943058Y-52178249D01*
X86959184Y-52171273D01*
X86975381Y-52164293D01*
X86991648Y-52157307D01*
X87007987Y-52150316D01*
X87024396Y-52143319D01*
X87040878Y-52136317D01*
X87057430Y-52129309D01*
X87074055Y-52122296D01*
X87090751Y-52115278D01*
X87107519Y-52108253D01*
X87124359Y-52101223D01*
X87141272Y-52094188D01*
X87158257Y-52087147D01*
X87175315Y-52080100D01*
X87192445Y-52073047D01*
X87209649Y-52065989D01*
X87226925Y-52058924D01*
X87244275Y-52051854D01*
X87261698Y-52044778D01*
X87279195Y-52037696D01*
X87296765Y-52030607D01*
X87314409Y-52023513D01*
X87332128Y-52016413D01*
X87349920Y-52009307D01*
X87367787Y-52002194D01*
X87385728Y-51995075D01*
X87403744Y-51987950D01*
X87421834Y-51980819D01*
X87440000Y-51973682D01*
X87458240Y-51966538D01*
X87476556Y-51959388D01*
X87494948Y-51952231D01*
X87513414Y-51945068D01*
X87531957Y-51937899D01*
X87550575Y-51930723D01*
X87569270Y-51923540D01*
X87588040Y-51916351D01*
X87606887Y-51909155D01*
X87625811Y-51901953D01*
X87644811Y-51894743D01*
X87663888Y-51887527D01*
X87683041Y-51880305D01*
X87702272Y-51873075D01*
X87721580Y-51865839D01*
X87740966Y-51858596D01*
X87760429Y-51851345D01*
X87779970Y-51844088D01*
X87799589Y-51836824D01*
X87819286Y-51829553D01*
X87839061Y-51822275D01*
X87858914Y-51814989D01*
X87878846Y-51807697D01*
X87898856Y-51800397D01*
X87918945Y-51793090D01*
X87939114Y-51785776D01*
X87959361Y-51778454D01*
D10*
X190000000Y-148500000D02*
X194500000Y-153000000D01*
X138000000Y-126513794D02*
G75*
G02*
X190000000Y-148500000I0J-72486206D01*
G01*
D12*
X92300011Y-68670002D02*
X92300011Y-71670002D01*
X94700011Y-68670002D02*
X93300011Y-68670002D01*
X94700011Y-71670002D02*
X93300011Y-71670002D01*
X95700011Y-71670002D02*
X95700011Y-68670002D01*
X92300011Y-68670002D02*
G75*
G02*
X93300011Y-68670002I500000J0D01*
G01*
X93300011Y-71670002D02*
G75*
G02*
X92300011Y-71670002I-500000J0D01*
G01*
X94700011Y-68670002D02*
G75*
G02*
X95700011Y-68670002I500000J0D01*
G01*
X95700011Y-71670002D02*
G75*
G02*
X94700011Y-71670002I-500000J0D01*
G01*
X168299997Y-53420004D02*
X168299997Y-56420004D01*
X170699997Y-53420004D02*
X169299997Y-53420004D01*
X170699997Y-56420004D02*
X169299997Y-56420004D01*
X171699997Y-56420004D02*
X171699997Y-53420004D01*
X168299997Y-53420004D02*
G75*
G02*
X169299997Y-53420004I500000J0D01*
G01*
X169299997Y-56420004D02*
G75*
G02*
X168299997Y-56420004I-500000J0D01*
G01*
X170699997Y-53420004D02*
G75*
G02*
X171699997Y-53420004I500000J0D01*
G01*
X171699997Y-56420004D02*
G75*
G02*
X170699997Y-56420004I-500000J0D01*
G01*
X111299999Y-53419996D02*
X111299999Y-56419996D01*
X113699999Y-53419996D02*
X112299999Y-53419996D01*
X113699999Y-56419996D02*
X112299999Y-56419996D01*
X114699999Y-56419996D02*
X114699999Y-53419996D01*
X111299999Y-53419996D02*
G75*
G02*
X112299999Y-53419996I500000J0D01*
G01*
X112299999Y-56419996D02*
G75*
G02*
X111299999Y-56419996I-500000J0D01*
G01*
X113699999Y-53419996D02*
G75*
G02*
X114699999Y-53419996I500000J0D01*
G01*
X114699999Y-56419996D02*
G75*
G02*
X113699999Y-56419996I-500000J0D01*
G01*
X130299993Y-85420005D02*
X130299993Y-88420005D01*
X132699993Y-85420005D02*
X131299993Y-85420005D01*
X132699993Y-88420005D02*
X131299993Y-88420005D01*
X133699993Y-88420005D02*
X133699993Y-85420005D01*
X130299993Y-85420005D02*
G75*
G02*
X131299993Y-85420005I500000J0D01*
G01*
X131299993Y-88420005D02*
G75*
G02*
X130299993Y-88420005I-500000J0D01*
G01*
X132699993Y-85420005D02*
G75*
G02*
X133699993Y-85420005I500000J0D01*
G01*
X133699993Y-88420005D02*
G75*
G02*
X132699993Y-88420005I-500000J0D01*
G01*
X130300011Y-47419497D02*
X130300011Y-50419497D01*
X132700011Y-47419497D02*
X131300011Y-47419497D01*
X132700011Y-50419497D02*
X131300011Y-50419497D01*
X133700011Y-50419497D02*
X133700011Y-47419497D01*
X130300011Y-47419497D02*
G75*
G02*
X131300011Y-47419497I500000J0D01*
G01*
X131300011Y-50419497D02*
G75*
G02*
X130300011Y-50419497I-500000J0D01*
G01*
X132700011Y-47419497D02*
G75*
G02*
X133700011Y-47419497I500000J0D01*
G01*
X133700011Y-50419497D02*
G75*
G02*
X132700011Y-50419497I-500000J0D01*
G01*
X136300000Y-110420001D02*
X136300000Y-113420001D01*
X138700000Y-110420001D02*
X137300000Y-110420001D01*
X138700000Y-113420001D02*
X137300000Y-113420001D01*
X139700000Y-113420001D02*
X139700000Y-110420001D01*
X136300000Y-110420001D02*
G75*
G02*
X137300000Y-110420001I500000J0D01*
G01*
X137300000Y-113420001D02*
G75*
G02*
X136300000Y-113420001I-500000J0D01*
G01*
X138700000Y-110420001D02*
G75*
G02*
X139700000Y-110420001I500000J0D01*
G01*
X139700000Y-113420001D02*
G75*
G02*
X138700000Y-113420001I-500000J0D01*
G01*
X168299992Y-72419996D02*
X168299992Y-75419996D01*
X170699992Y-72419996D02*
X169299992Y-72419996D01*
X170699992Y-75419996D02*
X169299992Y-75419996D01*
X171699992Y-75419996D02*
X171699992Y-72419996D01*
X168299992Y-72419996D02*
G75*
G02*
X169299992Y-72419996I500000J0D01*
G01*
X169299992Y-75419996D02*
G75*
G02*
X168299992Y-75419996I-500000J0D01*
G01*
X170699992Y-72419996D02*
G75*
G02*
X171699992Y-72419996I500000J0D01*
G01*
X171699992Y-75419996D02*
G75*
G02*
X170699992Y-75419996I-500000J0D01*
G01*
X199033310Y-138956640D02*
X198043360Y-137966690D01*
X199457574Y-135138263D02*
X197336253Y-137259584D01*
X199740416Y-139663747D02*
X201861737Y-137542426D01*
X201154630Y-136835320D02*
X200164680Y-135845370D01*
X198043360Y-137966690D02*
G75*
G02*
X197336254Y-137259584I-353553J353553D01*
G01*
X199457574Y-135138263D02*
G75*
G02*
X200164681Y-135845371I353553J-353554D01*
G01*
X199740416Y-139663747D02*
G75*
G02*
X199033309Y-138956639I-353553J353554D01*
G01*
X201154630Y-136835320D02*
G75*
G02*
X201861736Y-137542426I353553J-353553D01*
G01*
X180755594Y-121420691D02*
X179255594Y-124018768D01*
X181334055Y-125218768D02*
X180121619Y-124518768D01*
X182200080Y-125718768D02*
X183700080Y-123120691D01*
X182834055Y-122620691D02*
X181621619Y-121920691D01*
X180121619Y-124518768D02*
G75*
G02*
X179255595Y-124018768I-433012J250000D01*
G01*
X180755594Y-121420691D02*
G75*
G02*
X181621620Y-121920691I433013J-250000D01*
G01*
X182200080Y-125718768D02*
G75*
G02*
X181334054Y-125218768I-433013J250000D01*
G01*
X182834055Y-122620691D02*
G75*
G02*
X183700080Y-123120691I433012J-250001D01*
G01*
X130300003Y-66420000D02*
X130300003Y-69420000D01*
X132700003Y-66420000D02*
X131300003Y-66420000D01*
X132700003Y-69420000D02*
X131300003Y-69420000D01*
X133700003Y-69420000D02*
X133700003Y-66420000D01*
X130300003Y-66420000D02*
G75*
G02*
X131300003Y-66420000I500000J0D01*
G01*
X131300003Y-69420000D02*
G75*
G02*
X130300003Y-69420000I-500000J0D01*
G01*
X132700003Y-66420000D02*
G75*
G02*
X133700003Y-66420000I500000J0D01*
G01*
X133700003Y-69420000D02*
G75*
G02*
X132700003Y-69420000I-500000J0D01*
G01*
X190347757Y-104729718D02*
X188847757Y-107327795D01*
X190926218Y-108527795D02*
X189713782Y-107827795D01*
X191792243Y-109027795D02*
X193292243Y-106429718D01*
X192426218Y-105929718D02*
X191213782Y-105229718D01*
X189713782Y-107827795D02*
G75*
G02*
X188847758Y-107327795I-433012J250000D01*
G01*
X190347757Y-104729718D02*
G75*
G02*
X191213783Y-105229718I433013J-250000D01*
G01*
X191792243Y-109027795D02*
G75*
G02*
X190926217Y-108527795I-433013J250000D01*
G01*
X192426218Y-105929718D02*
G75*
G02*
X193292243Y-106429718I433012J-250001D01*
G01*
X92300001Y-106669998D02*
X92300001Y-109669998D01*
X94700001Y-106669998D02*
X93300001Y-106669998D01*
X94700001Y-109669998D02*
X93300001Y-109669998D01*
X95700001Y-109669998D02*
X95700001Y-106669998D01*
X92300001Y-106669998D02*
G75*
G02*
X93300001Y-106669998I500000J0D01*
G01*
X93300001Y-109669998D02*
G75*
G02*
X92300001Y-109669998I-500000J0D01*
G01*
X94700001Y-106669998D02*
G75*
G02*
X95700001Y-106669998I500000J0D01*
G01*
X95700001Y-109669998D02*
G75*
G02*
X94700001Y-109669998I-500000J0D01*
G01*
X159251867Y-112724438D02*
X158475410Y-115622216D01*
X160793632Y-116243381D02*
X159441336Y-115881035D01*
X161570089Y-113345604D02*
X160217793Y-112983257D01*
X161759558Y-116502201D02*
X162536015Y-113604423D01*
X159251867Y-112724438D02*
G75*
G02*
X160217793Y-112983257I482963J-129410D01*
G01*
X159441336Y-115881035D02*
G75*
G02*
X158475410Y-115622216I-482963J129410D01*
G01*
X161570089Y-113345604D02*
G75*
G02*
X162536015Y-113604423I482963J-129409D01*
G01*
X161759558Y-116502201D02*
G75*
G02*
X160793632Y-116243381I-482963J129410D01*
G01*
X149299998Y-91420002D02*
X149299998Y-94420002D01*
X151699998Y-91420002D02*
X150299998Y-91420002D01*
X151699998Y-94420002D02*
X150299998Y-94420002D01*
X152699998Y-94420002D02*
X152699998Y-91420002D01*
X149299998Y-91420002D02*
G75*
G02*
X150299998Y-91420002I500000J0D01*
G01*
X150299998Y-94420002D02*
G75*
G02*
X149299998Y-94420002I-500000J0D01*
G01*
X151699998Y-91420002D02*
G75*
G02*
X152699998Y-91420002I500000J0D01*
G01*
X152699998Y-94420002D02*
G75*
G02*
X151699998Y-94420002I-500000J0D01*
G01*
X168299991Y-91420000D02*
X168299991Y-94420000D01*
X170699991Y-91420000D02*
X169299991Y-91420000D01*
X170699991Y-94420000D02*
X169299991Y-94420000D01*
X171699991Y-94420000D02*
X171699991Y-91420000D01*
X168299991Y-91420000D02*
G75*
G02*
X169299991Y-91420000I500000J0D01*
G01*
X169299991Y-94420000D02*
G75*
G02*
X168299991Y-94420000I-500000J0D01*
G01*
X170699991Y-91420000D02*
G75*
G02*
X171699991Y-91420000I500000J0D01*
G01*
X171699991Y-94420000D02*
G75*
G02*
X170699991Y-94420000I-500000J0D01*
G01*
X149300001Y-72420008D02*
X149300001Y-75420008D01*
X151700001Y-72420008D02*
X150300001Y-72420008D01*
X151700001Y-75420008D02*
X150300001Y-75420008D01*
X152700001Y-75420008D02*
X152700001Y-72420008D01*
X149300001Y-72420008D02*
G75*
G02*
X150300001Y-72420008I500000J0D01*
G01*
X150300001Y-75420008D02*
G75*
G02*
X149300001Y-75420008I-500000J0D01*
G01*
X151700001Y-72420008D02*
G75*
G02*
X152700001Y-72420008I500000J0D01*
G01*
X152700001Y-75420008D02*
G75*
G02*
X151700001Y-75420008I-500000J0D01*
G01*
X149299993Y-53420001D02*
X149299993Y-56420001D01*
X151699993Y-53420001D02*
X150299993Y-53420001D01*
X151699993Y-56420001D02*
X150299993Y-56420001D01*
X152699993Y-56420001D02*
X152699993Y-53420001D01*
X149299993Y-53420001D02*
G75*
G02*
X150299993Y-53420001I500000J0D01*
G01*
X150299993Y-56420001D02*
G75*
G02*
X149299993Y-56420001I-500000J0D01*
G01*
X151699993Y-53420001D02*
G75*
G02*
X152699993Y-53420001I500000J0D01*
G01*
X152699993Y-56420001D02*
G75*
G02*
X151699993Y-56420001I-500000J0D01*
G01*
X212533310Y-125456640D02*
X211543360Y-124466690D01*
X212957574Y-121638263D02*
X210836253Y-123759584D01*
X213240416Y-126163747D02*
X215361737Y-124042426D01*
X214654630Y-123335320D02*
X213664680Y-122345370D01*
X211543360Y-124466690D02*
G75*
G02*
X210836254Y-123759584I-353553J353553D01*
G01*
X212957574Y-121638263D02*
G75*
G02*
X213664681Y-122345371I353553J-353554D01*
G01*
X213240416Y-126163747D02*
G75*
G02*
X212533309Y-125456639I-353553J353554D01*
G01*
X214654630Y-123335320D02*
G75*
G02*
X215361736Y-124042426I353553J-353553D01*
G01*
X111299997Y-72420002D02*
X111299997Y-75420002D01*
X113699997Y-72420002D02*
X112299997Y-72420002D01*
X113699997Y-75420002D02*
X112299997Y-75420002D01*
X114699997Y-75420002D02*
X114699997Y-72420002D01*
X111299997Y-72420002D02*
G75*
G02*
X112299997Y-72420002I500000J0D01*
G01*
X112299997Y-75420002D02*
G75*
G02*
X111299997Y-75420002I-500000J0D01*
G01*
X113699997Y-72420002D02*
G75*
G02*
X114699997Y-72420002I500000J0D01*
G01*
X114699997Y-75420002D02*
G75*
G02*
X113699997Y-75420002I-500000J0D01*
G01*
X92300001Y-87670006D02*
X92300001Y-90670006D01*
X94700001Y-87670006D02*
X93300001Y-87670006D01*
X94700001Y-90670006D02*
X93300001Y-90670006D01*
X95700001Y-90670006D02*
X95700001Y-87670006D01*
X92300001Y-87670006D02*
G75*
G02*
X93300001Y-87670006I500000J0D01*
G01*
X93300001Y-90670006D02*
G75*
G02*
X92300001Y-90670006I-500000J0D01*
G01*
X94700001Y-87670006D02*
G75*
G02*
X95700001Y-87670006I500000J0D01*
G01*
X95700001Y-90670006D02*
G75*
G02*
X94700001Y-90670006I-500000J0D01*
G01*
X111299996Y-91419994D02*
X111299996Y-94419994D01*
X113699996Y-91419994D02*
X112299996Y-91419994D01*
X113699996Y-94419994D02*
X112299996Y-94419994D01*
X114699996Y-94419994D02*
X114699996Y-91419994D01*
X111299996Y-91419994D02*
G75*
G02*
X112299996Y-91419994I500000J0D01*
G01*
X112299996Y-94419994D02*
G75*
G02*
X111299996Y-94419994I-500000J0D01*
G01*
X113699996Y-91419994D02*
G75*
G02*
X114699996Y-91419994I500000J0D01*
G01*
X114699996Y-94419994D02*
G75*
G02*
X113699996Y-94419994I-500000J0D01*
G01*
M02*
