M48
; DRILL file {KiCad 9.0.2} date 2025-09-25T08:39:02+0100
; FORMAT={-:-/ absolute / metric / decimal}
; #@! TF.CreationDate,2025-09-25T08:39:02+01:00
; #@! TF.GenerationSoftware,Kicad,Pcbnew,9.0.2
; #@! TF.FileFunction,NonPlated,1,2,NPTH
FMAT,2
METRIC
; #@! TA.AperFunction,NonPlated,NPTH,ComponentDrill
T1C0.800
; #@! TA.AperFunction,NonPlated,NPTH,ComponentDrill
T2C0.900
; #@! TA.AperFunction,NonPlated,NPTH,ComponentDrill
T3C1.900
; #@! TA.AperFunction,NonPlated,NPTH,ComponentDrill
T4C5.050
%
G90
G05
T1
X164.086Y-132.308
X171.086Y-132.308
T2
X165.396Y-91.984
X165.396Y-91.984
X168.396Y-91.984
X168.396Y-91.984
T4
X71.781Y-88.363
X71.781Y-126.463
X71.781Y-107.413
X90.831Y-76.363
X90.831Y-114.463
X90.831Y-95.413
X109.881Y-70.363
X109.881Y-89.413
X109.881Y-108.463
X116.894Y-134.013
X128.931Y-114.963
X128.931Y-95.913
X128.931Y-76.863
X138.084Y-136.804
X147.981Y-79.363
X147.981Y-98.413
X147.981Y-117.463
X157.831Y-144.983
T3
X66.627Y-88.363G85X66.282Y-88.363
G05
X66.627Y-126.463G85X66.282Y-126.463
G05
X66.627Y-107.413G85X66.282Y-107.413
G05
X77.281Y-88.363G85X76.936Y-88.363
G05
X77.281Y-126.463G85X76.936Y-126.463
G05
X77.281Y-107.413G85X76.936Y-107.413
G05
X85.677Y-76.363G85X85.332Y-76.363
G05
X85.677Y-114.463G85X85.332Y-114.463
G05
X85.677Y-95.413G85X85.332Y-95.413
G05
X96.331Y-76.363G85X95.986Y-76.363
G05
X96.331Y-114.463G85X95.986Y-114.463
G05
X96.331Y-95.413G85X95.986Y-95.413
G05
X104.727Y-70.363G85X104.382Y-70.363
G05
X104.727Y-89.413G85X104.382Y-89.413
G05
X104.727Y-108.463G85X104.382Y-108.463
G05
X111.739Y-134.013G85X111.394Y-134.013
G05
X115.381Y-70.363G85X115.036Y-70.363
G05
X115.381Y-89.413G85X115.036Y-89.413
G05
X115.381Y-108.463G85X115.036Y-108.463
G05
X122.393Y-134.013G85X122.048Y-134.013
G05
X123.777Y-114.963G85X123.432Y-114.963
G05
X123.777Y-95.913G85X123.432Y-95.913
G05
X123.777Y-76.863G85X123.432Y-76.863
G05
X133.106Y-135.47G85X132.772Y-135.38
G05
X134.431Y-114.963G85X134.086Y-114.963
G05
X134.431Y-95.913G85X134.086Y-95.913
G05
X134.431Y-76.863G85X134.086Y-76.863
G05
X142.827Y-79.363G85X142.482Y-79.363
G05
X142.827Y-98.413G85X142.482Y-98.413
G05
X142.827Y-117.463G85X142.482Y-117.463
G05
X143.396Y-138.227G85X143.063Y-138.138
G05
X153.368Y-142.406G85X153.069Y-142.234
G05
X153.481Y-79.363G85X153.136Y-79.363
G05
X153.481Y-98.413G85X153.136Y-98.413
G05
X153.481Y-117.463G85X153.136Y-117.463
G05
X162.594Y-147.733G85X162.295Y-147.56
G05
M30
