G04 #@! TF.GenerationSoftware,KiCad,Pcbnew,9.0.2*
G04 #@! TF.CreationDate,2025-10-01T20:59:55+01:00*
G04 #@! TF.ProjectId,swoopt-soldered,73776f6f-7074-42d7-936f-6c6465726564,0.2.2*
G04 #@! TF.SameCoordinates,Original*
G04 #@! TF.FileFunction,Soldermask,Top*
G04 #@! TF.FilePolarity,Negative*
%FSLAX46Y46*%
G04 Gerber Fmt 4.6, Leading zero omitted, Abs format (unit mm)*
G04 Created by KiCad (PCBNEW 9.0.2) date 2025-10-01 20:59:55*
%MOMM*%
%LPD*%
G01*
G04 APERTURE LIST*
G04 Aperture macros list*
%AMHorizOval*
0 Thick line with rounded ends*
0 $1 width*
0 $2 $3 position (X,Y) of the first rounded end (center of the circle)*
0 $4 $5 position (X,Y) of the second rounded end (center of the circle)*
0 Add line between two ends*
20,1,$1,$2,$3,$4,$5,0*
0 Add two circle primitives to create the rounded ends*
1,1,$1,$2,$3*
1,1,$1,$4,$5*%
%AMRotRect*
0 Rectangle, with rotation*
0 The origin of the aperture is its center*
0 $1 length*
0 $2 width*
0 $3 Rotation angle, in degrees counterclockwise*
0 Add horizontal line*
21,1,$1,$2,0,0,$3*%
%AMFreePoly0*
4,1,6,0.600000,0.200000,0.000000,-0.400000,-0.600000,0.200000,-0.600000,0.400000,0.600000,0.400000,0.600000,0.200000,0.600000,0.200000,$1*%
%AMFreePoly1*
4,1,6,0.600000,-0.250000,-0.600000,-0.250000,-0.600000,1.000000,0.000000,0.400000,0.600000,1.000000,0.600000,-0.250000,0.600000,-0.250000,$1*%
%AMFreePoly2*
4,1,6,0.600000,-0.200000,0.600000,-0.400000,-0.600000,-0.400000,-0.600000,-0.200000,0.000000,0.400000,0.600000,-0.200000,0.600000,-0.200000,$1*%
%AMFreePoly3*
4,1,6,0.600000,-1.000000,0.000000,-0.400000,-0.600000,-1.000000,-0.600000,0.250000,0.600000,0.250000,0.600000,-1.000000,0.600000,-1.000000,$1*%
G04 Aperture macros list end*
%ADD10C,0.625000*%
%ADD11C,0.100000*%
%ADD12C,4.400000*%
%ADD13R,1.600000X1.600000*%
%ADD14C,1.600000*%
%ADD15C,1.700000*%
%ADD16R,0.850000X1.600000*%
%ADD17C,1.900000*%
%ADD18C,2.400000*%
%ADD19C,2.000000*%
%ADD20C,5.050000*%
%ADD21O,1.700000X2.800000*%
%ADD22C,2.300000*%
%ADD23O,2.800000X1.700000*%
%ADD24RotRect,1.600000X1.600000X315.000000*%
%ADD25HorizOval,1.700000X0.275000X0.476314X-0.275000X-0.476314X0*%
%ADD26HorizOval,1.700000X-0.476314X0.275000X0.476314X-0.275000X0*%
%ADD27RotRect,1.600000X1.600000X330.000000*%
%ADD28C,0.900000*%
%ADD29C,8.500000*%
%ADD30RotRect,1.600000X1.600000X52.500000*%
%ADD31C,0.800000*%
%ADD32O,2.200000X1.700000*%
%ADD33HorizOval,1.700000X0.388909X0.388909X-0.388909X-0.388909X0*%
%ADD34HorizOval,1.700000X-0.388909X0.388909X0.388909X-0.388909X0*%
%ADD35RotRect,1.600000X1.600000X82.500000*%
%ADD36FreePoly0,180.000000*%
%ADD37FreePoly1,180.000000*%
%ADD38R,1.600000X0.850000*%
%ADD39HorizOval,1.700000X0.142350X0.531259X-0.142350X-0.531259X0*%
%ADD40HorizOval,1.700000X-0.531259X0.142350X0.531259X-0.142350X0*%
%ADD41O,1.700000X2.200000*%
%ADD42FreePoly2,90.000000*%
%ADD43FreePoly2,270.000000*%
%ADD44FreePoly3,90.000000*%
%ADD45FreePoly3,270.000000*%
G04 APERTURE END LIST*
D10*
X120017387Y-111538200D02*
X121445958Y-111538200D01*
X120731672Y-115538200D02*
X120731672Y-111538200D01*
X122279292Y-115538200D02*
X122279292Y-111538200D01*
X123350720Y-115538200D02*
X123350720Y-113442962D01*
X123350720Y-113442962D02*
X123231673Y-113062009D01*
X123231673Y-113062009D02*
X122993577Y-112871533D01*
X122993577Y-112871533D02*
X122636434Y-112871533D01*
X122636434Y-112871533D02*
X122398339Y-113062009D01*
X122398339Y-113062009D02*
X122279292Y-113252485D01*
X125493578Y-115347724D02*
X125255482Y-115538200D01*
X125255482Y-115538200D02*
X124779292Y-115538200D01*
X124779292Y-115538200D02*
X124541197Y-115347724D01*
X124541197Y-115347724D02*
X124422149Y-114966771D01*
X124422149Y-114966771D02*
X124422149Y-113442962D01*
X124422149Y-113442962D02*
X124541197Y-113062009D01*
X124541197Y-113062009D02*
X124779292Y-112871533D01*
X124779292Y-112871533D02*
X125255482Y-112871533D01*
X125255482Y-112871533D02*
X125493578Y-113062009D01*
X125493578Y-113062009D02*
X125612625Y-113442962D01*
X125612625Y-113442962D02*
X125612625Y-113823914D01*
X125612625Y-113823914D02*
X124422149Y-114204866D01*
X105850720Y-121787500D02*
X106207863Y-121977976D01*
X106207863Y-121977976D02*
X106803101Y-121977976D01*
X106803101Y-121977976D02*
X107041196Y-121787500D01*
X107041196Y-121787500D02*
X107160244Y-121597023D01*
X107160244Y-121597023D02*
X107279291Y-121216071D01*
X107279291Y-121216071D02*
X107279291Y-120835119D01*
X107279291Y-120835119D02*
X107160244Y-120454166D01*
X107160244Y-120454166D02*
X107041196Y-120263690D01*
X107041196Y-120263690D02*
X106803101Y-120073214D01*
X106803101Y-120073214D02*
X106326910Y-119882738D01*
X106326910Y-119882738D02*
X106088815Y-119692261D01*
X106088815Y-119692261D02*
X105969768Y-119501785D01*
X105969768Y-119501785D02*
X105850720Y-119120833D01*
X105850720Y-119120833D02*
X105850720Y-118739880D01*
X105850720Y-118739880D02*
X105969768Y-118358928D01*
X105969768Y-118358928D02*
X106088815Y-118168452D01*
X106088815Y-118168452D02*
X106326910Y-117977976D01*
X106326910Y-117977976D02*
X106922149Y-117977976D01*
X106922149Y-117977976D02*
X107279291Y-118168452D01*
X108112624Y-117977976D02*
X108707862Y-121977976D01*
X108707862Y-121977976D02*
X109184053Y-119120833D01*
X109184053Y-119120833D02*
X109660243Y-121977976D01*
X109660243Y-121977976D02*
X110255482Y-117977976D01*
X111684053Y-117977976D02*
X112160244Y-117977976D01*
X112160244Y-117977976D02*
X112398339Y-118168452D01*
X112398339Y-118168452D02*
X112636434Y-118549404D01*
X112636434Y-118549404D02*
X112755482Y-119311309D01*
X112755482Y-119311309D02*
X112755482Y-120644642D01*
X112755482Y-120644642D02*
X112636434Y-121406547D01*
X112636434Y-121406547D02*
X112398339Y-121787500D01*
X112398339Y-121787500D02*
X112160244Y-121977976D01*
X112160244Y-121977976D02*
X111684053Y-121977976D01*
X111684053Y-121977976D02*
X111445958Y-121787500D01*
X111445958Y-121787500D02*
X111207863Y-121406547D01*
X111207863Y-121406547D02*
X111088815Y-120644642D01*
X111088815Y-120644642D02*
X111088815Y-119311309D01*
X111088815Y-119311309D02*
X111207863Y-118549404D01*
X111207863Y-118549404D02*
X111445958Y-118168452D01*
X111445958Y-118168452D02*
X111684053Y-117977976D01*
X114303101Y-117977976D02*
X114779292Y-117977976D01*
X114779292Y-117977976D02*
X115017387Y-118168452D01*
X115017387Y-118168452D02*
X115255482Y-118549404D01*
X115255482Y-118549404D02*
X115374530Y-119311309D01*
X115374530Y-119311309D02*
X115374530Y-120644642D01*
X115374530Y-120644642D02*
X115255482Y-121406547D01*
X115255482Y-121406547D02*
X115017387Y-121787500D01*
X115017387Y-121787500D02*
X114779292Y-121977976D01*
X114779292Y-121977976D02*
X114303101Y-121977976D01*
X114303101Y-121977976D02*
X114065006Y-121787500D01*
X114065006Y-121787500D02*
X113826911Y-121406547D01*
X113826911Y-121406547D02*
X113707863Y-120644642D01*
X113707863Y-120644642D02*
X113707863Y-119311309D01*
X113707863Y-119311309D02*
X113826911Y-118549404D01*
X113826911Y-118549404D02*
X114065006Y-118168452D01*
X114065006Y-118168452D02*
X114303101Y-117977976D01*
X116445959Y-121977976D02*
X116445959Y-117977976D01*
X116445959Y-117977976D02*
X117398340Y-117977976D01*
X117398340Y-117977976D02*
X117636435Y-118168452D01*
X117636435Y-118168452D02*
X117755482Y-118358928D01*
X117755482Y-118358928D02*
X117874530Y-118739880D01*
X117874530Y-118739880D02*
X117874530Y-119311309D01*
X117874530Y-119311309D02*
X117755482Y-119692261D01*
X117755482Y-119692261D02*
X117636435Y-119882738D01*
X117636435Y-119882738D02*
X117398340Y-120073214D01*
X117398340Y-120073214D02*
X116445959Y-120073214D01*
X118945959Y-121977976D02*
X118945959Y-117977976D01*
X120136435Y-119882738D02*
X120969768Y-119882738D01*
X121326911Y-121977976D02*
X120136435Y-121977976D01*
X120136435Y-121977976D02*
X120136435Y-117977976D01*
X120136435Y-117977976D02*
X121326911Y-117977976D01*
X122279292Y-121787500D02*
X122636435Y-121977976D01*
X122636435Y-121977976D02*
X123231673Y-121977976D01*
X123231673Y-121977976D02*
X123469768Y-121787500D01*
X123469768Y-121787500D02*
X123588816Y-121597023D01*
X123588816Y-121597023D02*
X123707863Y-121216071D01*
X123707863Y-121216071D02*
X123707863Y-120835119D01*
X123707863Y-120835119D02*
X123588816Y-120454166D01*
X123588816Y-120454166D02*
X123469768Y-120263690D01*
X123469768Y-120263690D02*
X123231673Y-120073214D01*
X123231673Y-120073214D02*
X122755482Y-119882738D01*
X122755482Y-119882738D02*
X122517387Y-119692261D01*
X122517387Y-119692261D02*
X122398340Y-119501785D01*
X122398340Y-119501785D02*
X122279292Y-119120833D01*
X122279292Y-119120833D02*
X122279292Y-118739880D01*
X122279292Y-118739880D02*
X122398340Y-118358928D01*
X122398340Y-118358928D02*
X122517387Y-118168452D01*
X122517387Y-118168452D02*
X122755482Y-117977976D01*
X122755482Y-117977976D02*
X123350721Y-117977976D01*
X123350721Y-117977976D02*
X123707863Y-118168452D01*
X124422149Y-117977976D02*
X125850720Y-117977976D01*
X125136434Y-121977976D02*
X125136434Y-117977976D01*
D11*
X92825007Y-102925000D02*
X91625007Y-102925000D01*
X91625007Y-102075000D01*
X92825007Y-102075000D01*
X92825007Y-102925000D01*
G36*
X92825007Y-102925000D02*
G01*
X91625007Y-102925000D01*
X91625007Y-102075000D01*
X92825007Y-102075000D01*
X92825007Y-102925000D01*
G37*
X96375007Y-102925000D02*
X95175007Y-102925000D01*
X95175007Y-102075000D01*
X96375007Y-102075000D01*
X96375007Y-102925000D01*
G36*
X96375007Y-102925000D02*
G01*
X95175007Y-102925000D01*
X95175007Y-102075000D01*
X96375007Y-102075000D01*
X96375007Y-102925000D01*
G37*
X111825000Y-106675000D02*
X110625000Y-106675000D01*
X110625000Y-105825000D01*
X111825000Y-105825000D01*
X111825000Y-106675000D01*
G36*
X111825000Y-106675000D02*
G01*
X110625000Y-106675000D01*
X110625000Y-105825000D01*
X111825000Y-105825000D01*
X111825000Y-106675000D01*
G37*
X115375000Y-106675000D02*
X114175000Y-106675000D01*
X114175000Y-105825000D01*
X115375000Y-105825000D01*
X115375000Y-106675000D01*
G36*
X115375000Y-106675000D02*
G01*
X114175000Y-106675000D01*
X114175000Y-105825000D01*
X115375000Y-105825000D01*
X115375000Y-106675000D01*
G37*
X92050011Y-69710002D02*
X90550011Y-69710002D01*
X90550011Y-68960002D01*
X92050011Y-68960002D01*
X92050011Y-69710002D01*
G36*
X92050011Y-69710002D02*
G01*
X90550011Y-69710002D01*
X90550011Y-68960002D01*
X92050011Y-68960002D01*
X92050011Y-69710002D01*
G37*
X97450011Y-69710002D02*
X95950011Y-69710002D01*
X95950011Y-68960002D01*
X97450011Y-68960002D01*
X97450011Y-69710002D01*
G36*
X97450011Y-69710002D02*
G01*
X95950011Y-69710002D01*
X95950011Y-68960002D01*
X97450011Y-68960002D01*
X97450011Y-69710002D01*
G37*
X97450011Y-71460002D02*
X95950011Y-71460002D01*
X95950011Y-70710002D01*
X97450011Y-70710002D01*
X97450011Y-71460002D01*
G36*
X97450011Y-71460002D02*
G01*
X95950011Y-71460002D01*
X95950011Y-70710002D01*
X97450011Y-70710002D01*
X97450011Y-71460002D01*
G37*
X92050011Y-71460002D02*
X90800011Y-71460002D01*
X90550011Y-71210002D01*
X90550011Y-70710002D01*
X92050011Y-70710002D01*
X92050011Y-71460002D01*
G36*
X92050011Y-71460002D02*
G01*
X90800011Y-71460002D01*
X90550011Y-71210002D01*
X90550011Y-70710002D01*
X92050011Y-70710002D01*
X92050011Y-71460002D01*
G37*
X111825000Y-87675000D02*
X110625000Y-87675000D01*
X110625000Y-86825000D01*
X111825000Y-86825000D01*
X111825000Y-87675000D01*
G36*
X111825000Y-87675000D02*
G01*
X110625000Y-87675000D01*
X110625000Y-86825000D01*
X111825000Y-86825000D01*
X111825000Y-87675000D01*
G37*
X115375000Y-87675000D02*
X114175000Y-87675000D01*
X114175000Y-86825000D01*
X115375000Y-86825000D01*
X115375000Y-87675000D01*
G36*
X115375000Y-87675000D02*
G01*
X114175000Y-87675000D01*
X114175000Y-86825000D01*
X115375000Y-86825000D01*
X115375000Y-87675000D01*
G37*
X168049997Y-54460004D02*
X166549997Y-54460004D01*
X166549997Y-53710004D01*
X168049997Y-53710004D01*
X168049997Y-54460004D01*
G36*
X168049997Y-54460004D02*
G01*
X166549997Y-54460004D01*
X166549997Y-53710004D01*
X168049997Y-53710004D01*
X168049997Y-54460004D01*
G37*
X173449997Y-54460004D02*
X171949997Y-54460004D01*
X171949997Y-53710004D01*
X173449997Y-53710004D01*
X173449997Y-54460004D01*
G36*
X173449997Y-54460004D02*
G01*
X171949997Y-54460004D01*
X171949997Y-53710004D01*
X173449997Y-53710004D01*
X173449997Y-54460004D01*
G37*
X173449997Y-56210004D02*
X171949997Y-56210004D01*
X171949997Y-55460004D01*
X173449997Y-55460004D01*
X173449997Y-56210004D01*
G36*
X173449997Y-56210004D02*
G01*
X171949997Y-56210004D01*
X171949997Y-55460004D01*
X173449997Y-55460004D01*
X173449997Y-56210004D01*
G37*
X168049997Y-56210004D02*
X166799997Y-56210004D01*
X166549997Y-55960004D01*
X166549997Y-55460004D01*
X168049997Y-55460004D01*
X168049997Y-56210004D01*
G36*
X168049997Y-56210004D02*
G01*
X166799997Y-56210004D01*
X166549997Y-55960004D01*
X166549997Y-55460004D01*
X168049997Y-55460004D01*
X168049997Y-56210004D01*
G37*
X130825000Y-62675000D02*
X129625000Y-62675000D01*
X129625000Y-61825000D01*
X130825000Y-61825000D01*
X130825000Y-62675000D01*
G36*
X130825000Y-62675000D02*
G01*
X129625000Y-62675000D01*
X129625000Y-61825000D01*
X130825000Y-61825000D01*
X130825000Y-62675000D01*
G37*
X134375000Y-62675000D02*
X133175000Y-62675000D01*
X133175000Y-61825000D01*
X134375000Y-61825000D01*
X134375000Y-62675000D01*
G36*
X134375000Y-62675000D02*
G01*
X133175000Y-62675000D01*
X133175000Y-61825000D01*
X134375000Y-61825000D01*
X134375000Y-62675000D01*
G37*
X111049999Y-54459996D02*
X109549999Y-54459996D01*
X109549999Y-53709996D01*
X111049999Y-53709996D01*
X111049999Y-54459996D01*
G36*
X111049999Y-54459996D02*
G01*
X109549999Y-54459996D01*
X109549999Y-53709996D01*
X111049999Y-53709996D01*
X111049999Y-54459996D01*
G37*
X116449999Y-54459996D02*
X114949999Y-54459996D01*
X114949999Y-53709996D01*
X116449999Y-53709996D01*
X116449999Y-54459996D01*
G36*
X116449999Y-54459996D02*
G01*
X114949999Y-54459996D01*
X114949999Y-53709996D01*
X116449999Y-53709996D01*
X116449999Y-54459996D01*
G37*
X116449999Y-56209996D02*
X114949999Y-56209996D01*
X114949999Y-55459996D01*
X116449999Y-55459996D01*
X116449999Y-56209996D01*
G36*
X116449999Y-56209996D02*
G01*
X114949999Y-56209996D01*
X114949999Y-55459996D01*
X116449999Y-55459996D01*
X116449999Y-56209996D01*
G37*
X111049999Y-56209996D02*
X109799999Y-56209996D01*
X109549999Y-55959996D01*
X109549999Y-55459996D01*
X111049999Y-55459996D01*
X111049999Y-56209996D01*
G36*
X111049999Y-56209996D02*
G01*
X109799999Y-56209996D01*
X109549999Y-55959996D01*
X109549999Y-55459996D01*
X111049999Y-55459996D01*
X111049999Y-56209996D01*
G37*
X130049993Y-86460005D02*
X128549993Y-86460005D01*
X128549993Y-85710005D01*
X130049993Y-85710005D01*
X130049993Y-86460005D01*
G36*
X130049993Y-86460005D02*
G01*
X128549993Y-86460005D01*
X128549993Y-85710005D01*
X130049993Y-85710005D01*
X130049993Y-86460005D01*
G37*
X135449993Y-86460005D02*
X133949993Y-86460005D01*
X133949993Y-85710005D01*
X135449993Y-85710005D01*
X135449993Y-86460005D01*
G36*
X135449993Y-86460005D02*
G01*
X133949993Y-86460005D01*
X133949993Y-85710005D01*
X135449993Y-85710005D01*
X135449993Y-86460005D01*
G37*
X135449993Y-88210005D02*
X133949993Y-88210005D01*
X133949993Y-87460005D01*
X135449993Y-87460005D01*
X135449993Y-88210005D01*
G36*
X135449993Y-88210005D02*
G01*
X133949993Y-88210005D01*
X133949993Y-87460005D01*
X135449993Y-87460005D01*
X135449993Y-88210005D01*
G37*
X130049993Y-88210005D02*
X128799993Y-88210005D01*
X128549993Y-87960005D01*
X128549993Y-87460005D01*
X130049993Y-87460005D01*
X130049993Y-88210005D01*
G36*
X130049993Y-88210005D02*
G01*
X128799993Y-88210005D01*
X128549993Y-87960005D01*
X128549993Y-87460005D01*
X130049993Y-87460005D01*
X130049993Y-88210005D01*
G37*
X130050011Y-48459497D02*
X128550011Y-48459497D01*
X128550011Y-47709497D01*
X130050011Y-47709497D01*
X130050011Y-48459497D01*
G36*
X130050011Y-48459497D02*
G01*
X128550011Y-48459497D01*
X128550011Y-47709497D01*
X130050011Y-47709497D01*
X130050011Y-48459497D01*
G37*
X135450011Y-48459497D02*
X133950011Y-48459497D01*
X133950011Y-47709497D01*
X135450011Y-47709497D01*
X135450011Y-48459497D01*
G36*
X135450011Y-48459497D02*
G01*
X133950011Y-48459497D01*
X133950011Y-47709497D01*
X135450011Y-47709497D01*
X135450011Y-48459497D01*
G37*
X135450011Y-50209497D02*
X133950011Y-50209497D01*
X133950011Y-49459497D01*
X135450011Y-49459497D01*
X135450011Y-50209497D01*
G36*
X135450011Y-50209497D02*
G01*
X133950011Y-50209497D01*
X133950011Y-49459497D01*
X135450011Y-49459497D01*
X135450011Y-50209497D01*
G37*
X130050011Y-50209497D02*
X128800011Y-50209497D01*
X128550011Y-49959497D01*
X128550011Y-49459497D01*
X130050011Y-49459497D01*
X130050011Y-50209497D01*
G36*
X130050011Y-50209497D02*
G01*
X128800011Y-50209497D01*
X128550011Y-49959497D01*
X128550011Y-49459497D01*
X130050011Y-49459497D01*
X130050011Y-50209497D01*
G37*
X136050000Y-111460001D02*
X134550000Y-111460001D01*
X134550000Y-110710001D01*
X136050000Y-110710001D01*
X136050000Y-111460001D01*
G36*
X136050000Y-111460001D02*
G01*
X134550000Y-111460001D01*
X134550000Y-110710001D01*
X136050000Y-110710001D01*
X136050000Y-111460001D01*
G37*
X141450000Y-111460001D02*
X139950000Y-111460001D01*
X139950000Y-110710001D01*
X141450000Y-110710001D01*
X141450000Y-111460001D01*
G36*
X141450000Y-111460001D02*
G01*
X139950000Y-111460001D01*
X139950000Y-110710001D01*
X141450000Y-110710001D01*
X141450000Y-111460001D01*
G37*
X141450000Y-113210001D02*
X139950000Y-113210001D01*
X139950000Y-112460001D01*
X141450000Y-112460001D01*
X141450000Y-113210001D01*
G36*
X141450000Y-113210001D02*
G01*
X139950000Y-113210001D01*
X139950000Y-112460001D01*
X141450000Y-112460001D01*
X141450000Y-113210001D01*
G37*
X136050000Y-113210001D02*
X134800000Y-113210001D01*
X134550000Y-112960001D01*
X134550000Y-112460001D01*
X136050000Y-112460001D01*
X136050000Y-113210001D01*
G36*
X136050000Y-113210001D02*
G01*
X134800000Y-113210001D01*
X134550000Y-112960001D01*
X134550000Y-112460001D01*
X136050000Y-112460001D01*
X136050000Y-113210001D01*
G37*
X168049992Y-73459996D02*
X166549992Y-73459996D01*
X166549992Y-72709996D01*
X168049992Y-72709996D01*
X168049992Y-73459996D01*
G36*
X168049992Y-73459996D02*
G01*
X166549992Y-73459996D01*
X166549992Y-72709996D01*
X168049992Y-72709996D01*
X168049992Y-73459996D01*
G37*
X173449992Y-73459996D02*
X171949992Y-73459996D01*
X171949992Y-72709996D01*
X173449992Y-72709996D01*
X173449992Y-73459996D01*
G36*
X173449992Y-73459996D02*
G01*
X171949992Y-73459996D01*
X171949992Y-72709996D01*
X173449992Y-72709996D01*
X173449992Y-73459996D01*
G37*
X173449992Y-75209996D02*
X171949992Y-75209996D01*
X171949992Y-74459996D01*
X173449992Y-74459996D01*
X173449992Y-75209996D01*
G36*
X173449992Y-75209996D02*
G01*
X171949992Y-75209996D01*
X171949992Y-74459996D01*
X173449992Y-74459996D01*
X173449992Y-75209996D01*
G37*
X168049992Y-75209996D02*
X166799992Y-75209996D01*
X166549992Y-74959996D01*
X166549992Y-74459996D01*
X168049992Y-74459996D01*
X168049992Y-75209996D01*
G36*
X168049992Y-75209996D02*
G01*
X166799992Y-75209996D01*
X166549992Y-74959996D01*
X166549992Y-74459996D01*
X168049992Y-74459996D01*
X168049992Y-75209996D01*
G37*
X199075736Y-135166548D02*
X198545406Y-135696878D01*
X197484746Y-134636218D01*
X198015076Y-134105887D01*
X199075736Y-135166548D01*
G36*
X199075736Y-135166548D02*
G01*
X198545406Y-135696878D01*
X197484746Y-134636218D01*
X198015076Y-134105887D01*
X199075736Y-135166548D01*
G37*
X201656676Y-140222361D02*
X201126346Y-140752691D01*
X200065685Y-139692031D01*
X200596016Y-139161701D01*
X201656676Y-140222361D01*
G36*
X201656676Y-140222361D02*
G01*
X201126346Y-140752691D01*
X200065685Y-139692031D01*
X200596016Y-139161701D01*
X201656676Y-140222361D01*
G37*
X202894113Y-138984924D02*
X202363782Y-139515254D01*
X201303122Y-138454594D01*
X201833452Y-137924264D01*
X202894113Y-138984924D01*
G36*
X202894113Y-138984924D02*
G01*
X202363782Y-139515254D01*
X201303122Y-138454594D01*
X201833452Y-137924264D01*
X202894113Y-138984924D01*
G37*
X197838299Y-136403984D02*
X197307969Y-136934315D01*
X196424086Y-136050431D01*
X196424086Y-135696878D01*
X196777639Y-135343324D01*
X197838299Y-136403984D01*
G36*
X197838299Y-136403984D02*
G01*
X197307969Y-136934315D01*
X196424086Y-136050431D01*
X196424086Y-135696878D01*
X196777639Y-135343324D01*
X197838299Y-136403984D01*
G37*
X186300000Y-49700000D02*
X185400000Y-49700000D01*
X185400000Y-49000000D01*
X186300000Y-49000000D01*
X186300000Y-49700000D01*
G36*
X186300000Y-49700000D02*
G01*
X185400000Y-49700000D01*
X185400000Y-49000000D01*
X186300000Y-49000000D01*
X186300000Y-49700000D01*
G37*
X186300000Y-51900000D02*
X185400000Y-51900000D01*
X185400000Y-51200000D01*
X186300000Y-51200000D01*
X186300000Y-51900000D01*
G36*
X186300000Y-51900000D02*
G01*
X185400000Y-51900000D01*
X185400000Y-51200000D01*
X186300000Y-51200000D01*
X186300000Y-51900000D01*
G37*
X187550000Y-52900000D02*
X186950000Y-52900000D01*
X186950000Y-51500000D01*
X187550000Y-51500000D01*
X187550000Y-52900000D01*
G36*
X187550000Y-52900000D02*
G01*
X186950000Y-52900000D01*
X186950000Y-51500000D01*
X187550000Y-51500000D01*
X187550000Y-52900000D01*
G37*
X189050000Y-52900000D02*
X188450000Y-52900000D01*
X188450000Y-51500000D01*
X189050000Y-51500000D01*
X189050000Y-52900000D01*
G36*
X189050000Y-52900000D02*
G01*
X188450000Y-52900000D01*
X188450000Y-51500000D01*
X189050000Y-51500000D01*
X189050000Y-52900000D01*
G37*
X192050000Y-52900000D02*
X191450000Y-52900000D01*
X191450000Y-51500000D01*
X192050000Y-51500000D01*
X192050000Y-52900000D01*
G36*
X192050000Y-52900000D02*
G01*
X191450000Y-52900000D01*
X191450000Y-51500000D01*
X192050000Y-51500000D01*
X192050000Y-52900000D01*
G37*
X193600000Y-49700000D02*
X192700000Y-49700000D01*
X192700000Y-49000000D01*
X193600000Y-49000000D01*
X193600000Y-49700000D01*
G36*
X193600000Y-49700000D02*
G01*
X192700000Y-49700000D01*
X192700000Y-49000000D01*
X193600000Y-49000000D01*
X193600000Y-49700000D01*
G37*
X193600000Y-51900000D02*
X192700000Y-51900000D01*
X192700000Y-51200000D01*
X193600000Y-51200000D01*
X193600000Y-51900000D01*
G36*
X193600000Y-51900000D02*
G01*
X192700000Y-51900000D01*
X192700000Y-51200000D01*
X193600000Y-51200000D01*
X193600000Y-51900000D01*
G37*
X180394087Y-121546839D02*
X180019087Y-122196358D01*
X178720049Y-121446358D01*
X179095049Y-120796839D01*
X180394087Y-121546839D01*
G36*
X180394087Y-121546839D02*
G01*
X180019087Y-122196358D01*
X178720049Y-121446358D01*
X179095049Y-120796839D01*
X180394087Y-121546839D01*
G37*
X184195625Y-125762383D02*
X183820625Y-126411902D01*
X182521587Y-125661902D01*
X182896587Y-125012383D01*
X184195625Y-125762383D01*
G36*
X184195625Y-125762383D02*
G01*
X183820625Y-126411902D01*
X182521587Y-125661902D01*
X182896587Y-125012383D01*
X184195625Y-125762383D01*
G37*
X185070625Y-124246839D02*
X184695625Y-124896358D01*
X183396587Y-124146358D01*
X183771587Y-123496839D01*
X185070625Y-124246839D01*
G36*
X185070625Y-124246839D02*
G01*
X184695625Y-124896358D01*
X183396587Y-124146358D01*
X183771587Y-123496839D01*
X185070625Y-124246839D01*
G37*
X179519087Y-123062383D02*
X179144087Y-123711902D01*
X178061556Y-123086902D01*
X177970049Y-122745396D01*
X178220049Y-122312383D01*
X179519087Y-123062383D01*
G36*
X179519087Y-123062383D02*
G01*
X179144087Y-123711902D01*
X178061556Y-123086902D01*
X177970049Y-122745396D01*
X178220049Y-122312383D01*
X179519087Y-123062383D01*
G37*
X197791328Y-119599116D02*
X197060815Y-120551140D01*
X196386464Y-120033693D01*
X197116978Y-119081669D01*
X197791328Y-119599116D01*
G36*
X197791328Y-119599116D02*
G01*
X197060815Y-120551140D01*
X196386464Y-120033693D01*
X197116978Y-119081669D01*
X197791328Y-119599116D01*
G37*
X199952432Y-116782711D02*
X199221918Y-117734735D01*
X198547568Y-117217288D01*
X199278081Y-116265264D01*
X199952432Y-116782711D01*
G36*
X199952432Y-116782711D02*
G01*
X199221918Y-117734735D01*
X198547568Y-117217288D01*
X199278081Y-116265264D01*
X199952432Y-116782711D01*
G37*
X189371880Y-134690914D02*
X188641367Y-135642938D01*
X187967016Y-135125491D01*
X188697530Y-134173467D01*
X189371880Y-134690914D01*
G36*
X189371880Y-134690914D02*
G01*
X188641367Y-135642938D01*
X187967016Y-135125491D01*
X188697530Y-134173467D01*
X189371880Y-134690914D01*
G37*
X191532984Y-131874509D02*
X190802470Y-132826533D01*
X190128120Y-132309086D01*
X190858633Y-131357062D01*
X191532984Y-131874509D01*
G36*
X191532984Y-131874509D02*
G01*
X190802470Y-132826533D01*
X190128120Y-132309086D01*
X190858633Y-131357062D01*
X191532984Y-131874509D01*
G37*
X187371880Y-133190914D02*
X186641367Y-134142938D01*
X185967016Y-133625491D01*
X186697530Y-132673467D01*
X187371880Y-133190914D01*
G36*
X187371880Y-133190914D02*
G01*
X186641367Y-134142938D01*
X185967016Y-133625491D01*
X186697530Y-132673467D01*
X187371880Y-133190914D01*
G37*
X189532984Y-130374509D02*
X188802470Y-131326533D01*
X188128120Y-130809086D01*
X188858633Y-129857062D01*
X189532984Y-130374509D01*
G36*
X189532984Y-130374509D02*
G01*
X188802470Y-131326533D01*
X188128120Y-130809086D01*
X188858633Y-129857062D01*
X189532984Y-130374509D01*
G37*
X149825000Y-106675000D02*
X148625000Y-106675000D01*
X148625000Y-105825000D01*
X149825000Y-105825000D01*
X149825000Y-106675000D01*
G36*
X149825000Y-106675000D02*
G01*
X148625000Y-106675000D01*
X148625000Y-105825000D01*
X149825000Y-105825000D01*
X149825000Y-106675000D01*
G37*
X153375000Y-106675000D02*
X152175000Y-106675000D01*
X152175000Y-105825000D01*
X153375000Y-105825000D01*
X153375000Y-106675000D01*
G36*
X153375000Y-106675000D02*
G01*
X152175000Y-106675000D01*
X152175000Y-105825000D01*
X153375000Y-105825000D01*
X153375000Y-106675000D01*
G37*
X147767996Y-119970421D02*
X147611364Y-121160155D01*
X146768636Y-121049208D01*
X146925268Y-119859474D01*
X147767996Y-119970421D01*
G36*
X147767996Y-119970421D02*
G01*
X147611364Y-121160155D01*
X146768636Y-121049208D01*
X146925268Y-119859474D01*
X147767996Y-119970421D01*
G37*
X148231364Y-116450792D02*
X148074732Y-117640526D01*
X147232004Y-117529579D01*
X147388636Y-116339845D01*
X148231364Y-116450792D01*
G36*
X148231364Y-116450792D02*
G01*
X148074732Y-117640526D01*
X147232004Y-117529579D01*
X147388636Y-116339845D01*
X148231364Y-116450792D01*
G37*
X92825007Y-121925000D02*
X91625007Y-121925000D01*
X91625007Y-121075000D01*
X92825007Y-121075000D01*
X92825007Y-121925000D01*
G36*
X92825007Y-121925000D02*
G01*
X91625007Y-121925000D01*
X91625007Y-121075000D01*
X92825007Y-121075000D01*
X92825007Y-121925000D01*
G37*
X96375007Y-121925000D02*
X95175007Y-121925000D01*
X95175007Y-121075000D01*
X96375007Y-121075000D01*
X96375007Y-121925000D01*
G36*
X96375007Y-121925000D02*
G01*
X95175007Y-121925000D01*
X95175007Y-121075000D01*
X96375007Y-121075000D01*
X96375007Y-121925000D01*
G37*
X149936507Y-120269416D02*
X149779875Y-121459150D01*
X148937147Y-121348203D01*
X149093779Y-120158469D01*
X149936507Y-120269416D01*
G36*
X149936507Y-120269416D02*
G01*
X149779875Y-121459150D01*
X148937147Y-121348203D01*
X149093779Y-120158469D01*
X149936507Y-120269416D01*
G37*
X150399875Y-116749787D02*
X150243243Y-117939521D01*
X149400515Y-117828574D01*
X149557147Y-116638840D01*
X150399875Y-116749787D01*
G36*
X150399875Y-116749787D02*
G01*
X150243243Y-117939521D01*
X149400515Y-117828574D01*
X149557147Y-116638840D01*
X150399875Y-116749787D01*
G37*
X130050003Y-67460000D02*
X128550003Y-67460000D01*
X128550003Y-66710000D01*
X130050003Y-66710000D01*
X130050003Y-67460000D01*
G36*
X130050003Y-67460000D02*
G01*
X128550003Y-67460000D01*
X128550003Y-66710000D01*
X130050003Y-66710000D01*
X130050003Y-67460000D01*
G37*
X135450003Y-67460000D02*
X133950003Y-67460000D01*
X133950003Y-66710000D01*
X135450003Y-66710000D01*
X135450003Y-67460000D01*
G36*
X135450003Y-67460000D02*
G01*
X133950003Y-67460000D01*
X133950003Y-66710000D01*
X135450003Y-66710000D01*
X135450003Y-67460000D01*
G37*
X135450003Y-69210000D02*
X133950003Y-69210000D01*
X133950003Y-68460000D01*
X135450003Y-68460000D01*
X135450003Y-69210000D01*
G36*
X135450003Y-69210000D02*
G01*
X133950003Y-69210000D01*
X133950003Y-68460000D01*
X135450003Y-68460000D01*
X135450003Y-69210000D01*
G37*
X130050003Y-69210000D02*
X128800003Y-69210000D01*
X128550003Y-68960000D01*
X128550003Y-68460000D01*
X130050003Y-68460000D01*
X130050003Y-69210000D01*
G36*
X130050003Y-69210000D02*
G01*
X128800003Y-69210000D01*
X128550003Y-68960000D01*
X128550003Y-68460000D01*
X130050003Y-68460000D01*
X130050003Y-69210000D01*
G37*
X130825000Y-81675000D02*
X129625000Y-81675000D01*
X129625000Y-80825000D01*
X130825000Y-80825000D01*
X130825000Y-81675000D01*
G36*
X130825000Y-81675000D02*
G01*
X129625000Y-81675000D01*
X129625000Y-80825000D01*
X130825000Y-80825000D01*
X130825000Y-81675000D01*
G37*
X134375000Y-81675000D02*
X133175000Y-81675000D01*
X133175000Y-80825000D01*
X134375000Y-80825000D01*
X134375000Y-81675000D01*
G36*
X134375000Y-81675000D02*
G01*
X133175000Y-81675000D01*
X133175000Y-80825000D01*
X134375000Y-80825000D01*
X134375000Y-81675000D01*
G37*
X194948000Y-93596000D02*
X193932000Y-93596000D01*
X193932000Y-92326000D01*
X194948000Y-92326000D01*
X194948000Y-93596000D01*
G36*
X194948000Y-93596000D02*
G01*
X193932000Y-93596000D01*
X193932000Y-92326000D01*
X194948000Y-92326000D01*
X194948000Y-93596000D01*
G37*
X197488000Y-93596000D02*
X196472000Y-93596000D01*
X196472000Y-92326000D01*
X197488000Y-92326000D01*
X197488000Y-93596000D01*
G36*
X197488000Y-93596000D02*
G01*
X196472000Y-93596000D01*
X196472000Y-92326000D01*
X197488000Y-92326000D01*
X197488000Y-93596000D01*
G37*
X200028000Y-93596000D02*
X199012000Y-93596000D01*
X199012000Y-92326000D01*
X200028000Y-92326000D01*
X200028000Y-93596000D01*
G36*
X200028000Y-93596000D02*
G01*
X199012000Y-93596000D01*
X199012000Y-92326000D01*
X200028000Y-92326000D01*
X200028000Y-93596000D01*
G37*
X202568000Y-93596000D02*
X201552000Y-93596000D01*
X201552000Y-92326000D01*
X202568000Y-92326000D01*
X202568000Y-93596000D01*
G36*
X202568000Y-93596000D02*
G01*
X201552000Y-93596000D01*
X201552000Y-92326000D01*
X202568000Y-92326000D01*
X202568000Y-93596000D01*
G37*
X189986250Y-104855866D02*
X189611250Y-105505385D01*
X188312212Y-104755385D01*
X188687212Y-104105866D01*
X189986250Y-104855866D01*
G36*
X189986250Y-104855866D02*
G01*
X189611250Y-105505385D01*
X188312212Y-104755385D01*
X188687212Y-104105866D01*
X189986250Y-104855866D01*
G37*
X193787788Y-109071410D02*
X193412788Y-109720929D01*
X192113750Y-108970929D01*
X192488750Y-108321410D01*
X193787788Y-109071410D01*
G36*
X193787788Y-109071410D02*
G01*
X193412788Y-109720929D01*
X192113750Y-108970929D01*
X192488750Y-108321410D01*
X193787788Y-109071410D01*
G37*
X194662788Y-107555866D02*
X194287788Y-108205385D01*
X192988750Y-107455385D01*
X193363750Y-106805866D01*
X194662788Y-107555866D01*
G36*
X194662788Y-107555866D02*
G01*
X194287788Y-108205385D01*
X192988750Y-107455385D01*
X193363750Y-106805866D01*
X194662788Y-107555866D01*
G37*
X189111250Y-106371410D02*
X188736250Y-107020929D01*
X187653719Y-106395929D01*
X187562212Y-106054423D01*
X187812212Y-105621410D01*
X189111250Y-106371410D01*
G36*
X189111250Y-106371410D02*
G01*
X188736250Y-107020929D01*
X187653719Y-106395929D01*
X187562212Y-106054423D01*
X187812212Y-105621410D01*
X189111250Y-106371410D01*
G37*
X130825000Y-100675000D02*
X129625000Y-100675000D01*
X129625000Y-99825000D01*
X130825000Y-99825000D01*
X130825000Y-100675000D01*
G36*
X130825000Y-100675000D02*
G01*
X129625000Y-100675000D01*
X129625000Y-99825000D01*
X130825000Y-99825000D01*
X130825000Y-100675000D01*
G37*
X134375000Y-100675000D02*
X133175000Y-100675000D01*
X133175000Y-99825000D01*
X134375000Y-99825000D01*
X134375000Y-100675000D01*
G36*
X134375000Y-100675000D02*
G01*
X133175000Y-100675000D01*
X133175000Y-99825000D01*
X134375000Y-99825000D01*
X134375000Y-100675000D01*
G37*
X92050001Y-107709998D02*
X90550001Y-107709998D01*
X90550001Y-106959998D01*
X92050001Y-106959998D01*
X92050001Y-107709998D01*
G36*
X92050001Y-107709998D02*
G01*
X90550001Y-107709998D01*
X90550001Y-106959998D01*
X92050001Y-106959998D01*
X92050001Y-107709998D01*
G37*
X97450001Y-107709998D02*
X95950001Y-107709998D01*
X95950001Y-106959998D01*
X97450001Y-106959998D01*
X97450001Y-107709998D01*
G36*
X97450001Y-107709998D02*
G01*
X95950001Y-107709998D01*
X95950001Y-106959998D01*
X97450001Y-106959998D01*
X97450001Y-107709998D01*
G37*
X97450001Y-109459998D02*
X95950001Y-109459998D01*
X95950001Y-108709998D01*
X97450001Y-108709998D01*
X97450001Y-109459998D01*
G36*
X97450001Y-109459998D02*
G01*
X95950001Y-109459998D01*
X95950001Y-108709998D01*
X97450001Y-108709998D01*
X97450001Y-109459998D01*
G37*
X92050001Y-109459998D02*
X90800001Y-109459998D01*
X90550001Y-109209998D01*
X90550001Y-108709998D01*
X92050001Y-108709998D01*
X92050001Y-109459998D01*
G36*
X92050001Y-109459998D02*
G01*
X90800001Y-109459998D01*
X90550001Y-109209998D01*
X90550001Y-108709998D01*
X92050001Y-108709998D01*
X92050001Y-109459998D01*
G37*
X168825000Y-68675000D02*
X167625000Y-68675000D01*
X167625000Y-67825000D01*
X168825000Y-67825000D01*
X168825000Y-68675000D01*
G36*
X168825000Y-68675000D02*
G01*
X167625000Y-68675000D01*
X167625000Y-67825000D01*
X168825000Y-67825000D01*
X168825000Y-68675000D01*
G37*
X172375000Y-68675000D02*
X171175000Y-68675000D01*
X171175000Y-67825000D01*
X172375000Y-67825000D01*
X172375000Y-68675000D01*
G36*
X172375000Y-68675000D02*
G01*
X171175000Y-68675000D01*
X171175000Y-67825000D01*
X172375000Y-67825000D01*
X172375000Y-68675000D01*
G37*
X168825000Y-87675000D02*
X167625000Y-87675000D01*
X167625000Y-86825000D01*
X168825000Y-86825000D01*
X168825000Y-87675000D01*
G36*
X168825000Y-87675000D02*
G01*
X167625000Y-87675000D01*
X167625000Y-86825000D01*
X168825000Y-86825000D01*
X168825000Y-87675000D01*
G37*
X172375000Y-87675000D02*
X171175000Y-87675000D01*
X171175000Y-86825000D01*
X172375000Y-86825000D01*
X172375000Y-87675000D01*
G36*
X172375000Y-87675000D02*
G01*
X171175000Y-87675000D01*
X171175000Y-86825000D01*
X172375000Y-86825000D01*
X172375000Y-87675000D01*
G37*
X158935328Y-112939852D02*
X158741214Y-113664296D01*
X157292325Y-113276068D01*
X157486440Y-112551622D01*
X158935328Y-112939852D01*
G36*
X158935328Y-112939852D02*
G01*
X158741214Y-113664296D01*
X157292325Y-113276068D01*
X157486440Y-112551622D01*
X158935328Y-112939852D01*
G37*
X163698394Y-116027845D02*
X163504280Y-116752289D01*
X162055391Y-116364061D01*
X162249506Y-115639616D01*
X163698394Y-116027845D01*
G36*
X163698394Y-116027845D02*
G01*
X163504280Y-116752289D01*
X162055391Y-116364061D01*
X162249506Y-115639616D01*
X163698394Y-116027845D01*
G37*
X164151328Y-114337475D02*
X163957214Y-115061919D01*
X162508325Y-114673691D01*
X162702439Y-113949246D01*
X164151328Y-114337475D01*
G36*
X164151328Y-114337475D02*
G01*
X163957214Y-115061919D01*
X162508325Y-114673691D01*
X162702439Y-113949246D01*
X164151328Y-114337475D01*
G37*
X158482395Y-114630222D02*
X158288281Y-115354667D01*
X157080873Y-115031143D01*
X156904097Y-114724957D01*
X157033506Y-114241994D01*
X158482395Y-114630222D01*
G36*
X158482395Y-114630222D02*
G01*
X158288281Y-115354667D01*
X157080873Y-115031143D01*
X156904097Y-114724957D01*
X157033506Y-114241994D01*
X158482395Y-114630222D01*
G37*
X149800000Y-68675000D02*
X148600000Y-68675000D01*
X148600000Y-67825000D01*
X149800000Y-67825000D01*
X149800000Y-68675000D01*
G36*
X149800000Y-68675000D02*
G01*
X148600000Y-68675000D01*
X148600000Y-67825000D01*
X149800000Y-67825000D01*
X149800000Y-68675000D01*
G37*
X153350000Y-68675000D02*
X152150000Y-68675000D01*
X152150000Y-67825000D01*
X153350000Y-67825000D01*
X153350000Y-68675000D01*
G36*
X153350000Y-68675000D02*
G01*
X152150000Y-68675000D01*
X152150000Y-67825000D01*
X153350000Y-67825000D01*
X153350000Y-68675000D01*
G37*
X149049998Y-92460002D02*
X147549998Y-92460002D01*
X147549998Y-91710002D01*
X149049998Y-91710002D01*
X149049998Y-92460002D01*
G36*
X149049998Y-92460002D02*
G01*
X147549998Y-92460002D01*
X147549998Y-91710002D01*
X149049998Y-91710002D01*
X149049998Y-92460002D01*
G37*
X154449998Y-92460002D02*
X152949998Y-92460002D01*
X152949998Y-91710002D01*
X154449998Y-91710002D01*
X154449998Y-92460002D01*
G36*
X154449998Y-92460002D02*
G01*
X152949998Y-92460002D01*
X152949998Y-91710002D01*
X154449998Y-91710002D01*
X154449998Y-92460002D01*
G37*
X154449998Y-94210002D02*
X152949998Y-94210002D01*
X152949998Y-93460002D01*
X154449998Y-93460002D01*
X154449998Y-94210002D01*
G36*
X154449998Y-94210002D02*
G01*
X152949998Y-94210002D01*
X152949998Y-93460002D01*
X154449998Y-93460002D01*
X154449998Y-94210002D01*
G37*
X149049998Y-94210002D02*
X147799998Y-94210002D01*
X147549998Y-93960002D01*
X147549998Y-93460002D01*
X149049998Y-93460002D01*
X149049998Y-94210002D01*
G36*
X149049998Y-94210002D02*
G01*
X147799998Y-94210002D01*
X147549998Y-93960002D01*
X147549998Y-93460002D01*
X149049998Y-93460002D01*
X149049998Y-94210002D01*
G37*
X111825000Y-68675000D02*
X110625000Y-68675000D01*
X110625000Y-67825000D01*
X111825000Y-67825000D01*
X111825000Y-68675000D01*
G36*
X111825000Y-68675000D02*
G01*
X110625000Y-68675000D01*
X110625000Y-67825000D01*
X111825000Y-67825000D01*
X111825000Y-68675000D01*
G37*
X115375000Y-68675000D02*
X114175000Y-68675000D01*
X114175000Y-67825000D01*
X115375000Y-67825000D01*
X115375000Y-68675000D01*
G36*
X115375000Y-68675000D02*
G01*
X114175000Y-68675000D01*
X114175000Y-67825000D01*
X115375000Y-67825000D01*
X115375000Y-68675000D01*
G37*
X149825000Y-87675000D02*
X148625000Y-87675000D01*
X148625000Y-86825000D01*
X149825000Y-86825000D01*
X149825000Y-87675000D01*
G36*
X149825000Y-87675000D02*
G01*
X148625000Y-87675000D01*
X148625000Y-86825000D01*
X149825000Y-86825000D01*
X149825000Y-87675000D01*
G37*
X153375000Y-87675000D02*
X152175000Y-87675000D01*
X152175000Y-86825000D01*
X153375000Y-86825000D01*
X153375000Y-87675000D01*
G36*
X153375000Y-87675000D02*
G01*
X152175000Y-87675000D01*
X152175000Y-86825000D01*
X153375000Y-86825000D01*
X153375000Y-87675000D01*
G37*
X168825000Y-106675000D02*
X167625000Y-106675000D01*
X167625000Y-105825000D01*
X168825000Y-105825000D01*
X168825000Y-106675000D01*
G36*
X168825000Y-106675000D02*
G01*
X167625000Y-106675000D01*
X167625000Y-105825000D01*
X168825000Y-105825000D01*
X168825000Y-106675000D01*
G37*
X172375000Y-106675000D02*
X171175000Y-106675000D01*
X171175000Y-105825000D01*
X172375000Y-105825000D01*
X172375000Y-106675000D01*
G36*
X172375000Y-106675000D02*
G01*
X171175000Y-106675000D01*
X171175000Y-105825000D01*
X172375000Y-105825000D01*
X172375000Y-106675000D01*
G37*
X189098558Y-83296000D02*
X187698558Y-83296000D01*
X187698558Y-81296000D01*
X189098558Y-81296000D01*
X189098558Y-83296000D01*
G36*
X189098558Y-83296000D02*
G01*
X187698558Y-83296000D01*
X187698558Y-81296000D01*
X189098558Y-81296000D01*
X189098558Y-83296000D01*
G37*
X191300000Y-83296000D02*
X189900000Y-83296000D01*
X189900000Y-81296000D01*
X191300000Y-81296000D01*
X191300000Y-83296000D01*
G36*
X191300000Y-83296000D02*
G01*
X189900000Y-83296000D01*
X189900000Y-81296000D01*
X191300000Y-81296000D01*
X191300000Y-83296000D01*
G37*
X168049991Y-92460000D02*
X166549991Y-92460000D01*
X166549991Y-91710000D01*
X168049991Y-91710000D01*
X168049991Y-92460000D01*
G36*
X168049991Y-92460000D02*
G01*
X166549991Y-92460000D01*
X166549991Y-91710000D01*
X168049991Y-91710000D01*
X168049991Y-92460000D01*
G37*
X173449991Y-92460000D02*
X171949991Y-92460000D01*
X171949991Y-91710000D01*
X173449991Y-91710000D01*
X173449991Y-92460000D01*
G36*
X173449991Y-92460000D02*
G01*
X171949991Y-92460000D01*
X171949991Y-91710000D01*
X173449991Y-91710000D01*
X173449991Y-92460000D01*
G37*
X173449991Y-94210000D02*
X171949991Y-94210000D01*
X171949991Y-93460000D01*
X173449991Y-93460000D01*
X173449991Y-94210000D01*
G36*
X173449991Y-94210000D02*
G01*
X171949991Y-94210000D01*
X171949991Y-93460000D01*
X173449991Y-93460000D01*
X173449991Y-94210000D01*
G37*
X168049991Y-94210000D02*
X166799991Y-94210000D01*
X166549991Y-93960000D01*
X166549991Y-93460000D01*
X168049991Y-93460000D01*
X168049991Y-94210000D01*
G36*
X168049991Y-94210000D02*
G01*
X166799991Y-94210000D01*
X166549991Y-93960000D01*
X166549991Y-93460000D01*
X168049991Y-93460000D01*
X168049991Y-94210000D01*
G37*
X149050001Y-73460008D02*
X147550001Y-73460008D01*
X147550001Y-72710008D01*
X149050001Y-72710008D01*
X149050001Y-73460008D01*
G36*
X149050001Y-73460008D02*
G01*
X147550001Y-73460008D01*
X147550001Y-72710008D01*
X149050001Y-72710008D01*
X149050001Y-73460008D01*
G37*
X154450001Y-73460008D02*
X152950001Y-73460008D01*
X152950001Y-72710008D01*
X154450001Y-72710008D01*
X154450001Y-73460008D01*
G36*
X154450001Y-73460008D02*
G01*
X152950001Y-73460008D01*
X152950001Y-72710008D01*
X154450001Y-72710008D01*
X154450001Y-73460008D01*
G37*
X154450001Y-75210008D02*
X152950001Y-75210008D01*
X152950001Y-74460008D01*
X154450001Y-74460008D01*
X154450001Y-75210008D01*
G36*
X154450001Y-75210008D02*
G01*
X152950001Y-75210008D01*
X152950001Y-74460008D01*
X154450001Y-74460008D01*
X154450001Y-75210008D01*
G37*
X149050001Y-75210008D02*
X147800001Y-75210008D01*
X147550001Y-74960008D01*
X147550001Y-74460008D01*
X149050001Y-74460008D01*
X149050001Y-75210008D01*
G36*
X149050001Y-75210008D02*
G01*
X147800001Y-75210008D01*
X147550001Y-74960008D01*
X147550001Y-74460008D01*
X149050001Y-74460008D01*
X149050001Y-75210008D01*
G37*
X149049993Y-54460001D02*
X147549993Y-54460001D01*
X147549993Y-53710001D01*
X149049993Y-53710001D01*
X149049993Y-54460001D01*
G36*
X149049993Y-54460001D02*
G01*
X147549993Y-54460001D01*
X147549993Y-53710001D01*
X149049993Y-53710001D01*
X149049993Y-54460001D01*
G37*
X154449993Y-54460001D02*
X152949993Y-54460001D01*
X152949993Y-53710001D01*
X154449993Y-53710001D01*
X154449993Y-54460001D01*
G36*
X154449993Y-54460001D02*
G01*
X152949993Y-54460001D01*
X152949993Y-53710001D01*
X154449993Y-53710001D01*
X154449993Y-54460001D01*
G37*
X154449993Y-56210001D02*
X152949993Y-56210001D01*
X152949993Y-55460001D01*
X154449993Y-55460001D01*
X154449993Y-56210001D01*
G36*
X154449993Y-56210001D02*
G01*
X152949993Y-56210001D01*
X152949993Y-55460001D01*
X154449993Y-55460001D01*
X154449993Y-56210001D01*
G37*
X149049993Y-56210001D02*
X147799993Y-56210001D01*
X147549993Y-55960001D01*
X147549993Y-55460001D01*
X149049993Y-55460001D01*
X149049993Y-56210001D01*
G36*
X149049993Y-56210001D02*
G01*
X147799993Y-56210001D01*
X147549993Y-55960001D01*
X147549993Y-55460001D01*
X149049993Y-55460001D01*
X149049993Y-56210001D01*
G37*
X212575736Y-121666548D02*
X212045406Y-122196878D01*
X210984746Y-121136218D01*
X211515076Y-120605887D01*
X212575736Y-121666548D01*
G36*
X212575736Y-121666548D02*
G01*
X212045406Y-122196878D01*
X210984746Y-121136218D01*
X211515076Y-120605887D01*
X212575736Y-121666548D01*
G37*
X215156676Y-126722361D02*
X214626346Y-127252691D01*
X213565685Y-126192031D01*
X214096016Y-125661701D01*
X215156676Y-126722361D01*
G36*
X215156676Y-126722361D02*
G01*
X214626346Y-127252691D01*
X213565685Y-126192031D01*
X214096016Y-125661701D01*
X215156676Y-126722361D01*
G37*
X216394113Y-125484924D02*
X215863782Y-126015254D01*
X214803122Y-124954594D01*
X215333452Y-124424264D01*
X216394113Y-125484924D01*
G36*
X216394113Y-125484924D02*
G01*
X215863782Y-126015254D01*
X214803122Y-124954594D01*
X215333452Y-124424264D01*
X216394113Y-125484924D01*
G37*
X211338299Y-122903984D02*
X210807969Y-123434315D01*
X209924086Y-122550431D01*
X209924086Y-122196878D01*
X210277639Y-121843324D01*
X211338299Y-122903984D01*
G36*
X211338299Y-122903984D02*
G01*
X210807969Y-123434315D01*
X209924086Y-122550431D01*
X209924086Y-122196878D01*
X210277639Y-121843324D01*
X211338299Y-122903984D01*
G37*
X111049997Y-73460002D02*
X109549997Y-73460002D01*
X109549997Y-72710002D01*
X111049997Y-72710002D01*
X111049997Y-73460002D01*
G36*
X111049997Y-73460002D02*
G01*
X109549997Y-73460002D01*
X109549997Y-72710002D01*
X111049997Y-72710002D01*
X111049997Y-73460002D01*
G37*
X116449997Y-73460002D02*
X114949997Y-73460002D01*
X114949997Y-72710002D01*
X116449997Y-72710002D01*
X116449997Y-73460002D01*
G36*
X116449997Y-73460002D02*
G01*
X114949997Y-73460002D01*
X114949997Y-72710002D01*
X116449997Y-72710002D01*
X116449997Y-73460002D01*
G37*
X116449997Y-75210002D02*
X114949997Y-75210002D01*
X114949997Y-74460002D01*
X116449997Y-74460002D01*
X116449997Y-75210002D01*
G36*
X116449997Y-75210002D02*
G01*
X114949997Y-75210002D01*
X114949997Y-74460002D01*
X116449997Y-74460002D01*
X116449997Y-75210002D01*
G37*
X111049997Y-75210002D02*
X109799997Y-75210002D01*
X109549997Y-74960002D01*
X109549997Y-74460002D01*
X111049997Y-74460002D01*
X111049997Y-75210002D01*
G36*
X111049997Y-75210002D02*
G01*
X109799997Y-75210002D01*
X109549997Y-74960002D01*
X109549997Y-74460002D01*
X111049997Y-74460002D01*
X111049997Y-75210002D01*
G37*
X199871880Y-121190914D02*
X199141367Y-122142938D01*
X198467016Y-121625491D01*
X199197530Y-120673467D01*
X199871880Y-121190914D01*
G36*
X199871880Y-121190914D02*
G01*
X199141367Y-122142938D01*
X198467016Y-121625491D01*
X199197530Y-120673467D01*
X199871880Y-121190914D01*
G37*
X202032984Y-118374509D02*
X201302470Y-119326533D01*
X200628120Y-118809086D01*
X201358633Y-117857062D01*
X202032984Y-118374509D01*
G36*
X202032984Y-118374509D02*
G01*
X201302470Y-119326533D01*
X200628120Y-118809086D01*
X201358633Y-117857062D01*
X202032984Y-118374509D01*
G37*
X92825007Y-83925000D02*
X91625007Y-83925000D01*
X91625007Y-83075000D01*
X92825007Y-83075000D01*
X92825007Y-83925000D01*
G36*
X92825007Y-83925000D02*
G01*
X91625007Y-83925000D01*
X91625007Y-83075000D01*
X92825007Y-83075000D01*
X92825007Y-83925000D01*
G37*
X96375007Y-83925000D02*
X95175007Y-83925000D01*
X95175007Y-83075000D01*
X96375007Y-83075000D01*
X96375007Y-83925000D01*
G36*
X96375007Y-83925000D02*
G01*
X95175007Y-83925000D01*
X95175007Y-83075000D01*
X96375007Y-83075000D01*
X96375007Y-83925000D01*
G37*
X92050001Y-88710006D02*
X90550001Y-88710006D01*
X90550001Y-87960006D01*
X92050001Y-87960006D01*
X92050001Y-88710006D01*
G36*
X92050001Y-88710006D02*
G01*
X90550001Y-88710006D01*
X90550001Y-87960006D01*
X92050001Y-87960006D01*
X92050001Y-88710006D01*
G37*
X97450001Y-88710006D02*
X95950001Y-88710006D01*
X95950001Y-87960006D01*
X97450001Y-87960006D01*
X97450001Y-88710006D01*
G36*
X97450001Y-88710006D02*
G01*
X95950001Y-88710006D01*
X95950001Y-87960006D01*
X97450001Y-87960006D01*
X97450001Y-88710006D01*
G37*
X97450001Y-90460006D02*
X95950001Y-90460006D01*
X95950001Y-89710006D01*
X97450001Y-89710006D01*
X97450001Y-90460006D01*
G36*
X97450001Y-90460006D02*
G01*
X95950001Y-90460006D01*
X95950001Y-89710006D01*
X97450001Y-89710006D01*
X97450001Y-90460006D01*
G37*
X92050001Y-90460006D02*
X90800001Y-90460006D01*
X90550001Y-90210006D01*
X90550001Y-89710006D01*
X92050001Y-89710006D01*
X92050001Y-90460006D01*
G36*
X92050001Y-90460006D02*
G01*
X90800001Y-90460006D01*
X90550001Y-90210006D01*
X90550001Y-89710006D01*
X92050001Y-89710006D01*
X92050001Y-90460006D01*
G37*
X111049996Y-92459994D02*
X109549996Y-92459994D01*
X109549996Y-91709994D01*
X111049996Y-91709994D01*
X111049996Y-92459994D01*
G36*
X111049996Y-92459994D02*
G01*
X109549996Y-92459994D01*
X109549996Y-91709994D01*
X111049996Y-91709994D01*
X111049996Y-92459994D01*
G37*
X116449996Y-92459994D02*
X114949996Y-92459994D01*
X114949996Y-91709994D01*
X116449996Y-91709994D01*
X116449996Y-92459994D01*
G36*
X116449996Y-92459994D02*
G01*
X114949996Y-92459994D01*
X114949996Y-91709994D01*
X116449996Y-91709994D01*
X116449996Y-92459994D01*
G37*
X116449996Y-94209994D02*
X114949996Y-94209994D01*
X114949996Y-93459994D01*
X116449996Y-93459994D01*
X116449996Y-94209994D01*
G36*
X116449996Y-94209994D02*
G01*
X114949996Y-94209994D01*
X114949996Y-93459994D01*
X116449996Y-93459994D01*
X116449996Y-94209994D01*
G37*
X111049996Y-94209994D02*
X109799996Y-94209994D01*
X109549996Y-93959994D01*
X109549996Y-93459994D01*
X111049996Y-93459994D01*
X111049996Y-94209994D01*
G36*
X111049996Y-94209994D02*
G01*
X109799996Y-94209994D01*
X109549996Y-93959994D01*
X109549996Y-93459994D01*
X111049996Y-93459994D01*
X111049996Y-94209994D01*
G37*
X184657924Y-52832000D02*
X183372197Y-52832000D01*
X183372197Y-51816000D01*
X184657924Y-51816000D01*
X184657924Y-52832000D01*
G36*
X184657924Y-52832000D02*
G01*
X183372197Y-52832000D01*
X183372197Y-51816000D01*
X184657924Y-51816000D01*
X184657924Y-52832000D01*
G37*
X184657924Y-55372000D02*
X183372197Y-55372000D01*
X183372197Y-54356000D01*
X184657924Y-54356000D01*
X184657924Y-55372000D01*
G36*
X184657924Y-55372000D02*
G01*
X183372197Y-55372000D01*
X183372197Y-54356000D01*
X184657924Y-54356000D01*
X184657924Y-55372000D01*
G37*
X184657924Y-62992000D02*
X183372197Y-62992000D01*
X183372197Y-61976000D01*
X184657924Y-61976000D01*
X184657924Y-62992000D01*
G36*
X184657924Y-62992000D02*
G01*
X183372197Y-62992000D01*
X183372197Y-61976000D01*
X184657924Y-61976000D01*
X184657924Y-62992000D01*
G37*
X184657924Y-65532000D02*
X183372197Y-65532000D01*
X183372197Y-64516000D01*
X184657924Y-64516000D01*
X184657924Y-65532000D01*
G36*
X184657924Y-65532000D02*
G01*
X183372197Y-65532000D01*
X183372197Y-64516000D01*
X184657924Y-64516000D01*
X184657924Y-65532000D01*
G37*
X184657962Y-50292000D02*
X183372235Y-50292000D01*
X183372235Y-49276000D01*
X184657962Y-49276000D01*
X184657962Y-50292000D01*
G36*
X184657962Y-50292000D02*
G01*
X183372235Y-50292000D01*
X183372235Y-49276000D01*
X184657962Y-49276000D01*
X184657962Y-50292000D01*
G37*
X184657962Y-57912000D02*
X183372235Y-57912000D01*
X183372235Y-56896000D01*
X184657962Y-56896000D01*
X184657962Y-57912000D01*
G36*
X184657962Y-57912000D02*
G01*
X183372235Y-57912000D01*
X183372235Y-56896000D01*
X184657962Y-56896000D01*
X184657962Y-57912000D01*
G37*
X184657962Y-60452000D02*
X183372235Y-60452000D01*
X183372235Y-59436000D01*
X184657962Y-59436000D01*
X184657962Y-60452000D01*
G36*
X184657962Y-60452000D02*
G01*
X183372235Y-60452000D01*
X183372235Y-59436000D01*
X184657962Y-59436000D01*
X184657962Y-60452000D01*
G37*
X184657962Y-68072000D02*
X183372235Y-68072000D01*
X183372235Y-67056000D01*
X184657962Y-67056000D01*
X184657962Y-68072000D01*
G36*
X184657962Y-68072000D02*
G01*
X183372235Y-68072000D01*
X183372235Y-67056000D01*
X184657962Y-67056000D01*
X184657962Y-68072000D01*
G37*
X184657962Y-70612000D02*
X183372235Y-70612000D01*
X183372235Y-69596000D01*
X184657962Y-69596000D01*
X184657962Y-70612000D01*
G36*
X184657962Y-70612000D02*
G01*
X183372235Y-70612000D01*
X183372235Y-69596000D01*
X184657962Y-69596000D01*
X184657962Y-70612000D01*
G37*
X184657962Y-73152000D02*
X183372235Y-73152000D01*
X183372235Y-72136000D01*
X184657962Y-72136000D01*
X184657962Y-73152000D01*
G36*
X184657962Y-73152000D02*
G01*
X183372235Y-73152000D01*
X183372235Y-72136000D01*
X184657962Y-72136000D01*
X184657962Y-73152000D01*
G37*
X184657962Y-75692000D02*
X183372235Y-75692000D01*
X183372235Y-74676000D01*
X184657962Y-74676000D01*
X184657962Y-75692000D01*
G36*
X184657962Y-75692000D02*
G01*
X183372235Y-75692000D01*
X183372235Y-74676000D01*
X184657962Y-74676000D01*
X184657962Y-75692000D01*
G37*
X184658000Y-78232000D02*
X183372273Y-78232000D01*
X183372273Y-77216000D01*
X184658000Y-77216000D01*
X184658000Y-78232000D01*
G36*
X184658000Y-78232000D02*
G01*
X183372273Y-78232000D01*
X183372273Y-77216000D01*
X184658000Y-77216000D01*
X184658000Y-78232000D01*
G37*
X184658000Y-80772000D02*
X183372273Y-80772000D01*
X183372273Y-79756000D01*
X184658000Y-79756000D01*
X184658000Y-80772000D01*
G36*
X184658000Y-80772000D02*
G01*
X183372273Y-80772000D01*
X183372273Y-79756000D01*
X184658000Y-79756000D01*
X184658000Y-80772000D01*
G37*
X195580000Y-50292000D02*
X194294273Y-50292000D01*
X194294273Y-49276000D01*
X195580000Y-49276000D01*
X195580000Y-50292000D01*
G36*
X195580000Y-50292000D02*
G01*
X194294273Y-50292000D01*
X194294273Y-49276000D01*
X195580000Y-49276000D01*
X195580000Y-50292000D01*
G37*
X195580000Y-52832000D02*
X194294273Y-52832000D01*
X194294273Y-51816000D01*
X195580000Y-51816000D01*
X195580000Y-52832000D01*
G36*
X195580000Y-52832000D02*
G01*
X194294273Y-52832000D01*
X194294273Y-51816000D01*
X195580000Y-51816000D01*
X195580000Y-52832000D01*
G37*
X195580000Y-55372000D02*
X194294273Y-55372000D01*
X194294273Y-54356000D01*
X195580000Y-54356000D01*
X195580000Y-55372000D01*
G36*
X195580000Y-55372000D02*
G01*
X194294273Y-55372000D01*
X194294273Y-54356000D01*
X195580000Y-54356000D01*
X195580000Y-55372000D01*
G37*
X195580000Y-57912000D02*
X194294273Y-57912000D01*
X194294273Y-56896000D01*
X195580000Y-56896000D01*
X195580000Y-57912000D01*
G36*
X195580000Y-57912000D02*
G01*
X194294273Y-57912000D01*
X194294273Y-56896000D01*
X195580000Y-56896000D01*
X195580000Y-57912000D01*
G37*
X195580000Y-60452000D02*
X194294273Y-60452000D01*
X194294273Y-59436000D01*
X195580000Y-59436000D01*
X195580000Y-60452000D01*
G36*
X195580000Y-60452000D02*
G01*
X194294273Y-60452000D01*
X194294273Y-59436000D01*
X195580000Y-59436000D01*
X195580000Y-60452000D01*
G37*
X195580000Y-62992000D02*
X194294273Y-62992000D01*
X194294273Y-61976000D01*
X195580000Y-61976000D01*
X195580000Y-62992000D01*
G36*
X195580000Y-62992000D02*
G01*
X194294273Y-62992000D01*
X194294273Y-61976000D01*
X195580000Y-61976000D01*
X195580000Y-62992000D01*
G37*
X195580000Y-65532000D02*
X194294273Y-65532000D01*
X194294273Y-64516000D01*
X195580000Y-64516000D01*
X195580000Y-65532000D01*
G36*
X195580000Y-65532000D02*
G01*
X194294273Y-65532000D01*
X194294273Y-64516000D01*
X195580000Y-64516000D01*
X195580000Y-65532000D01*
G37*
X195580000Y-68072000D02*
X194294273Y-68072000D01*
X194294273Y-67056000D01*
X195580000Y-67056000D01*
X195580000Y-68072000D01*
G36*
X195580000Y-68072000D02*
G01*
X194294273Y-68072000D01*
X194294273Y-67056000D01*
X195580000Y-67056000D01*
X195580000Y-68072000D01*
G37*
X195580000Y-70612000D02*
X194294273Y-70612000D01*
X194294273Y-69596000D01*
X195580000Y-69596000D01*
X195580000Y-70612000D01*
G36*
X195580000Y-70612000D02*
G01*
X194294273Y-70612000D01*
X194294273Y-69596000D01*
X195580000Y-69596000D01*
X195580000Y-70612000D01*
G37*
X195580000Y-73152000D02*
X194294273Y-73152000D01*
X194294273Y-72136000D01*
X195580000Y-72136000D01*
X195580000Y-73152000D01*
G36*
X195580000Y-73152000D02*
G01*
X194294273Y-73152000D01*
X194294273Y-72136000D01*
X195580000Y-72136000D01*
X195580000Y-73152000D01*
G37*
X195580000Y-75692000D02*
X194294273Y-75692000D01*
X194294273Y-74676000D01*
X195580000Y-74676000D01*
X195580000Y-75692000D01*
G36*
X195580000Y-75692000D02*
G01*
X194294273Y-75692000D01*
X194294273Y-74676000D01*
X195580000Y-74676000D01*
X195580000Y-75692000D01*
G37*
X195580000Y-78232000D02*
X194294273Y-78232000D01*
X194294273Y-77216000D01*
X195580000Y-77216000D01*
X195580000Y-78232000D01*
G36*
X195580000Y-78232000D02*
G01*
X194294273Y-78232000D01*
X194294273Y-77216000D01*
X195580000Y-77216000D01*
X195580000Y-78232000D01*
G37*
X195580000Y-80772000D02*
X194294273Y-80772000D01*
X194294273Y-79756000D01*
X195580000Y-79756000D01*
X195580000Y-80772000D01*
G36*
X195580000Y-80772000D02*
G01*
X194294273Y-80772000D01*
X194294273Y-79756000D01*
X195580000Y-79756000D01*
X195580000Y-80772000D01*
G37*
D12*
X141500000Y-107550000D03*
X141500000Y-69450000D03*
X160550000Y-88500000D03*
X122450000Y-88500000D03*
D13*
X97576007Y-102500000D03*
D14*
X90424007Y-102500000D03*
D15*
X160500000Y-63000000D03*
D16*
X102875000Y-87250000D03*
X104625000Y-87250000D03*
X104625000Y-83750000D03*
X102875000Y-83750000D03*
D13*
X116576000Y-106250000D03*
D14*
X109424000Y-106250000D03*
D17*
X137326882Y-92000000D03*
D18*
X137000000Y-86850000D03*
D19*
X132000000Y-97900000D03*
D20*
X132000000Y-92000000D03*
D18*
X127000000Y-86850000D03*
D17*
X126673118Y-92000000D03*
D19*
X137000000Y-95800000D03*
D21*
X136400000Y-96700000D03*
D22*
X135810000Y-94540000D03*
D23*
X134600000Y-97750000D03*
D22*
X134540000Y-97080000D03*
X129460000Y-97080000D03*
D23*
X129400000Y-97750000D03*
D22*
X128190000Y-94540000D03*
D21*
X127600000Y-96700000D03*
D19*
X127000000Y-95800000D03*
D13*
X116576000Y-87250000D03*
D14*
X109424000Y-87250000D03*
D13*
X135576000Y-62250000D03*
D14*
X128424000Y-62250000D03*
D24*
X205911913Y-120441537D03*
D14*
X202376379Y-123977071D03*
X204144146Y-122209304D03*
X212629428Y-134230119D03*
X216164961Y-130694586D03*
D17*
X183551052Y-130633350D03*
D18*
X185842964Y-126009878D03*
D19*
X175987837Y-133079459D03*
D20*
X178937837Y-127969909D03*
D18*
X177182710Y-121009878D03*
D17*
X174324622Y-125306468D03*
D19*
X181367964Y-133760806D03*
D25*
X180398349Y-134240228D03*
D22*
X180967394Y-132074614D03*
D26*
X178314503Y-134249555D03*
D22*
X178597542Y-133639318D03*
X174198132Y-131099318D03*
D26*
X173811171Y-131649555D03*
D22*
X174368280Y-128264614D03*
D25*
X172777325Y-129840228D03*
D19*
X172707710Y-128760806D03*
X99250000Y-64250000D03*
X99250000Y-57750000D03*
D13*
X130500000Y-114500000D03*
D14*
X130500000Y-119500000D03*
X130500000Y-117000000D03*
X145000000Y-119500000D03*
X145000000Y-114500000D03*
D16*
X200875000Y-89500000D03*
X202625000Y-89500000D03*
X202625000Y-86000000D03*
X200875000Y-86000000D03*
D27*
X183254809Y-105334936D03*
D14*
X180754809Y-109665064D03*
X182004809Y-107500000D03*
X193312178Y-116915064D03*
X195812178Y-112584936D03*
D28*
X191000000Y-50450000D03*
X188000000Y-50450000D03*
D15*
X197104000Y-82804000D03*
X197104000Y-85344000D03*
D29*
X211750000Y-53000000D03*
D30*
X200346379Y-115571170D03*
D14*
X195992517Y-121245234D03*
D30*
X191926931Y-130662968D03*
D14*
X187573069Y-136337032D03*
D17*
X156326882Y-79000000D03*
D18*
X156000000Y-73850000D03*
D19*
X151000000Y-84900000D03*
D20*
X151000000Y-79000000D03*
D18*
X146000000Y-73850000D03*
D17*
X145673118Y-79000000D03*
D19*
X156000000Y-82800000D03*
D21*
X155400000Y-83700000D03*
D22*
X154810000Y-81540000D03*
D23*
X153600000Y-84750000D03*
D22*
X153540000Y-84080000D03*
X148460000Y-84080000D03*
D23*
X148400000Y-84750000D03*
D22*
X147190000Y-81540000D03*
D21*
X146600000Y-83700000D03*
D19*
X146000000Y-82800000D03*
D17*
X99326889Y-113250000D03*
D18*
X99000007Y-108100000D03*
D19*
X94000007Y-119150000D03*
D20*
X94000007Y-113250000D03*
D18*
X89000007Y-108100000D03*
D17*
X88673125Y-113250000D03*
D19*
X99000007Y-117050000D03*
D21*
X98400007Y-117950000D03*
D22*
X97810007Y-115790000D03*
D23*
X96600007Y-119000000D03*
D22*
X96540007Y-118330000D03*
X91460007Y-118330000D03*
D23*
X91400007Y-119000000D03*
D22*
X90190007Y-115790000D03*
D21*
X89600007Y-117950000D03*
D19*
X89000007Y-117050000D03*
D30*
X189926931Y-129162968D03*
D14*
X185573069Y-134837032D03*
D17*
X193105662Y-114047046D03*
D18*
X195397574Y-109423574D03*
D19*
X185542447Y-116493155D03*
D20*
X188492447Y-111383605D03*
D18*
X186737320Y-104423574D03*
D17*
X183879232Y-108720164D03*
D19*
X190922574Y-117174502D03*
D25*
X189952959Y-117653924D03*
D22*
X190522004Y-115488310D03*
D26*
X187869113Y-117663251D03*
D22*
X188152152Y-117053014D03*
X183752742Y-114513014D03*
D26*
X183365781Y-115063251D03*
D22*
X183922890Y-111678310D03*
D25*
X182331935Y-113253924D03*
D19*
X182262320Y-112174502D03*
D13*
X154576000Y-106250000D03*
D14*
X147424000Y-106250000D03*
D16*
X159625000Y-60750000D03*
X161375000Y-60750000D03*
X161375000Y-57250000D03*
X159625000Y-57250000D03*
D17*
X175326882Y-79000000D03*
D18*
X175000000Y-73850000D03*
D19*
X170000000Y-84900000D03*
D20*
X170000000Y-79000000D03*
D18*
X165000000Y-73850000D03*
D17*
X164673118Y-79000000D03*
D19*
X175000000Y-82800000D03*
D21*
X174400000Y-83700000D03*
D22*
X173810000Y-81540000D03*
D23*
X172600000Y-84750000D03*
D22*
X172540000Y-84080000D03*
X167460000Y-84080000D03*
D23*
X167400000Y-84750000D03*
D22*
X166190000Y-81540000D03*
D21*
X165600000Y-83700000D03*
D19*
X165000000Y-82800000D03*
D17*
X99326889Y-94250000D03*
D18*
X99000007Y-89100000D03*
D19*
X94000007Y-100150000D03*
D20*
X94000007Y-94250000D03*
D18*
X89000007Y-89100000D03*
D17*
X88673125Y-94250000D03*
D19*
X99000007Y-98050000D03*
D21*
X98400007Y-98950000D03*
D22*
X97810007Y-96790000D03*
D23*
X96600007Y-100000000D03*
D22*
X96540007Y-99330000D03*
X91460007Y-99330000D03*
D23*
X91400007Y-100000000D03*
D22*
X90190007Y-96790000D03*
D21*
X89600007Y-98950000D03*
D19*
X89000007Y-98050000D03*
D17*
X118326881Y-98000000D03*
D18*
X117999999Y-92850000D03*
D19*
X112999999Y-103900000D03*
D20*
X112999999Y-98000000D03*
D18*
X107999999Y-92850000D03*
D17*
X107673117Y-98000000D03*
D19*
X117999999Y-101800000D03*
D21*
X117399999Y-102700000D03*
D22*
X116809999Y-100540000D03*
D23*
X115599999Y-103750000D03*
D22*
X115539999Y-103080000D03*
X110459999Y-103080000D03*
D23*
X110399999Y-103750000D03*
D22*
X109189999Y-100540000D03*
D21*
X108599999Y-102700000D03*
D19*
X107999999Y-101800000D03*
D31*
X214000000Y-110000000D03*
X207000000Y-110000000D03*
D32*
X204400000Y-107800000D03*
X204400000Y-112200000D03*
X212300000Y-107800000D03*
X212300000Y-112200000D03*
X209300000Y-107800000D03*
X209300000Y-112200000D03*
X205300000Y-107800000D03*
X205300000Y-112200000D03*
D17*
X137326882Y-53999499D03*
D18*
X137000000Y-48849499D03*
D19*
X132000000Y-59899499D03*
D20*
X132000000Y-53999499D03*
D18*
X127000000Y-48849499D03*
D17*
X126673118Y-53999499D03*
D19*
X137000000Y-57799499D03*
D21*
X136400000Y-58699499D03*
D22*
X135810000Y-56539499D03*
D23*
X134600000Y-59749499D03*
D22*
X134540000Y-59079499D03*
X129460000Y-59079499D03*
D23*
X129400000Y-59749499D03*
D22*
X128190000Y-56539499D03*
D21*
X127600000Y-58699499D03*
D19*
X127000000Y-57799499D03*
D17*
X199709793Y-144783147D03*
D18*
X203120253Y-140910407D03*
D19*
X191771189Y-145188403D03*
D20*
X195943119Y-141016473D03*
D18*
X196049185Y-133839339D03*
D17*
X192176445Y-137249799D03*
D19*
X196791647Y-147239013D03*
D33*
X195730987Y-147451145D03*
D22*
X196841145Y-145506601D03*
D34*
X193715733Y-146920815D03*
D22*
X194147068Y-146404627D03*
X190554965Y-142812524D03*
D34*
X190038777Y-143243859D03*
D22*
X191452991Y-140118447D03*
D33*
X189508447Y-141228605D03*
D19*
X189720579Y-140167945D03*
D35*
X147966762Y-115204593D03*
D14*
X147033238Y-122295407D03*
D17*
X175326882Y-60000000D03*
D18*
X175000000Y-54850000D03*
D19*
X170000000Y-65900000D03*
D20*
X170000000Y-60000000D03*
D18*
X165000000Y-54850000D03*
D17*
X164673118Y-60000000D03*
D19*
X175000000Y-63800000D03*
D21*
X174400000Y-64700000D03*
D22*
X173810000Y-62540000D03*
D23*
X172600000Y-65750000D03*
D22*
X172540000Y-65080000D03*
X167460000Y-65080000D03*
D23*
X167400000Y-65750000D03*
D22*
X166190000Y-62540000D03*
D21*
X165600000Y-64700000D03*
D19*
X165000000Y-63800000D03*
D13*
X97576007Y-121500000D03*
D14*
X90424007Y-121500000D03*
D17*
X143326882Y-117000000D03*
D18*
X143000000Y-111850000D03*
D19*
X138000000Y-122900000D03*
D20*
X138000000Y-117000000D03*
D18*
X133000000Y-111850000D03*
D17*
X132673118Y-117000000D03*
D19*
X143000000Y-120800000D03*
D21*
X142400000Y-121700000D03*
D22*
X141810000Y-119540000D03*
D23*
X140600000Y-122750000D03*
D22*
X140540000Y-122080000D03*
X135460000Y-122080000D03*
D23*
X135400000Y-122750000D03*
D22*
X134190000Y-119540000D03*
D21*
X133600000Y-121700000D03*
D19*
X133000000Y-120800000D03*
D17*
X213214121Y-131279279D03*
D18*
X216624581Y-127406539D03*
D19*
X205275517Y-131684535D03*
D20*
X209447447Y-127512605D03*
D18*
X209553513Y-120335471D03*
D17*
X205680773Y-123745931D03*
D19*
X210295975Y-133735145D03*
D33*
X209235315Y-133947277D03*
D22*
X210345473Y-132002733D03*
D34*
X207220061Y-133416947D03*
D22*
X207651396Y-132900759D03*
X204059293Y-129308656D03*
D34*
X203543105Y-129739991D03*
D22*
X204957319Y-126614579D03*
D33*
X203012775Y-127724737D03*
D19*
X203224907Y-126664077D03*
D35*
X150135273Y-115503588D03*
D14*
X149201749Y-122594402D03*
D13*
X135576000Y-81250000D03*
D14*
X128424000Y-81250000D03*
D36*
X194440000Y-93342000D03*
D14*
X194440000Y-95000000D03*
D36*
X196980000Y-93342000D03*
D14*
X196980000Y-95000000D03*
D36*
X199520000Y-93342000D03*
D14*
X199520000Y-95000000D03*
D36*
X202060000Y-93342000D03*
D14*
X202060000Y-95000000D03*
D37*
X202060000Y-92226000D03*
X199520000Y-92226000D03*
X196980000Y-92226000D03*
X194440000Y-92226000D03*
D29*
X89500000Y-56500000D03*
D17*
X99326882Y-75250000D03*
D18*
X99000000Y-70100000D03*
D19*
X94000000Y-81150000D03*
D20*
X94000000Y-75250000D03*
D18*
X89000000Y-70100000D03*
D17*
X88673118Y-75250000D03*
D19*
X99000000Y-79050000D03*
D21*
X98400000Y-79950000D03*
D22*
X97810000Y-77790000D03*
D23*
X96600000Y-81000000D03*
D22*
X96540000Y-80330000D03*
X91460000Y-80330000D03*
D23*
X91400000Y-81000000D03*
D22*
X90190000Y-77790000D03*
D21*
X89600000Y-79950000D03*
D19*
X89000000Y-79050000D03*
D17*
X156326882Y-98000000D03*
D18*
X156000000Y-92850000D03*
D19*
X151000000Y-103900000D03*
D20*
X151000000Y-98000000D03*
D18*
X146000000Y-92850000D03*
D17*
X145673118Y-98000000D03*
D19*
X156000000Y-101800000D03*
D21*
X155400000Y-102700000D03*
D22*
X154810000Y-100540000D03*
D23*
X153600000Y-103750000D03*
D22*
X153540000Y-103080000D03*
X148460000Y-103080000D03*
D23*
X148400000Y-103750000D03*
D22*
X147190000Y-100540000D03*
D21*
X146600000Y-102700000D03*
D19*
X146000000Y-101800000D03*
D38*
X147750000Y-110875000D03*
X147750000Y-112625000D03*
X151250000Y-112625000D03*
X151250000Y-110875000D03*
D17*
X118326882Y-79000000D03*
D18*
X118000000Y-73850000D03*
D19*
X113000000Y-84900000D03*
D20*
X113000000Y-79000000D03*
D18*
X108000000Y-73850000D03*
D17*
X107673118Y-79000000D03*
D19*
X118000000Y-82800000D03*
D21*
X117400000Y-83700000D03*
D22*
X116810000Y-81540000D03*
D23*
X115600000Y-84750000D03*
D22*
X115540000Y-84080000D03*
X110460000Y-84080000D03*
D23*
X110400000Y-84750000D03*
D22*
X109190000Y-81540000D03*
D21*
X108600000Y-83700000D03*
D19*
X108000000Y-82800000D03*
D29*
X211750000Y-143250000D03*
D17*
X156326882Y-60000000D03*
D18*
X156000000Y-54850000D03*
D19*
X151000000Y-65900000D03*
D20*
X151000000Y-60000000D03*
D18*
X146000000Y-54850000D03*
D17*
X145673118Y-60000000D03*
D19*
X156000000Y-63800000D03*
D21*
X155400000Y-64700000D03*
D22*
X154810000Y-62540000D03*
D23*
X153600000Y-65750000D03*
D22*
X153540000Y-65080000D03*
X148460000Y-65080000D03*
D23*
X148400000Y-65750000D03*
D22*
X147190000Y-62540000D03*
D21*
X146600000Y-64700000D03*
D19*
X146000000Y-63800000D03*
D13*
X135576000Y-100250000D03*
D14*
X128424000Y-100250000D03*
D13*
X173576000Y-68250000D03*
D14*
X166424000Y-68250000D03*
D13*
X173576000Y-87250000D03*
D14*
X166424000Y-87250000D03*
D17*
X164336287Y-121168918D03*
D18*
X165353461Y-116109796D03*
D19*
X157663882Y-125489181D03*
D20*
X159190914Y-119790219D03*
D18*
X155694203Y-113521606D03*
D17*
X154045541Y-118411520D03*
D19*
X163037031Y-124754832D03*
D39*
X162224538Y-125468874D03*
D22*
X162213691Y-123229771D03*
D40*
X160214112Y-126017222D03*
D22*
X160329565Y-125354523D03*
X155422662Y-124039722D03*
D40*
X155191297Y-124671363D03*
D22*
X154853336Y-121257570D03*
D39*
X153724391Y-123191267D03*
D19*
X153377772Y-122166642D03*
D17*
X137326882Y-73000000D03*
D18*
X137000000Y-67850000D03*
D19*
X132000000Y-78900000D03*
D20*
X132000000Y-73000000D03*
D18*
X127000000Y-67850000D03*
D17*
X126673118Y-73000000D03*
D19*
X137000000Y-76800000D03*
D21*
X136400000Y-77700000D03*
D22*
X135810000Y-75540000D03*
D23*
X134600000Y-78750000D03*
D22*
X134540000Y-78080000D03*
X129460000Y-78080000D03*
D23*
X129400000Y-78750000D03*
D22*
X128190000Y-75540000D03*
D21*
X127600000Y-77700000D03*
D19*
X127000000Y-76800000D03*
D13*
X154551000Y-68250000D03*
D14*
X147399000Y-68250000D03*
D13*
X116576000Y-68250000D03*
D14*
X109424000Y-68250000D03*
D13*
X154576000Y-87250000D03*
D14*
X147424000Y-87250000D03*
D13*
X173576000Y-106250000D03*
D14*
X166424000Y-106250000D03*
D31*
X203300000Y-51250000D03*
X203300000Y-58250000D03*
D41*
X201100000Y-60850000D03*
X205500000Y-60850000D03*
X201100000Y-52950000D03*
X205500000Y-52950000D03*
X201100000Y-55950000D03*
X205500000Y-55950000D03*
X201100000Y-59950000D03*
X205500000Y-59950000D03*
D30*
X202426931Y-117162968D03*
D14*
X198073069Y-122837032D03*
D13*
X97576007Y-83500000D03*
D14*
X90424007Y-83500000D03*
D17*
X175326882Y-98000000D03*
D18*
X175000000Y-92850000D03*
D19*
X170000000Y-103900000D03*
D20*
X170000000Y-98000000D03*
D18*
X165000000Y-92850000D03*
D17*
X164673118Y-98000000D03*
D19*
X175000000Y-101800000D03*
D21*
X174400000Y-102700000D03*
D22*
X173810000Y-100540000D03*
D23*
X172600000Y-103750000D03*
D22*
X172540000Y-103080000D03*
X167460000Y-103080000D03*
D23*
X167400000Y-103750000D03*
D22*
X166190000Y-100540000D03*
D21*
X165600000Y-102700000D03*
D19*
X165000000Y-101800000D03*
D17*
X118326877Y-60000000D03*
D18*
X117999995Y-54850000D03*
D19*
X112999995Y-65900000D03*
D20*
X112999995Y-60000000D03*
D18*
X107999995Y-54850000D03*
D17*
X107673113Y-60000000D03*
D19*
X117999995Y-63800000D03*
D21*
X117399995Y-64700000D03*
D22*
X116809995Y-62540000D03*
D23*
X115599995Y-65750000D03*
D22*
X115539995Y-65080000D03*
X110459995Y-65080000D03*
D23*
X110399995Y-65750000D03*
D22*
X109189995Y-62540000D03*
D21*
X108599995Y-64700000D03*
D19*
X107999995Y-63800000D03*
D14*
X197104000Y-80264000D03*
X197104000Y-77724000D03*
X197104000Y-75184000D03*
X197104000Y-72644000D03*
X197104000Y-70104000D03*
X197104000Y-67564000D03*
X197104000Y-65024000D03*
X197104000Y-62484000D03*
X197104000Y-59944000D03*
X197104000Y-57404000D03*
X197104000Y-54864000D03*
X197104000Y-52324000D03*
X197104000Y-49784000D03*
D42*
X195326000Y-80264000D03*
X195326000Y-77724000D03*
X195326000Y-75184000D03*
X195326000Y-72644000D03*
X195326000Y-70104000D03*
X195326000Y-67564000D03*
X195326000Y-65024000D03*
X195326000Y-62484000D03*
X195326000Y-59944000D03*
X195326000Y-57404000D03*
X195326000Y-54864000D03*
X195326000Y-52324000D03*
X195326000Y-49784000D03*
D43*
X183642000Y-80264000D03*
X183642000Y-77724000D03*
X183642000Y-75184000D03*
X183642000Y-72644000D03*
X183642000Y-70104000D03*
X183642000Y-67564000D03*
X183642000Y-65024000D03*
X183642000Y-62484000D03*
X183642000Y-59944000D03*
X183642000Y-57404000D03*
X183642000Y-54864000D03*
X183642000Y-52324000D03*
X183642000Y-49784000D03*
D14*
X181864000Y-80264000D03*
X181864000Y-77724000D03*
X181864000Y-75184000D03*
X181864000Y-72644000D03*
X181864000Y-70104000D03*
X181864000Y-67564000D03*
X181864000Y-65024000D03*
X181864000Y-62484000D03*
X181864000Y-59944000D03*
X181864000Y-57404000D03*
X181864000Y-54864000D03*
X181864000Y-52324000D03*
X181864000Y-49784000D03*
D44*
X194210000Y-52324000D03*
X194210000Y-54864000D03*
X194210000Y-57404000D03*
X194210000Y-59944000D03*
X194210000Y-62484000D03*
X194210000Y-65024000D03*
X194210000Y-67564000D03*
X194210000Y-70104000D03*
X194210000Y-72644000D03*
X194210000Y-75184000D03*
X194210000Y-77724000D03*
X194210000Y-80264000D03*
D45*
X184758000Y-80264000D03*
X184758000Y-77724000D03*
X184758000Y-75184000D03*
X184758000Y-72644000D03*
X184758000Y-70104000D03*
X184758000Y-67564000D03*
X184758000Y-65024000D03*
X184758000Y-62484000D03*
X184758000Y-59944000D03*
X184758000Y-57404000D03*
X184758000Y-54864000D03*
X184758000Y-52324000D03*
X184758000Y-49784000D03*
D44*
X194210000Y-49784000D03*
M02*
