G04 #@! TF.GenerationSoftware,KiCad,Pcbnew,9.0.2*
G04 #@! TF.CreationDate,2025-09-25T08:36:32+01:00*
G04 #@! TF.ProjectId,swoopt-soldered,73776f6f-7074-42d7-936f-6c6465726564,0.2.2*
G04 #@! TF.SameCoordinates,Original*
G04 #@! TF.FileFunction,Legend,Top*
G04 #@! TF.FilePolarity,Positive*
%FSLAX46Y46*%
G04 Gerber Fmt 4.6, Leading zero omitted, Abs format (unit mm)*
G04 Created by KiCad (PCBNEW 9.0.2) date 2025-09-25 08:36:32*
%MOMM*%
%LPD*%
G01*
G04 APERTURE LIST*
G04 Aperture macros list*
%AMHorizOval*
0 Thick line with rounded ends*
0 $1 width*
0 $2 $3 position (X,Y) of the first rounded end (center of the circle)*
0 $4 $5 position (X,Y) of the second rounded end (center of the circle)*
0 Add line between two ends*
20,1,$1,$2,$3,$4,$5,0*
0 Add two circle primitives to create the rounded ends*
1,1,$1,$2,$3*
1,1,$1,$4,$5*%
%AMRotRect*
0 Rectangle, with rotation*
0 The origin of the aperture is its center*
0 $1 length*
0 $2 width*
0 $3 Rotation angle, in degrees counterclockwise*
0 Add horizontal line*
21,1,$1,$2,0,0,$3*%
%AMFreePoly0*
4,1,6,0.600000,0.200000,0.000000,-0.400000,-0.600000,0.200000,-0.600000,0.400000,0.600000,0.400000,0.600000,0.200000,0.600000,0.200000,$1*%
%AMFreePoly1*
4,1,6,0.600000,-0.250000,-0.600000,-0.250000,-0.600000,1.000000,0.000000,0.400000,0.600000,1.000000,0.600000,-0.250000,0.600000,-0.250000,$1*%
G04 Aperture macros list end*
%ADD10C,0.080000*%
%ADD11C,0.150000*%
%ADD12C,0.100000*%
%ADD13C,0.120000*%
%ADD14C,0.750000*%
%ADD15C,4.200000*%
%ADD16C,4.000000*%
%ADD17R,1.600000X1.600000*%
%ADD18C,1.600000*%
%ADD19C,1.900000*%
%ADD20C,2.400000*%
%ADD21C,2.000000*%
%ADD22C,5.050000*%
%ADD23O,1.700000X2.800000*%
%ADD24C,2.300000*%
%ADD25O,2.800000X1.700000*%
%ADD26HorizOval,1.700000X0.275000X0.476314X-0.275000X-0.476314X0*%
%ADD27HorizOval,1.700000X-0.476314X0.275000X0.476314X-0.275000X0*%
%ADD28C,3.500000*%
%ADD29FreePoly0,90.000000*%
%ADD30FreePoly0,270.000000*%
%ADD31FreePoly1,270.000000*%
%ADD32FreePoly1,90.000000*%
%ADD33C,0.900000*%
%ADD34C,0.800000*%
%ADD35O,2.200000X1.700000*%
%ADD36FreePoly0,180.000000*%
%ADD37FreePoly1,180.000000*%
%ADD38RotRect,1.600000X1.600000X60.000000*%
%ADD39HorizOval,1.700000X0.142350X0.531259X-0.142350X-0.531259X0*%
%ADD40HorizOval,1.700000X-0.531259X0.142350X0.531259X-0.142350X0*%
%ADD41RotRect,1.600000X1.600000X75.000000*%
G04 APERTURE END LIST*
D10*
X162555285Y-122764982D02*
X162498143Y-122736411D01*
X162498143Y-122736411D02*
X162412428Y-122736411D01*
X162412428Y-122736411D02*
X162326714Y-122764982D01*
X162326714Y-122764982D02*
X162269571Y-122822125D01*
X162269571Y-122822125D02*
X162241000Y-122879268D01*
X162241000Y-122879268D02*
X162212428Y-122993554D01*
X162212428Y-122993554D02*
X162212428Y-123079268D01*
X162212428Y-123079268D02*
X162241000Y-123193554D01*
X162241000Y-123193554D02*
X162269571Y-123250697D01*
X162269571Y-123250697D02*
X162326714Y-123307840D01*
X162326714Y-123307840D02*
X162412428Y-123336411D01*
X162412428Y-123336411D02*
X162469571Y-123336411D01*
X162469571Y-123336411D02*
X162555285Y-123307840D01*
X162555285Y-123307840D02*
X162583857Y-123279268D01*
X162583857Y-123279268D02*
X162583857Y-123079268D01*
X162583857Y-123079268D02*
X162469571Y-123079268D01*
X162841000Y-123336411D02*
X162841000Y-122736411D01*
X162841000Y-122736411D02*
X163183857Y-123336411D01*
X163183857Y-123336411D02*
X163183857Y-122736411D01*
X163469571Y-123336411D02*
X163469571Y-122736411D01*
X163469571Y-122736411D02*
X163612428Y-122736411D01*
X163612428Y-122736411D02*
X163698142Y-122764982D01*
X163698142Y-122764982D02*
X163755285Y-122822125D01*
X163755285Y-122822125D02*
X163783856Y-122879268D01*
X163783856Y-122879268D02*
X163812428Y-122993554D01*
X163812428Y-122993554D02*
X163812428Y-123079268D01*
X163812428Y-123079268D02*
X163783856Y-123193554D01*
X163783856Y-123193554D02*
X163755285Y-123250697D01*
X163755285Y-123250697D02*
X163698142Y-123307840D01*
X163698142Y-123307840D02*
X163612428Y-123336411D01*
X163612428Y-123336411D02*
X163469571Y-123336411D01*
X169903856Y-123307840D02*
X169989571Y-123336411D01*
X169989571Y-123336411D02*
X170132428Y-123336411D01*
X170132428Y-123336411D02*
X170189571Y-123307840D01*
X170189571Y-123307840D02*
X170218142Y-123279268D01*
X170218142Y-123279268D02*
X170246713Y-123222125D01*
X170246713Y-123222125D02*
X170246713Y-123164982D01*
X170246713Y-123164982D02*
X170218142Y-123107840D01*
X170218142Y-123107840D02*
X170189571Y-123079268D01*
X170189571Y-123079268D02*
X170132428Y-123050697D01*
X170132428Y-123050697D02*
X170018142Y-123022125D01*
X170018142Y-123022125D02*
X169960999Y-122993554D01*
X169960999Y-122993554D02*
X169932428Y-122964982D01*
X169932428Y-122964982D02*
X169903856Y-122907840D01*
X169903856Y-122907840D02*
X169903856Y-122850697D01*
X169903856Y-122850697D02*
X169932428Y-122793554D01*
X169932428Y-122793554D02*
X169960999Y-122764982D01*
X169960999Y-122764982D02*
X170018142Y-122736411D01*
X170018142Y-122736411D02*
X170160999Y-122736411D01*
X170160999Y-122736411D02*
X170246713Y-122764982D01*
X170503857Y-123336411D02*
X170503857Y-122736411D01*
X170503857Y-122736411D02*
X170646714Y-122736411D01*
X170646714Y-122736411D02*
X170732428Y-122764982D01*
X170732428Y-122764982D02*
X170789571Y-122822125D01*
X170789571Y-122822125D02*
X170818142Y-122879268D01*
X170818142Y-122879268D02*
X170846714Y-122993554D01*
X170846714Y-122993554D02*
X170846714Y-123079268D01*
X170846714Y-123079268D02*
X170818142Y-123193554D01*
X170818142Y-123193554D02*
X170789571Y-123250697D01*
X170789571Y-123250697D02*
X170732428Y-123307840D01*
X170732428Y-123307840D02*
X170646714Y-123336411D01*
X170646714Y-123336411D02*
X170503857Y-123336411D01*
X171075285Y-123164982D02*
X171361000Y-123164982D01*
X171018142Y-123336411D02*
X171218142Y-122736411D01*
X171218142Y-122736411D02*
X171418142Y-123336411D01*
X167420999Y-123307840D02*
X167506714Y-123336411D01*
X167506714Y-123336411D02*
X167649571Y-123336411D01*
X167649571Y-123336411D02*
X167706714Y-123307840D01*
X167706714Y-123307840D02*
X167735285Y-123279268D01*
X167735285Y-123279268D02*
X167763856Y-123222125D01*
X167763856Y-123222125D02*
X167763856Y-123164982D01*
X167763856Y-123164982D02*
X167735285Y-123107840D01*
X167735285Y-123107840D02*
X167706714Y-123079268D01*
X167706714Y-123079268D02*
X167649571Y-123050697D01*
X167649571Y-123050697D02*
X167535285Y-123022125D01*
X167535285Y-123022125D02*
X167478142Y-122993554D01*
X167478142Y-122993554D02*
X167449571Y-122964982D01*
X167449571Y-122964982D02*
X167420999Y-122907840D01*
X167420999Y-122907840D02*
X167420999Y-122850697D01*
X167420999Y-122850697D02*
X167449571Y-122793554D01*
X167449571Y-122793554D02*
X167478142Y-122764982D01*
X167478142Y-122764982D02*
X167535285Y-122736411D01*
X167535285Y-122736411D02*
X167678142Y-122736411D01*
X167678142Y-122736411D02*
X167763856Y-122764982D01*
X168306714Y-123336411D02*
X168021000Y-123336411D01*
X168021000Y-123336411D02*
X168021000Y-122736411D01*
X168478142Y-123164982D02*
X168763857Y-123164982D01*
X168420999Y-123336411D02*
X168620999Y-122736411D01*
X168620999Y-122736411D02*
X168820999Y-123336411D01*
X164752428Y-123336411D02*
X164752428Y-122736411D01*
X164752428Y-122736411D02*
X164980999Y-122736411D01*
X164980999Y-122736411D02*
X165038142Y-122764982D01*
X165038142Y-122764982D02*
X165066713Y-122793554D01*
X165066713Y-122793554D02*
X165095285Y-122850697D01*
X165095285Y-122850697D02*
X165095285Y-122936411D01*
X165095285Y-122936411D02*
X165066713Y-122993554D01*
X165066713Y-122993554D02*
X165038142Y-123022125D01*
X165038142Y-123022125D02*
X164980999Y-123050697D01*
X164980999Y-123050697D02*
X164752428Y-123050697D01*
X165295285Y-122736411D02*
X165438142Y-123336411D01*
X165438142Y-123336411D02*
X165552428Y-122907840D01*
X165552428Y-122907840D02*
X165666713Y-123336411D01*
X165666713Y-123336411D02*
X165809571Y-122736411D01*
X166380999Y-123336411D02*
X166180999Y-123050697D01*
X166038142Y-123336411D02*
X166038142Y-122736411D01*
X166038142Y-122736411D02*
X166266713Y-122736411D01*
X166266713Y-122736411D02*
X166323856Y-122764982D01*
X166323856Y-122764982D02*
X166352427Y-122793554D01*
X166352427Y-122793554D02*
X166380999Y-122850697D01*
X166380999Y-122850697D02*
X166380999Y-122936411D01*
X166380999Y-122936411D02*
X166352427Y-122993554D01*
X166352427Y-122993554D02*
X166323856Y-123022125D01*
X166323856Y-123022125D02*
X166266713Y-123050697D01*
X166266713Y-123050697D02*
X166038142Y-123050697D01*
D11*
X108172474Y-100754197D02*
X108315331Y-100801816D01*
X108315331Y-100801816D02*
X108553426Y-100801816D01*
X108553426Y-100801816D02*
X108648664Y-100754197D01*
X108648664Y-100754197D02*
X108696283Y-100706577D01*
X108696283Y-100706577D02*
X108743902Y-100611339D01*
X108743902Y-100611339D02*
X108743902Y-100516101D01*
X108743902Y-100516101D02*
X108696283Y-100420863D01*
X108696283Y-100420863D02*
X108648664Y-100373244D01*
X108648664Y-100373244D02*
X108553426Y-100325625D01*
X108553426Y-100325625D02*
X108362950Y-100278006D01*
X108362950Y-100278006D02*
X108267712Y-100230387D01*
X108267712Y-100230387D02*
X108220093Y-100182768D01*
X108220093Y-100182768D02*
X108172474Y-100087530D01*
X108172474Y-100087530D02*
X108172474Y-99992292D01*
X108172474Y-99992292D02*
X108220093Y-99897054D01*
X108220093Y-99897054D02*
X108267712Y-99849435D01*
X108267712Y-99849435D02*
X108362950Y-99801816D01*
X108362950Y-99801816D02*
X108601045Y-99801816D01*
X108601045Y-99801816D02*
X108743902Y-99849435D01*
X109077236Y-99801816D02*
X109315331Y-100801816D01*
X109315331Y-100801816D02*
X109505807Y-100087530D01*
X109505807Y-100087530D02*
X109696283Y-100801816D01*
X109696283Y-100801816D02*
X109934379Y-99801816D01*
X110839140Y-100801816D02*
X110267712Y-100801816D01*
X110553426Y-100801816D02*
X110553426Y-99801816D01*
X110553426Y-99801816D02*
X110458188Y-99944673D01*
X110458188Y-99944673D02*
X110362950Y-100039911D01*
X110362950Y-100039911D02*
X110267712Y-100087530D01*
X111172474Y-99801816D02*
X111791521Y-99801816D01*
X111791521Y-99801816D02*
X111458188Y-100182768D01*
X111458188Y-100182768D02*
X111601045Y-100182768D01*
X111601045Y-100182768D02*
X111696283Y-100230387D01*
X111696283Y-100230387D02*
X111743902Y-100278006D01*
X111743902Y-100278006D02*
X111791521Y-100373244D01*
X111791521Y-100373244D02*
X111791521Y-100611339D01*
X111791521Y-100611339D02*
X111743902Y-100706577D01*
X111743902Y-100706577D02*
X111696283Y-100754197D01*
X111696283Y-100754197D02*
X111601045Y-100801816D01*
X111601045Y-100801816D02*
X111315331Y-100801816D01*
X111315331Y-100801816D02*
X111220093Y-100754197D01*
X111220093Y-100754197D02*
X111172474Y-100706577D01*
X160154306Y-137369883D02*
X160254214Y-137482551D01*
X160254214Y-137482551D02*
X160460411Y-137601599D01*
X160460411Y-137601599D02*
X160566699Y-137607978D01*
X160566699Y-137607978D02*
X160631748Y-137590549D01*
X160631748Y-137590549D02*
X160720606Y-137531880D01*
X160720606Y-137531880D02*
X160768225Y-137449401D01*
X160768225Y-137449401D02*
X160774605Y-137343113D01*
X160774605Y-137343113D02*
X160757175Y-137278064D01*
X160757175Y-137278064D02*
X160698506Y-137189206D01*
X160698506Y-137189206D02*
X160557358Y-137052728D01*
X160557358Y-137052728D02*
X160498689Y-136963870D01*
X160498689Y-136963870D02*
X160481260Y-136898821D01*
X160481260Y-136898821D02*
X160487639Y-136792533D01*
X160487639Y-136792533D02*
X160535258Y-136710054D01*
X160535258Y-136710054D02*
X160624117Y-136651385D01*
X160624117Y-136651385D02*
X160689165Y-136633955D01*
X160689165Y-136633955D02*
X160795454Y-136640335D01*
X160795454Y-136640335D02*
X161001650Y-136759383D01*
X161001650Y-136759383D02*
X161101559Y-136872051D01*
X161414043Y-136997478D02*
X161120240Y-137982551D01*
X161120240Y-137982551D02*
X161642340Y-137459200D01*
X161642340Y-137459200D02*
X161450154Y-138173027D01*
X161450154Y-138173027D02*
X162156351Y-137426049D01*
X162439897Y-138744456D02*
X161945026Y-138458741D01*
X162192462Y-138601599D02*
X162692462Y-137735573D01*
X162692462Y-137735573D02*
X162538554Y-137811672D01*
X162538554Y-137811672D02*
X162408457Y-137846532D01*
X162408457Y-137846532D02*
X162302169Y-137840152D01*
X163220483Y-138535298D02*
X163161814Y-138446440D01*
X163161814Y-138446440D02*
X163144385Y-138381391D01*
X163144385Y-138381391D02*
X163150764Y-138275103D01*
X163150764Y-138275103D02*
X163174574Y-138233864D01*
X163174574Y-138233864D02*
X163263432Y-138175195D01*
X163263432Y-138175195D02*
X163328481Y-138157765D01*
X163328481Y-138157765D02*
X163434769Y-138164145D01*
X163434769Y-138164145D02*
X163599726Y-138259383D01*
X163599726Y-138259383D02*
X163658395Y-138348241D01*
X163658395Y-138348241D02*
X163675825Y-138413290D01*
X163675825Y-138413290D02*
X163669445Y-138519578D01*
X163669445Y-138519578D02*
X163645636Y-138560817D01*
X163645636Y-138560817D02*
X163556778Y-138619486D01*
X163556778Y-138619486D02*
X163491729Y-138636916D01*
X163491729Y-138636916D02*
X163385441Y-138630536D01*
X163385441Y-138630536D02*
X163220483Y-138535298D01*
X163220483Y-138535298D02*
X163114195Y-138528919D01*
X163114195Y-138528919D02*
X163049146Y-138546348D01*
X163049146Y-138546348D02*
X162960288Y-138605018D01*
X162960288Y-138605018D02*
X162865050Y-138769975D01*
X162865050Y-138769975D02*
X162858670Y-138876263D01*
X162858670Y-138876263D02*
X162876100Y-138941312D01*
X162876100Y-138941312D02*
X162934769Y-139030170D01*
X162934769Y-139030170D02*
X163099726Y-139125408D01*
X163099726Y-139125408D02*
X163206014Y-139131788D01*
X163206014Y-139131788D02*
X163271063Y-139114358D01*
X163271063Y-139114358D02*
X163359922Y-139055689D01*
X163359922Y-139055689D02*
X163455160Y-138890732D01*
X163455160Y-138890732D02*
X163461539Y-138784444D01*
X163461539Y-138784444D02*
X163444110Y-138719395D01*
X163444110Y-138719395D02*
X163385441Y-138630536D01*
D10*
X162977382Y-109269272D02*
X162977382Y-109469272D01*
X163291668Y-109469272D02*
X162691668Y-109469272D01*
X162691668Y-109469272D02*
X162691668Y-109183558D01*
X162691668Y-108697844D02*
X162691668Y-108812129D01*
X162691668Y-108812129D02*
X162720239Y-108869272D01*
X162720239Y-108869272D02*
X162748811Y-108897844D01*
X162748811Y-108897844D02*
X162834525Y-108954986D01*
X162834525Y-108954986D02*
X162948811Y-108983558D01*
X162948811Y-108983558D02*
X163177382Y-108983558D01*
X163177382Y-108983558D02*
X163234525Y-108954986D01*
X163234525Y-108954986D02*
X163263097Y-108926415D01*
X163263097Y-108926415D02*
X163291668Y-108869272D01*
X163291668Y-108869272D02*
X163291668Y-108754986D01*
X163291668Y-108754986D02*
X163263097Y-108697844D01*
X163263097Y-108697844D02*
X163234525Y-108669272D01*
X163234525Y-108669272D02*
X163177382Y-108640701D01*
X163177382Y-108640701D02*
X163034525Y-108640701D01*
X163034525Y-108640701D02*
X162977382Y-108669272D01*
X162977382Y-108669272D02*
X162948811Y-108697844D01*
X162948811Y-108697844D02*
X162920239Y-108754986D01*
X162920239Y-108754986D02*
X162920239Y-108869272D01*
X162920239Y-108869272D02*
X162948811Y-108926415D01*
X162948811Y-108926415D02*
X162977382Y-108954986D01*
X162977382Y-108954986D02*
X163034525Y-108983558D01*
X170632230Y-121509644D02*
X170660802Y-121423930D01*
X170660802Y-121423930D02*
X170689373Y-121395359D01*
X170689373Y-121395359D02*
X170746516Y-121366787D01*
X170746516Y-121366787D02*
X170832230Y-121366787D01*
X170832230Y-121366787D02*
X170889373Y-121395359D01*
X170889373Y-121395359D02*
X170917945Y-121423930D01*
X170917945Y-121423930D02*
X170946516Y-121481073D01*
X170946516Y-121481073D02*
X170946516Y-121709644D01*
X170946516Y-121709644D02*
X170346516Y-121709644D01*
X170346516Y-121709644D02*
X170346516Y-121509644D01*
X170346516Y-121509644D02*
X170375087Y-121452502D01*
X170375087Y-121452502D02*
X170403659Y-121423930D01*
X170403659Y-121423930D02*
X170460802Y-121395359D01*
X170460802Y-121395359D02*
X170517945Y-121395359D01*
X170517945Y-121395359D02*
X170575087Y-121423930D01*
X170575087Y-121423930D02*
X170603659Y-121452502D01*
X170603659Y-121452502D02*
X170632230Y-121509644D01*
X170632230Y-121509644D02*
X170632230Y-121709644D01*
X170346516Y-120823930D02*
X170346516Y-121109644D01*
X170346516Y-121109644D02*
X170632230Y-121138216D01*
X170632230Y-121138216D02*
X170603659Y-121109644D01*
X170603659Y-121109644D02*
X170575087Y-121052502D01*
X170575087Y-121052502D02*
X170575087Y-120909644D01*
X170575087Y-120909644D02*
X170603659Y-120852502D01*
X170603659Y-120852502D02*
X170632230Y-120823930D01*
X170632230Y-120823930D02*
X170689373Y-120795359D01*
X170689373Y-120795359D02*
X170832230Y-120795359D01*
X170832230Y-120795359D02*
X170889373Y-120823930D01*
X170889373Y-120823930D02*
X170917945Y-120852502D01*
X170917945Y-120852502D02*
X170946516Y-120909644D01*
X170946516Y-120909644D02*
X170946516Y-121052502D01*
X170946516Y-121052502D02*
X170917945Y-121109644D01*
X170917945Y-121109644D02*
X170889373Y-121138216D01*
X162980189Y-116933222D02*
X163008761Y-116847508D01*
X163008761Y-116847508D02*
X163037332Y-116818937D01*
X163037332Y-116818937D02*
X163094475Y-116790365D01*
X163094475Y-116790365D02*
X163180189Y-116790365D01*
X163180189Y-116790365D02*
X163237332Y-116818937D01*
X163237332Y-116818937D02*
X163265904Y-116847508D01*
X163265904Y-116847508D02*
X163294475Y-116904651D01*
X163294475Y-116904651D02*
X163294475Y-117133222D01*
X163294475Y-117133222D02*
X162694475Y-117133222D01*
X162694475Y-117133222D02*
X162694475Y-116933222D01*
X162694475Y-116933222D02*
X162723046Y-116876080D01*
X162723046Y-116876080D02*
X162751618Y-116847508D01*
X162751618Y-116847508D02*
X162808761Y-116818937D01*
X162808761Y-116818937D02*
X162865904Y-116818937D01*
X162865904Y-116818937D02*
X162923046Y-116847508D01*
X162923046Y-116847508D02*
X162951618Y-116876080D01*
X162951618Y-116876080D02*
X162980189Y-116933222D01*
X162980189Y-116933222D02*
X162980189Y-117133222D01*
X162694475Y-116590365D02*
X162694475Y-116218937D01*
X162694475Y-116218937D02*
X162923046Y-116418937D01*
X162923046Y-116418937D02*
X162923046Y-116333222D01*
X162923046Y-116333222D02*
X162951618Y-116276080D01*
X162951618Y-116276080D02*
X162980189Y-116247508D01*
X162980189Y-116247508D02*
X163037332Y-116218937D01*
X163037332Y-116218937D02*
X163180189Y-116218937D01*
X163180189Y-116218937D02*
X163237332Y-116247508D01*
X163237332Y-116247508D02*
X163265904Y-116276080D01*
X163265904Y-116276080D02*
X163294475Y-116333222D01*
X163294475Y-116333222D02*
X163294475Y-116504651D01*
X163294475Y-116504651D02*
X163265904Y-116561794D01*
X163265904Y-116561794D02*
X163237332Y-116590365D01*
X170647125Y-91641570D02*
X170675697Y-91555856D01*
X170675697Y-91555856D02*
X170704268Y-91527285D01*
X170704268Y-91527285D02*
X170761411Y-91498713D01*
X170761411Y-91498713D02*
X170847125Y-91498713D01*
X170847125Y-91498713D02*
X170904268Y-91527285D01*
X170904268Y-91527285D02*
X170932840Y-91555856D01*
X170932840Y-91555856D02*
X170961411Y-91612999D01*
X170961411Y-91612999D02*
X170961411Y-91841570D01*
X170961411Y-91841570D02*
X170361411Y-91841570D01*
X170361411Y-91841570D02*
X170361411Y-91641570D01*
X170361411Y-91641570D02*
X170389982Y-91584428D01*
X170389982Y-91584428D02*
X170418554Y-91555856D01*
X170418554Y-91555856D02*
X170475697Y-91527285D01*
X170475697Y-91527285D02*
X170532840Y-91527285D01*
X170532840Y-91527285D02*
X170589982Y-91555856D01*
X170589982Y-91555856D02*
X170618554Y-91584428D01*
X170618554Y-91584428D02*
X170647125Y-91641570D01*
X170647125Y-91641570D02*
X170647125Y-91841570D01*
X170732840Y-91241570D02*
X170732840Y-90784428D01*
X170632230Y-119219644D02*
X170660802Y-119133930D01*
X170660802Y-119133930D02*
X170689373Y-119105359D01*
X170689373Y-119105359D02*
X170746516Y-119076787D01*
X170746516Y-119076787D02*
X170832230Y-119076787D01*
X170832230Y-119076787D02*
X170889373Y-119105359D01*
X170889373Y-119105359D02*
X170917945Y-119133930D01*
X170917945Y-119133930D02*
X170946516Y-119191073D01*
X170946516Y-119191073D02*
X170946516Y-119419644D01*
X170946516Y-119419644D02*
X170346516Y-119419644D01*
X170346516Y-119419644D02*
X170346516Y-119219644D01*
X170346516Y-119219644D02*
X170375087Y-119162502D01*
X170375087Y-119162502D02*
X170403659Y-119133930D01*
X170403659Y-119133930D02*
X170460802Y-119105359D01*
X170460802Y-119105359D02*
X170517945Y-119105359D01*
X170517945Y-119105359D02*
X170575087Y-119133930D01*
X170575087Y-119133930D02*
X170603659Y-119162502D01*
X170603659Y-119162502D02*
X170632230Y-119219644D01*
X170632230Y-119219644D02*
X170632230Y-119419644D01*
X170546516Y-118562502D02*
X170946516Y-118562502D01*
X170317945Y-118705359D02*
X170746516Y-118848216D01*
X170746516Y-118848216D02*
X170746516Y-118476787D01*
X162998382Y-111819847D02*
X162998382Y-112019847D01*
X163312668Y-112019847D02*
X162712668Y-112019847D01*
X162712668Y-112019847D02*
X162712668Y-111734133D01*
X162712668Y-111562704D02*
X162712668Y-111162704D01*
X162712668Y-111162704D02*
X163312668Y-111419847D01*
X162984176Y-104194377D02*
X162984176Y-104394377D01*
X163298462Y-104394377D02*
X162698462Y-104394377D01*
X162698462Y-104394377D02*
X162698462Y-104108663D01*
X162898462Y-103622949D02*
X163298462Y-103622949D01*
X162669891Y-103765806D02*
X163098462Y-103908663D01*
X163098462Y-103908663D02*
X163098462Y-103537234D01*
X162753982Y-97100142D02*
X162725411Y-97157285D01*
X162725411Y-97157285D02*
X162725411Y-97242999D01*
X162725411Y-97242999D02*
X162753982Y-97328713D01*
X162753982Y-97328713D02*
X162811125Y-97385856D01*
X162811125Y-97385856D02*
X162868268Y-97414427D01*
X162868268Y-97414427D02*
X162982554Y-97442999D01*
X162982554Y-97442999D02*
X163068268Y-97442999D01*
X163068268Y-97442999D02*
X163182554Y-97414427D01*
X163182554Y-97414427D02*
X163239697Y-97385856D01*
X163239697Y-97385856D02*
X163296840Y-97328713D01*
X163296840Y-97328713D02*
X163325411Y-97242999D01*
X163325411Y-97242999D02*
X163325411Y-97185856D01*
X163325411Y-97185856D02*
X163296840Y-97100142D01*
X163296840Y-97100142D02*
X163268268Y-97071570D01*
X163268268Y-97071570D02*
X163068268Y-97071570D01*
X163068268Y-97071570D02*
X163068268Y-97185856D01*
X163325411Y-96814427D02*
X162725411Y-96814427D01*
X162725411Y-96814427D02*
X163325411Y-96471570D01*
X163325411Y-96471570D02*
X162725411Y-96471570D01*
X163325411Y-96185856D02*
X162725411Y-96185856D01*
X162725411Y-96185856D02*
X162725411Y-96042999D01*
X162725411Y-96042999D02*
X162753982Y-95957285D01*
X162753982Y-95957285D02*
X162811125Y-95900142D01*
X162811125Y-95900142D02*
X162868268Y-95871571D01*
X162868268Y-95871571D02*
X162982554Y-95842999D01*
X162982554Y-95842999D02*
X163068268Y-95842999D01*
X163068268Y-95842999D02*
X163182554Y-95871571D01*
X163182554Y-95871571D02*
X163239697Y-95900142D01*
X163239697Y-95900142D02*
X163296840Y-95957285D01*
X163296840Y-95957285D02*
X163325411Y-96042999D01*
X163325411Y-96042999D02*
X163325411Y-96185856D01*
X170984246Y-96744526D02*
X170698532Y-96944526D01*
X170984246Y-97087383D02*
X170384246Y-97087383D01*
X170384246Y-97087383D02*
X170384246Y-96858812D01*
X170384246Y-96858812D02*
X170412817Y-96801669D01*
X170412817Y-96801669D02*
X170441389Y-96773098D01*
X170441389Y-96773098D02*
X170498532Y-96744526D01*
X170498532Y-96744526D02*
X170584246Y-96744526D01*
X170584246Y-96744526D02*
X170641389Y-96773098D01*
X170641389Y-96773098D02*
X170669960Y-96801669D01*
X170669960Y-96801669D02*
X170698532Y-96858812D01*
X170698532Y-96858812D02*
X170698532Y-97087383D01*
X170384246Y-96544526D02*
X170984246Y-96144526D01*
X170384246Y-96144526D02*
X170984246Y-96544526D01*
X170928726Y-104724476D02*
X170957297Y-104638762D01*
X170957297Y-104638762D02*
X170957297Y-104495904D01*
X170957297Y-104495904D02*
X170928726Y-104438762D01*
X170928726Y-104438762D02*
X170900154Y-104410190D01*
X170900154Y-104410190D02*
X170843011Y-104381619D01*
X170843011Y-104381619D02*
X170785868Y-104381619D01*
X170785868Y-104381619D02*
X170728726Y-104410190D01*
X170728726Y-104410190D02*
X170700154Y-104438762D01*
X170700154Y-104438762D02*
X170671583Y-104495904D01*
X170671583Y-104495904D02*
X170643011Y-104610190D01*
X170643011Y-104610190D02*
X170614440Y-104667333D01*
X170614440Y-104667333D02*
X170585868Y-104695904D01*
X170585868Y-104695904D02*
X170528726Y-104724476D01*
X170528726Y-104724476D02*
X170471583Y-104724476D01*
X170471583Y-104724476D02*
X170414440Y-104695904D01*
X170414440Y-104695904D02*
X170385868Y-104667333D01*
X170385868Y-104667333D02*
X170357297Y-104610190D01*
X170357297Y-104610190D02*
X170357297Y-104467333D01*
X170357297Y-104467333D02*
X170385868Y-104381619D01*
X170957297Y-104124475D02*
X170357297Y-104124475D01*
X170357297Y-104124475D02*
X170357297Y-103981618D01*
X170357297Y-103981618D02*
X170385868Y-103895904D01*
X170385868Y-103895904D02*
X170443011Y-103838761D01*
X170443011Y-103838761D02*
X170500154Y-103810190D01*
X170500154Y-103810190D02*
X170614440Y-103781618D01*
X170614440Y-103781618D02*
X170700154Y-103781618D01*
X170700154Y-103781618D02*
X170814440Y-103810190D01*
X170814440Y-103810190D02*
X170871583Y-103838761D01*
X170871583Y-103838761D02*
X170928726Y-103895904D01*
X170928726Y-103895904D02*
X170957297Y-103981618D01*
X170957297Y-103981618D02*
X170957297Y-104124475D01*
X170785868Y-103553047D02*
X170785868Y-103267333D01*
X170957297Y-103610190D02*
X170357297Y-103410190D01*
X170357297Y-103410190D02*
X170957297Y-103210190D01*
X170914360Y-111721374D02*
X170942932Y-111749946D01*
X170942932Y-111749946D02*
X170971503Y-111835660D01*
X170971503Y-111835660D02*
X170971503Y-111892803D01*
X170971503Y-111892803D02*
X170942932Y-111978517D01*
X170942932Y-111978517D02*
X170885789Y-112035660D01*
X170885789Y-112035660D02*
X170828646Y-112064231D01*
X170828646Y-112064231D02*
X170714360Y-112092803D01*
X170714360Y-112092803D02*
X170628646Y-112092803D01*
X170628646Y-112092803D02*
X170514360Y-112064231D01*
X170514360Y-112064231D02*
X170457217Y-112035660D01*
X170457217Y-112035660D02*
X170400074Y-111978517D01*
X170400074Y-111978517D02*
X170371503Y-111892803D01*
X170371503Y-111892803D02*
X170371503Y-111835660D01*
X170371503Y-111835660D02*
X170400074Y-111749946D01*
X170400074Y-111749946D02*
X170428646Y-111721374D01*
X170371503Y-111207089D02*
X170371503Y-111321374D01*
X170371503Y-111321374D02*
X170400074Y-111378517D01*
X170400074Y-111378517D02*
X170428646Y-111407089D01*
X170428646Y-111407089D02*
X170514360Y-111464231D01*
X170514360Y-111464231D02*
X170628646Y-111492803D01*
X170628646Y-111492803D02*
X170857217Y-111492803D01*
X170857217Y-111492803D02*
X170914360Y-111464231D01*
X170914360Y-111464231D02*
X170942932Y-111435660D01*
X170942932Y-111435660D02*
X170971503Y-111378517D01*
X170971503Y-111378517D02*
X170971503Y-111264231D01*
X170971503Y-111264231D02*
X170942932Y-111207089D01*
X170942932Y-111207089D02*
X170914360Y-111178517D01*
X170914360Y-111178517D02*
X170857217Y-111149946D01*
X170857217Y-111149946D02*
X170714360Y-111149946D01*
X170714360Y-111149946D02*
X170657217Y-111178517D01*
X170657217Y-111178517D02*
X170628646Y-111207089D01*
X170628646Y-111207089D02*
X170600074Y-111264231D01*
X170600074Y-111264231D02*
X170600074Y-111378517D01*
X170600074Y-111378517D02*
X170628646Y-111435660D01*
X170628646Y-111435660D02*
X170657217Y-111464231D01*
X170657217Y-111464231D02*
X170714360Y-111492803D01*
X163325411Y-99261571D02*
X163039697Y-99461571D01*
X163325411Y-99604428D02*
X162725411Y-99604428D01*
X162725411Y-99604428D02*
X162725411Y-99375857D01*
X162725411Y-99375857D02*
X162753982Y-99318714D01*
X162753982Y-99318714D02*
X162782554Y-99290143D01*
X162782554Y-99290143D02*
X162839697Y-99261571D01*
X162839697Y-99261571D02*
X162925411Y-99261571D01*
X162925411Y-99261571D02*
X162982554Y-99290143D01*
X162982554Y-99290143D02*
X163011125Y-99318714D01*
X163011125Y-99318714D02*
X163039697Y-99375857D01*
X163039697Y-99375857D02*
X163039697Y-99604428D01*
X163296840Y-99033000D02*
X163325411Y-98947286D01*
X163325411Y-98947286D02*
X163325411Y-98804428D01*
X163325411Y-98804428D02*
X163296840Y-98747286D01*
X163296840Y-98747286D02*
X163268268Y-98718714D01*
X163268268Y-98718714D02*
X163211125Y-98690143D01*
X163211125Y-98690143D02*
X163153982Y-98690143D01*
X163153982Y-98690143D02*
X163096840Y-98718714D01*
X163096840Y-98718714D02*
X163068268Y-98747286D01*
X163068268Y-98747286D02*
X163039697Y-98804428D01*
X163039697Y-98804428D02*
X163011125Y-98918714D01*
X163011125Y-98918714D02*
X162982554Y-98975857D01*
X162982554Y-98975857D02*
X162953982Y-99004428D01*
X162953982Y-99004428D02*
X162896840Y-99033000D01*
X162896840Y-99033000D02*
X162839697Y-99033000D01*
X162839697Y-99033000D02*
X162782554Y-99004428D01*
X162782554Y-99004428D02*
X162753982Y-98975857D01*
X162753982Y-98975857D02*
X162725411Y-98918714D01*
X162725411Y-98918714D02*
X162725411Y-98775857D01*
X162725411Y-98775857D02*
X162753982Y-98690143D01*
X162725411Y-98518714D02*
X162725411Y-98175857D01*
X163325411Y-98347285D02*
X162725411Y-98347285D01*
X170639024Y-117106178D02*
X170639024Y-116906178D01*
X170953310Y-116820464D02*
X170953310Y-117106178D01*
X170953310Y-117106178D02*
X170353310Y-117106178D01*
X170353310Y-117106178D02*
X170353310Y-116820464D01*
X170353310Y-116306179D02*
X170353310Y-116420464D01*
X170353310Y-116420464D02*
X170381881Y-116477607D01*
X170381881Y-116477607D02*
X170410453Y-116506179D01*
X170410453Y-116506179D02*
X170496167Y-116563321D01*
X170496167Y-116563321D02*
X170610453Y-116591893D01*
X170610453Y-116591893D02*
X170839024Y-116591893D01*
X170839024Y-116591893D02*
X170896167Y-116563321D01*
X170896167Y-116563321D02*
X170924739Y-116534750D01*
X170924739Y-116534750D02*
X170953310Y-116477607D01*
X170953310Y-116477607D02*
X170953310Y-116363321D01*
X170953310Y-116363321D02*
X170924739Y-116306179D01*
X170924739Y-116306179D02*
X170896167Y-116277607D01*
X170896167Y-116277607D02*
X170839024Y-116249036D01*
X170839024Y-116249036D02*
X170696167Y-116249036D01*
X170696167Y-116249036D02*
X170639024Y-116277607D01*
X170639024Y-116277607D02*
X170610453Y-116306179D01*
X170610453Y-116306179D02*
X170581881Y-116363321D01*
X170581881Y-116363321D02*
X170581881Y-116477607D01*
X170581881Y-116477607D02*
X170610453Y-116534750D01*
X170610453Y-116534750D02*
X170639024Y-116563321D01*
X170639024Y-116563321D02*
X170696167Y-116591893D01*
X162980189Y-114393222D02*
X163008761Y-114307508D01*
X163008761Y-114307508D02*
X163037332Y-114278937D01*
X163037332Y-114278937D02*
X163094475Y-114250365D01*
X163094475Y-114250365D02*
X163180189Y-114250365D01*
X163180189Y-114250365D02*
X163237332Y-114278937D01*
X163237332Y-114278937D02*
X163265904Y-114307508D01*
X163265904Y-114307508D02*
X163294475Y-114364651D01*
X163294475Y-114364651D02*
X163294475Y-114593222D01*
X163294475Y-114593222D02*
X162694475Y-114593222D01*
X162694475Y-114593222D02*
X162694475Y-114393222D01*
X162694475Y-114393222D02*
X162723046Y-114336080D01*
X162723046Y-114336080D02*
X162751618Y-114307508D01*
X162751618Y-114307508D02*
X162808761Y-114278937D01*
X162808761Y-114278937D02*
X162865904Y-114278937D01*
X162865904Y-114278937D02*
X162923046Y-114307508D01*
X162923046Y-114307508D02*
X162951618Y-114336080D01*
X162951618Y-114336080D02*
X162980189Y-114393222D01*
X162980189Y-114393222D02*
X162980189Y-114593222D01*
X163294475Y-113678937D02*
X163294475Y-114021794D01*
X163294475Y-113850365D02*
X162694475Y-113850365D01*
X162694475Y-113850365D02*
X162780189Y-113907508D01*
X162780189Y-113907508D02*
X162837332Y-113964651D01*
X162837332Y-113964651D02*
X162865904Y-114021794D01*
X162973395Y-121508117D02*
X163001967Y-121422403D01*
X163001967Y-121422403D02*
X163030538Y-121393832D01*
X163030538Y-121393832D02*
X163087681Y-121365260D01*
X163087681Y-121365260D02*
X163173395Y-121365260D01*
X163173395Y-121365260D02*
X163230538Y-121393832D01*
X163230538Y-121393832D02*
X163259110Y-121422403D01*
X163259110Y-121422403D02*
X163287681Y-121479546D01*
X163287681Y-121479546D02*
X163287681Y-121708117D01*
X163287681Y-121708117D02*
X162687681Y-121708117D01*
X162687681Y-121708117D02*
X162687681Y-121508117D01*
X162687681Y-121508117D02*
X162716252Y-121450975D01*
X162716252Y-121450975D02*
X162744824Y-121422403D01*
X162744824Y-121422403D02*
X162801967Y-121393832D01*
X162801967Y-121393832D02*
X162859110Y-121393832D01*
X162859110Y-121393832D02*
X162916252Y-121422403D01*
X162916252Y-121422403D02*
X162944824Y-121450975D01*
X162944824Y-121450975D02*
X162973395Y-121508117D01*
X162973395Y-121508117D02*
X162973395Y-121708117D01*
X162687681Y-120850975D02*
X162687681Y-120965260D01*
X162687681Y-120965260D02*
X162716252Y-121022403D01*
X162716252Y-121022403D02*
X162744824Y-121050975D01*
X162744824Y-121050975D02*
X162830538Y-121108117D01*
X162830538Y-121108117D02*
X162944824Y-121136689D01*
X162944824Y-121136689D02*
X163173395Y-121136689D01*
X163173395Y-121136689D02*
X163230538Y-121108117D01*
X163230538Y-121108117D02*
X163259110Y-121079546D01*
X163259110Y-121079546D02*
X163287681Y-121022403D01*
X163287681Y-121022403D02*
X163287681Y-120908117D01*
X163287681Y-120908117D02*
X163259110Y-120850975D01*
X163259110Y-120850975D02*
X163230538Y-120822403D01*
X163230538Y-120822403D02*
X163173395Y-120793832D01*
X163173395Y-120793832D02*
X163030538Y-120793832D01*
X163030538Y-120793832D02*
X162973395Y-120822403D01*
X162973395Y-120822403D02*
X162944824Y-120850975D01*
X162944824Y-120850975D02*
X162916252Y-120908117D01*
X162916252Y-120908117D02*
X162916252Y-121022403D01*
X162916252Y-121022403D02*
X162944824Y-121079546D01*
X162944824Y-121079546D02*
X162973395Y-121108117D01*
X162973395Y-121108117D02*
X163030538Y-121136689D01*
X170953310Y-114594749D02*
X170353310Y-114594749D01*
X170353310Y-114594749D02*
X170353310Y-114451892D01*
X170353310Y-114451892D02*
X170381881Y-114366178D01*
X170381881Y-114366178D02*
X170439024Y-114309035D01*
X170439024Y-114309035D02*
X170496167Y-114280464D01*
X170496167Y-114280464D02*
X170610453Y-114251892D01*
X170610453Y-114251892D02*
X170696167Y-114251892D01*
X170696167Y-114251892D02*
X170810453Y-114280464D01*
X170810453Y-114280464D02*
X170867596Y-114309035D01*
X170867596Y-114309035D02*
X170924739Y-114366178D01*
X170924739Y-114366178D02*
X170953310Y-114451892D01*
X170953310Y-114451892D02*
X170953310Y-114594749D01*
X170353310Y-114051892D02*
X170353310Y-113651892D01*
X170353310Y-113651892D02*
X170953310Y-113909035D01*
X170950503Y-109513656D02*
X170350503Y-109513656D01*
X170350503Y-109513656D02*
X170350503Y-109370799D01*
X170350503Y-109370799D02*
X170379074Y-109285085D01*
X170379074Y-109285085D02*
X170436217Y-109227942D01*
X170436217Y-109227942D02*
X170493360Y-109199371D01*
X170493360Y-109199371D02*
X170607646Y-109170799D01*
X170607646Y-109170799D02*
X170693360Y-109170799D01*
X170693360Y-109170799D02*
X170807646Y-109199371D01*
X170807646Y-109199371D02*
X170864789Y-109227942D01*
X170864789Y-109227942D02*
X170921932Y-109285085D01*
X170921932Y-109285085D02*
X170950503Y-109370799D01*
X170950503Y-109370799D02*
X170950503Y-109513656D01*
X170550503Y-108656514D02*
X170950503Y-108656514D01*
X170321932Y-108799371D02*
X170750503Y-108942228D01*
X170750503Y-108942228D02*
X170750503Y-108570799D01*
X170377411Y-94810143D02*
X170377411Y-94467286D01*
X170977411Y-94638714D02*
X170377411Y-94638714D01*
X170377411Y-94324428D02*
X170977411Y-93924428D01*
X170377411Y-93924428D02*
X170977411Y-94324428D01*
X170385868Y-101913047D02*
X170357297Y-101970190D01*
X170357297Y-101970190D02*
X170357297Y-102055904D01*
X170357297Y-102055904D02*
X170385868Y-102141618D01*
X170385868Y-102141618D02*
X170443011Y-102198761D01*
X170443011Y-102198761D02*
X170500154Y-102227332D01*
X170500154Y-102227332D02*
X170614440Y-102255904D01*
X170614440Y-102255904D02*
X170700154Y-102255904D01*
X170700154Y-102255904D02*
X170814440Y-102227332D01*
X170814440Y-102227332D02*
X170871583Y-102198761D01*
X170871583Y-102198761D02*
X170928726Y-102141618D01*
X170928726Y-102141618D02*
X170957297Y-102055904D01*
X170957297Y-102055904D02*
X170957297Y-101998761D01*
X170957297Y-101998761D02*
X170928726Y-101913047D01*
X170928726Y-101913047D02*
X170900154Y-101884475D01*
X170900154Y-101884475D02*
X170700154Y-101884475D01*
X170700154Y-101884475D02*
X170700154Y-101998761D01*
X170957297Y-101627332D02*
X170357297Y-101627332D01*
X170357297Y-101627332D02*
X170957297Y-101284475D01*
X170957297Y-101284475D02*
X170357297Y-101284475D01*
X170957297Y-100998761D02*
X170357297Y-100998761D01*
X170357297Y-100998761D02*
X170357297Y-100855904D01*
X170357297Y-100855904D02*
X170385868Y-100770190D01*
X170385868Y-100770190D02*
X170443011Y-100713047D01*
X170443011Y-100713047D02*
X170500154Y-100684476D01*
X170500154Y-100684476D02*
X170614440Y-100655904D01*
X170614440Y-100655904D02*
X170700154Y-100655904D01*
X170700154Y-100655904D02*
X170814440Y-100684476D01*
X170814440Y-100684476D02*
X170871583Y-100713047D01*
X170871583Y-100713047D02*
X170928726Y-100770190D01*
X170928726Y-100770190D02*
X170957297Y-100855904D01*
X170957297Y-100855904D02*
X170957297Y-100998761D01*
X163325411Y-94967285D02*
X163039697Y-95167285D01*
X163325411Y-95310142D02*
X162725411Y-95310142D01*
X162725411Y-95310142D02*
X162725411Y-95081571D01*
X162725411Y-95081571D02*
X162753982Y-95024428D01*
X162753982Y-95024428D02*
X162782554Y-94995857D01*
X162782554Y-94995857D02*
X162839697Y-94967285D01*
X162839697Y-94967285D02*
X162925411Y-94967285D01*
X162925411Y-94967285D02*
X162982554Y-94995857D01*
X162982554Y-94995857D02*
X163011125Y-95024428D01*
X163011125Y-95024428D02*
X163039697Y-95081571D01*
X163039697Y-95081571D02*
X163039697Y-95310142D01*
X163153982Y-94738714D02*
X163153982Y-94453000D01*
X163325411Y-94795857D02*
X162725411Y-94595857D01*
X162725411Y-94595857D02*
X163325411Y-94395857D01*
X162725411Y-94252999D02*
X163325411Y-94110142D01*
X163325411Y-94110142D02*
X162896840Y-93995856D01*
X162896840Y-93995856D02*
X163325411Y-93881571D01*
X163325411Y-93881571D02*
X162725411Y-93738714D01*
X163027125Y-91641570D02*
X163055697Y-91555856D01*
X163055697Y-91555856D02*
X163084268Y-91527285D01*
X163084268Y-91527285D02*
X163141411Y-91498713D01*
X163141411Y-91498713D02*
X163227125Y-91498713D01*
X163227125Y-91498713D02*
X163284268Y-91527285D01*
X163284268Y-91527285D02*
X163312840Y-91555856D01*
X163312840Y-91555856D02*
X163341411Y-91612999D01*
X163341411Y-91612999D02*
X163341411Y-91841570D01*
X163341411Y-91841570D02*
X162741411Y-91841570D01*
X162741411Y-91841570D02*
X162741411Y-91641570D01*
X162741411Y-91641570D02*
X162769982Y-91584428D01*
X162769982Y-91584428D02*
X162798554Y-91555856D01*
X162798554Y-91555856D02*
X162855697Y-91527285D01*
X162855697Y-91527285D02*
X162912840Y-91527285D01*
X162912840Y-91527285D02*
X162969982Y-91555856D01*
X162969982Y-91555856D02*
X162998554Y-91584428D01*
X162998554Y-91584428D02*
X163027125Y-91641570D01*
X163027125Y-91641570D02*
X163027125Y-91841570D01*
X163112840Y-91241570D02*
X163112840Y-90784428D01*
X163341411Y-91012999D02*
X162884268Y-91012999D01*
X170921932Y-107245085D02*
X170950503Y-107159371D01*
X170950503Y-107159371D02*
X170950503Y-107016513D01*
X170950503Y-107016513D02*
X170921932Y-106959371D01*
X170921932Y-106959371D02*
X170893360Y-106930799D01*
X170893360Y-106930799D02*
X170836217Y-106902228D01*
X170836217Y-106902228D02*
X170779074Y-106902228D01*
X170779074Y-106902228D02*
X170721932Y-106930799D01*
X170721932Y-106930799D02*
X170693360Y-106959371D01*
X170693360Y-106959371D02*
X170664789Y-107016513D01*
X170664789Y-107016513D02*
X170636217Y-107130799D01*
X170636217Y-107130799D02*
X170607646Y-107187942D01*
X170607646Y-107187942D02*
X170579074Y-107216513D01*
X170579074Y-107216513D02*
X170521932Y-107245085D01*
X170521932Y-107245085D02*
X170464789Y-107245085D01*
X170464789Y-107245085D02*
X170407646Y-107216513D01*
X170407646Y-107216513D02*
X170379074Y-107187942D01*
X170379074Y-107187942D02*
X170350503Y-107130799D01*
X170350503Y-107130799D02*
X170350503Y-106987942D01*
X170350503Y-106987942D02*
X170379074Y-106902228D01*
X170893360Y-106302227D02*
X170921932Y-106330799D01*
X170921932Y-106330799D02*
X170950503Y-106416513D01*
X170950503Y-106416513D02*
X170950503Y-106473656D01*
X170950503Y-106473656D02*
X170921932Y-106559370D01*
X170921932Y-106559370D02*
X170864789Y-106616513D01*
X170864789Y-106616513D02*
X170807646Y-106645084D01*
X170807646Y-106645084D02*
X170693360Y-106673656D01*
X170693360Y-106673656D02*
X170607646Y-106673656D01*
X170607646Y-106673656D02*
X170493360Y-106645084D01*
X170493360Y-106645084D02*
X170436217Y-106616513D01*
X170436217Y-106616513D02*
X170379074Y-106559370D01*
X170379074Y-106559370D02*
X170350503Y-106473656D01*
X170350503Y-106473656D02*
X170350503Y-106416513D01*
X170350503Y-106416513D02*
X170379074Y-106330799D01*
X170379074Y-106330799D02*
X170407646Y-106302227D01*
X170950503Y-105759370D02*
X170950503Y-106045084D01*
X170950503Y-106045084D02*
X170350503Y-106045084D01*
X162973395Y-119218117D02*
X163001967Y-119132403D01*
X163001967Y-119132403D02*
X163030538Y-119103832D01*
X163030538Y-119103832D02*
X163087681Y-119075260D01*
X163087681Y-119075260D02*
X163173395Y-119075260D01*
X163173395Y-119075260D02*
X163230538Y-119103832D01*
X163230538Y-119103832D02*
X163259110Y-119132403D01*
X163259110Y-119132403D02*
X163287681Y-119189546D01*
X163287681Y-119189546D02*
X163287681Y-119418117D01*
X163287681Y-119418117D02*
X162687681Y-119418117D01*
X162687681Y-119418117D02*
X162687681Y-119218117D01*
X162687681Y-119218117D02*
X162716252Y-119160975D01*
X162716252Y-119160975D02*
X162744824Y-119132403D01*
X162744824Y-119132403D02*
X162801967Y-119103832D01*
X162801967Y-119103832D02*
X162859110Y-119103832D01*
X162859110Y-119103832D02*
X162916252Y-119132403D01*
X162916252Y-119132403D02*
X162944824Y-119160975D01*
X162944824Y-119160975D02*
X162973395Y-119218117D01*
X162973395Y-119218117D02*
X162973395Y-119418117D01*
X162744824Y-118846689D02*
X162716252Y-118818117D01*
X162716252Y-118818117D02*
X162687681Y-118760975D01*
X162687681Y-118760975D02*
X162687681Y-118618117D01*
X162687681Y-118618117D02*
X162716252Y-118560975D01*
X162716252Y-118560975D02*
X162744824Y-118532403D01*
X162744824Y-118532403D02*
X162801967Y-118503832D01*
X162801967Y-118503832D02*
X162859110Y-118503832D01*
X162859110Y-118503832D02*
X162944824Y-118532403D01*
X162944824Y-118532403D02*
X163287681Y-118875260D01*
X163287681Y-118875260D02*
X163287681Y-118503832D01*
X162977382Y-106729272D02*
X162977382Y-106929272D01*
X163291668Y-106929272D02*
X162691668Y-106929272D01*
X162691668Y-106929272D02*
X162691668Y-106643558D01*
X162691668Y-106129272D02*
X162691668Y-106414986D01*
X162691668Y-106414986D02*
X162977382Y-106443558D01*
X162977382Y-106443558D02*
X162948811Y-106414986D01*
X162948811Y-106414986D02*
X162920239Y-106357844D01*
X162920239Y-106357844D02*
X162920239Y-106214986D01*
X162920239Y-106214986D02*
X162948811Y-106157844D01*
X162948811Y-106157844D02*
X162977382Y-106129272D01*
X162977382Y-106129272D02*
X163034525Y-106100701D01*
X163034525Y-106100701D02*
X163177382Y-106100701D01*
X163177382Y-106100701D02*
X163234525Y-106129272D01*
X163234525Y-106129272D02*
X163263097Y-106157844D01*
X163263097Y-106157844D02*
X163291668Y-106214986D01*
X163291668Y-106214986D02*
X163291668Y-106357844D01*
X163291668Y-106357844D02*
X163263097Y-106414986D01*
X163263097Y-106414986D02*
X163234525Y-106443558D01*
X170412817Y-99391669D02*
X170384246Y-99448812D01*
X170384246Y-99448812D02*
X170384246Y-99534526D01*
X170384246Y-99534526D02*
X170412817Y-99620240D01*
X170412817Y-99620240D02*
X170469960Y-99677383D01*
X170469960Y-99677383D02*
X170527103Y-99705954D01*
X170527103Y-99705954D02*
X170641389Y-99734526D01*
X170641389Y-99734526D02*
X170727103Y-99734526D01*
X170727103Y-99734526D02*
X170841389Y-99705954D01*
X170841389Y-99705954D02*
X170898532Y-99677383D01*
X170898532Y-99677383D02*
X170955675Y-99620240D01*
X170955675Y-99620240D02*
X170984246Y-99534526D01*
X170984246Y-99534526D02*
X170984246Y-99477383D01*
X170984246Y-99477383D02*
X170955675Y-99391669D01*
X170955675Y-99391669D02*
X170927103Y-99363097D01*
X170927103Y-99363097D02*
X170727103Y-99363097D01*
X170727103Y-99363097D02*
X170727103Y-99477383D01*
X170984246Y-99105954D02*
X170384246Y-99105954D01*
X170384246Y-99105954D02*
X170984246Y-98763097D01*
X170984246Y-98763097D02*
X170384246Y-98763097D01*
X170984246Y-98477383D02*
X170384246Y-98477383D01*
X170384246Y-98477383D02*
X170384246Y-98334526D01*
X170384246Y-98334526D02*
X170412817Y-98248812D01*
X170412817Y-98248812D02*
X170469960Y-98191669D01*
X170469960Y-98191669D02*
X170527103Y-98163098D01*
X170527103Y-98163098D02*
X170641389Y-98134526D01*
X170641389Y-98134526D02*
X170727103Y-98134526D01*
X170727103Y-98134526D02*
X170841389Y-98163098D01*
X170841389Y-98163098D02*
X170898532Y-98191669D01*
X170898532Y-98191669D02*
X170955675Y-98248812D01*
X170955675Y-98248812D02*
X170984246Y-98334526D01*
X170984246Y-98334526D02*
X170984246Y-98477383D01*
X162698462Y-102254378D02*
X163298462Y-102054378D01*
X163298462Y-102054378D02*
X162698462Y-101854378D01*
X163241319Y-101311520D02*
X163269891Y-101340092D01*
X163269891Y-101340092D02*
X163298462Y-101425806D01*
X163298462Y-101425806D02*
X163298462Y-101482949D01*
X163298462Y-101482949D02*
X163269891Y-101568663D01*
X163269891Y-101568663D02*
X163212748Y-101625806D01*
X163212748Y-101625806D02*
X163155605Y-101654377D01*
X163155605Y-101654377D02*
X163041319Y-101682949D01*
X163041319Y-101682949D02*
X162955605Y-101682949D01*
X162955605Y-101682949D02*
X162841319Y-101654377D01*
X162841319Y-101654377D02*
X162784176Y-101625806D01*
X162784176Y-101625806D02*
X162727033Y-101568663D01*
X162727033Y-101568663D02*
X162698462Y-101482949D01*
X162698462Y-101482949D02*
X162698462Y-101425806D01*
X162698462Y-101425806D02*
X162727033Y-101340092D01*
X162727033Y-101340092D02*
X162755605Y-101311520D01*
X163241319Y-100711520D02*
X163269891Y-100740092D01*
X163269891Y-100740092D02*
X163298462Y-100825806D01*
X163298462Y-100825806D02*
X163298462Y-100882949D01*
X163298462Y-100882949D02*
X163269891Y-100968663D01*
X163269891Y-100968663D02*
X163212748Y-101025806D01*
X163212748Y-101025806D02*
X163155605Y-101054377D01*
X163155605Y-101054377D02*
X163041319Y-101082949D01*
X163041319Y-101082949D02*
X162955605Y-101082949D01*
X162955605Y-101082949D02*
X162841319Y-101054377D01*
X162841319Y-101054377D02*
X162784176Y-101025806D01*
X162784176Y-101025806D02*
X162727033Y-100968663D01*
X162727033Y-100968663D02*
X162698462Y-100882949D01*
X162698462Y-100882949D02*
X162698462Y-100825806D01*
X162698462Y-100825806D02*
X162727033Y-100740092D01*
X162727033Y-100740092D02*
X162755605Y-100711520D01*
D12*
X165315504Y-91148474D02*
X165315504Y-90348474D01*
X165315504Y-90348474D02*
X165620266Y-90348474D01*
X165620266Y-90348474D02*
X165696456Y-90386569D01*
X165696456Y-90386569D02*
X165734551Y-90424664D01*
X165734551Y-90424664D02*
X165772647Y-90500855D01*
X165772647Y-90500855D02*
X165772647Y-90615140D01*
X165772647Y-90615140D02*
X165734551Y-90691331D01*
X165734551Y-90691331D02*
X165696456Y-90729426D01*
X165696456Y-90729426D02*
X165620266Y-90767521D01*
X165620266Y-90767521D02*
X165315504Y-90767521D01*
X166229789Y-91148474D02*
X166153599Y-91110379D01*
X166153599Y-91110379D02*
X166115504Y-91072283D01*
X166115504Y-91072283D02*
X166077408Y-90996093D01*
X166077408Y-90996093D02*
X166077408Y-90767521D01*
X166077408Y-90767521D02*
X166115504Y-90691331D01*
X166115504Y-90691331D02*
X166153599Y-90653236D01*
X166153599Y-90653236D02*
X166229789Y-90615140D01*
X166229789Y-90615140D02*
X166344075Y-90615140D01*
X166344075Y-90615140D02*
X166420266Y-90653236D01*
X166420266Y-90653236D02*
X166458361Y-90691331D01*
X166458361Y-90691331D02*
X166496456Y-90767521D01*
X166496456Y-90767521D02*
X166496456Y-90996093D01*
X166496456Y-90996093D02*
X166458361Y-91072283D01*
X166458361Y-91072283D02*
X166420266Y-91110379D01*
X166420266Y-91110379D02*
X166344075Y-91148474D01*
X166344075Y-91148474D02*
X166229789Y-91148474D01*
X166763123Y-90615140D02*
X166915504Y-91148474D01*
X166915504Y-91148474D02*
X167067885Y-90767521D01*
X167067885Y-90767521D02*
X167220266Y-91148474D01*
X167220266Y-91148474D02*
X167372647Y-90615140D01*
X167982171Y-91110379D02*
X167905980Y-91148474D01*
X167905980Y-91148474D02*
X167753599Y-91148474D01*
X167753599Y-91148474D02*
X167677409Y-91110379D01*
X167677409Y-91110379D02*
X167639313Y-91034188D01*
X167639313Y-91034188D02*
X167639313Y-90729426D01*
X167639313Y-90729426D02*
X167677409Y-90653236D01*
X167677409Y-90653236D02*
X167753599Y-90615140D01*
X167753599Y-90615140D02*
X167905980Y-90615140D01*
X167905980Y-90615140D02*
X167982171Y-90653236D01*
X167982171Y-90653236D02*
X168020266Y-90729426D01*
X168020266Y-90729426D02*
X168020266Y-90805617D01*
X168020266Y-90805617D02*
X167639313Y-90881807D01*
X168363123Y-91148474D02*
X168363123Y-90615140D01*
X168363123Y-90767521D02*
X168401218Y-90691331D01*
X168401218Y-90691331D02*
X168439313Y-90653236D01*
X168439313Y-90653236D02*
X168515504Y-90615140D01*
X168515504Y-90615140D02*
X168591694Y-90615140D01*
D11*
X127698665Y-88204196D02*
X127841522Y-88251815D01*
X127841522Y-88251815D02*
X128079617Y-88251815D01*
X128079617Y-88251815D02*
X128174855Y-88204196D01*
X128174855Y-88204196D02*
X128222474Y-88156576D01*
X128222474Y-88156576D02*
X128270093Y-88061338D01*
X128270093Y-88061338D02*
X128270093Y-87966100D01*
X128270093Y-87966100D02*
X128222474Y-87870862D01*
X128222474Y-87870862D02*
X128174855Y-87823243D01*
X128174855Y-87823243D02*
X128079617Y-87775624D01*
X128079617Y-87775624D02*
X127889141Y-87728005D01*
X127889141Y-87728005D02*
X127793903Y-87680386D01*
X127793903Y-87680386D02*
X127746284Y-87632767D01*
X127746284Y-87632767D02*
X127698665Y-87537529D01*
X127698665Y-87537529D02*
X127698665Y-87442291D01*
X127698665Y-87442291D02*
X127746284Y-87347053D01*
X127746284Y-87347053D02*
X127793903Y-87299434D01*
X127793903Y-87299434D02*
X127889141Y-87251815D01*
X127889141Y-87251815D02*
X128127236Y-87251815D01*
X128127236Y-87251815D02*
X128270093Y-87299434D01*
X128603427Y-87251815D02*
X128841522Y-88251815D01*
X128841522Y-88251815D02*
X129031998Y-87537529D01*
X129031998Y-87537529D02*
X129222474Y-88251815D01*
X129222474Y-88251815D02*
X129460570Y-87251815D01*
X129889141Y-88251815D02*
X130079617Y-88251815D01*
X130079617Y-88251815D02*
X130174855Y-88204196D01*
X130174855Y-88204196D02*
X130222474Y-88156576D01*
X130222474Y-88156576D02*
X130317712Y-88013719D01*
X130317712Y-88013719D02*
X130365331Y-87823243D01*
X130365331Y-87823243D02*
X130365331Y-87442291D01*
X130365331Y-87442291D02*
X130317712Y-87347053D01*
X130317712Y-87347053D02*
X130270093Y-87299434D01*
X130270093Y-87299434D02*
X130174855Y-87251815D01*
X130174855Y-87251815D02*
X129984379Y-87251815D01*
X129984379Y-87251815D02*
X129889141Y-87299434D01*
X129889141Y-87299434D02*
X129841522Y-87347053D01*
X129841522Y-87347053D02*
X129793903Y-87442291D01*
X129793903Y-87442291D02*
X129793903Y-87680386D01*
X129793903Y-87680386D02*
X129841522Y-87775624D01*
X129841522Y-87775624D02*
X129889141Y-87823243D01*
X129889141Y-87823243D02*
X129984379Y-87870862D01*
X129984379Y-87870862D02*
X130174855Y-87870862D01*
X130174855Y-87870862D02*
X130270093Y-87823243D01*
X130270093Y-87823243D02*
X130317712Y-87775624D01*
X130317712Y-87775624D02*
X130365331Y-87680386D01*
X70072473Y-118754698D02*
X70215330Y-118802317D01*
X70215330Y-118802317D02*
X70453425Y-118802317D01*
X70453425Y-118802317D02*
X70548663Y-118754698D01*
X70548663Y-118754698D02*
X70596282Y-118707078D01*
X70596282Y-118707078D02*
X70643901Y-118611840D01*
X70643901Y-118611840D02*
X70643901Y-118516602D01*
X70643901Y-118516602D02*
X70596282Y-118421364D01*
X70596282Y-118421364D02*
X70548663Y-118373745D01*
X70548663Y-118373745D02*
X70453425Y-118326126D01*
X70453425Y-118326126D02*
X70262949Y-118278507D01*
X70262949Y-118278507D02*
X70167711Y-118230888D01*
X70167711Y-118230888D02*
X70120092Y-118183269D01*
X70120092Y-118183269D02*
X70072473Y-118088031D01*
X70072473Y-118088031D02*
X70072473Y-117992793D01*
X70072473Y-117992793D02*
X70120092Y-117897555D01*
X70120092Y-117897555D02*
X70167711Y-117849936D01*
X70167711Y-117849936D02*
X70262949Y-117802317D01*
X70262949Y-117802317D02*
X70501044Y-117802317D01*
X70501044Y-117802317D02*
X70643901Y-117849936D01*
X70977235Y-117802317D02*
X71215330Y-118802317D01*
X71215330Y-118802317D02*
X71405806Y-118088031D01*
X71405806Y-118088031D02*
X71596282Y-118802317D01*
X71596282Y-118802317D02*
X71834378Y-117802317D01*
X72739139Y-118802317D02*
X72167711Y-118802317D01*
X72453425Y-118802317D02*
X72453425Y-117802317D01*
X72453425Y-117802317D02*
X72358187Y-117945174D01*
X72358187Y-117945174D02*
X72262949Y-118040412D01*
X72262949Y-118040412D02*
X72167711Y-118088031D01*
X73691520Y-118802317D02*
X73120092Y-118802317D01*
X73405806Y-118802317D02*
X73405806Y-117802317D01*
X73405806Y-117802317D02*
X73310568Y-117945174D01*
X73310568Y-117945174D02*
X73215330Y-118040412D01*
X73215330Y-118040412D02*
X73120092Y-118088031D01*
X146272475Y-90704201D02*
X146415332Y-90751820D01*
X146415332Y-90751820D02*
X146653427Y-90751820D01*
X146653427Y-90751820D02*
X146748665Y-90704201D01*
X146748665Y-90704201D02*
X146796284Y-90656581D01*
X146796284Y-90656581D02*
X146843903Y-90561343D01*
X146843903Y-90561343D02*
X146843903Y-90466105D01*
X146843903Y-90466105D02*
X146796284Y-90370867D01*
X146796284Y-90370867D02*
X146748665Y-90323248D01*
X146748665Y-90323248D02*
X146653427Y-90275629D01*
X146653427Y-90275629D02*
X146462951Y-90228010D01*
X146462951Y-90228010D02*
X146367713Y-90180391D01*
X146367713Y-90180391D02*
X146320094Y-90132772D01*
X146320094Y-90132772D02*
X146272475Y-90037534D01*
X146272475Y-90037534D02*
X146272475Y-89942296D01*
X146272475Y-89942296D02*
X146320094Y-89847058D01*
X146320094Y-89847058D02*
X146367713Y-89799439D01*
X146367713Y-89799439D02*
X146462951Y-89751820D01*
X146462951Y-89751820D02*
X146701046Y-89751820D01*
X146701046Y-89751820D02*
X146843903Y-89799439D01*
X147177237Y-89751820D02*
X147415332Y-90751820D01*
X147415332Y-90751820D02*
X147605808Y-90037534D01*
X147605808Y-90037534D02*
X147796284Y-90751820D01*
X147796284Y-90751820D02*
X148034380Y-89751820D01*
X148939141Y-90751820D02*
X148367713Y-90751820D01*
X148653427Y-90751820D02*
X148653427Y-89751820D01*
X148653427Y-89751820D02*
X148558189Y-89894677D01*
X148558189Y-89894677D02*
X148462951Y-89989915D01*
X148462951Y-89989915D02*
X148367713Y-90037534D01*
X149558189Y-89751820D02*
X149653427Y-89751820D01*
X149653427Y-89751820D02*
X149748665Y-89799439D01*
X149748665Y-89799439D02*
X149796284Y-89847058D01*
X149796284Y-89847058D02*
X149843903Y-89942296D01*
X149843903Y-89942296D02*
X149891522Y-90132772D01*
X149891522Y-90132772D02*
X149891522Y-90370867D01*
X149891522Y-90370867D02*
X149843903Y-90561343D01*
X149843903Y-90561343D02*
X149796284Y-90656581D01*
X149796284Y-90656581D02*
X149748665Y-90704201D01*
X149748665Y-90704201D02*
X149653427Y-90751820D01*
X149653427Y-90751820D02*
X149558189Y-90751820D01*
X149558189Y-90751820D02*
X149462951Y-90704201D01*
X149462951Y-90704201D02*
X149415332Y-90656581D01*
X149415332Y-90656581D02*
X149367713Y-90561343D01*
X149367713Y-90561343D02*
X149320094Y-90370867D01*
X149320094Y-90370867D02*
X149320094Y-90132772D01*
X149320094Y-90132772D02*
X149367713Y-89942296D01*
X149367713Y-89942296D02*
X149415332Y-89847058D01*
X149415332Y-89847058D02*
X149462951Y-89799439D01*
X149462951Y-89799439D02*
X149558189Y-89751820D01*
X70548666Y-99704695D02*
X70691523Y-99752314D01*
X70691523Y-99752314D02*
X70929618Y-99752314D01*
X70929618Y-99752314D02*
X71024856Y-99704695D01*
X71024856Y-99704695D02*
X71072475Y-99657075D01*
X71072475Y-99657075D02*
X71120094Y-99561837D01*
X71120094Y-99561837D02*
X71120094Y-99466599D01*
X71120094Y-99466599D02*
X71072475Y-99371361D01*
X71072475Y-99371361D02*
X71024856Y-99323742D01*
X71024856Y-99323742D02*
X70929618Y-99276123D01*
X70929618Y-99276123D02*
X70739142Y-99228504D01*
X70739142Y-99228504D02*
X70643904Y-99180885D01*
X70643904Y-99180885D02*
X70596285Y-99133266D01*
X70596285Y-99133266D02*
X70548666Y-99038028D01*
X70548666Y-99038028D02*
X70548666Y-98942790D01*
X70548666Y-98942790D02*
X70596285Y-98847552D01*
X70596285Y-98847552D02*
X70643904Y-98799933D01*
X70643904Y-98799933D02*
X70739142Y-98752314D01*
X70739142Y-98752314D02*
X70977237Y-98752314D01*
X70977237Y-98752314D02*
X71120094Y-98799933D01*
X71453428Y-98752314D02*
X71691523Y-99752314D01*
X71691523Y-99752314D02*
X71881999Y-99038028D01*
X71881999Y-99038028D02*
X72072475Y-99752314D01*
X72072475Y-99752314D02*
X72310571Y-98752314D01*
X73120094Y-98752314D02*
X72929618Y-98752314D01*
X72929618Y-98752314D02*
X72834380Y-98799933D01*
X72834380Y-98799933D02*
X72786761Y-98847552D01*
X72786761Y-98847552D02*
X72691523Y-98990409D01*
X72691523Y-98990409D02*
X72643904Y-99180885D01*
X72643904Y-99180885D02*
X72643904Y-99561837D01*
X72643904Y-99561837D02*
X72691523Y-99657075D01*
X72691523Y-99657075D02*
X72739142Y-99704695D01*
X72739142Y-99704695D02*
X72834380Y-99752314D01*
X72834380Y-99752314D02*
X73024856Y-99752314D01*
X73024856Y-99752314D02*
X73120094Y-99704695D01*
X73120094Y-99704695D02*
X73167713Y-99657075D01*
X73167713Y-99657075D02*
X73215332Y-99561837D01*
X73215332Y-99561837D02*
X73215332Y-99323742D01*
X73215332Y-99323742D02*
X73167713Y-99228504D01*
X73167713Y-99228504D02*
X73120094Y-99180885D01*
X73120094Y-99180885D02*
X73024856Y-99133266D01*
X73024856Y-99133266D02*
X72834380Y-99133266D01*
X72834380Y-99133266D02*
X72739142Y-99180885D01*
X72739142Y-99180885D02*
X72691523Y-99228504D01*
X72691523Y-99228504D02*
X72643904Y-99323742D01*
X89122473Y-106754702D02*
X89265330Y-106802321D01*
X89265330Y-106802321D02*
X89503425Y-106802321D01*
X89503425Y-106802321D02*
X89598663Y-106754702D01*
X89598663Y-106754702D02*
X89646282Y-106707082D01*
X89646282Y-106707082D02*
X89693901Y-106611844D01*
X89693901Y-106611844D02*
X89693901Y-106516606D01*
X89693901Y-106516606D02*
X89646282Y-106421368D01*
X89646282Y-106421368D02*
X89598663Y-106373749D01*
X89598663Y-106373749D02*
X89503425Y-106326130D01*
X89503425Y-106326130D02*
X89312949Y-106278511D01*
X89312949Y-106278511D02*
X89217711Y-106230892D01*
X89217711Y-106230892D02*
X89170092Y-106183273D01*
X89170092Y-106183273D02*
X89122473Y-106088035D01*
X89122473Y-106088035D02*
X89122473Y-105992797D01*
X89122473Y-105992797D02*
X89170092Y-105897559D01*
X89170092Y-105897559D02*
X89217711Y-105849940D01*
X89217711Y-105849940D02*
X89312949Y-105802321D01*
X89312949Y-105802321D02*
X89551044Y-105802321D01*
X89551044Y-105802321D02*
X89693901Y-105849940D01*
X90027235Y-105802321D02*
X90265330Y-106802321D01*
X90265330Y-106802321D02*
X90455806Y-106088035D01*
X90455806Y-106088035D02*
X90646282Y-106802321D01*
X90646282Y-106802321D02*
X90884378Y-105802321D01*
X91789139Y-106802321D02*
X91217711Y-106802321D01*
X91503425Y-106802321D02*
X91503425Y-105802321D01*
X91503425Y-105802321D02*
X91408187Y-105945178D01*
X91408187Y-105945178D02*
X91312949Y-106040416D01*
X91312949Y-106040416D02*
X91217711Y-106088035D01*
X92170092Y-105897559D02*
X92217711Y-105849940D01*
X92217711Y-105849940D02*
X92312949Y-105802321D01*
X92312949Y-105802321D02*
X92551044Y-105802321D01*
X92551044Y-105802321D02*
X92646282Y-105849940D01*
X92646282Y-105849940D02*
X92693901Y-105897559D01*
X92693901Y-105897559D02*
X92741520Y-105992797D01*
X92741520Y-105992797D02*
X92741520Y-106088035D01*
X92741520Y-106088035D02*
X92693901Y-106230892D01*
X92693901Y-106230892D02*
X92122473Y-106802321D01*
X92122473Y-106802321D02*
X92741520Y-106802321D01*
D12*
X166096379Y-131873173D02*
X166553522Y-131873173D01*
X166324950Y-132673173D02*
X166324950Y-131873173D01*
X167277332Y-132673173D02*
X167010665Y-132292220D01*
X166820189Y-132673173D02*
X166820189Y-131873173D01*
X166820189Y-131873173D02*
X167124951Y-131873173D01*
X167124951Y-131873173D02*
X167201141Y-131911268D01*
X167201141Y-131911268D02*
X167239236Y-131949363D01*
X167239236Y-131949363D02*
X167277332Y-132025554D01*
X167277332Y-132025554D02*
X167277332Y-132139839D01*
X167277332Y-132139839D02*
X167239236Y-132216030D01*
X167239236Y-132216030D02*
X167201141Y-132254125D01*
X167201141Y-132254125D02*
X167124951Y-132292220D01*
X167124951Y-132292220D02*
X166820189Y-132292220D01*
X168077332Y-132673173D02*
X167810665Y-132292220D01*
X167620189Y-132673173D02*
X167620189Y-131873173D01*
X167620189Y-131873173D02*
X167924951Y-131873173D01*
X167924951Y-131873173D02*
X168001141Y-131911268D01*
X168001141Y-131911268D02*
X168039236Y-131949363D01*
X168039236Y-131949363D02*
X168077332Y-132025554D01*
X168077332Y-132025554D02*
X168077332Y-132139839D01*
X168077332Y-132139839D02*
X168039236Y-132216030D01*
X168039236Y-132216030D02*
X168001141Y-132254125D01*
X168001141Y-132254125D02*
X167924951Y-132292220D01*
X167924951Y-132292220D02*
X167620189Y-132292220D01*
X168382093Y-132635078D02*
X168496379Y-132673173D01*
X168496379Y-132673173D02*
X168686855Y-132673173D01*
X168686855Y-132673173D02*
X168763046Y-132635078D01*
X168763046Y-132635078D02*
X168801141Y-132596982D01*
X168801141Y-132596982D02*
X168839236Y-132520792D01*
X168839236Y-132520792D02*
X168839236Y-132444601D01*
X168839236Y-132444601D02*
X168801141Y-132368411D01*
X168801141Y-132368411D02*
X168763046Y-132330316D01*
X168763046Y-132330316D02*
X168686855Y-132292220D01*
X168686855Y-132292220D02*
X168534474Y-132254125D01*
X168534474Y-132254125D02*
X168458284Y-132216030D01*
X168458284Y-132216030D02*
X168420189Y-132177935D01*
X168420189Y-132177935D02*
X168382093Y-132101744D01*
X168382093Y-132101744D02*
X168382093Y-132025554D01*
X168382093Y-132025554D02*
X168420189Y-131949363D01*
X168420189Y-131949363D02*
X168458284Y-131911268D01*
X168458284Y-131911268D02*
X168534474Y-131873173D01*
X168534474Y-131873173D02*
X168724951Y-131873173D01*
X168724951Y-131873173D02*
X168839236Y-131911268D01*
D11*
X146748664Y-71654199D02*
X146891521Y-71701818D01*
X146891521Y-71701818D02*
X147129616Y-71701818D01*
X147129616Y-71701818D02*
X147224854Y-71654199D01*
X147224854Y-71654199D02*
X147272473Y-71606579D01*
X147272473Y-71606579D02*
X147320092Y-71511341D01*
X147320092Y-71511341D02*
X147320092Y-71416103D01*
X147320092Y-71416103D02*
X147272473Y-71320865D01*
X147272473Y-71320865D02*
X147224854Y-71273246D01*
X147224854Y-71273246D02*
X147129616Y-71225627D01*
X147129616Y-71225627D02*
X146939140Y-71178008D01*
X146939140Y-71178008D02*
X146843902Y-71130389D01*
X146843902Y-71130389D02*
X146796283Y-71082770D01*
X146796283Y-71082770D02*
X146748664Y-70987532D01*
X146748664Y-70987532D02*
X146748664Y-70892294D01*
X146748664Y-70892294D02*
X146796283Y-70797056D01*
X146796283Y-70797056D02*
X146843902Y-70749437D01*
X146843902Y-70749437D02*
X146939140Y-70701818D01*
X146939140Y-70701818D02*
X147177235Y-70701818D01*
X147177235Y-70701818D02*
X147320092Y-70749437D01*
X147653426Y-70701818D02*
X147891521Y-71701818D01*
X147891521Y-71701818D02*
X148081997Y-70987532D01*
X148081997Y-70987532D02*
X148272473Y-71701818D01*
X148272473Y-71701818D02*
X148510569Y-70701818D01*
X149367711Y-70701818D02*
X148891521Y-70701818D01*
X148891521Y-70701818D02*
X148843902Y-71178008D01*
X148843902Y-71178008D02*
X148891521Y-71130389D01*
X148891521Y-71130389D02*
X148986759Y-71082770D01*
X148986759Y-71082770D02*
X149224854Y-71082770D01*
X149224854Y-71082770D02*
X149320092Y-71130389D01*
X149320092Y-71130389D02*
X149367711Y-71178008D01*
X149367711Y-71178008D02*
X149415330Y-71273246D01*
X149415330Y-71273246D02*
X149415330Y-71511341D01*
X149415330Y-71511341D02*
X149367711Y-71606579D01*
X149367711Y-71606579D02*
X149320092Y-71654199D01*
X149320092Y-71654199D02*
X149224854Y-71701818D01*
X149224854Y-71701818D02*
X148986759Y-71701818D01*
X148986759Y-71701818D02*
X148891521Y-71654199D01*
X148891521Y-71654199D02*
X148843902Y-71606579D01*
X115184600Y-126304681D02*
X115327457Y-126352300D01*
X115327457Y-126352300D02*
X115565552Y-126352300D01*
X115565552Y-126352300D02*
X115660790Y-126304681D01*
X115660790Y-126304681D02*
X115708409Y-126257061D01*
X115708409Y-126257061D02*
X115756028Y-126161823D01*
X115756028Y-126161823D02*
X115756028Y-126066585D01*
X115756028Y-126066585D02*
X115708409Y-125971347D01*
X115708409Y-125971347D02*
X115660790Y-125923728D01*
X115660790Y-125923728D02*
X115565552Y-125876109D01*
X115565552Y-125876109D02*
X115375076Y-125828490D01*
X115375076Y-125828490D02*
X115279838Y-125780871D01*
X115279838Y-125780871D02*
X115232219Y-125733252D01*
X115232219Y-125733252D02*
X115184600Y-125638014D01*
X115184600Y-125638014D02*
X115184600Y-125542776D01*
X115184600Y-125542776D02*
X115232219Y-125447538D01*
X115232219Y-125447538D02*
X115279838Y-125399919D01*
X115279838Y-125399919D02*
X115375076Y-125352300D01*
X115375076Y-125352300D02*
X115613171Y-125352300D01*
X115613171Y-125352300D02*
X115756028Y-125399919D01*
X116089362Y-125352300D02*
X116327457Y-126352300D01*
X116327457Y-126352300D02*
X116517933Y-125638014D01*
X116517933Y-125638014D02*
X116708409Y-126352300D01*
X116708409Y-126352300D02*
X116946505Y-125352300D01*
X117851266Y-126352300D02*
X117279838Y-126352300D01*
X117565552Y-126352300D02*
X117565552Y-125352300D01*
X117565552Y-125352300D02*
X117470314Y-125495157D01*
X117470314Y-125495157D02*
X117375076Y-125590395D01*
X117375076Y-125590395D02*
X117279838Y-125638014D01*
X118708409Y-125352300D02*
X118517933Y-125352300D01*
X118517933Y-125352300D02*
X118422695Y-125399919D01*
X118422695Y-125399919D02*
X118375076Y-125447538D01*
X118375076Y-125447538D02*
X118279838Y-125590395D01*
X118279838Y-125590395D02*
X118232219Y-125780871D01*
X118232219Y-125780871D02*
X118232219Y-126161823D01*
X118232219Y-126161823D02*
X118279838Y-126257061D01*
X118279838Y-126257061D02*
X118327457Y-126304681D01*
X118327457Y-126304681D02*
X118422695Y-126352300D01*
X118422695Y-126352300D02*
X118613171Y-126352300D01*
X118613171Y-126352300D02*
X118708409Y-126304681D01*
X118708409Y-126304681D02*
X118756028Y-126257061D01*
X118756028Y-126257061D02*
X118803647Y-126161823D01*
X118803647Y-126161823D02*
X118803647Y-125923728D01*
X118803647Y-125923728D02*
X118756028Y-125828490D01*
X118756028Y-125828490D02*
X118708409Y-125780871D01*
X118708409Y-125780871D02*
X118613171Y-125733252D01*
X118613171Y-125733252D02*
X118422695Y-125733252D01*
X118422695Y-125733252D02*
X118327457Y-125780871D01*
X118327457Y-125780871D02*
X118279838Y-125828490D01*
X118279838Y-125828490D02*
X118232219Y-125923728D01*
D12*
X165744724Y-121357895D02*
X165897105Y-121357895D01*
X165897105Y-121357895D02*
X165973295Y-121395990D01*
X165973295Y-121395990D02*
X166049486Y-121472180D01*
X166049486Y-121472180D02*
X166087581Y-121624561D01*
X166087581Y-121624561D02*
X166087581Y-121891228D01*
X166087581Y-121891228D02*
X166049486Y-122043609D01*
X166049486Y-122043609D02*
X165973295Y-122119800D01*
X165973295Y-122119800D02*
X165897105Y-122157895D01*
X165897105Y-122157895D02*
X165744724Y-122157895D01*
X165744724Y-122157895D02*
X165668533Y-122119800D01*
X165668533Y-122119800D02*
X165592343Y-122043609D01*
X165592343Y-122043609D02*
X165554247Y-121891228D01*
X165554247Y-121891228D02*
X165554247Y-121624561D01*
X165554247Y-121624561D02*
X165592343Y-121472180D01*
X165592343Y-121472180D02*
X165668533Y-121395990D01*
X165668533Y-121395990D02*
X165744724Y-121357895D01*
X166811390Y-122157895D02*
X166430438Y-122157895D01*
X166430438Y-122157895D02*
X166430438Y-121357895D01*
X167078057Y-121738847D02*
X167344723Y-121738847D01*
X167459009Y-122157895D02*
X167078057Y-122157895D01*
X167078057Y-122157895D02*
X167078057Y-121357895D01*
X167078057Y-121357895D02*
X167459009Y-121357895D01*
X167801867Y-122157895D02*
X167801867Y-121357895D01*
X167801867Y-121357895D02*
X167992343Y-121357895D01*
X167992343Y-121357895D02*
X168106629Y-121395990D01*
X168106629Y-121395990D02*
X168182819Y-121472180D01*
X168182819Y-121472180D02*
X168220914Y-121548371D01*
X168220914Y-121548371D02*
X168259010Y-121700752D01*
X168259010Y-121700752D02*
X168259010Y-121815038D01*
X168259010Y-121815038D02*
X168220914Y-121967419D01*
X168220914Y-121967419D02*
X168182819Y-122043609D01*
X168182819Y-122043609D02*
X168106629Y-122119800D01*
X168106629Y-122119800D02*
X167992343Y-122157895D01*
X167992343Y-122157895D02*
X167801867Y-122157895D01*
D11*
X70548657Y-80654701D02*
X70691514Y-80702320D01*
X70691514Y-80702320D02*
X70929609Y-80702320D01*
X70929609Y-80702320D02*
X71024847Y-80654701D01*
X71024847Y-80654701D02*
X71072466Y-80607081D01*
X71072466Y-80607081D02*
X71120085Y-80511843D01*
X71120085Y-80511843D02*
X71120085Y-80416605D01*
X71120085Y-80416605D02*
X71072466Y-80321367D01*
X71072466Y-80321367D02*
X71024847Y-80273748D01*
X71024847Y-80273748D02*
X70929609Y-80226129D01*
X70929609Y-80226129D02*
X70739133Y-80178510D01*
X70739133Y-80178510D02*
X70643895Y-80130891D01*
X70643895Y-80130891D02*
X70596276Y-80083272D01*
X70596276Y-80083272D02*
X70548657Y-79988034D01*
X70548657Y-79988034D02*
X70548657Y-79892796D01*
X70548657Y-79892796D02*
X70596276Y-79797558D01*
X70596276Y-79797558D02*
X70643895Y-79749939D01*
X70643895Y-79749939D02*
X70739133Y-79702320D01*
X70739133Y-79702320D02*
X70977228Y-79702320D01*
X70977228Y-79702320D02*
X71120085Y-79749939D01*
X71453419Y-79702320D02*
X71691514Y-80702320D01*
X71691514Y-80702320D02*
X71881990Y-79988034D01*
X71881990Y-79988034D02*
X72072466Y-80702320D01*
X72072466Y-80702320D02*
X72310562Y-79702320D01*
X73215323Y-80702320D02*
X72643895Y-80702320D01*
X72929609Y-80702320D02*
X72929609Y-79702320D01*
X72929609Y-79702320D02*
X72834371Y-79845177D01*
X72834371Y-79845177D02*
X72739133Y-79940415D01*
X72739133Y-79940415D02*
X72643895Y-79988034D01*
X127222470Y-107254198D02*
X127365327Y-107301817D01*
X127365327Y-107301817D02*
X127603422Y-107301817D01*
X127603422Y-107301817D02*
X127698660Y-107254198D01*
X127698660Y-107254198D02*
X127746279Y-107206578D01*
X127746279Y-107206578D02*
X127793898Y-107111340D01*
X127793898Y-107111340D02*
X127793898Y-107016102D01*
X127793898Y-107016102D02*
X127746279Y-106920864D01*
X127746279Y-106920864D02*
X127698660Y-106873245D01*
X127698660Y-106873245D02*
X127603422Y-106825626D01*
X127603422Y-106825626D02*
X127412946Y-106778007D01*
X127412946Y-106778007D02*
X127317708Y-106730388D01*
X127317708Y-106730388D02*
X127270089Y-106682769D01*
X127270089Y-106682769D02*
X127222470Y-106587531D01*
X127222470Y-106587531D02*
X127222470Y-106492293D01*
X127222470Y-106492293D02*
X127270089Y-106397055D01*
X127270089Y-106397055D02*
X127317708Y-106349436D01*
X127317708Y-106349436D02*
X127412946Y-106301817D01*
X127412946Y-106301817D02*
X127651041Y-106301817D01*
X127651041Y-106301817D02*
X127793898Y-106349436D01*
X128127232Y-106301817D02*
X128365327Y-107301817D01*
X128365327Y-107301817D02*
X128555803Y-106587531D01*
X128555803Y-106587531D02*
X128746279Y-107301817D01*
X128746279Y-107301817D02*
X128984375Y-106301817D01*
X129889136Y-107301817D02*
X129317708Y-107301817D01*
X129603422Y-107301817D02*
X129603422Y-106301817D01*
X129603422Y-106301817D02*
X129508184Y-106444674D01*
X129508184Y-106444674D02*
X129412946Y-106539912D01*
X129412946Y-106539912D02*
X129317708Y-106587531D01*
X130746279Y-106635150D02*
X130746279Y-107301817D01*
X130508184Y-106254198D02*
X130270089Y-106968483D01*
X130270089Y-106968483D02*
X130889136Y-106968483D01*
X89598665Y-87704698D02*
X89741522Y-87752317D01*
X89741522Y-87752317D02*
X89979617Y-87752317D01*
X89979617Y-87752317D02*
X90074855Y-87704698D01*
X90074855Y-87704698D02*
X90122474Y-87657078D01*
X90122474Y-87657078D02*
X90170093Y-87561840D01*
X90170093Y-87561840D02*
X90170093Y-87466602D01*
X90170093Y-87466602D02*
X90122474Y-87371364D01*
X90122474Y-87371364D02*
X90074855Y-87323745D01*
X90074855Y-87323745D02*
X89979617Y-87276126D01*
X89979617Y-87276126D02*
X89789141Y-87228507D01*
X89789141Y-87228507D02*
X89693903Y-87180888D01*
X89693903Y-87180888D02*
X89646284Y-87133269D01*
X89646284Y-87133269D02*
X89598665Y-87038031D01*
X89598665Y-87038031D02*
X89598665Y-86942793D01*
X89598665Y-86942793D02*
X89646284Y-86847555D01*
X89646284Y-86847555D02*
X89693903Y-86799936D01*
X89693903Y-86799936D02*
X89789141Y-86752317D01*
X89789141Y-86752317D02*
X90027236Y-86752317D01*
X90027236Y-86752317D02*
X90170093Y-86799936D01*
X90503427Y-86752317D02*
X90741522Y-87752317D01*
X90741522Y-87752317D02*
X90931998Y-87038031D01*
X90931998Y-87038031D02*
X91122474Y-87752317D01*
X91122474Y-87752317D02*
X91360570Y-86752317D01*
X91646284Y-86752317D02*
X92312950Y-86752317D01*
X92312950Y-86752317D02*
X91884379Y-87752317D01*
X127698666Y-69154204D02*
X127841523Y-69201823D01*
X127841523Y-69201823D02*
X128079618Y-69201823D01*
X128079618Y-69201823D02*
X128174856Y-69154204D01*
X128174856Y-69154204D02*
X128222475Y-69106584D01*
X128222475Y-69106584D02*
X128270094Y-69011346D01*
X128270094Y-69011346D02*
X128270094Y-68916108D01*
X128270094Y-68916108D02*
X128222475Y-68820870D01*
X128222475Y-68820870D02*
X128174856Y-68773251D01*
X128174856Y-68773251D02*
X128079618Y-68725632D01*
X128079618Y-68725632D02*
X127889142Y-68678013D01*
X127889142Y-68678013D02*
X127793904Y-68630394D01*
X127793904Y-68630394D02*
X127746285Y-68582775D01*
X127746285Y-68582775D02*
X127698666Y-68487537D01*
X127698666Y-68487537D02*
X127698666Y-68392299D01*
X127698666Y-68392299D02*
X127746285Y-68297061D01*
X127746285Y-68297061D02*
X127793904Y-68249442D01*
X127793904Y-68249442D02*
X127889142Y-68201823D01*
X127889142Y-68201823D02*
X128127237Y-68201823D01*
X128127237Y-68201823D02*
X128270094Y-68249442D01*
X128603428Y-68201823D02*
X128841523Y-69201823D01*
X128841523Y-69201823D02*
X129031999Y-68487537D01*
X129031999Y-68487537D02*
X129222475Y-69201823D01*
X129222475Y-69201823D02*
X129460571Y-68201823D01*
X130270094Y-68535156D02*
X130270094Y-69201823D01*
X130031999Y-68154204D02*
X129793904Y-68868489D01*
X129793904Y-68868489D02*
X130412951Y-68868489D01*
X138354743Y-128702985D02*
X138480407Y-128785956D01*
X138480407Y-128785956D02*
X138710390Y-128847579D01*
X138710390Y-128847579D02*
X138814707Y-128826232D01*
X138814707Y-128826232D02*
X138873028Y-128792561D01*
X138873028Y-128792561D02*
X138943674Y-128712892D01*
X138943674Y-128712892D02*
X138968324Y-128620900D01*
X138968324Y-128620900D02*
X138946977Y-128516582D01*
X138946977Y-128516582D02*
X138913305Y-128458261D01*
X138913305Y-128458261D02*
X138833637Y-128387615D01*
X138833637Y-128387615D02*
X138661976Y-128292319D01*
X138661976Y-128292319D02*
X138582307Y-128221674D01*
X138582307Y-128221674D02*
X138548636Y-128163352D01*
X138548636Y-128163352D02*
X138527289Y-128059035D01*
X138527289Y-128059035D02*
X138551938Y-127967042D01*
X138551938Y-127967042D02*
X138622584Y-127887374D01*
X138622584Y-127887374D02*
X138680905Y-127853702D01*
X138680905Y-127853702D02*
X138785223Y-127832355D01*
X138785223Y-127832355D02*
X139015205Y-127893978D01*
X139015205Y-127893978D02*
X139140870Y-127976949D01*
X139475170Y-128017226D02*
X139446333Y-129044775D01*
X139446333Y-129044775D02*
X139815190Y-128404127D01*
X139815190Y-128404127D02*
X139814305Y-129143373D01*
X139814305Y-129143373D02*
X140303106Y-128239070D01*
X140918220Y-129439166D02*
X140366262Y-129291269D01*
X140642241Y-129365218D02*
X140901060Y-128399292D01*
X140901060Y-128399292D02*
X140772093Y-128512632D01*
X140772093Y-128512632D02*
X140655451Y-128579975D01*
X140655451Y-128579975D02*
X140551133Y-128601322D01*
X141499014Y-128559513D02*
X142142965Y-128732059D01*
X142142965Y-128732059D02*
X141470178Y-129587062D01*
X108648661Y-81704203D02*
X108791518Y-81751822D01*
X108791518Y-81751822D02*
X109029613Y-81751822D01*
X109029613Y-81751822D02*
X109124851Y-81704203D01*
X109124851Y-81704203D02*
X109172470Y-81656583D01*
X109172470Y-81656583D02*
X109220089Y-81561345D01*
X109220089Y-81561345D02*
X109220089Y-81466107D01*
X109220089Y-81466107D02*
X109172470Y-81370869D01*
X109172470Y-81370869D02*
X109124851Y-81323250D01*
X109124851Y-81323250D02*
X109029613Y-81275631D01*
X109029613Y-81275631D02*
X108839137Y-81228012D01*
X108839137Y-81228012D02*
X108743899Y-81180393D01*
X108743899Y-81180393D02*
X108696280Y-81132774D01*
X108696280Y-81132774D02*
X108648661Y-81037536D01*
X108648661Y-81037536D02*
X108648661Y-80942298D01*
X108648661Y-80942298D02*
X108696280Y-80847060D01*
X108696280Y-80847060D02*
X108743899Y-80799441D01*
X108743899Y-80799441D02*
X108839137Y-80751822D01*
X108839137Y-80751822D02*
X109077232Y-80751822D01*
X109077232Y-80751822D02*
X109220089Y-80799441D01*
X109553423Y-80751822D02*
X109791518Y-81751822D01*
X109791518Y-81751822D02*
X109981994Y-81037536D01*
X109981994Y-81037536D02*
X110172470Y-81751822D01*
X110172470Y-81751822D02*
X110410566Y-80751822D01*
X110934375Y-81180393D02*
X110839137Y-81132774D01*
X110839137Y-81132774D02*
X110791518Y-81085155D01*
X110791518Y-81085155D02*
X110743899Y-80989917D01*
X110743899Y-80989917D02*
X110743899Y-80942298D01*
X110743899Y-80942298D02*
X110791518Y-80847060D01*
X110791518Y-80847060D02*
X110839137Y-80799441D01*
X110839137Y-80799441D02*
X110934375Y-80751822D01*
X110934375Y-80751822D02*
X111124851Y-80751822D01*
X111124851Y-80751822D02*
X111220089Y-80799441D01*
X111220089Y-80799441D02*
X111267708Y-80847060D01*
X111267708Y-80847060D02*
X111315327Y-80942298D01*
X111315327Y-80942298D02*
X111315327Y-80989917D01*
X111315327Y-80989917D02*
X111267708Y-81085155D01*
X111267708Y-81085155D02*
X111220089Y-81132774D01*
X111220089Y-81132774D02*
X111124851Y-81180393D01*
X111124851Y-81180393D02*
X110934375Y-81180393D01*
X110934375Y-81180393D02*
X110839137Y-81228012D01*
X110839137Y-81228012D02*
X110791518Y-81275631D01*
X110791518Y-81275631D02*
X110743899Y-81370869D01*
X110743899Y-81370869D02*
X110743899Y-81561345D01*
X110743899Y-81561345D02*
X110791518Y-81656583D01*
X110791518Y-81656583D02*
X110839137Y-81704203D01*
X110839137Y-81704203D02*
X110934375Y-81751822D01*
X110934375Y-81751822D02*
X111124851Y-81751822D01*
X111124851Y-81751822D02*
X111220089Y-81704203D01*
X111220089Y-81704203D02*
X111267708Y-81656583D01*
X111267708Y-81656583D02*
X111315327Y-81561345D01*
X111315327Y-81561345D02*
X111315327Y-81370869D01*
X111315327Y-81370869D02*
X111267708Y-81275631D01*
X111267708Y-81275631D02*
X111220089Y-81228012D01*
X111220089Y-81228012D02*
X111124851Y-81180393D01*
D10*
X157651468Y-125163336D02*
X157651468Y-124706194D01*
X157880039Y-124934765D02*
X157422896Y-124934765D01*
D12*
X156309475Y-127691909D02*
X156347570Y-127577623D01*
X156347570Y-127577623D02*
X156385666Y-127539528D01*
X156385666Y-127539528D02*
X156461856Y-127501432D01*
X156461856Y-127501432D02*
X156576142Y-127501432D01*
X156576142Y-127501432D02*
X156652332Y-127539528D01*
X156652332Y-127539528D02*
X156690428Y-127577623D01*
X156690428Y-127577623D02*
X156728523Y-127653813D01*
X156728523Y-127653813D02*
X156728523Y-127958575D01*
X156728523Y-127958575D02*
X155928523Y-127958575D01*
X155928523Y-127958575D02*
X155928523Y-127691909D01*
X155928523Y-127691909D02*
X155966618Y-127615718D01*
X155966618Y-127615718D02*
X156004713Y-127577623D01*
X156004713Y-127577623D02*
X156080904Y-127539528D01*
X156080904Y-127539528D02*
X156157094Y-127539528D01*
X156157094Y-127539528D02*
X156233285Y-127577623D01*
X156233285Y-127577623D02*
X156271380Y-127615718D01*
X156271380Y-127615718D02*
X156309475Y-127691909D01*
X156309475Y-127691909D02*
X156309475Y-127958575D01*
X156728523Y-126815718D02*
X156309475Y-126815718D01*
X156309475Y-126815718D02*
X156233285Y-126853813D01*
X156233285Y-126853813D02*
X156195189Y-126930004D01*
X156195189Y-126930004D02*
X156195189Y-127082385D01*
X156195189Y-127082385D02*
X156233285Y-127158575D01*
X156690428Y-126815718D02*
X156728523Y-126891909D01*
X156728523Y-126891909D02*
X156728523Y-127082385D01*
X156728523Y-127082385D02*
X156690428Y-127158575D01*
X156690428Y-127158575D02*
X156614237Y-127196671D01*
X156614237Y-127196671D02*
X156538047Y-127196671D01*
X156538047Y-127196671D02*
X156461856Y-127158575D01*
X156461856Y-127158575D02*
X156423761Y-127082385D01*
X156423761Y-127082385D02*
X156423761Y-126891909D01*
X156423761Y-126891909D02*
X156385666Y-126815718D01*
X156195189Y-126549051D02*
X156195189Y-126244289D01*
X155928523Y-126434765D02*
X156614237Y-126434765D01*
X156614237Y-126434765D02*
X156690428Y-126396670D01*
X156690428Y-126396670D02*
X156728523Y-126320480D01*
X156728523Y-126320480D02*
X156728523Y-126244289D01*
X156195189Y-126091908D02*
X156195189Y-125787146D01*
X155928523Y-125977622D02*
X156614237Y-125977622D01*
X156614237Y-125977622D02*
X156690428Y-125939527D01*
X156690428Y-125939527D02*
X156728523Y-125863337D01*
X156728523Y-125863337D02*
X156728523Y-125787146D01*
X156690428Y-125215717D02*
X156728523Y-125291908D01*
X156728523Y-125291908D02*
X156728523Y-125444289D01*
X156728523Y-125444289D02*
X156690428Y-125520479D01*
X156690428Y-125520479D02*
X156614237Y-125558575D01*
X156614237Y-125558575D02*
X156309475Y-125558575D01*
X156309475Y-125558575D02*
X156233285Y-125520479D01*
X156233285Y-125520479D02*
X156195189Y-125444289D01*
X156195189Y-125444289D02*
X156195189Y-125291908D01*
X156195189Y-125291908D02*
X156233285Y-125215717D01*
X156233285Y-125215717D02*
X156309475Y-125177622D01*
X156309475Y-125177622D02*
X156385666Y-125177622D01*
X156385666Y-125177622D02*
X156461856Y-125558575D01*
X156728523Y-124834765D02*
X156195189Y-124834765D01*
X156347570Y-124834765D02*
X156271380Y-124796670D01*
X156271380Y-124796670D02*
X156233285Y-124758575D01*
X156233285Y-124758575D02*
X156195189Y-124682384D01*
X156195189Y-124682384D02*
X156195189Y-124606194D01*
X156195189Y-124415718D02*
X156728523Y-124225242D01*
X156195189Y-124034765D02*
X156728523Y-124225242D01*
X156728523Y-124225242D02*
X156918999Y-124301432D01*
X156918999Y-124301432D02*
X156957094Y-124339527D01*
X156957094Y-124339527D02*
X156995189Y-124415718D01*
D10*
X157651468Y-127363336D02*
X157651468Y-126906194D01*
D11*
X146272476Y-109754200D02*
X146415333Y-109801819D01*
X146415333Y-109801819D02*
X146653428Y-109801819D01*
X146653428Y-109801819D02*
X146748666Y-109754200D01*
X146748666Y-109754200D02*
X146796285Y-109706580D01*
X146796285Y-109706580D02*
X146843904Y-109611342D01*
X146843904Y-109611342D02*
X146843904Y-109516104D01*
X146843904Y-109516104D02*
X146796285Y-109420866D01*
X146796285Y-109420866D02*
X146748666Y-109373247D01*
X146748666Y-109373247D02*
X146653428Y-109325628D01*
X146653428Y-109325628D02*
X146462952Y-109278009D01*
X146462952Y-109278009D02*
X146367714Y-109230390D01*
X146367714Y-109230390D02*
X146320095Y-109182771D01*
X146320095Y-109182771D02*
X146272476Y-109087533D01*
X146272476Y-109087533D02*
X146272476Y-108992295D01*
X146272476Y-108992295D02*
X146320095Y-108897057D01*
X146320095Y-108897057D02*
X146367714Y-108849438D01*
X146367714Y-108849438D02*
X146462952Y-108801819D01*
X146462952Y-108801819D02*
X146701047Y-108801819D01*
X146701047Y-108801819D02*
X146843904Y-108849438D01*
X147177238Y-108801819D02*
X147415333Y-109801819D01*
X147415333Y-109801819D02*
X147605809Y-109087533D01*
X147605809Y-109087533D02*
X147796285Y-109801819D01*
X147796285Y-109801819D02*
X148034381Y-108801819D01*
X148939142Y-109801819D02*
X148367714Y-109801819D01*
X148653428Y-109801819D02*
X148653428Y-108801819D01*
X148653428Y-108801819D02*
X148558190Y-108944676D01*
X148558190Y-108944676D02*
X148462952Y-109039914D01*
X148462952Y-109039914D02*
X148367714Y-109087533D01*
X149843904Y-108801819D02*
X149367714Y-108801819D01*
X149367714Y-108801819D02*
X149320095Y-109278009D01*
X149320095Y-109278009D02*
X149367714Y-109230390D01*
X149367714Y-109230390D02*
X149462952Y-109182771D01*
X149462952Y-109182771D02*
X149701047Y-109182771D01*
X149701047Y-109182771D02*
X149796285Y-109230390D01*
X149796285Y-109230390D02*
X149843904Y-109278009D01*
X149843904Y-109278009D02*
X149891523Y-109373247D01*
X149891523Y-109373247D02*
X149891523Y-109611342D01*
X149891523Y-109611342D02*
X149843904Y-109706580D01*
X149843904Y-109706580D02*
X149796285Y-109754200D01*
X149796285Y-109754200D02*
X149701047Y-109801819D01*
X149701047Y-109801819D02*
X149462952Y-109801819D01*
X149462952Y-109801819D02*
X149367714Y-109754200D01*
X149367714Y-109754200D02*
X149320095Y-109706580D01*
X89598660Y-68654703D02*
X89741517Y-68702322D01*
X89741517Y-68702322D02*
X89979612Y-68702322D01*
X89979612Y-68702322D02*
X90074850Y-68654703D01*
X90074850Y-68654703D02*
X90122469Y-68607083D01*
X90122469Y-68607083D02*
X90170088Y-68511845D01*
X90170088Y-68511845D02*
X90170088Y-68416607D01*
X90170088Y-68416607D02*
X90122469Y-68321369D01*
X90122469Y-68321369D02*
X90074850Y-68273750D01*
X90074850Y-68273750D02*
X89979612Y-68226131D01*
X89979612Y-68226131D02*
X89789136Y-68178512D01*
X89789136Y-68178512D02*
X89693898Y-68130893D01*
X89693898Y-68130893D02*
X89646279Y-68083274D01*
X89646279Y-68083274D02*
X89598660Y-67988036D01*
X89598660Y-67988036D02*
X89598660Y-67892798D01*
X89598660Y-67892798D02*
X89646279Y-67797560D01*
X89646279Y-67797560D02*
X89693898Y-67749941D01*
X89693898Y-67749941D02*
X89789136Y-67702322D01*
X89789136Y-67702322D02*
X90027231Y-67702322D01*
X90027231Y-67702322D02*
X90170088Y-67749941D01*
X90503422Y-67702322D02*
X90741517Y-68702322D01*
X90741517Y-68702322D02*
X90931993Y-67988036D01*
X90931993Y-67988036D02*
X91122469Y-68702322D01*
X91122469Y-68702322D02*
X91360565Y-67702322D01*
X91693898Y-67797560D02*
X91741517Y-67749941D01*
X91741517Y-67749941D02*
X91836755Y-67702322D01*
X91836755Y-67702322D02*
X92074850Y-67702322D01*
X92074850Y-67702322D02*
X92170088Y-67749941D01*
X92170088Y-67749941D02*
X92217707Y-67797560D01*
X92217707Y-67797560D02*
X92265326Y-67892798D01*
X92265326Y-67892798D02*
X92265326Y-67988036D01*
X92265326Y-67988036D02*
X92217707Y-68130893D01*
X92217707Y-68130893D02*
X91646279Y-68702322D01*
X91646279Y-68702322D02*
X92265326Y-68702322D01*
X108648657Y-62654200D02*
X108791514Y-62701819D01*
X108791514Y-62701819D02*
X109029609Y-62701819D01*
X109029609Y-62701819D02*
X109124847Y-62654200D01*
X109124847Y-62654200D02*
X109172466Y-62606580D01*
X109172466Y-62606580D02*
X109220085Y-62511342D01*
X109220085Y-62511342D02*
X109220085Y-62416104D01*
X109220085Y-62416104D02*
X109172466Y-62320866D01*
X109172466Y-62320866D02*
X109124847Y-62273247D01*
X109124847Y-62273247D02*
X109029609Y-62225628D01*
X109029609Y-62225628D02*
X108839133Y-62178009D01*
X108839133Y-62178009D02*
X108743895Y-62130390D01*
X108743895Y-62130390D02*
X108696276Y-62082771D01*
X108696276Y-62082771D02*
X108648657Y-61987533D01*
X108648657Y-61987533D02*
X108648657Y-61892295D01*
X108648657Y-61892295D02*
X108696276Y-61797057D01*
X108696276Y-61797057D02*
X108743895Y-61749438D01*
X108743895Y-61749438D02*
X108839133Y-61701819D01*
X108839133Y-61701819D02*
X109077228Y-61701819D01*
X109077228Y-61701819D02*
X109220085Y-61749438D01*
X109553419Y-61701819D02*
X109791514Y-62701819D01*
X109791514Y-62701819D02*
X109981990Y-61987533D01*
X109981990Y-61987533D02*
X110172466Y-62701819D01*
X110172466Y-62701819D02*
X110410562Y-61701819D01*
X110696276Y-61701819D02*
X111315323Y-61701819D01*
X111315323Y-61701819D02*
X110981990Y-62082771D01*
X110981990Y-62082771D02*
X111124847Y-62082771D01*
X111124847Y-62082771D02*
X111220085Y-62130390D01*
X111220085Y-62130390D02*
X111267704Y-62178009D01*
X111267704Y-62178009D02*
X111315323Y-62273247D01*
X111315323Y-62273247D02*
X111315323Y-62511342D01*
X111315323Y-62511342D02*
X111267704Y-62606580D01*
X111267704Y-62606580D02*
X111220085Y-62654200D01*
X111220085Y-62654200D02*
X111124847Y-62701819D01*
X111124847Y-62701819D02*
X110839133Y-62701819D01*
X110839133Y-62701819D02*
X110743895Y-62654200D01*
X110743895Y-62654200D02*
X110696276Y-62606580D01*
X109381427Y-78112915D02*
X110281427Y-78612915D01*
X109381427Y-79112915D02*
X109381427Y-78112915D01*
X110281427Y-78612915D02*
X109381427Y-79112915D01*
X110381427Y-79112915D02*
X110381427Y-78112915D01*
D12*
X103277427Y-101858911D02*
X103277427Y-102874911D01*
X103277427Y-101858911D02*
X104293427Y-101858911D01*
X103277427Y-115066911D02*
X103277427Y-114050911D01*
X104293427Y-115066911D02*
X103277427Y-115066911D01*
X116485427Y-101858911D02*
X115469427Y-101858911D01*
X116485427Y-101858911D02*
X116485427Y-102874911D01*
X116485427Y-114050911D02*
X116485427Y-115066911D01*
X116485427Y-115066911D02*
X115469427Y-115066911D01*
D13*
X68131430Y-83623617D02*
X68131430Y-84773617D01*
X68131430Y-83623617D02*
X69881430Y-83623617D01*
X68131430Y-84773617D02*
X69881430Y-84773617D01*
X144331423Y-74623117D02*
X144331423Y-75773117D01*
X144331423Y-74623117D02*
X146081423Y-74623117D01*
X144331423Y-75773117D02*
X146081423Y-75773117D01*
D11*
X71281428Y-115163407D02*
X72181428Y-115663407D01*
X71281428Y-116163407D02*
X71281428Y-115163407D01*
X72181428Y-115663407D02*
X71281428Y-116163407D01*
X72281428Y-116163407D02*
X72281428Y-115163407D01*
D13*
X87181426Y-71623613D02*
X87181426Y-72773613D01*
X87181426Y-71623613D02*
X88931426Y-71623613D01*
X87181426Y-72773613D02*
X88931426Y-72773613D01*
X106231420Y-103723116D02*
X106231420Y-104873116D01*
X106231420Y-103723116D02*
X107981420Y-103723116D01*
X106231420Y-104873116D02*
X107981420Y-104873116D01*
D12*
X148810158Y-147400536D02*
X149318158Y-146520654D01*
X149690040Y-147908536D02*
X148810158Y-147400536D01*
X155414158Y-135962072D02*
X154906158Y-136841954D01*
X155414158Y-135962072D02*
X156294040Y-136470072D01*
X160248622Y-154004536D02*
X159368740Y-153496536D01*
X160756622Y-153124654D02*
X160248622Y-154004536D01*
X166852622Y-142566072D02*
X165972740Y-142058072D01*
X166852622Y-142566072D02*
X166344622Y-143445954D01*
X77862300Y-75944700D02*
X75299700Y-75944700D01*
X75299700Y-74423300D01*
X77862300Y-74423300D01*
X77862300Y-75944700D01*
D11*
X71281423Y-96113416D02*
X72181423Y-96613416D01*
X71281423Y-97113416D02*
X71281423Y-96113416D01*
X72181423Y-96613416D02*
X71281423Y-97113416D01*
X72281423Y-97113416D02*
X72281423Y-96113416D01*
D13*
X106231430Y-65623112D02*
X106231430Y-66773112D01*
X106231430Y-65623112D02*
X107981430Y-65623112D01*
X106231430Y-66773112D02*
X107981430Y-66773112D01*
X113243553Y-129273596D02*
X113243553Y-130423596D01*
X113243553Y-129273596D02*
X114993553Y-129273596D01*
X113243553Y-130423596D02*
X114993553Y-130423596D01*
X144331420Y-93673111D02*
X144331420Y-94823111D01*
X144331420Y-93673111D02*
X146081420Y-93673111D01*
X144331420Y-94823111D02*
X146081420Y-94823111D01*
D11*
X157988000Y-90043000D02*
X157988000Y-123063000D01*
X157988000Y-90043000D02*
X160528000Y-90043000D01*
X157988000Y-92583000D02*
X160528000Y-92583000D01*
X160528000Y-90043000D02*
X160528000Y-123063000D01*
X160528000Y-123063000D02*
X157988000Y-123063000D01*
X173228000Y-90043000D02*
X173228000Y-123063000D01*
X173228000Y-90043000D02*
X175768000Y-90043000D01*
X173228000Y-92583000D02*
X175768000Y-92583000D01*
X173228000Y-123063000D02*
X175768000Y-123063000D01*
X175768000Y-90043000D02*
X175768000Y-123063000D01*
D13*
X156465297Y-140048676D02*
X157980842Y-140923676D01*
X157040297Y-139052746D02*
X156465297Y-140048676D01*
X157040297Y-139052746D02*
X158555842Y-139927746D01*
D11*
X147481429Y-125212912D02*
X148381429Y-125712912D01*
X147481429Y-126212912D02*
X147481429Y-125212912D01*
X148381429Y-125712912D02*
X147481429Y-126212912D01*
X148481429Y-126212912D02*
X148481429Y-125212912D01*
D12*
X122327427Y-89308910D02*
X122327427Y-90324910D01*
X122327427Y-89308910D02*
X123343427Y-89308910D01*
X122327427Y-102516910D02*
X122327427Y-101500910D01*
X123343427Y-102516910D02*
X122327427Y-102516910D01*
X135535427Y-89308910D02*
X134519427Y-89308910D01*
X135535427Y-89308910D02*
X135535427Y-90324910D01*
X135535427Y-101500910D02*
X135535427Y-102516910D01*
X135535427Y-102516910D02*
X134519427Y-102516910D01*
X65177426Y-119859412D02*
X65177426Y-120875412D01*
X65177426Y-119859412D02*
X66193426Y-119859412D01*
X65177426Y-133067412D02*
X65177426Y-132051412D01*
X66193426Y-133067412D02*
X65177426Y-133067412D01*
X78385426Y-119859412D02*
X77369426Y-119859412D01*
X78385426Y-119859412D02*
X78385426Y-120875412D01*
X78385426Y-132051412D02*
X78385426Y-133067412D01*
X78385426Y-133067412D02*
X77369426Y-133067412D01*
D11*
X128431432Y-84612916D02*
X129331432Y-85112916D01*
X128431432Y-85612916D02*
X128431432Y-84612916D01*
X129331432Y-85112916D02*
X128431432Y-85612916D01*
X129431432Y-85612916D02*
X129431432Y-84612916D01*
X109381426Y-97162917D02*
X110281426Y-97662917D01*
X109381426Y-98162917D02*
X109381426Y-97162917D01*
X110281426Y-97662917D02*
X109381426Y-98162917D01*
X110381426Y-98162917D02*
X110381426Y-97162917D01*
X128431427Y-103662909D02*
X129331427Y-104162909D01*
X128431427Y-104662909D02*
X128431427Y-103662909D01*
X129331427Y-104162909D02*
X128431427Y-104662909D01*
X129431427Y-104662909D02*
X129431427Y-103662909D01*
X147481425Y-87112919D02*
X148381425Y-87612919D01*
X147481425Y-88112919D02*
X147481425Y-87112919D01*
X148381425Y-87612919D02*
X147481425Y-88112919D01*
X148481425Y-88112919D02*
X148481425Y-87112919D01*
D12*
X141377428Y-91808915D02*
X141377428Y-92824915D01*
X141377428Y-91808915D02*
X142393428Y-91808915D01*
X141377428Y-105016915D02*
X141377428Y-104000915D01*
X142393428Y-105016915D02*
X141377428Y-105016915D01*
X154585428Y-91808915D02*
X153569428Y-91808915D01*
X154585428Y-91808915D02*
X154585428Y-92824915D01*
X154585428Y-104000915D02*
X154585428Y-105016915D01*
X154585428Y-105016915D02*
X153569428Y-105016915D01*
X65177428Y-100809409D02*
X65177428Y-101825409D01*
X65177428Y-100809409D02*
X66193428Y-100809409D01*
X65177428Y-114017409D02*
X65177428Y-113001409D01*
X66193428Y-114017409D02*
X65177428Y-114017409D01*
X78385428Y-100809409D02*
X77369428Y-100809409D01*
X78385428Y-100809409D02*
X78385428Y-101825409D01*
X78385428Y-113001409D02*
X78385428Y-114017409D01*
X78385428Y-114017409D02*
X77369428Y-114017409D01*
D11*
X71281424Y-134213412D02*
X72181424Y-134713412D01*
X71281424Y-135213412D02*
X71281424Y-134213412D01*
X72181424Y-134713412D02*
X71281424Y-135213412D01*
X72281424Y-135213412D02*
X72281424Y-134213412D01*
D12*
X84227426Y-107859416D02*
X84227426Y-108875416D01*
X84227426Y-107859416D02*
X85243426Y-107859416D01*
X84227426Y-121067416D02*
X84227426Y-120051416D01*
X85243426Y-121067416D02*
X84227426Y-121067416D01*
X97435426Y-107859416D02*
X96419426Y-107859416D01*
X97435426Y-107859416D02*
X97435426Y-108875416D01*
X97435426Y-120051416D02*
X97435426Y-121067416D01*
X97435426Y-121067416D02*
X96419426Y-121067416D01*
D11*
X160685903Y-133578278D02*
X160685903Y-131038278D01*
X165219903Y-129408278D02*
X163441903Y-129408278D01*
X165219903Y-135208278D02*
X163441903Y-135208278D01*
X168267903Y-129408278D02*
X167505903Y-129408278D01*
X168267903Y-135208278D02*
X167505903Y-135208278D01*
X170553903Y-129408278D02*
X172435903Y-129408278D01*
X170553903Y-135208278D02*
X172435903Y-135208278D01*
X172435903Y-129408278D02*
X172435903Y-129608278D01*
X172435903Y-129608278D02*
X174185903Y-129608278D01*
X172435903Y-135008278D02*
X172435903Y-135208278D01*
X172435903Y-135008278D02*
X174185903Y-135008278D01*
X174185903Y-135008278D02*
X174185903Y-129608278D01*
D12*
X141377426Y-72758913D02*
X141377426Y-73774913D01*
X141377426Y-72758913D02*
X142393426Y-72758913D01*
X141377426Y-85966913D02*
X141377426Y-84950913D01*
X142393426Y-85966913D02*
X141377426Y-85966913D01*
X154585426Y-72758913D02*
X153569426Y-72758913D01*
X154585426Y-72758913D02*
X154585426Y-73774913D01*
X154585426Y-84950913D02*
X154585426Y-85966913D01*
X154585426Y-85966913D02*
X153569426Y-85966913D01*
X110289553Y-127409395D02*
X110289553Y-128425395D01*
X110289553Y-127409395D02*
X111305553Y-127409395D01*
X110289553Y-140617395D02*
X110289553Y-139601395D01*
X111305553Y-140617395D02*
X110289553Y-140617395D01*
X123497553Y-127409395D02*
X122481553Y-127409395D01*
X123497553Y-127409395D02*
X123497553Y-128425395D01*
X123497553Y-139601395D02*
X123497553Y-140617395D01*
X123497553Y-140617395D02*
X122481553Y-140617395D01*
D13*
X106231426Y-84673117D02*
X106231426Y-85823117D01*
X106231426Y-84673117D02*
X107981426Y-84673117D01*
X106231426Y-85823117D02*
X107981426Y-85823117D01*
D11*
X161816629Y-125586269D02*
X171976629Y-125586269D01*
X161816629Y-127886269D02*
X161816629Y-125586269D01*
X161816629Y-127886269D02*
X171976629Y-127886269D01*
X171976629Y-125586269D02*
X171976629Y-127886269D01*
D12*
X65177419Y-81759415D02*
X65177419Y-82775415D01*
X65177419Y-81759415D02*
X66193419Y-81759415D01*
X65177419Y-94967415D02*
X65177419Y-93951415D01*
X66193419Y-94967415D02*
X65177419Y-94967415D01*
X78385419Y-81759415D02*
X77369419Y-81759415D01*
X78385419Y-81759415D02*
X78385419Y-82775415D01*
X78385419Y-93951415D02*
X78385419Y-94967415D01*
X78385419Y-94967415D02*
X77369419Y-94967415D01*
X122327423Y-108358912D02*
X122327423Y-109374912D01*
X122327423Y-108358912D02*
X123343423Y-108358912D01*
X122327423Y-121566912D02*
X122327423Y-120550912D01*
X123343423Y-121566912D02*
X122327423Y-121566912D01*
X135535423Y-108358912D02*
X134519423Y-108358912D01*
X135535423Y-108358912D02*
X135535423Y-109374912D01*
X135535423Y-120550912D02*
X135535423Y-121566912D01*
X135535423Y-121566912D02*
X134519423Y-121566912D01*
D11*
X128405000Y-122712913D02*
X129305000Y-123212913D01*
X128405000Y-123712913D02*
X128405000Y-122712913D01*
X129305000Y-123212913D02*
X128405000Y-123712913D01*
X129405000Y-123712913D02*
X129405000Y-122712913D01*
X153240987Y-135565013D02*
X154124000Y-135035590D01*
X154107013Y-136065013D02*
X153240987Y-135565013D01*
X154124000Y-135035590D02*
X154107013Y-136065013D01*
X154607013Y-135198987D02*
X153740987Y-134698987D01*
D12*
X84227427Y-88809412D02*
X84227427Y-89825412D01*
X84227427Y-88809412D02*
X85243427Y-88809412D01*
X84227427Y-102017412D02*
X84227427Y-101001412D01*
X85243427Y-102017412D02*
X84227427Y-102017412D01*
X97435427Y-88809412D02*
X96419427Y-88809412D01*
X97435427Y-88809412D02*
X97435427Y-89825412D01*
X97435427Y-101001412D02*
X97435427Y-102017412D01*
X97435427Y-102017412D02*
X96419427Y-102017412D01*
X122327428Y-70258918D02*
X122327428Y-71274918D01*
X122327428Y-70258918D02*
X123343428Y-70258918D01*
X122327428Y-83466918D02*
X122327428Y-82450918D01*
X123343428Y-83466918D02*
X122327428Y-83466918D01*
X135535428Y-70258918D02*
X134519428Y-70258918D01*
X135535428Y-70258918D02*
X135535428Y-71274918D01*
X135535428Y-82450918D02*
X135535428Y-83466918D01*
X135535428Y-83466918D02*
X134519428Y-83466918D01*
D11*
X90331426Y-103163413D02*
X91231426Y-103663413D01*
X90331426Y-104163413D02*
X90331426Y-103163413D01*
X91231426Y-103663413D02*
X90331426Y-104163413D01*
X91331426Y-104163413D02*
X91331426Y-103163413D01*
D13*
X68131420Y-121723610D02*
X68131420Y-122873610D01*
X68131420Y-121723610D02*
X69881420Y-121723610D01*
X68131420Y-122873610D02*
X69881420Y-122873610D01*
D11*
X90331428Y-122213415D02*
X91231428Y-122713415D01*
X90331428Y-123213415D02*
X90331428Y-122213415D01*
X91231428Y-122713415D02*
X90331428Y-123213415D01*
X91331428Y-123213415D02*
X91331428Y-122213415D01*
D12*
X129996252Y-141473347D02*
X130259212Y-140491967D01*
X130977633Y-141736307D02*
X129996252Y-141473347D01*
X133414734Y-128715399D02*
X133151774Y-129696780D01*
X133414734Y-128715399D02*
X134396114Y-128978359D01*
X142754200Y-144891829D02*
X141772820Y-144628869D01*
X143017160Y-143910448D02*
X142754200Y-144891829D01*
X146172682Y-132133881D02*
X145191301Y-131870921D01*
X146172682Y-132133881D02*
X145909722Y-133115261D01*
X103277423Y-82808917D02*
X103277423Y-83824917D01*
X103277423Y-82808917D02*
X104293423Y-82808917D01*
X103277423Y-96016917D02*
X103277423Y-95000917D01*
X104293423Y-96016917D02*
X103277423Y-96016917D01*
X116485423Y-82808917D02*
X115469423Y-82808917D01*
X116485423Y-82808917D02*
X116485423Y-83824917D01*
X116485423Y-95000917D02*
X116485423Y-96016917D01*
X116485423Y-96016917D02*
X115469423Y-96016917D01*
D13*
X135487944Y-132121449D02*
X137178314Y-132574381D01*
X135785586Y-131010633D02*
X135487944Y-132121449D01*
X135785586Y-131010633D02*
X137475956Y-131463566D01*
X125281421Y-110223114D02*
X125281421Y-111373114D01*
X125281421Y-110223114D02*
X127031421Y-110223114D01*
X125281421Y-111373114D02*
X127031421Y-111373114D01*
D11*
X109381425Y-116212910D02*
X110281425Y-116712910D01*
X109381425Y-117212910D02*
X109381425Y-116212910D01*
X110281425Y-116712910D02*
X109381425Y-117212910D01*
X110381425Y-117212910D02*
X110381425Y-116212910D01*
D13*
X144331420Y-112723114D02*
X144331420Y-113873114D01*
X144331420Y-112723114D02*
X146081420Y-112723114D01*
X144331420Y-113873114D02*
X146081420Y-113873114D01*
X125281428Y-91173118D02*
X125281428Y-92323118D01*
X125281428Y-91173118D02*
X127031428Y-91173118D01*
X125281428Y-92323118D02*
X127031428Y-92323118D01*
X125281421Y-72123119D02*
X125281421Y-73273119D01*
X125281421Y-72123119D02*
X127031421Y-72123119D01*
X125281421Y-73273119D02*
X127031421Y-73273119D01*
X87181424Y-90673614D02*
X87181424Y-91823614D01*
X87181424Y-90673614D02*
X88931424Y-90673614D01*
X87181424Y-91823614D02*
X88931424Y-91823614D01*
D11*
X90331423Y-84113417D02*
X91231423Y-84613417D01*
X90331423Y-85113417D02*
X90331423Y-84113417D01*
X91231423Y-84613417D02*
X90331423Y-85113417D01*
X91331423Y-85113417D02*
X91331423Y-84113417D01*
X129689628Y-134465553D02*
X130405528Y-133725630D01*
X130405528Y-133725630D02*
X130655553Y-134724372D01*
X130655553Y-134724372D02*
X129689628Y-134465553D01*
X130914372Y-133758447D02*
X129948447Y-133499628D01*
X126500000Y-134104000D02*
X127000000Y-133204000D01*
X127000000Y-133204000D02*
X127500000Y-134104000D01*
X127500000Y-133104000D02*
X126500000Y-133104000D01*
X127500000Y-134104000D02*
X126500000Y-134104000D01*
D12*
X141377429Y-110858914D02*
X141377429Y-111874914D01*
X141377429Y-110858914D02*
X142393429Y-110858914D01*
X141377429Y-124066914D02*
X141377429Y-123050914D01*
X142393429Y-124066914D02*
X141377429Y-124066914D01*
X154585429Y-110858914D02*
X153569429Y-110858914D01*
X154585429Y-110858914D02*
X154585429Y-111874914D01*
X154585429Y-123050914D02*
X154585429Y-124066914D01*
X154585429Y-124066914D02*
X153569429Y-124066914D01*
D11*
X147481425Y-106162918D02*
X148381425Y-106662918D01*
X147481425Y-107162918D02*
X147481425Y-106162918D01*
X148381425Y-106662918D02*
X147481425Y-107162918D01*
X148481425Y-107162918D02*
X148481425Y-106162918D01*
D13*
X68131422Y-102673615D02*
X68131422Y-103823615D01*
X68131422Y-102673615D02*
X69881422Y-102673615D01*
X68131422Y-103823615D02*
X69881422Y-103823615D01*
X87181423Y-109723610D02*
X87181423Y-110873610D01*
X87181423Y-109723610D02*
X88931423Y-109723610D01*
X87181423Y-110873610D02*
X88931423Y-110873610D01*
D12*
X84227422Y-69759417D02*
X84227422Y-70775417D01*
X84227422Y-69759417D02*
X85243422Y-69759417D01*
X84227422Y-82967417D02*
X84227422Y-81951417D01*
X85243422Y-82967417D02*
X84227422Y-82967417D01*
X97435422Y-69759417D02*
X96419422Y-69759417D01*
X97435422Y-69759417D02*
X97435422Y-70775417D01*
X97435422Y-81951417D02*
X97435422Y-82967417D01*
X97435422Y-82967417D02*
X96419422Y-82967417D01*
X103277419Y-63758914D02*
X103277419Y-64774914D01*
X103277419Y-63758914D02*
X104293419Y-63758914D01*
X103277419Y-76966914D02*
X103277419Y-75950914D01*
X104293419Y-76966914D02*
X103277419Y-76966914D01*
X116485419Y-63758914D02*
X115469419Y-63758914D01*
X116485419Y-63758914D02*
X116485419Y-64774914D01*
X116485419Y-75950914D02*
X116485419Y-76966914D01*
X116485419Y-76966914D02*
X115469419Y-76966914D01*
%LPC*%
D14*
X96106864Y-128223700D02*
X97821150Y-128223700D01*
X96964007Y-132223700D02*
X96964007Y-128223700D01*
X98821149Y-132223700D02*
X98821149Y-128223700D01*
X100106864Y-132223700D02*
X100106864Y-130128462D01*
X100106864Y-130128462D02*
X99964006Y-129747509D01*
X99964006Y-129747509D02*
X99678292Y-129557033D01*
X99678292Y-129557033D02*
X99249721Y-129557033D01*
X99249721Y-129557033D02*
X98964006Y-129747509D01*
X98964006Y-129747509D02*
X98821149Y-129937985D01*
X102678292Y-132033224D02*
X102392578Y-132223700D01*
X102392578Y-132223700D02*
X101821150Y-132223700D01*
X101821150Y-132223700D02*
X101535435Y-132033224D01*
X101535435Y-132033224D02*
X101392578Y-131652271D01*
X101392578Y-131652271D02*
X101392578Y-130128462D01*
X101392578Y-130128462D02*
X101535435Y-129747509D01*
X101535435Y-129747509D02*
X101821150Y-129557033D01*
X101821150Y-129557033D02*
X102392578Y-129557033D01*
X102392578Y-129557033D02*
X102678292Y-129747509D01*
X102678292Y-129747509D02*
X102821150Y-130128462D01*
X102821150Y-130128462D02*
X102821150Y-130509414D01*
X102821150Y-130509414D02*
X101392578Y-130890366D01*
X86106865Y-138473000D02*
X86535437Y-138663476D01*
X86535437Y-138663476D02*
X87249722Y-138663476D01*
X87249722Y-138663476D02*
X87535437Y-138473000D01*
X87535437Y-138473000D02*
X87678294Y-138282523D01*
X87678294Y-138282523D02*
X87821151Y-137901571D01*
X87821151Y-137901571D02*
X87821151Y-137520619D01*
X87821151Y-137520619D02*
X87678294Y-137139666D01*
X87678294Y-137139666D02*
X87535437Y-136949190D01*
X87535437Y-136949190D02*
X87249722Y-136758714D01*
X87249722Y-136758714D02*
X86678294Y-136568238D01*
X86678294Y-136568238D02*
X86392579Y-136377761D01*
X86392579Y-136377761D02*
X86249722Y-136187285D01*
X86249722Y-136187285D02*
X86106865Y-135806333D01*
X86106865Y-135806333D02*
X86106865Y-135425380D01*
X86106865Y-135425380D02*
X86249722Y-135044428D01*
X86249722Y-135044428D02*
X86392579Y-134853952D01*
X86392579Y-134853952D02*
X86678294Y-134663476D01*
X86678294Y-134663476D02*
X87392579Y-134663476D01*
X87392579Y-134663476D02*
X87821151Y-134853952D01*
X88821151Y-134663476D02*
X89535437Y-138663476D01*
X89535437Y-138663476D02*
X90106865Y-135806333D01*
X90106865Y-135806333D02*
X90678294Y-138663476D01*
X90678294Y-138663476D02*
X91392580Y-134663476D01*
X93106865Y-134663476D02*
X93678293Y-134663476D01*
X93678293Y-134663476D02*
X93964008Y-134853952D01*
X93964008Y-134853952D02*
X94249722Y-135234904D01*
X94249722Y-135234904D02*
X94392579Y-135996809D01*
X94392579Y-135996809D02*
X94392579Y-137330142D01*
X94392579Y-137330142D02*
X94249722Y-138092047D01*
X94249722Y-138092047D02*
X93964008Y-138473000D01*
X93964008Y-138473000D02*
X93678293Y-138663476D01*
X93678293Y-138663476D02*
X93106865Y-138663476D01*
X93106865Y-138663476D02*
X92821151Y-138473000D01*
X92821151Y-138473000D02*
X92535436Y-138092047D01*
X92535436Y-138092047D02*
X92392579Y-137330142D01*
X92392579Y-137330142D02*
X92392579Y-135996809D01*
X92392579Y-135996809D02*
X92535436Y-135234904D01*
X92535436Y-135234904D02*
X92821151Y-134853952D01*
X92821151Y-134853952D02*
X93106865Y-134663476D01*
X96249722Y-134663476D02*
X96821150Y-134663476D01*
X96821150Y-134663476D02*
X97106865Y-134853952D01*
X97106865Y-134853952D02*
X97392579Y-135234904D01*
X97392579Y-135234904D02*
X97535436Y-135996809D01*
X97535436Y-135996809D02*
X97535436Y-137330142D01*
X97535436Y-137330142D02*
X97392579Y-138092047D01*
X97392579Y-138092047D02*
X97106865Y-138473000D01*
X97106865Y-138473000D02*
X96821150Y-138663476D01*
X96821150Y-138663476D02*
X96249722Y-138663476D01*
X96249722Y-138663476D02*
X95964008Y-138473000D01*
X95964008Y-138473000D02*
X95678293Y-138092047D01*
X95678293Y-138092047D02*
X95535436Y-137330142D01*
X95535436Y-137330142D02*
X95535436Y-135996809D01*
X95535436Y-135996809D02*
X95678293Y-135234904D01*
X95678293Y-135234904D02*
X95964008Y-134853952D01*
X95964008Y-134853952D02*
X96249722Y-134663476D01*
X98821150Y-138663476D02*
X98821150Y-134663476D01*
X98821150Y-134663476D02*
X99964007Y-134663476D01*
X99964007Y-134663476D02*
X100249722Y-134853952D01*
X100249722Y-134853952D02*
X100392579Y-135044428D01*
X100392579Y-135044428D02*
X100535436Y-135425380D01*
X100535436Y-135425380D02*
X100535436Y-135996809D01*
X100535436Y-135996809D02*
X100392579Y-136377761D01*
X100392579Y-136377761D02*
X100249722Y-136568238D01*
X100249722Y-136568238D02*
X99964007Y-136758714D01*
X99964007Y-136758714D02*
X98821150Y-136758714D01*
X101392579Y-134663476D02*
X103106865Y-134663476D01*
X102249722Y-138663476D02*
X102249722Y-134663476D01*
D12*
X108706427Y-79037915D02*
X107506427Y-79037915D01*
X107506427Y-78187915D01*
X108706427Y-78187915D01*
X108706427Y-79037915D01*
G36*
X108706427Y-79037915D02*
G01*
X107506427Y-79037915D01*
X107506427Y-78187915D01*
X108706427Y-78187915D01*
X108706427Y-79037915D01*
G37*
X112256427Y-79037915D02*
X111056427Y-79037915D01*
X111056427Y-78187915D01*
X112256427Y-78187915D01*
X112256427Y-79037915D01*
G36*
X112256427Y-79037915D02*
G01*
X111056427Y-79037915D01*
X111056427Y-78187915D01*
X112256427Y-78187915D01*
X112256427Y-79037915D01*
G37*
X69831430Y-82823417D02*
X68331430Y-82823417D01*
X68331430Y-82073417D01*
X69831430Y-82073417D01*
X69831430Y-82823417D01*
G36*
X69831430Y-82823417D02*
G01*
X68331430Y-82823417D01*
X68331430Y-82073417D01*
X69831430Y-82073417D01*
X69831430Y-82823417D01*
G37*
X75231430Y-82823417D02*
X73731430Y-82823417D01*
X73731430Y-82073417D01*
X75231430Y-82073417D01*
X75231430Y-82823417D01*
G36*
X75231430Y-82823417D02*
G01*
X73731430Y-82823417D01*
X73731430Y-82073417D01*
X75231430Y-82073417D01*
X75231430Y-82823417D01*
G37*
X75231430Y-84573417D02*
X73731430Y-84573417D01*
X73731430Y-83823417D01*
X75231430Y-83823417D01*
X75231430Y-84573417D01*
G36*
X75231430Y-84573417D02*
G01*
X73731430Y-84573417D01*
X73731430Y-83823417D01*
X75231430Y-83823417D01*
X75231430Y-84573417D01*
G37*
X69831430Y-84573417D02*
X68581430Y-84573417D01*
X68331430Y-84323417D01*
X68331430Y-83823417D01*
X69831430Y-83823417D01*
X69831430Y-84573417D01*
G36*
X69831430Y-84573417D02*
G01*
X68581430Y-84573417D01*
X68331430Y-84323417D01*
X68331430Y-83823417D01*
X69831430Y-83823417D01*
X69831430Y-84573417D01*
G37*
X146031423Y-73822917D02*
X144531423Y-73822917D01*
X144531423Y-73072917D01*
X146031423Y-73072917D01*
X146031423Y-73822917D01*
G36*
X146031423Y-73822917D02*
G01*
X144531423Y-73822917D01*
X144531423Y-73072917D01*
X146031423Y-73072917D01*
X146031423Y-73822917D01*
G37*
X151431423Y-73822917D02*
X149931423Y-73822917D01*
X149931423Y-73072917D01*
X151431423Y-73072917D01*
X151431423Y-73822917D01*
G36*
X151431423Y-73822917D02*
G01*
X149931423Y-73822917D01*
X149931423Y-73072917D01*
X151431423Y-73072917D01*
X151431423Y-73822917D01*
G37*
X151431423Y-75572917D02*
X149931423Y-75572917D01*
X149931423Y-74822917D01*
X151431423Y-74822917D01*
X151431423Y-75572917D01*
G36*
X151431423Y-75572917D02*
G01*
X149931423Y-75572917D01*
X149931423Y-74822917D01*
X151431423Y-74822917D01*
X151431423Y-75572917D01*
G37*
X146031423Y-75572917D02*
X144781423Y-75572917D01*
X144531423Y-75322917D01*
X144531423Y-74822917D01*
X146031423Y-74822917D01*
X146031423Y-75572917D01*
G36*
X146031423Y-75572917D02*
G01*
X144781423Y-75572917D01*
X144531423Y-75322917D01*
X144531423Y-74822917D01*
X146031423Y-74822917D01*
X146031423Y-75572917D01*
G37*
X70606428Y-116088407D02*
X69406428Y-116088407D01*
X69406428Y-115238407D01*
X70606428Y-115238407D01*
X70606428Y-116088407D01*
G36*
X70606428Y-116088407D02*
G01*
X69406428Y-116088407D01*
X69406428Y-115238407D01*
X70606428Y-115238407D01*
X70606428Y-116088407D01*
G37*
X74156428Y-116088407D02*
X72956428Y-116088407D01*
X72956428Y-115238407D01*
X74156428Y-115238407D01*
X74156428Y-116088407D01*
G36*
X74156428Y-116088407D02*
G01*
X72956428Y-116088407D01*
X72956428Y-115238407D01*
X74156428Y-115238407D01*
X74156428Y-116088407D01*
G37*
X88881426Y-70823413D02*
X87381426Y-70823413D01*
X87381426Y-70073413D01*
X88881426Y-70073413D01*
X88881426Y-70823413D01*
G36*
X88881426Y-70823413D02*
G01*
X87381426Y-70823413D01*
X87381426Y-70073413D01*
X88881426Y-70073413D01*
X88881426Y-70823413D01*
G37*
X94281426Y-70823413D02*
X92781426Y-70823413D01*
X92781426Y-70073413D01*
X94281426Y-70073413D01*
X94281426Y-70823413D01*
G36*
X94281426Y-70823413D02*
G01*
X92781426Y-70823413D01*
X92781426Y-70073413D01*
X94281426Y-70073413D01*
X94281426Y-70823413D01*
G37*
X94281426Y-72573413D02*
X92781426Y-72573413D01*
X92781426Y-71823413D01*
X94281426Y-71823413D01*
X94281426Y-72573413D01*
G36*
X94281426Y-72573413D02*
G01*
X92781426Y-72573413D01*
X92781426Y-71823413D01*
X94281426Y-71823413D01*
X94281426Y-72573413D01*
G37*
X88881426Y-72573413D02*
X87631426Y-72573413D01*
X87381426Y-72323413D01*
X87381426Y-71823413D01*
X88881426Y-71823413D01*
X88881426Y-72573413D01*
G36*
X88881426Y-72573413D02*
G01*
X87631426Y-72573413D01*
X87381426Y-72323413D01*
X87381426Y-71823413D01*
X88881426Y-71823413D01*
X88881426Y-72573413D01*
G37*
X107931420Y-102922916D02*
X106431420Y-102922916D01*
X106431420Y-102172916D01*
X107931420Y-102172916D01*
X107931420Y-102922916D01*
G36*
X107931420Y-102922916D02*
G01*
X106431420Y-102922916D01*
X106431420Y-102172916D01*
X107931420Y-102172916D01*
X107931420Y-102922916D01*
G37*
X113331420Y-102922916D02*
X111831420Y-102922916D01*
X111831420Y-102172916D01*
X113331420Y-102172916D01*
X113331420Y-102922916D01*
G36*
X113331420Y-102922916D02*
G01*
X111831420Y-102922916D01*
X111831420Y-102172916D01*
X113331420Y-102172916D01*
X113331420Y-102922916D01*
G37*
X113331420Y-104672916D02*
X111831420Y-104672916D01*
X111831420Y-103922916D01*
X113331420Y-103922916D01*
X113331420Y-104672916D01*
G36*
X113331420Y-104672916D02*
G01*
X111831420Y-104672916D01*
X111831420Y-103922916D01*
X113331420Y-103922916D01*
X113331420Y-104672916D01*
G37*
X107931420Y-104672916D02*
X106681420Y-104672916D01*
X106431420Y-104422916D01*
X106431420Y-103922916D01*
X107931420Y-103922916D01*
X107931420Y-104672916D01*
G36*
X107931420Y-104672916D02*
G01*
X106681420Y-104672916D01*
X106431420Y-104422916D01*
X106431420Y-103922916D01*
X107931420Y-103922916D01*
X107931420Y-104672916D01*
G37*
X70606423Y-97038416D02*
X69406423Y-97038416D01*
X69406423Y-96188416D01*
X70606423Y-96188416D01*
X70606423Y-97038416D01*
G36*
X70606423Y-97038416D02*
G01*
X69406423Y-97038416D01*
X69406423Y-96188416D01*
X70606423Y-96188416D01*
X70606423Y-97038416D01*
G37*
X74156423Y-97038416D02*
X72956423Y-97038416D01*
X72956423Y-96188416D01*
X74156423Y-96188416D01*
X74156423Y-97038416D01*
G36*
X74156423Y-97038416D02*
G01*
X72956423Y-97038416D01*
X72956423Y-96188416D01*
X74156423Y-96188416D01*
X74156423Y-97038416D01*
G37*
X107931430Y-64822912D02*
X106431430Y-64822912D01*
X106431430Y-64072912D01*
X107931430Y-64072912D01*
X107931430Y-64822912D01*
G36*
X107931430Y-64822912D02*
G01*
X106431430Y-64822912D01*
X106431430Y-64072912D01*
X107931430Y-64072912D01*
X107931430Y-64822912D01*
G37*
X113331430Y-64822912D02*
X111831430Y-64822912D01*
X111831430Y-64072912D01*
X113331430Y-64072912D01*
X113331430Y-64822912D01*
G36*
X113331430Y-64822912D02*
G01*
X111831430Y-64822912D01*
X111831430Y-64072912D01*
X113331430Y-64072912D01*
X113331430Y-64822912D01*
G37*
X113331430Y-66572912D02*
X111831430Y-66572912D01*
X111831430Y-65822912D01*
X113331430Y-65822912D01*
X113331430Y-66572912D01*
G36*
X113331430Y-66572912D02*
G01*
X111831430Y-66572912D01*
X111831430Y-65822912D01*
X113331430Y-65822912D01*
X113331430Y-66572912D01*
G37*
X107931430Y-66572912D02*
X106681430Y-66572912D01*
X106431430Y-66322912D01*
X106431430Y-65822912D01*
X107931430Y-65822912D01*
X107931430Y-66572912D01*
G36*
X107931430Y-66572912D02*
G01*
X106681430Y-66572912D01*
X106431430Y-66322912D01*
X106431430Y-65822912D01*
X107931430Y-65822912D01*
X107931430Y-66572912D01*
G37*
X114943553Y-128473396D02*
X113443553Y-128473396D01*
X113443553Y-127723396D01*
X114943553Y-127723396D01*
X114943553Y-128473396D01*
G36*
X114943553Y-128473396D02*
G01*
X113443553Y-128473396D01*
X113443553Y-127723396D01*
X114943553Y-127723396D01*
X114943553Y-128473396D01*
G37*
X120343553Y-128473396D02*
X118843553Y-128473396D01*
X118843553Y-127723396D01*
X120343553Y-127723396D01*
X120343553Y-128473396D01*
G36*
X120343553Y-128473396D02*
G01*
X118843553Y-128473396D01*
X118843553Y-127723396D01*
X120343553Y-127723396D01*
X120343553Y-128473396D01*
G37*
X120343553Y-130223396D02*
X118843553Y-130223396D01*
X118843553Y-129473396D01*
X120343553Y-129473396D01*
X120343553Y-130223396D01*
G36*
X120343553Y-130223396D02*
G01*
X118843553Y-130223396D01*
X118843553Y-129473396D01*
X120343553Y-129473396D01*
X120343553Y-130223396D01*
G37*
X114943553Y-130223396D02*
X113693553Y-130223396D01*
X113443553Y-129973396D01*
X113443553Y-129473396D01*
X114943553Y-129473396D01*
X114943553Y-130223396D01*
G36*
X114943553Y-130223396D02*
G01*
X113693553Y-130223396D01*
X113443553Y-129973396D01*
X113443553Y-129473396D01*
X114943553Y-129473396D01*
X114943553Y-130223396D01*
G37*
X146031420Y-92872911D02*
X144531420Y-92872911D01*
X144531420Y-92122911D01*
X146031420Y-92122911D01*
X146031420Y-92872911D01*
G36*
X146031420Y-92872911D02*
G01*
X144531420Y-92872911D01*
X144531420Y-92122911D01*
X146031420Y-92122911D01*
X146031420Y-92872911D01*
G37*
X151431420Y-92872911D02*
X149931420Y-92872911D01*
X149931420Y-92122911D01*
X151431420Y-92122911D01*
X151431420Y-92872911D01*
G36*
X151431420Y-92872911D02*
G01*
X149931420Y-92872911D01*
X149931420Y-92122911D01*
X151431420Y-92122911D01*
X151431420Y-92872911D01*
G37*
X151431420Y-94622911D02*
X149931420Y-94622911D01*
X149931420Y-93872911D01*
X151431420Y-93872911D01*
X151431420Y-94622911D01*
G36*
X151431420Y-94622911D02*
G01*
X149931420Y-94622911D01*
X149931420Y-93872911D01*
X151431420Y-93872911D01*
X151431420Y-94622911D01*
G37*
X146031420Y-94622911D02*
X144781420Y-94622911D01*
X144531420Y-94372911D01*
X144531420Y-93872911D01*
X146031420Y-93872911D01*
X146031420Y-94622911D01*
G36*
X146031420Y-94622911D02*
G01*
X144781420Y-94622911D01*
X144531420Y-94372911D01*
X144531420Y-93872911D01*
X146031420Y-93872911D01*
X146031420Y-94622911D01*
G37*
X161798000Y-91821000D02*
X160782000Y-91821000D01*
X160782000Y-90805000D01*
X161798000Y-90805000D01*
X161798000Y-91821000D01*
G36*
X161798000Y-91821000D02*
G01*
X160782000Y-91821000D01*
X160782000Y-90805000D01*
X161798000Y-90805000D01*
X161798000Y-91821000D01*
G37*
X161798000Y-94361000D02*
X160782000Y-94361000D01*
X160782000Y-93345000D01*
X161798000Y-93345000D01*
X161798000Y-94361000D01*
G36*
X161798000Y-94361000D02*
G01*
X160782000Y-94361000D01*
X160782000Y-93345000D01*
X161798000Y-93345000D01*
X161798000Y-94361000D01*
G37*
X161798000Y-96901000D02*
X160782000Y-96901000D01*
X160782000Y-95885000D01*
X161798000Y-95885000D01*
X161798000Y-96901000D01*
G36*
X161798000Y-96901000D02*
G01*
X160782000Y-96901000D01*
X160782000Y-95885000D01*
X161798000Y-95885000D01*
X161798000Y-96901000D01*
G37*
X161798000Y-99441000D02*
X160782000Y-99441000D01*
X160782000Y-98425000D01*
X161798000Y-98425000D01*
X161798000Y-99441000D01*
G36*
X161798000Y-99441000D02*
G01*
X160782000Y-99441000D01*
X160782000Y-98425000D01*
X161798000Y-98425000D01*
X161798000Y-99441000D01*
G37*
X161798000Y-101981000D02*
X160782000Y-101981000D01*
X160782000Y-100965000D01*
X161798000Y-100965000D01*
X161798000Y-101981000D01*
G36*
X161798000Y-101981000D02*
G01*
X160782000Y-101981000D01*
X160782000Y-100965000D01*
X161798000Y-100965000D01*
X161798000Y-101981000D01*
G37*
X161798000Y-104521000D02*
X160782000Y-104521000D01*
X160782000Y-103505000D01*
X161798000Y-103505000D01*
X161798000Y-104521000D01*
G36*
X161798000Y-104521000D02*
G01*
X160782000Y-104521000D01*
X160782000Y-103505000D01*
X161798000Y-103505000D01*
X161798000Y-104521000D01*
G37*
X161798000Y-107061000D02*
X160782000Y-107061000D01*
X160782000Y-106045000D01*
X161798000Y-106045000D01*
X161798000Y-107061000D01*
G36*
X161798000Y-107061000D02*
G01*
X160782000Y-107061000D01*
X160782000Y-106045000D01*
X161798000Y-106045000D01*
X161798000Y-107061000D01*
G37*
X161798000Y-109601000D02*
X160782000Y-109601000D01*
X160782000Y-108585000D01*
X161798000Y-108585000D01*
X161798000Y-109601000D01*
G36*
X161798000Y-109601000D02*
G01*
X160782000Y-109601000D01*
X160782000Y-108585000D01*
X161798000Y-108585000D01*
X161798000Y-109601000D01*
G37*
X161798000Y-112141000D02*
X160782000Y-112141000D01*
X160782000Y-111125000D01*
X161798000Y-111125000D01*
X161798000Y-112141000D01*
G36*
X161798000Y-112141000D02*
G01*
X160782000Y-112141000D01*
X160782000Y-111125000D01*
X161798000Y-111125000D01*
X161798000Y-112141000D01*
G37*
X161798000Y-114681000D02*
X160782000Y-114681000D01*
X160782000Y-113665000D01*
X161798000Y-113665000D01*
X161798000Y-114681000D01*
G36*
X161798000Y-114681000D02*
G01*
X160782000Y-114681000D01*
X160782000Y-113665000D01*
X161798000Y-113665000D01*
X161798000Y-114681000D01*
G37*
X161798000Y-117221000D02*
X160782000Y-117221000D01*
X160782000Y-116205000D01*
X161798000Y-116205000D01*
X161798000Y-117221000D01*
G36*
X161798000Y-117221000D02*
G01*
X160782000Y-117221000D01*
X160782000Y-116205000D01*
X161798000Y-116205000D01*
X161798000Y-117221000D01*
G37*
X161798000Y-119761000D02*
X160782000Y-119761000D01*
X160782000Y-118745000D01*
X161798000Y-118745000D01*
X161798000Y-119761000D01*
G36*
X161798000Y-119761000D02*
G01*
X160782000Y-119761000D01*
X160782000Y-118745000D01*
X161798000Y-118745000D01*
X161798000Y-119761000D01*
G37*
X161798000Y-122301000D02*
X160782000Y-122301000D01*
X160782000Y-121285000D01*
X161798000Y-121285000D01*
X161798000Y-122301000D01*
G36*
X161798000Y-122301000D02*
G01*
X160782000Y-122301000D01*
X160782000Y-121285000D01*
X161798000Y-121285000D01*
X161798000Y-122301000D01*
G37*
X172974000Y-91821000D02*
X171958000Y-91821000D01*
X171958000Y-90805000D01*
X172974000Y-90805000D01*
X172974000Y-91821000D01*
G36*
X172974000Y-91821000D02*
G01*
X171958000Y-91821000D01*
X171958000Y-90805000D01*
X172974000Y-90805000D01*
X172974000Y-91821000D01*
G37*
X172974000Y-94361000D02*
X171958000Y-94361000D01*
X171958000Y-93345000D01*
X172974000Y-93345000D01*
X172974000Y-94361000D01*
G36*
X172974000Y-94361000D02*
G01*
X171958000Y-94361000D01*
X171958000Y-93345000D01*
X172974000Y-93345000D01*
X172974000Y-94361000D01*
G37*
X172974000Y-96901000D02*
X171958000Y-96901000D01*
X171958000Y-95885000D01*
X172974000Y-95885000D01*
X172974000Y-96901000D01*
G36*
X172974000Y-96901000D02*
G01*
X171958000Y-96901000D01*
X171958000Y-95885000D01*
X172974000Y-95885000D01*
X172974000Y-96901000D01*
G37*
X172974000Y-99441000D02*
X171958000Y-99441000D01*
X171958000Y-98425000D01*
X172974000Y-98425000D01*
X172974000Y-99441000D01*
G36*
X172974000Y-99441000D02*
G01*
X171958000Y-99441000D01*
X171958000Y-98425000D01*
X172974000Y-98425000D01*
X172974000Y-99441000D01*
G37*
X172974000Y-101981000D02*
X171958000Y-101981000D01*
X171958000Y-100965000D01*
X172974000Y-100965000D01*
X172974000Y-101981000D01*
G36*
X172974000Y-101981000D02*
G01*
X171958000Y-101981000D01*
X171958000Y-100965000D01*
X172974000Y-100965000D01*
X172974000Y-101981000D01*
G37*
X172974000Y-104521000D02*
X171958000Y-104521000D01*
X171958000Y-103505000D01*
X172974000Y-103505000D01*
X172974000Y-104521000D01*
G36*
X172974000Y-104521000D02*
G01*
X171958000Y-104521000D01*
X171958000Y-103505000D01*
X172974000Y-103505000D01*
X172974000Y-104521000D01*
G37*
X172974000Y-107061000D02*
X171958000Y-107061000D01*
X171958000Y-106045000D01*
X172974000Y-106045000D01*
X172974000Y-107061000D01*
G36*
X172974000Y-107061000D02*
G01*
X171958000Y-107061000D01*
X171958000Y-106045000D01*
X172974000Y-106045000D01*
X172974000Y-107061000D01*
G37*
X172974000Y-109601000D02*
X171958000Y-109601000D01*
X171958000Y-108585000D01*
X172974000Y-108585000D01*
X172974000Y-109601000D01*
G36*
X172974000Y-109601000D02*
G01*
X171958000Y-109601000D01*
X171958000Y-108585000D01*
X172974000Y-108585000D01*
X172974000Y-109601000D01*
G37*
X172974000Y-112141000D02*
X171958000Y-112141000D01*
X171958000Y-111125000D01*
X172974000Y-111125000D01*
X172974000Y-112141000D01*
G36*
X172974000Y-112141000D02*
G01*
X171958000Y-112141000D01*
X171958000Y-111125000D01*
X172974000Y-111125000D01*
X172974000Y-112141000D01*
G37*
X172974000Y-114681000D02*
X171958000Y-114681000D01*
X171958000Y-113665000D01*
X172974000Y-113665000D01*
X172974000Y-114681000D01*
G36*
X172974000Y-114681000D02*
G01*
X171958000Y-114681000D01*
X171958000Y-113665000D01*
X172974000Y-113665000D01*
X172974000Y-114681000D01*
G37*
X172974000Y-117221000D02*
X171958000Y-117221000D01*
X171958000Y-116205000D01*
X172974000Y-116205000D01*
X172974000Y-117221000D01*
G36*
X172974000Y-117221000D02*
G01*
X171958000Y-117221000D01*
X171958000Y-116205000D01*
X172974000Y-116205000D01*
X172974000Y-117221000D01*
G37*
X172974000Y-119761000D02*
X171958000Y-119761000D01*
X171958000Y-118745000D01*
X172974000Y-118745000D01*
X172974000Y-119761000D01*
G36*
X172974000Y-119761000D02*
G01*
X171958000Y-119761000D01*
X171958000Y-118745000D01*
X172974000Y-118745000D01*
X172974000Y-119761000D01*
G37*
X172974000Y-122301000D02*
X171958000Y-122301000D01*
X171958000Y-121285000D01*
X172974000Y-121285000D01*
X172974000Y-122301000D01*
G36*
X172974000Y-122301000D02*
G01*
X171958000Y-122301000D01*
X171958000Y-121285000D01*
X172974000Y-121285000D01*
X172974000Y-122301000D01*
G37*
X163696456Y-91233579D02*
X162796456Y-91233579D01*
X162796456Y-90533579D01*
X163696456Y-90533579D01*
X163696456Y-91233579D01*
G36*
X163696456Y-91233579D02*
G01*
X162796456Y-91233579D01*
X162796456Y-90533579D01*
X163696456Y-90533579D01*
X163696456Y-91233579D01*
G37*
X163696456Y-93433579D02*
X162796456Y-93433579D01*
X162796456Y-92733579D01*
X163696456Y-92733579D01*
X163696456Y-93433579D01*
G36*
X163696456Y-93433579D02*
G01*
X162796456Y-93433579D01*
X162796456Y-92733579D01*
X163696456Y-92733579D01*
X163696456Y-93433579D01*
G37*
X164946456Y-94433579D02*
X164346456Y-94433579D01*
X164346456Y-93033579D01*
X164946456Y-93033579D01*
X164946456Y-94433579D01*
G36*
X164946456Y-94433579D02*
G01*
X164346456Y-94433579D01*
X164346456Y-93033579D01*
X164946456Y-93033579D01*
X164946456Y-94433579D01*
G37*
X166446456Y-94433579D02*
X165846456Y-94433579D01*
X165846456Y-93033579D01*
X166446456Y-93033579D01*
X166446456Y-94433579D01*
G36*
X166446456Y-94433579D02*
G01*
X165846456Y-94433579D01*
X165846456Y-93033579D01*
X166446456Y-93033579D01*
X166446456Y-94433579D01*
G37*
X169446456Y-94433579D02*
X168846456Y-94433579D01*
X168846456Y-93033579D01*
X169446456Y-93033579D01*
X169446456Y-94433579D01*
G36*
X169446456Y-94433579D02*
G01*
X168846456Y-94433579D01*
X168846456Y-93033579D01*
X169446456Y-93033579D01*
X169446456Y-94433579D01*
G37*
X170996456Y-91233579D02*
X170096456Y-91233579D01*
X170096456Y-90533579D01*
X170996456Y-90533579D01*
X170996456Y-91233579D01*
G36*
X170996456Y-91233579D02*
G01*
X170096456Y-91233579D01*
X170096456Y-90533579D01*
X170996456Y-90533579D01*
X170996456Y-91233579D01*
G37*
X170996456Y-93433579D02*
X170096456Y-93433579D01*
X170096456Y-92733579D01*
X170996456Y-92733579D01*
X170996456Y-93433579D01*
G36*
X170996456Y-93433579D02*
G01*
X170096456Y-93433579D01*
X170096456Y-92733579D01*
X170996456Y-92733579D01*
X170996456Y-93433579D01*
G37*
X159287640Y-138560234D02*
X158912640Y-139209753D01*
X157613602Y-138459753D01*
X157988602Y-137810234D01*
X159287640Y-138560234D01*
G36*
X159287640Y-138560234D02*
G01*
X158912640Y-139209753D01*
X157613602Y-138459753D01*
X157988602Y-137810234D01*
X159287640Y-138560234D01*
G37*
X163089178Y-142775778D02*
X162714178Y-143425297D01*
X161415140Y-142675297D01*
X161790140Y-142025778D01*
X163089178Y-142775778D01*
G36*
X163089178Y-142775778D02*
G01*
X162714178Y-143425297D01*
X161415140Y-142675297D01*
X161790140Y-142025778D01*
X163089178Y-142775778D01*
G37*
X163964178Y-141260234D02*
X163589178Y-141909753D01*
X162290140Y-141159753D01*
X162665140Y-140510234D01*
X163964178Y-141260234D01*
G36*
X163964178Y-141260234D02*
G01*
X163589178Y-141909753D01*
X162290140Y-141159753D01*
X162665140Y-140510234D01*
X163964178Y-141260234D01*
G37*
X158412640Y-140075778D02*
X158037640Y-140725297D01*
X156955109Y-140100297D01*
X156863602Y-139758791D01*
X157113602Y-139325778D01*
X158412640Y-140075778D01*
G36*
X158412640Y-140075778D02*
G01*
X158037640Y-140725297D01*
X156955109Y-140100297D01*
X156863602Y-139758791D01*
X157113602Y-139325778D01*
X158412640Y-140075778D01*
G37*
X146806429Y-126137912D02*
X145606429Y-126137912D01*
X145606429Y-125287912D01*
X146806429Y-125287912D01*
X146806429Y-126137912D01*
G36*
X146806429Y-126137912D02*
G01*
X145606429Y-126137912D01*
X145606429Y-125287912D01*
X146806429Y-125287912D01*
X146806429Y-126137912D01*
G37*
X150356429Y-126137912D02*
X149156429Y-126137912D01*
X149156429Y-125287912D01*
X150356429Y-125287912D01*
X150356429Y-126137912D01*
G36*
X150356429Y-126137912D02*
G01*
X149156429Y-126137912D01*
X149156429Y-125287912D01*
X150356429Y-125287912D01*
X150356429Y-126137912D01*
G37*
X127756432Y-85537916D02*
X126556432Y-85537916D01*
X126556432Y-84687916D01*
X127756432Y-84687916D01*
X127756432Y-85537916D01*
G36*
X127756432Y-85537916D02*
G01*
X126556432Y-85537916D01*
X126556432Y-84687916D01*
X127756432Y-84687916D01*
X127756432Y-85537916D01*
G37*
X131306432Y-85537916D02*
X130106432Y-85537916D01*
X130106432Y-84687916D01*
X131306432Y-84687916D01*
X131306432Y-85537916D01*
G36*
X131306432Y-85537916D02*
G01*
X130106432Y-85537916D01*
X130106432Y-84687916D01*
X131306432Y-84687916D01*
X131306432Y-85537916D01*
G37*
X108706426Y-98087917D02*
X107506426Y-98087917D01*
X107506426Y-97237917D01*
X108706426Y-97237917D01*
X108706426Y-98087917D01*
G36*
X108706426Y-98087917D02*
G01*
X107506426Y-98087917D01*
X107506426Y-97237917D01*
X108706426Y-97237917D01*
X108706426Y-98087917D01*
G37*
X112256426Y-98087917D02*
X111056426Y-98087917D01*
X111056426Y-97237917D01*
X112256426Y-97237917D01*
X112256426Y-98087917D01*
G36*
X112256426Y-98087917D02*
G01*
X111056426Y-98087917D01*
X111056426Y-97237917D01*
X112256426Y-97237917D01*
X112256426Y-98087917D01*
G37*
X127756427Y-104587909D02*
X126556427Y-104587909D01*
X126556427Y-103737909D01*
X127756427Y-103737909D01*
X127756427Y-104587909D01*
G36*
X127756427Y-104587909D02*
G01*
X126556427Y-104587909D01*
X126556427Y-103737909D01*
X127756427Y-103737909D01*
X127756427Y-104587909D01*
G37*
X131306427Y-104587909D02*
X130106427Y-104587909D01*
X130106427Y-103737909D01*
X131306427Y-103737909D01*
X131306427Y-104587909D01*
G36*
X131306427Y-104587909D02*
G01*
X130106427Y-104587909D01*
X130106427Y-103737909D01*
X131306427Y-103737909D01*
X131306427Y-104587909D01*
G37*
X146806425Y-88037919D02*
X145606425Y-88037919D01*
X145606425Y-87187919D01*
X146806425Y-87187919D01*
X146806425Y-88037919D01*
G36*
X146806425Y-88037919D02*
G01*
X145606425Y-88037919D01*
X145606425Y-87187919D01*
X146806425Y-87187919D01*
X146806425Y-88037919D01*
G37*
X150356425Y-88037919D02*
X149156425Y-88037919D01*
X149156425Y-87187919D01*
X150356425Y-87187919D01*
X150356425Y-88037919D01*
G36*
X150356425Y-88037919D02*
G01*
X149156425Y-88037919D01*
X149156425Y-87187919D01*
X150356425Y-87187919D01*
X150356425Y-88037919D01*
G37*
X70606424Y-135138412D02*
X69406424Y-135138412D01*
X69406424Y-134288412D01*
X70606424Y-134288412D01*
X70606424Y-135138412D01*
G36*
X70606424Y-135138412D02*
G01*
X69406424Y-135138412D01*
X69406424Y-134288412D01*
X70606424Y-134288412D01*
X70606424Y-135138412D01*
G37*
X74156424Y-135138412D02*
X72956424Y-135138412D01*
X72956424Y-134288412D01*
X74156424Y-134288412D01*
X74156424Y-135138412D01*
G36*
X74156424Y-135138412D02*
G01*
X72956424Y-135138412D01*
X72956424Y-134288412D01*
X74156424Y-134288412D01*
X74156424Y-135138412D01*
G37*
X107931426Y-83872917D02*
X106431426Y-83872917D01*
X106431426Y-83122917D01*
X107931426Y-83122917D01*
X107931426Y-83872917D01*
G36*
X107931426Y-83872917D02*
G01*
X106431426Y-83872917D01*
X106431426Y-83122917D01*
X107931426Y-83122917D01*
X107931426Y-83872917D01*
G37*
X113331426Y-83872917D02*
X111831426Y-83872917D01*
X111831426Y-83122917D01*
X113331426Y-83122917D01*
X113331426Y-83872917D01*
G36*
X113331426Y-83872917D02*
G01*
X111831426Y-83872917D01*
X111831426Y-83122917D01*
X113331426Y-83122917D01*
X113331426Y-83872917D01*
G37*
X113331426Y-85622917D02*
X111831426Y-85622917D01*
X111831426Y-84872917D01*
X113331426Y-84872917D01*
X113331426Y-85622917D01*
G36*
X113331426Y-85622917D02*
G01*
X111831426Y-85622917D01*
X111831426Y-84872917D01*
X113331426Y-84872917D01*
X113331426Y-85622917D01*
G37*
X107931426Y-85622917D02*
X106681426Y-85622917D01*
X106431426Y-85372917D01*
X106431426Y-84872917D01*
X107931426Y-84872917D01*
X107931426Y-85622917D01*
G36*
X107931426Y-85622917D02*
G01*
X106681426Y-85622917D01*
X106431426Y-85372917D01*
X106431426Y-84872917D01*
X107931426Y-84872917D01*
X107931426Y-85622917D01*
G37*
X163594629Y-125332269D02*
X162578629Y-125332269D01*
X162578629Y-124316269D01*
X163594629Y-124316269D01*
X163594629Y-125332269D01*
G36*
X163594629Y-125332269D02*
G01*
X162578629Y-125332269D01*
X162578629Y-124316269D01*
X163594629Y-124316269D01*
X163594629Y-125332269D01*
G37*
X166134629Y-125332269D02*
X165118629Y-125332269D01*
X165118629Y-124316269D01*
X166134629Y-124316269D01*
X166134629Y-125332269D01*
G36*
X166134629Y-125332269D02*
G01*
X165118629Y-125332269D01*
X165118629Y-124316269D01*
X166134629Y-124316269D01*
X166134629Y-125332269D01*
G37*
X168674629Y-125332269D02*
X167658629Y-125332269D01*
X167658629Y-124316269D01*
X168674629Y-124316269D01*
X168674629Y-125332269D01*
G36*
X168674629Y-125332269D02*
G01*
X167658629Y-125332269D01*
X167658629Y-124316269D01*
X168674629Y-124316269D01*
X168674629Y-125332269D01*
G37*
X171214629Y-125332269D02*
X170198629Y-125332269D01*
X170198629Y-124316269D01*
X171214629Y-124316269D01*
X171214629Y-125332269D01*
G36*
X171214629Y-125332269D02*
G01*
X170198629Y-125332269D01*
X170198629Y-124316269D01*
X171214629Y-124316269D01*
X171214629Y-125332269D01*
G37*
X127730000Y-123637913D02*
X126530000Y-123637913D01*
X126530000Y-122787913D01*
X127730000Y-122787913D01*
X127730000Y-123637913D01*
G36*
X127730000Y-123637913D02*
G01*
X126530000Y-123637913D01*
X126530000Y-122787913D01*
X127730000Y-122787913D01*
X127730000Y-123637913D01*
G37*
X131280000Y-123637913D02*
X130080000Y-123637913D01*
X130080000Y-122787913D01*
X131280000Y-122787913D01*
X131280000Y-123637913D01*
G36*
X131280000Y-123637913D02*
G01*
X130080000Y-123637913D01*
X130080000Y-122787913D01*
X131280000Y-122787913D01*
X131280000Y-123637913D01*
G37*
X153704561Y-136612080D02*
X153104561Y-137651310D01*
X152368439Y-137226310D01*
X152968439Y-136187080D01*
X153704561Y-136612080D01*
G36*
X153704561Y-136612080D02*
G01*
X153104561Y-137651310D01*
X152368439Y-137226310D01*
X152968439Y-136187080D01*
X153704561Y-136612080D01*
G37*
X155479561Y-133537690D02*
X154879561Y-134576920D01*
X154143439Y-134151920D01*
X154743439Y-133112690D01*
X155479561Y-133537690D01*
G36*
X155479561Y-133537690D02*
G01*
X154879561Y-134576920D01*
X154143439Y-134151920D01*
X154743439Y-133112690D01*
X155479561Y-133537690D01*
G37*
X89656426Y-104088413D02*
X88456426Y-104088413D01*
X88456426Y-103238413D01*
X89656426Y-103238413D01*
X89656426Y-104088413D01*
G36*
X89656426Y-104088413D02*
G01*
X88456426Y-104088413D01*
X88456426Y-103238413D01*
X89656426Y-103238413D01*
X89656426Y-104088413D01*
G37*
X93206426Y-104088413D02*
X92006426Y-104088413D01*
X92006426Y-103238413D01*
X93206426Y-103238413D01*
X93206426Y-104088413D01*
G36*
X93206426Y-104088413D02*
G01*
X92006426Y-104088413D01*
X92006426Y-103238413D01*
X93206426Y-103238413D01*
X93206426Y-104088413D01*
G37*
X69831420Y-120923410D02*
X68331420Y-120923410D01*
X68331420Y-120173410D01*
X69831420Y-120173410D01*
X69831420Y-120923410D01*
G36*
X69831420Y-120923410D02*
G01*
X68331420Y-120923410D01*
X68331420Y-120173410D01*
X69831420Y-120173410D01*
X69831420Y-120923410D01*
G37*
X75231420Y-120923410D02*
X73731420Y-120923410D01*
X73731420Y-120173410D01*
X75231420Y-120173410D01*
X75231420Y-120923410D01*
G36*
X75231420Y-120923410D02*
G01*
X73731420Y-120923410D01*
X73731420Y-120173410D01*
X75231420Y-120173410D01*
X75231420Y-120923410D01*
G37*
X75231420Y-122673410D02*
X73731420Y-122673410D01*
X73731420Y-121923410D01*
X75231420Y-121923410D01*
X75231420Y-122673410D01*
G36*
X75231420Y-122673410D02*
G01*
X73731420Y-122673410D01*
X73731420Y-121923410D01*
X75231420Y-121923410D01*
X75231420Y-122673410D01*
G37*
X69831420Y-122673410D02*
X68581420Y-122673410D01*
X68331420Y-122423410D01*
X68331420Y-121923410D01*
X69831420Y-121923410D01*
X69831420Y-122673410D01*
G36*
X69831420Y-122673410D02*
G01*
X68581420Y-122673410D01*
X68331420Y-122423410D01*
X68331420Y-121923410D01*
X69831420Y-121923410D01*
X69831420Y-122673410D01*
G37*
X89656428Y-123138415D02*
X88456428Y-123138415D01*
X88456428Y-122288415D01*
X89656428Y-122288415D01*
X89656428Y-123138415D01*
G36*
X89656428Y-123138415D02*
G01*
X88456428Y-123138415D01*
X88456428Y-122288415D01*
X89656428Y-122288415D01*
X89656428Y-123138415D01*
G37*
X93206428Y-123138415D02*
X92006428Y-123138415D01*
X92006428Y-122288415D01*
X93206428Y-122288415D01*
X93206428Y-123138415D01*
G36*
X93206428Y-123138415D02*
G01*
X92006428Y-123138415D01*
X92006428Y-122288415D01*
X93206428Y-122288415D01*
X93206428Y-123138415D01*
G37*
X137828881Y-129953247D02*
X137634767Y-130677691D01*
X136185878Y-130289463D01*
X136379993Y-129565017D01*
X137828881Y-129953247D01*
G36*
X137828881Y-129953247D02*
G01*
X137634767Y-130677691D01*
X136185878Y-130289463D01*
X136379993Y-129565017D01*
X137828881Y-129953247D01*
G37*
X142591947Y-133041240D02*
X142397833Y-133765684D01*
X140948944Y-133377456D01*
X141143059Y-132653011D01*
X142591947Y-133041240D01*
G36*
X142591947Y-133041240D02*
G01*
X142397833Y-133765684D01*
X140948944Y-133377456D01*
X141143059Y-132653011D01*
X142591947Y-133041240D01*
G37*
X143044881Y-131350870D02*
X142850767Y-132075314D01*
X141401878Y-131687086D01*
X141595992Y-130962641D01*
X143044881Y-131350870D01*
G36*
X143044881Y-131350870D02*
G01*
X142850767Y-132075314D01*
X141401878Y-131687086D01*
X141595992Y-130962641D01*
X143044881Y-131350870D01*
G37*
X137375948Y-131643617D02*
X137181834Y-132368062D01*
X135974426Y-132044538D01*
X135797650Y-131738352D01*
X135927059Y-131255389D01*
X137375948Y-131643617D01*
G36*
X137375948Y-131643617D02*
G01*
X137181834Y-132368062D01*
X135974426Y-132044538D01*
X135797650Y-131738352D01*
X135927059Y-131255389D01*
X137375948Y-131643617D01*
G37*
X126981421Y-109422914D02*
X125481421Y-109422914D01*
X125481421Y-108672914D01*
X126981421Y-108672914D01*
X126981421Y-109422914D01*
G36*
X126981421Y-109422914D02*
G01*
X125481421Y-109422914D01*
X125481421Y-108672914D01*
X126981421Y-108672914D01*
X126981421Y-109422914D01*
G37*
X132381421Y-109422914D02*
X130881421Y-109422914D01*
X130881421Y-108672914D01*
X132381421Y-108672914D01*
X132381421Y-109422914D01*
G36*
X132381421Y-109422914D02*
G01*
X130881421Y-109422914D01*
X130881421Y-108672914D01*
X132381421Y-108672914D01*
X132381421Y-109422914D01*
G37*
X132381421Y-111172914D02*
X130881421Y-111172914D01*
X130881421Y-110422914D01*
X132381421Y-110422914D01*
X132381421Y-111172914D01*
G36*
X132381421Y-111172914D02*
G01*
X130881421Y-111172914D01*
X130881421Y-110422914D01*
X132381421Y-110422914D01*
X132381421Y-111172914D01*
G37*
X126981421Y-111172914D02*
X125731421Y-111172914D01*
X125481421Y-110922914D01*
X125481421Y-110422914D01*
X126981421Y-110422914D01*
X126981421Y-111172914D01*
G36*
X126981421Y-111172914D02*
G01*
X125731421Y-111172914D01*
X125481421Y-110922914D01*
X125481421Y-110422914D01*
X126981421Y-110422914D01*
X126981421Y-111172914D01*
G37*
X108706425Y-117137910D02*
X107506425Y-117137910D01*
X107506425Y-116287910D01*
X108706425Y-116287910D01*
X108706425Y-117137910D01*
G36*
X108706425Y-117137910D02*
G01*
X107506425Y-117137910D01*
X107506425Y-116287910D01*
X108706425Y-116287910D01*
X108706425Y-117137910D01*
G37*
X112256425Y-117137910D02*
X111056425Y-117137910D01*
X111056425Y-116287910D01*
X112256425Y-116287910D01*
X112256425Y-117137910D01*
G36*
X112256425Y-117137910D02*
G01*
X111056425Y-117137910D01*
X111056425Y-116287910D01*
X112256425Y-116287910D01*
X112256425Y-117137910D01*
G37*
X160363628Y-125633324D02*
X158363628Y-125633324D01*
X158363628Y-124233324D01*
X160363628Y-124233324D01*
X160363628Y-125633324D01*
G36*
X160363628Y-125633324D02*
G01*
X158363628Y-125633324D01*
X158363628Y-124233324D01*
X160363628Y-124233324D01*
X160363628Y-125633324D01*
G37*
X160363628Y-127834766D02*
X158363628Y-127834766D01*
X158363628Y-126434766D01*
X160363628Y-126434766D01*
X160363628Y-127834766D01*
G36*
X160363628Y-127834766D02*
G01*
X158363628Y-127834766D01*
X158363628Y-126434766D01*
X160363628Y-126434766D01*
X160363628Y-127834766D01*
G37*
X146031420Y-111922914D02*
X144531420Y-111922914D01*
X144531420Y-111172914D01*
X146031420Y-111172914D01*
X146031420Y-111922914D01*
G36*
X146031420Y-111922914D02*
G01*
X144531420Y-111922914D01*
X144531420Y-111172914D01*
X146031420Y-111172914D01*
X146031420Y-111922914D01*
G37*
X151431420Y-111922914D02*
X149931420Y-111922914D01*
X149931420Y-111172914D01*
X151431420Y-111172914D01*
X151431420Y-111922914D01*
G36*
X151431420Y-111922914D02*
G01*
X149931420Y-111922914D01*
X149931420Y-111172914D01*
X151431420Y-111172914D01*
X151431420Y-111922914D01*
G37*
X151431420Y-113672914D02*
X149931420Y-113672914D01*
X149931420Y-112922914D01*
X151431420Y-112922914D01*
X151431420Y-113672914D01*
G36*
X151431420Y-113672914D02*
G01*
X149931420Y-113672914D01*
X149931420Y-112922914D01*
X151431420Y-112922914D01*
X151431420Y-113672914D01*
G37*
X146031420Y-113672914D02*
X144781420Y-113672914D01*
X144531420Y-113422914D01*
X144531420Y-112922914D01*
X146031420Y-112922914D01*
X146031420Y-113672914D01*
G36*
X146031420Y-113672914D02*
G01*
X144781420Y-113672914D01*
X144531420Y-113422914D01*
X144531420Y-112922914D01*
X146031420Y-112922914D01*
X146031420Y-113672914D01*
G37*
X126981428Y-90372918D02*
X125481428Y-90372918D01*
X125481428Y-89622918D01*
X126981428Y-89622918D01*
X126981428Y-90372918D01*
G36*
X126981428Y-90372918D02*
G01*
X125481428Y-90372918D01*
X125481428Y-89622918D01*
X126981428Y-89622918D01*
X126981428Y-90372918D01*
G37*
X132381428Y-90372918D02*
X130881428Y-90372918D01*
X130881428Y-89622918D01*
X132381428Y-89622918D01*
X132381428Y-90372918D01*
G36*
X132381428Y-90372918D02*
G01*
X130881428Y-90372918D01*
X130881428Y-89622918D01*
X132381428Y-89622918D01*
X132381428Y-90372918D01*
G37*
X132381428Y-92122918D02*
X130881428Y-92122918D01*
X130881428Y-91372918D01*
X132381428Y-91372918D01*
X132381428Y-92122918D01*
G36*
X132381428Y-92122918D02*
G01*
X130881428Y-92122918D01*
X130881428Y-91372918D01*
X132381428Y-91372918D01*
X132381428Y-92122918D01*
G37*
X126981428Y-92122918D02*
X125731428Y-92122918D01*
X125481428Y-91872918D01*
X125481428Y-91372918D01*
X126981428Y-91372918D01*
X126981428Y-92122918D01*
G36*
X126981428Y-92122918D02*
G01*
X125731428Y-92122918D01*
X125481428Y-91872918D01*
X125481428Y-91372918D01*
X126981428Y-91372918D01*
X126981428Y-92122918D01*
G37*
X126981421Y-71322919D02*
X125481421Y-71322919D01*
X125481421Y-70572919D01*
X126981421Y-70572919D01*
X126981421Y-71322919D01*
G36*
X126981421Y-71322919D02*
G01*
X125481421Y-71322919D01*
X125481421Y-70572919D01*
X126981421Y-70572919D01*
X126981421Y-71322919D01*
G37*
X132381421Y-71322919D02*
X130881421Y-71322919D01*
X130881421Y-70572919D01*
X132381421Y-70572919D01*
X132381421Y-71322919D01*
G36*
X132381421Y-71322919D02*
G01*
X130881421Y-71322919D01*
X130881421Y-70572919D01*
X132381421Y-70572919D01*
X132381421Y-71322919D01*
G37*
X132381421Y-73072919D02*
X130881421Y-73072919D01*
X130881421Y-72322919D01*
X132381421Y-72322919D01*
X132381421Y-73072919D01*
G36*
X132381421Y-73072919D02*
G01*
X130881421Y-73072919D01*
X130881421Y-72322919D01*
X132381421Y-72322919D01*
X132381421Y-73072919D01*
G37*
X126981421Y-73072919D02*
X125731421Y-73072919D01*
X125481421Y-72822919D01*
X125481421Y-72322919D01*
X126981421Y-72322919D01*
X126981421Y-73072919D01*
G36*
X126981421Y-73072919D02*
G01*
X125731421Y-73072919D01*
X125481421Y-72822919D01*
X125481421Y-72322919D01*
X126981421Y-72322919D01*
X126981421Y-73072919D01*
G37*
X88881424Y-89873414D02*
X87381424Y-89873414D01*
X87381424Y-89123414D01*
X88881424Y-89123414D01*
X88881424Y-89873414D01*
G36*
X88881424Y-89873414D02*
G01*
X87381424Y-89873414D01*
X87381424Y-89123414D01*
X88881424Y-89123414D01*
X88881424Y-89873414D01*
G37*
X94281424Y-89873414D02*
X92781424Y-89873414D01*
X92781424Y-89123414D01*
X94281424Y-89123414D01*
X94281424Y-89873414D01*
G36*
X94281424Y-89873414D02*
G01*
X92781424Y-89873414D01*
X92781424Y-89123414D01*
X94281424Y-89123414D01*
X94281424Y-89873414D01*
G37*
X94281424Y-91623414D02*
X92781424Y-91623414D01*
X92781424Y-90873414D01*
X94281424Y-90873414D01*
X94281424Y-91623414D01*
G36*
X94281424Y-91623414D02*
G01*
X92781424Y-91623414D01*
X92781424Y-90873414D01*
X94281424Y-90873414D01*
X94281424Y-91623414D01*
G37*
X88881424Y-91623414D02*
X87631424Y-91623414D01*
X87381424Y-91373414D01*
X87381424Y-90873414D01*
X88881424Y-90873414D01*
X88881424Y-91623414D01*
G36*
X88881424Y-91623414D02*
G01*
X87631424Y-91623414D01*
X87381424Y-91373414D01*
X87381424Y-90873414D01*
X88881424Y-90873414D01*
X88881424Y-91623414D01*
G37*
X89656423Y-85038417D02*
X88456423Y-85038417D01*
X88456423Y-84188417D01*
X89656423Y-84188417D01*
X89656423Y-85038417D01*
G36*
X89656423Y-85038417D02*
G01*
X88456423Y-85038417D01*
X88456423Y-84188417D01*
X89656423Y-84188417D01*
X89656423Y-85038417D01*
G37*
X93206423Y-85038417D02*
X92006423Y-85038417D01*
X92006423Y-84188417D01*
X93206423Y-84188417D01*
X93206423Y-85038417D01*
G36*
X93206423Y-85038417D02*
G01*
X92006423Y-85038417D01*
X92006423Y-84188417D01*
X93206423Y-84188417D01*
X93206423Y-85038417D01*
G37*
X130408406Y-135356961D02*
X130097823Y-136516072D01*
X129276786Y-136296076D01*
X129587369Y-135136965D01*
X130408406Y-135356961D01*
G36*
X130408406Y-135356961D02*
G01*
X130097823Y-136516072D01*
X129276786Y-136296076D01*
X129587369Y-135136965D01*
X130408406Y-135356961D01*
G37*
X131327214Y-131927924D02*
X131016631Y-133087035D01*
X130195594Y-132867039D01*
X130506177Y-131707928D01*
X131327214Y-131927924D01*
G36*
X131327214Y-131927924D02*
G01*
X131016631Y-133087035D01*
X130195594Y-132867039D01*
X130506177Y-131707928D01*
X131327214Y-131927924D01*
G37*
X127425000Y-132429000D02*
X126575000Y-132429000D01*
X126575000Y-131229000D01*
X127425000Y-131229000D01*
X127425000Y-132429000D01*
G36*
X127425000Y-132429000D02*
G01*
X126575000Y-132429000D01*
X126575000Y-131229000D01*
X127425000Y-131229000D01*
X127425000Y-132429000D01*
G37*
X127425000Y-135979000D02*
X126575000Y-135979000D01*
X126575000Y-134779000D01*
X127425000Y-134779000D01*
X127425000Y-135979000D01*
G36*
X127425000Y-135979000D02*
G01*
X126575000Y-135979000D01*
X126575000Y-134779000D01*
X127425000Y-134779000D01*
X127425000Y-135979000D01*
G37*
X146806425Y-107087918D02*
X145606425Y-107087918D01*
X145606425Y-106237918D01*
X146806425Y-106237918D01*
X146806425Y-107087918D01*
G36*
X146806425Y-107087918D02*
G01*
X145606425Y-107087918D01*
X145606425Y-106237918D01*
X146806425Y-106237918D01*
X146806425Y-107087918D01*
G37*
X150356425Y-107087918D02*
X149156425Y-107087918D01*
X149156425Y-106237918D01*
X150356425Y-106237918D01*
X150356425Y-107087918D01*
G36*
X150356425Y-107087918D02*
G01*
X149156425Y-107087918D01*
X149156425Y-106237918D01*
X150356425Y-106237918D01*
X150356425Y-107087918D01*
G37*
X69831422Y-101873415D02*
X68331422Y-101873415D01*
X68331422Y-101123415D01*
X69831422Y-101123415D01*
X69831422Y-101873415D01*
G36*
X69831422Y-101873415D02*
G01*
X68331422Y-101873415D01*
X68331422Y-101123415D01*
X69831422Y-101123415D01*
X69831422Y-101873415D01*
G37*
X75231422Y-101873415D02*
X73731422Y-101873415D01*
X73731422Y-101123415D01*
X75231422Y-101123415D01*
X75231422Y-101873415D01*
G36*
X75231422Y-101873415D02*
G01*
X73731422Y-101873415D01*
X73731422Y-101123415D01*
X75231422Y-101123415D01*
X75231422Y-101873415D01*
G37*
X75231422Y-103623415D02*
X73731422Y-103623415D01*
X73731422Y-102873415D01*
X75231422Y-102873415D01*
X75231422Y-103623415D01*
G36*
X75231422Y-103623415D02*
G01*
X73731422Y-103623415D01*
X73731422Y-102873415D01*
X75231422Y-102873415D01*
X75231422Y-103623415D01*
G37*
X69831422Y-103623415D02*
X68581422Y-103623415D01*
X68331422Y-103373415D01*
X68331422Y-102873415D01*
X69831422Y-102873415D01*
X69831422Y-103623415D01*
G36*
X69831422Y-103623415D02*
G01*
X68581422Y-103623415D01*
X68331422Y-103373415D01*
X68331422Y-102873415D01*
X69831422Y-102873415D01*
X69831422Y-103623415D01*
G37*
X88881423Y-108923410D02*
X87381423Y-108923410D01*
X87381423Y-108173410D01*
X88881423Y-108173410D01*
X88881423Y-108923410D01*
G36*
X88881423Y-108923410D02*
G01*
X87381423Y-108923410D01*
X87381423Y-108173410D01*
X88881423Y-108173410D01*
X88881423Y-108923410D01*
G37*
X94281423Y-108923410D02*
X92781423Y-108923410D01*
X92781423Y-108173410D01*
X94281423Y-108173410D01*
X94281423Y-108923410D01*
G36*
X94281423Y-108923410D02*
G01*
X92781423Y-108923410D01*
X92781423Y-108173410D01*
X94281423Y-108173410D01*
X94281423Y-108923410D01*
G37*
X94281423Y-110673410D02*
X92781423Y-110673410D01*
X92781423Y-109923410D01*
X94281423Y-109923410D01*
X94281423Y-110673410D01*
G36*
X94281423Y-110673410D02*
G01*
X92781423Y-110673410D01*
X92781423Y-109923410D01*
X94281423Y-109923410D01*
X94281423Y-110673410D01*
G37*
X88881423Y-110673410D02*
X87631423Y-110673410D01*
X87381423Y-110423410D01*
X87381423Y-109923410D01*
X88881423Y-109923410D01*
X88881423Y-110673410D01*
G36*
X88881423Y-110673410D02*
G01*
X87631423Y-110673410D01*
X87381423Y-110423410D01*
X87381423Y-109923410D01*
X88881423Y-109923410D01*
X88881423Y-110673410D01*
G37*
D15*
X138456425Y-86387913D03*
D16*
X138456425Y-88487913D03*
D17*
X113457427Y-78612915D03*
D18*
X106305427Y-78612915D03*
D19*
X115208309Y-108462911D03*
D20*
X114881427Y-103312911D03*
D21*
X109881427Y-114362911D03*
D22*
X109881427Y-108462911D03*
D20*
X104881427Y-103312911D03*
D19*
X104554545Y-108462911D03*
D21*
X114881427Y-112262911D03*
D23*
X114281427Y-113162911D03*
D24*
X113691427Y-111002911D03*
D25*
X112481427Y-114212911D03*
D24*
X112421427Y-113542911D03*
X107341427Y-113542911D03*
D25*
X107281427Y-114212911D03*
D24*
X106071427Y-111002911D03*
D23*
X105481427Y-113162911D03*
D21*
X104881427Y-112262911D03*
D15*
X81306426Y-85888414D03*
D16*
X81306426Y-87988414D03*
D17*
X75357428Y-115663407D03*
D18*
X68205428Y-115663407D03*
D19*
X162444605Y-147646745D03*
D20*
X164736517Y-143023273D03*
D21*
X154881390Y-150092854D03*
D22*
X157831390Y-144983304D03*
D20*
X156076263Y-138023273D03*
D19*
X153218175Y-142319863D03*
D21*
X160261517Y-150774201D03*
D26*
X159291902Y-151253623D03*
D24*
X159860947Y-149088009D03*
D27*
X157208056Y-151262950D03*
D24*
X157491095Y-150652713D03*
X153091685Y-148112713D03*
D27*
X152704724Y-148662950D03*
D24*
X153261833Y-145278009D03*
D26*
X151670878Y-146853623D03*
D21*
X151601263Y-145774201D03*
X79831000Y-75184000D03*
X73331000Y-75184000D03*
D17*
X75357423Y-96613416D03*
D18*
X68205423Y-96613416D03*
D28*
X174287202Y-87982996D03*
X159505877Y-87983451D03*
D18*
X159258000Y-91313000D03*
X159258000Y-93853000D03*
X159258000Y-96393000D03*
X159258000Y-98933000D03*
X159258000Y-101473000D03*
X159258000Y-104013000D03*
X159258000Y-106553000D03*
X159258000Y-109093000D03*
X159258000Y-111633000D03*
X159258000Y-114173000D03*
X159258000Y-116713000D03*
X159258000Y-119253000D03*
X159258000Y-121793000D03*
D29*
X161036000Y-91313000D03*
X161036000Y-93853000D03*
X161036000Y-96393000D03*
X161036000Y-98933000D03*
X161036000Y-101473000D03*
X161036000Y-104013000D03*
X161036000Y-106553000D03*
X161036000Y-109093000D03*
X161036000Y-111633000D03*
X161036000Y-114173000D03*
X161036000Y-116713000D03*
X161036000Y-119253000D03*
X161036000Y-121793000D03*
D30*
X172720000Y-91313000D03*
X172720000Y-93853000D03*
X172720000Y-96393000D03*
X172720000Y-98933000D03*
X172720000Y-101473000D03*
X172720000Y-104013000D03*
X172720000Y-106553000D03*
X172720000Y-109093000D03*
X172720000Y-111633000D03*
X172720000Y-114173000D03*
X172720000Y-116713000D03*
X172720000Y-119253000D03*
X172720000Y-121793000D03*
D18*
X174498000Y-91313000D03*
X174498000Y-93853000D03*
X174498000Y-96393000D03*
X174498000Y-98933000D03*
X174498000Y-101473000D03*
X174498000Y-104013000D03*
X174498000Y-106553000D03*
X174498000Y-109093000D03*
X174498000Y-111633000D03*
X174498000Y-114173000D03*
X174498000Y-116713000D03*
X174498000Y-119253000D03*
X174498000Y-121793000D03*
D31*
X171704000Y-93853000D03*
X171704000Y-96393000D03*
X171704000Y-98933000D03*
X171704000Y-101473000D03*
X171704000Y-104013000D03*
X171704000Y-106553000D03*
X171704000Y-109093000D03*
X171704000Y-111633000D03*
X171704000Y-114173000D03*
X171704000Y-116713000D03*
X171704000Y-119253000D03*
X171704000Y-121793000D03*
D32*
X162052000Y-121793000D03*
X162052000Y-119253000D03*
X162052000Y-116713000D03*
X162052000Y-114173000D03*
X162052000Y-111633000D03*
X162052000Y-109093000D03*
X162052000Y-106553000D03*
X162052000Y-104013000D03*
X162052000Y-101473000D03*
X162052000Y-98933000D03*
X162052000Y-96393000D03*
X162052000Y-93853000D03*
X162052000Y-91313000D03*
D31*
X171704000Y-91313000D03*
D33*
X168396456Y-91983579D03*
X168396456Y-91983579D03*
X165396456Y-91983579D03*
X165396456Y-91983579D03*
D17*
X151557429Y-125712912D03*
D18*
X144405429Y-125712912D03*
D17*
X109393553Y-131513395D03*
D18*
X109393553Y-136513395D03*
X109393553Y-134013395D03*
X123893553Y-136513395D03*
X123893553Y-131513395D03*
D19*
X134258309Y-95912910D03*
D20*
X133931427Y-90762910D03*
D21*
X128931427Y-101812910D03*
D22*
X128931427Y-95912910D03*
D20*
X123931427Y-90762910D03*
D19*
X123604545Y-95912910D03*
D21*
X133931427Y-99712910D03*
D23*
X133331427Y-100612910D03*
D24*
X132741427Y-98452910D03*
D25*
X131531427Y-101662910D03*
D24*
X131471427Y-100992910D03*
X126391427Y-100992910D03*
D25*
X126331427Y-101662910D03*
D24*
X125121427Y-98452910D03*
D23*
X124531427Y-100612910D03*
D21*
X123931427Y-99712910D03*
D19*
X77108308Y-126463412D03*
D20*
X76781426Y-121313412D03*
D21*
X71781426Y-132363412D03*
D22*
X71781426Y-126463412D03*
D20*
X66781426Y-121313412D03*
D19*
X66454544Y-126463412D03*
D21*
X76781426Y-130263412D03*
D23*
X76181426Y-131163412D03*
D24*
X75591426Y-129003412D03*
D25*
X74381426Y-132213412D03*
D24*
X74321426Y-131543412D03*
X69241426Y-131543412D03*
D25*
X69181426Y-132213412D03*
D24*
X67971426Y-129003412D03*
D23*
X67381426Y-131163412D03*
D21*
X66781426Y-130263412D03*
D17*
X132507432Y-85112916D03*
D18*
X125355432Y-85112916D03*
D17*
X113457426Y-97662917D03*
D18*
X106305426Y-97662917D03*
D17*
X132507427Y-104162909D03*
D18*
X125355427Y-104162909D03*
D17*
X151557425Y-87612919D03*
D18*
X144405425Y-87612919D03*
D19*
X153308310Y-98412915D03*
D20*
X152981428Y-93262915D03*
D21*
X147981428Y-104312915D03*
D22*
X147981428Y-98412915D03*
D20*
X142981428Y-93262915D03*
D19*
X142654546Y-98412915D03*
D21*
X152981428Y-102212915D03*
D23*
X152381428Y-103112915D03*
D24*
X151791428Y-100952915D03*
D25*
X150581428Y-104162915D03*
D24*
X150521428Y-103492915D03*
X145441428Y-103492915D03*
D25*
X145381428Y-104162915D03*
D24*
X144171428Y-100952915D03*
D23*
X143581428Y-103112915D03*
D21*
X142981428Y-102212915D03*
D19*
X77108310Y-107413409D03*
D20*
X76781428Y-102263409D03*
D21*
X71781428Y-113313409D03*
D22*
X71781428Y-107413409D03*
D20*
X66781428Y-102263409D03*
D19*
X66454546Y-107413409D03*
D21*
X76781428Y-111213409D03*
D23*
X76181428Y-112113409D03*
D24*
X75591428Y-109953409D03*
D25*
X74381428Y-113163409D03*
D24*
X74321428Y-112493409D03*
X69241428Y-112493409D03*
D25*
X69181428Y-113163409D03*
D24*
X67971428Y-109953409D03*
D23*
X67381428Y-112113409D03*
D21*
X66781428Y-111213409D03*
D17*
X75357424Y-134713412D03*
D18*
X68205424Y-134713412D03*
D19*
X96158308Y-114463416D03*
D20*
X95831426Y-109313416D03*
D21*
X90831426Y-120363416D03*
D22*
X90831426Y-114463416D03*
D20*
X85831426Y-109313416D03*
D19*
X85504544Y-114463416D03*
D21*
X95831426Y-118263416D03*
D23*
X95231426Y-119163416D03*
D24*
X94641426Y-117003416D03*
D25*
X93431426Y-120213416D03*
D24*
X93371426Y-119543416D03*
X88291426Y-119543416D03*
D25*
X88231426Y-120213416D03*
D24*
X87021426Y-117003416D03*
D23*
X86431426Y-119163416D03*
D21*
X85831426Y-118263416D03*
D34*
X171085903Y-132308278D03*
X164085903Y-132308278D03*
D35*
X161485903Y-130108278D03*
X161485903Y-134508278D03*
X169385903Y-130108278D03*
X169385903Y-134508278D03*
X166385903Y-130108278D03*
X166385903Y-134508278D03*
X162385903Y-130108278D03*
X162385903Y-134508278D03*
D19*
X153308308Y-79362913D03*
D20*
X152981426Y-74212913D03*
D21*
X147981426Y-85262913D03*
D22*
X147981426Y-79362913D03*
D20*
X142981426Y-74212913D03*
D19*
X142654544Y-79362913D03*
D21*
X152981426Y-83162913D03*
D23*
X152381426Y-84062913D03*
D24*
X151791426Y-81902913D03*
D25*
X150581426Y-85112913D03*
D24*
X150521426Y-84442913D03*
X145441426Y-84442913D03*
D25*
X145381426Y-85112913D03*
D24*
X144171426Y-81902913D03*
D23*
X143581426Y-84062913D03*
D21*
X142981426Y-83162913D03*
D19*
X122220435Y-134013395D03*
D20*
X121893553Y-128863395D03*
D21*
X116893553Y-139913395D03*
D22*
X116893553Y-134013395D03*
D20*
X111893553Y-128863395D03*
D19*
X111566671Y-134013395D03*
D21*
X121893553Y-137813395D03*
D23*
X121293553Y-138713395D03*
D24*
X120703553Y-136553395D03*
D25*
X119493553Y-139763395D03*
D24*
X119433553Y-139093395D03*
X114353553Y-139093395D03*
D25*
X114293553Y-139763395D03*
D24*
X113083553Y-136553395D03*
D23*
X112493553Y-138713395D03*
D21*
X111893553Y-137813395D03*
D28*
X170109760Y-138764741D03*
D36*
X163086629Y-125078269D03*
D18*
X163086629Y-126736269D03*
D36*
X165626629Y-125078269D03*
D18*
X165626629Y-126736269D03*
D36*
X168166629Y-125078269D03*
D18*
X168166629Y-126736269D03*
D36*
X170706629Y-125078269D03*
D18*
X170706629Y-126736269D03*
D37*
X170706629Y-124062269D03*
X168166629Y-124062269D03*
X165626629Y-124062269D03*
X163086629Y-124062269D03*
D19*
X77108301Y-88363415D03*
D20*
X76781419Y-83213415D03*
D21*
X71781419Y-94263415D03*
D22*
X71781419Y-88363415D03*
D20*
X66781419Y-83213415D03*
D19*
X66454537Y-88363415D03*
D21*
X76781419Y-92163415D03*
D23*
X76181419Y-93063415D03*
D24*
X75591419Y-90903415D03*
D25*
X74381419Y-94113415D03*
D24*
X74321419Y-93443415D03*
X69241419Y-93443415D03*
D25*
X69181419Y-94113415D03*
D24*
X67971419Y-90903415D03*
D23*
X67381419Y-93063415D03*
D21*
X66781419Y-92163415D03*
D19*
X134258305Y-114962912D03*
D20*
X133931423Y-109812912D03*
D21*
X128931423Y-120862912D03*
D22*
X128931423Y-114962912D03*
D20*
X123931423Y-109812912D03*
D19*
X123604541Y-114962912D03*
D21*
X133931423Y-118762912D03*
D23*
X133331423Y-119662912D03*
D24*
X132741423Y-117502912D03*
D25*
X131531423Y-120712912D03*
D24*
X131471423Y-120042912D03*
X126391423Y-120042912D03*
D25*
X126331423Y-120712912D03*
D24*
X125121423Y-117502912D03*
D23*
X124531423Y-119662912D03*
D21*
X123931423Y-118762912D03*
D17*
X132481000Y-123212913D03*
D18*
X125329000Y-123212913D03*
D38*
X155712000Y-132285093D03*
D18*
X152136000Y-138478907D03*
D19*
X96158309Y-95413412D03*
D20*
X95831427Y-90263412D03*
D21*
X90831427Y-101313412D03*
D22*
X90831427Y-95413412D03*
D20*
X85831427Y-90263412D03*
D19*
X85504545Y-95413412D03*
D21*
X95831427Y-99213412D03*
D23*
X95231427Y-100113412D03*
D24*
X94641427Y-97953412D03*
D25*
X93431427Y-101163412D03*
D24*
X93371427Y-100493412D03*
X88291427Y-100493412D03*
D25*
X88231427Y-101163412D03*
D24*
X87021427Y-97953412D03*
D23*
X86431427Y-100113412D03*
D21*
X85831427Y-99213412D03*
D19*
X134258310Y-76862918D03*
D20*
X133931428Y-71712918D03*
D21*
X128931428Y-82762918D03*
D22*
X128931428Y-76862918D03*
D20*
X123931428Y-71712918D03*
D19*
X123604546Y-76862918D03*
D21*
X133931428Y-80662918D03*
D23*
X133331428Y-81562918D03*
D24*
X132741428Y-79402918D03*
D25*
X131531428Y-82612918D03*
D24*
X131471428Y-81942918D03*
X126391428Y-81942918D03*
D25*
X126331428Y-82612918D03*
D24*
X125121428Y-79402918D03*
D23*
X124531428Y-81562918D03*
D21*
X123931428Y-80662918D03*
D17*
X94407426Y-103663413D03*
D18*
X87255426Y-103663413D03*
D17*
X94407428Y-122713415D03*
D18*
X87255428Y-122713415D03*
D15*
X81306422Y-123988413D03*
D16*
X81306422Y-126088413D03*
D19*
X143229840Y-138182313D03*
D20*
X144247014Y-133123191D03*
D21*
X136557435Y-142502576D03*
D22*
X138084467Y-136803614D03*
D20*
X134587756Y-130535001D03*
D19*
X132939094Y-135424915D03*
D21*
X141930584Y-141768227D03*
D39*
X141118091Y-142482269D03*
D24*
X141107244Y-140243166D03*
D40*
X139107665Y-143030617D03*
D24*
X139223118Y-142367918D03*
X134316215Y-141053117D03*
D40*
X134084850Y-141684758D03*
D24*
X133746889Y-138270965D03*
D39*
X132617944Y-140204662D03*
D21*
X132271325Y-139180037D03*
D19*
X115208305Y-89412917D03*
D20*
X114881423Y-84262917D03*
D21*
X109881423Y-95312917D03*
D22*
X109881423Y-89412917D03*
D20*
X104881423Y-84262917D03*
D19*
X104554541Y-89412917D03*
D21*
X114881423Y-93212917D03*
D23*
X114281423Y-94112917D03*
D24*
X113691423Y-91952917D03*
D25*
X112481423Y-95162917D03*
D24*
X112421423Y-94492917D03*
X107341423Y-94492917D03*
D25*
X107281423Y-95162917D03*
D24*
X106071423Y-91952917D03*
D23*
X105481423Y-94112917D03*
D21*
X104881423Y-93212917D03*
D15*
X119405921Y-120762856D03*
D16*
X119405921Y-122862856D03*
D17*
X113457425Y-116712910D03*
D18*
X106305425Y-116712910D03*
D15*
X148723121Y-139045671D03*
D16*
X147919486Y-140985818D03*
D17*
X94407423Y-84613417D03*
D18*
X87255423Y-84613417D03*
D41*
X131227537Y-130657849D03*
D18*
X129376463Y-137566151D03*
D17*
X127000000Y-130028000D03*
D18*
X127000000Y-137180000D03*
D19*
X153308311Y-117462914D03*
D20*
X152981429Y-112312914D03*
D21*
X147981429Y-123362914D03*
D22*
X147981429Y-117462914D03*
D20*
X142981429Y-112312914D03*
D19*
X142654547Y-117462914D03*
D21*
X152981429Y-121262914D03*
D23*
X152381429Y-122162914D03*
D24*
X151791429Y-120002914D03*
D25*
X150581429Y-123212914D03*
D24*
X150521429Y-122542914D03*
X145441429Y-122542914D03*
D25*
X145381429Y-123212914D03*
D24*
X144171429Y-120002914D03*
D23*
X143581429Y-122162914D03*
D21*
X142981429Y-121262914D03*
D17*
X151557425Y-106662918D03*
D18*
X144405425Y-106662918D03*
D19*
X96158304Y-76363417D03*
D20*
X95831422Y-71213417D03*
D21*
X90831422Y-82263417D03*
D22*
X90831422Y-76363417D03*
D20*
X85831422Y-71213417D03*
D19*
X85504540Y-76363417D03*
D21*
X95831422Y-80163417D03*
D23*
X95231422Y-81063417D03*
D24*
X94641422Y-78903417D03*
D25*
X93431422Y-82113417D03*
D24*
X93371422Y-81443417D03*
X88291422Y-81443417D03*
D25*
X88231422Y-82113417D03*
D24*
X87021422Y-78903417D03*
D23*
X86431422Y-81063417D03*
D21*
X85831422Y-80163417D03*
D19*
X115208301Y-70362914D03*
D20*
X114881419Y-65212914D03*
D21*
X109881419Y-76262914D03*
D22*
X109881419Y-70362914D03*
D20*
X104881419Y-65212914D03*
D19*
X104554537Y-70362914D03*
D21*
X114881419Y-74162914D03*
D23*
X114281419Y-75062914D03*
D24*
X113691419Y-72902914D03*
D25*
X112481419Y-76112914D03*
D24*
X112421419Y-75442914D03*
X107341419Y-75442914D03*
D25*
X107281419Y-76112914D03*
D24*
X106071419Y-72902914D03*
D23*
X105481419Y-75062914D03*
D21*
X104881419Y-74162914D03*
%LPD*%
M02*
