M48
; DRILL file {KiCad 9.0.2} date 2025-10-01T20:59:57+0100
; FORMAT={-:-/ absolute / metric / decimal}
; #@! TF.CreationDate,2025-10-01T20:59:57+01:00
; #@! TF.GenerationSoftware,Kicad,Pcbnew,9.0.2
; #@! TF.FileFunction,NonPlated,1,2,NPTH
FMAT,2
METRIC
; #@! TA.AperFunction,NonPlated,NPTH,ComponentDrill
T1C0.800
; #@! TA.AperFunction,NonPlated,NPTH,ComponentDrill
T2C0.900
; #@! TA.AperFunction,NonPlated,NPTH,ComponentDrill
T3C1.900
; #@! TA.AperFunction,NonPlated,NPTH,ComponentDrill
T4C5.050
%
G90
G05
T1
X203.3Y-51.25
X203.3Y-58.25
X207.0Y-110.0
X214.0Y-110.0
T2
X188.0Y-50.45
X191.0Y-50.45
T4
X94.0Y-75.25
X94.0Y-94.25
X94.0Y-113.25
X113.0Y-60.0
X113.0Y-98.0
X113.0Y-79.0
X132.0Y-53.999
X132.0Y-73.0
X132.0Y-92.0
X138.0Y-117.0
X151.0Y-60.0
X151.0Y-79.0
X151.0Y-98.0
X159.191Y-119.79
X170.0Y-60.0
X170.0Y-79.0
X170.0Y-98.0
X178.938Y-127.97
X188.492Y-111.384
X195.943Y-141.016
X209.447Y-127.513
T3
X88.846Y-75.25G85X88.501Y-75.25
G05
X88.846Y-94.25G85X88.501Y-94.25
G05
X88.846Y-113.25G85X88.501Y-113.25
G05
X99.499Y-75.25G85X99.154Y-75.25
G05
X99.499Y-94.25G85X99.154Y-94.25
G05
X99.499Y-113.25G85X99.154Y-113.25
G05
X107.846Y-60.0G85X107.501Y-60.0
G05
X107.846Y-98.0G85X107.501Y-98.0
G05
X107.846Y-79.0G85X107.501Y-79.0
G05
X118.499Y-60.0G85X118.154Y-60.0
G05
X118.499Y-98.0G85X118.154Y-98.0
G05
X118.499Y-79.0G85X118.154Y-79.0
G05
X126.846Y-53.999G85X126.501Y-53.999
G05
X126.846Y-73.0G85X126.501Y-73.0
G05
X126.846Y-92.0G85X126.501Y-92.0
G05
X132.846Y-117.0G85X132.501Y-117.0
G05
X137.499Y-53.999G85X137.154Y-53.999
G05
X137.499Y-73.0G85X137.154Y-73.0
G05
X137.499Y-92.0G85X137.154Y-92.0
G05
X143.499Y-117.0G85X143.154Y-117.0
G05
X145.846Y-60.0G85X145.501Y-60.0
G05
X145.846Y-79.0G85X145.501Y-79.0
G05
X145.846Y-98.0G85X145.501Y-98.0
G05
X154.212Y-118.456G85X153.879Y-118.367
G05
X156.499Y-60.0G85X156.154Y-60.0
G05
X156.499Y-79.0G85X156.154Y-79.0
G05
X156.499Y-98.0G85X156.154Y-98.0
G05
X164.503Y-121.214G85X164.17Y-121.124
G05
X164.846Y-60.0G85X164.501Y-60.0
G05
X164.846Y-79.0G85X164.501Y-79.0
G05
X164.846Y-98.0G85X164.501Y-98.0
G05
X174.474Y-125.393G85X174.175Y-125.22
G05
X175.499Y-60.0G85X175.154Y-60.0
G05
X175.499Y-79.0G85X175.154Y-79.0
G05
X175.499Y-98.0G85X175.154Y-98.0
G05
X183.7Y-130.72G85X183.402Y-130.547
G05
X184.029Y-108.806G85X183.73Y-108.634
G05
X192.298Y-137.372G85X192.054Y-137.128
G05
X193.255Y-114.133G85X192.956Y-113.961
G05
X199.832Y-144.905G85X199.588Y-144.661
G05
X205.803Y-123.868G85X205.559Y-123.624
G05
X213.336Y-131.401G85X213.092Y-131.157
G05
M30
