M48
; DRILL file {KiCad 9.0.2} date 2025-09-25T08:39:02+0100
; FORMAT={-:-/ absolute / metric / decimal}
; #@! TF.CreationDate,2025-09-25T08:39:02+01:00
; #@! TF.GenerationSoftware,Kicad,Pcbnew,9.0.2
; #@! TF.FileFunction,Plated,1,2,PTH
FMAT,2
METRIC
; #@! TA.AperFunction,Plated,PTH,ComponentDrill
T1C0.305
; #@! TA.AperFunction,Plated,PTH,ViaDrill
T2C0.400
; #@! TA.AperFunction,Plated,PTH,ComponentDrill
T3C0.900
; #@! TA.AperFunction,Plated,PTH,ComponentDrill
T4C1.000
; #@! TA.AperFunction,Plated,PTH,ComponentDrill
T5C1.100
; #@! TA.AperFunction,Plated,PTH,ComponentDrill
T6C1.200
; #@! TA.AperFunction,Plated,PTH,ComponentDrill
T7C1.400
; #@! TA.AperFunction,Plated,PTH,ComponentDrill
T8C1.500
; #@! TA.AperFunction,Plated,PTH,ComponentDrill
T9C1.600
; #@! TA.AperFunction,Plated,PTH,ComponentDrill
T10C2.200
; #@! TA.AperFunction,Plated,PTH,ComponentDrill
T11C3.800
%
G90
G05
T1
X68.681Y-121.423
X68.681Y-102.373
X68.681Y-83.323
X69.431Y-121.423
X69.431Y-102.373
X69.431Y-83.323
X74.131Y-121.423
X74.131Y-102.373
X74.131Y-83.323
X74.931Y-121.423
X74.931Y-102.373
X74.931Y-83.323
X87.731Y-109.423
X87.731Y-90.373
X87.731Y-71.323
X88.481Y-109.423
X88.481Y-90.373
X88.481Y-71.323
X93.181Y-109.423
X93.181Y-90.373
X93.181Y-71.323
X93.981Y-109.423
X93.981Y-90.373
X93.981Y-71.323
X106.781Y-103.423
X106.781Y-84.373
X106.781Y-65.323
X107.531Y-103.423
X107.531Y-84.373
X107.531Y-65.323
X112.231Y-103.423
X112.231Y-84.373
X112.231Y-65.323
X113.031Y-103.423
X113.031Y-84.373
X113.031Y-65.323
X113.794Y-128.973
X114.544Y-128.973
X119.244Y-128.973
X120.044Y-128.973
X125.831Y-71.823
X125.831Y-109.923
X125.831Y-90.873
X126.581Y-71.823
X126.581Y-109.923
X126.581Y-90.873
X131.281Y-71.823
X131.281Y-109.923
X131.281Y-90.873
X132.081Y-71.823
X132.081Y-109.923
X132.081Y-90.873
X136.395Y-130.863
X137.119Y-131.057
X141.659Y-132.274
X142.432Y-132.481
X144.881Y-93.373
X144.881Y-112.423
X144.881Y-74.323
X145.631Y-93.373
X145.631Y-112.423
X145.631Y-74.323
X150.331Y-93.373
X150.331Y-112.423
X150.331Y-74.323
X151.131Y-93.373
X151.131Y-112.423
X151.131Y-74.323
X157.667Y-139.068
X158.316Y-139.443
X160.705Y-124.934
X160.705Y-127.135
X162.387Y-141.793
X163.079Y-142.193
T2
X75.692Y-78.74
X80.01Y-100.203
X80.01Y-117.348
X82.55Y-73.152
X82.55Y-92.583
X83.058Y-114.3
X84.963Y-85.217
X85.571Y-88.365
X85.598Y-87.376
X86.868Y-88.773
X87.376Y-126.492
X89.535Y-125.73
X93.472Y-88.519
X93.98Y-106.934
X97.661Y-101.6
X98.679Y-63.627
X98.679Y-88.138
X98.679Y-107.315
X102.616Y-118.745
X108.204Y-125.349
X109.22Y-124.46
X112.522Y-62.484
X116.84Y-99.06
X117.602Y-62.611
X117.602Y-82.423
X117.729Y-101.346
X128.651Y-141.351
X132.334Y-132.715
X135.636Y-91.948
X135.763Y-89.027
X136.271Y-65.659
X136.525Y-108.839
X137.35Y-73.977
X137.414Y-83.439
X137.414Y-92.964
X137.541Y-107.315
X137.668Y-129.286
X137.922Y-111.76
X142.048Y-125.857
X150.368Y-70.358
X152.654Y-135.382
X154.811Y-104.14
X155.067Y-128.143
X155.575Y-87.613
X155.702Y-90.678
X155.702Y-105.41
X155.702Y-124.333
X155.702Y-130.429
X156.21Y-115.316
X156.337Y-89.154
X156.337Y-120.777
X156.337Y-129.286
X156.972Y-107.696
X157.48Y-125.73
X157.734Y-110.998
X158.496Y-137.16
X160.274Y-97.663
X160.731Y-95.078
X162.941Y-96.901
X162.941Y-98.806
X162.941Y-100.965
X162.954Y-121.806
X163.015Y-95.811
X163.068Y-109.474
X163.788Y-123.257
X163.83Y-103.769
X163.83Y-106.309
X163.83Y-108.712
X163.83Y-111.125
X163.83Y-113.792
X163.83Y-116.84
X163.83Y-119.38
X163.83Y-139.954
X164.998Y-95.301
X166.497Y-103.769
X166.573Y-95.098
X166.878Y-93.726
X166.878Y-124.206
X166.878Y-125.222
X167.437Y-95.606
X168.148Y-106.309
X168.808Y-95.961
X168.91Y-101.854
X169.418Y-124.46
X169.672Y-116.84
X169.926Y-98.806
X169.926Y-100.965
X170.708Y-122.638
X170.942Y-99.695
X170.942Y-101.854
X170.942Y-104.394
X170.942Y-106.934
X170.942Y-109.474
X170.942Y-112.014
X170.942Y-114.554
T4
X68.205Y-96.613
X68.205Y-134.713
X68.205Y-115.663
X75.357Y-96.613
X75.357Y-134.713
X75.357Y-115.663
X87.255Y-84.613
X87.255Y-103.663
X87.255Y-122.713
X94.407Y-84.613
X94.407Y-103.663
X94.407Y-122.713
X106.305Y-116.713
X106.305Y-97.663
X106.305Y-78.613
X113.457Y-116.713
X113.457Y-97.663
X113.457Y-78.613
X125.329Y-123.213
X125.355Y-104.163
X125.355Y-85.113
X127.0Y-130.028
X127.0Y-137.18
X129.376Y-137.566
X131.228Y-130.658
X132.481Y-123.213
X132.507Y-104.163
X132.507Y-85.113
X144.405Y-87.613
X144.405Y-106.663
X144.405Y-125.713
X151.557Y-87.613
X151.557Y-106.663
X151.557Y-125.713
X152.136Y-138.479
X155.712Y-132.285
T5
X109.394Y-131.513
X109.394Y-134.013
X109.394Y-136.513
X123.894Y-131.513
X123.894Y-136.513
X159.258Y-91.313
X159.258Y-93.853
X159.258Y-96.393
X159.258Y-98.933
X159.258Y-101.473
X159.258Y-104.013
X159.258Y-106.553
X159.258Y-109.093
X159.258Y-111.633
X159.258Y-114.173
X159.258Y-116.713
X159.258Y-119.253
X159.258Y-121.793
X163.087Y-126.736
X165.627Y-126.736
X168.167Y-126.736
X170.707Y-126.736
X174.498Y-91.313
X174.498Y-93.853
X174.498Y-96.393
X174.498Y-98.933
X174.498Y-101.473
X174.498Y-104.013
X174.498Y-106.553
X174.498Y-109.093
X174.498Y-111.633
X174.498Y-114.173
X174.498Y-116.713
X174.498Y-119.253
X174.498Y-121.793
T6
X66.781Y-92.163
X66.781Y-130.263
X66.781Y-111.213
X71.781Y-94.263
X71.781Y-132.363
X71.781Y-113.313
X76.781Y-92.163
X76.781Y-130.263
X76.781Y-111.213
X85.831Y-80.163
X85.831Y-118.263
X85.831Y-99.213
X90.831Y-82.263
X90.831Y-120.363
X90.831Y-101.313
X95.831Y-80.163
X95.831Y-118.263
X95.831Y-99.213
X104.881Y-74.163
X104.881Y-93.213
X104.881Y-112.263
X109.881Y-76.263
X109.881Y-95.313
X109.881Y-114.363
X111.894Y-137.813
X114.881Y-74.163
X114.881Y-93.213
X114.881Y-112.263
X116.894Y-139.913
X121.894Y-137.813
X123.931Y-118.763
X123.931Y-99.713
X123.931Y-80.663
X128.931Y-120.863
X128.931Y-101.813
X128.931Y-82.763
X132.271Y-139.18
X133.931Y-118.763
X133.931Y-99.713
X133.931Y-80.663
X136.557Y-142.503
X141.931Y-141.768
X142.981Y-83.163
X142.981Y-102.213
X142.981Y-121.263
X147.981Y-85.263
X147.981Y-104.313
X147.981Y-123.363
X151.601Y-145.774
X152.981Y-83.163
X152.981Y-102.213
X152.981Y-121.263
X154.881Y-150.093
X160.262Y-150.774
T7
X73.331Y-75.184
X79.831Y-75.184
T8
X67.971Y-90.903
X67.971Y-129.003
X67.971Y-109.953
X69.241Y-93.443
X69.241Y-131.543
X69.241Y-112.493
X74.321Y-93.443
X74.321Y-131.543
X74.321Y-112.493
X75.591Y-90.903
X75.591Y-129.003
X75.591Y-109.953
X87.021Y-78.903
X87.021Y-117.003
X87.021Y-97.953
X88.291Y-81.443
X88.291Y-119.543
X88.291Y-100.493
X93.371Y-81.443
X93.371Y-119.543
X93.371Y-100.493
X94.641Y-78.903
X94.641Y-117.003
X94.641Y-97.953
X106.071Y-72.903
X106.071Y-91.953
X106.071Y-111.003
X107.341Y-75.443
X107.341Y-94.493
X107.341Y-113.543
X112.421Y-75.443
X112.421Y-94.493
X112.421Y-113.543
X113.084Y-136.553
X113.691Y-72.903
X113.691Y-91.953
X113.691Y-111.003
X114.354Y-139.093
X119.434Y-139.093
X120.704Y-136.553
X125.121Y-117.503
X125.121Y-98.453
X125.121Y-79.403
X126.391Y-120.043
X126.391Y-100.993
X126.391Y-81.943
X131.471Y-120.043
X131.471Y-100.993
X131.471Y-81.943
X132.741Y-117.503
X132.741Y-98.453
X132.741Y-79.403
X133.747Y-138.271
X134.316Y-141.053
X139.223Y-142.368
X141.107Y-140.243
X144.171Y-81.903
X144.171Y-100.953
X144.171Y-120.003
X145.441Y-84.443
X145.441Y-103.493
X145.441Y-122.543
X150.521Y-84.443
X150.521Y-103.493
X150.521Y-122.543
X151.791Y-81.903
X151.791Y-100.953
X151.791Y-120.003
X153.092Y-148.113
X153.262Y-145.278
X157.491Y-150.653
X159.861Y-149.088
T9
X66.781Y-83.213
X66.781Y-121.313
X66.781Y-102.263
X76.781Y-83.213
X76.781Y-121.313
X76.781Y-102.263
X85.831Y-71.213
X85.831Y-109.313
X85.831Y-90.263
X95.831Y-71.213
X95.831Y-109.313
X95.831Y-90.263
X104.881Y-65.213
X104.881Y-84.263
X104.881Y-103.313
X111.894Y-128.863
X114.881Y-65.213
X114.881Y-84.263
X114.881Y-103.313
X121.894Y-128.863
X123.931Y-109.813
X123.931Y-90.763
X123.931Y-71.713
X133.931Y-109.813
X133.931Y-90.763
X133.931Y-71.713
X134.588Y-130.535
X142.981Y-74.213
X142.981Y-93.263
X142.981Y-112.313
X144.247Y-133.123
X152.981Y-74.213
X152.981Y-93.263
X152.981Y-112.313
X156.076Y-138.023
X164.737Y-143.023
T10
X81.306Y-126.088
X81.306Y-87.988
X119.406Y-122.863
X138.456Y-88.488
X147.919Y-140.986
X159.506Y-87.983
X170.11Y-138.765
X174.287Y-87.983
T11
X81.306Y-123.988
X81.306Y-85.888
X119.406Y-120.763
X138.456Y-86.388
X148.723Y-139.046
T3
X67.381Y-93.613G85X67.381Y-92.513
G05
X67.381Y-131.713G85X67.381Y-130.613
G05
X67.381Y-112.663G85X67.381Y-111.563
G05
X69.731Y-94.113G85X68.631Y-94.113
G05
X69.731Y-132.213G85X68.631Y-132.213
G05
X69.731Y-113.163G85X68.631Y-113.163
G05
X74.931Y-94.113G85X73.831Y-94.113
G05
X74.931Y-132.213G85X73.831Y-132.213
G05
X74.931Y-113.163G85X73.831Y-113.163
G05
X76.181Y-93.613G85X76.181Y-92.513
G05
X76.181Y-131.713G85X76.181Y-130.613
G05
X76.181Y-112.663G85X76.181Y-111.563
G05
X86.431Y-81.613G85X86.431Y-80.513
G05
X86.431Y-119.713G85X86.431Y-118.613
G05
X86.431Y-100.663G85X86.431Y-99.563
G05
X88.781Y-82.113G85X87.681Y-82.113
G05
X88.781Y-120.213G85X87.681Y-120.213
G05
X88.781Y-101.163G85X87.681Y-101.163
G05
X93.981Y-82.113G85X92.881Y-82.113
G05
X93.981Y-120.213G85X92.881Y-120.213
G05
X93.981Y-101.163G85X92.881Y-101.163
G05
X95.231Y-81.613G85X95.231Y-80.513
G05
X95.231Y-119.713G85X95.231Y-118.613
G05
X95.231Y-100.663G85X95.231Y-99.563
G05
X105.481Y-75.613G85X105.481Y-74.513
G05
X105.481Y-94.663G85X105.481Y-93.563
G05
X105.481Y-113.713G85X105.481Y-112.613
G05
X107.831Y-76.113G85X106.731Y-76.113
G05
X107.831Y-95.163G85X106.731Y-95.163
G05
X107.831Y-114.213G85X106.731Y-114.213
G05
X113.031Y-76.113G85X111.931Y-76.113
G05
X113.031Y-95.163G85X111.931Y-95.163
G05
X113.031Y-114.213G85X111.931Y-114.213
G05
X112.494Y-139.263G85X112.494Y-138.163
G05
X114.281Y-75.613G85X114.281Y-74.513
G05
X114.281Y-94.663G85X114.281Y-93.563
G05
X114.281Y-113.713G85X114.281Y-112.613
G05
X114.844Y-139.763G85X113.744Y-139.763
G05
X120.044Y-139.763G85X118.944Y-139.763
G05
X121.294Y-139.263G85X121.294Y-138.163
G05
X124.531Y-120.213G85X124.531Y-119.113
G05
X124.531Y-101.163G85X124.531Y-100.063
G05
X124.531Y-82.113G85X124.531Y-81.013
G05
X126.881Y-120.713G85X125.781Y-120.713
G05
X126.881Y-101.663G85X125.781Y-101.663
G05
X126.881Y-82.613G85X125.781Y-82.613
G05
X132.081Y-120.713G85X130.981Y-120.713
G05
X132.081Y-101.663G85X130.981Y-101.663
G05
X132.081Y-82.613G85X130.981Y-82.613
G05
X132.476Y-140.736G85X132.76Y-139.673
G05
X133.331Y-120.213G85X133.331Y-119.113
G05
X133.331Y-101.163G85X133.331Y-100.063
G05
X133.331Y-82.113G85X133.331Y-81.013
G05
X134.616Y-141.827G85X133.554Y-141.542
G05
X139.639Y-143.173G85X138.576Y-142.888
G05
X140.976Y-143.014G85X141.26Y-141.951
G05
X143.581Y-84.613G85X143.581Y-83.513
G05
X143.581Y-103.663G85X143.581Y-102.563
G05
X143.581Y-122.713G85X143.581Y-121.613
G05
X145.931Y-85.113G85X144.831Y-85.113
G05
X145.931Y-104.163G85X144.831Y-104.163
G05
X145.931Y-123.213G85X144.831Y-123.213
G05
X151.131Y-85.113G85X150.031Y-85.113
G05
X151.131Y-104.163G85X150.031Y-104.163
G05
X151.131Y-123.213G85X150.031Y-123.213
G05
X151.396Y-147.33G85X151.946Y-146.377
G05
X152.381Y-84.613G85X152.381Y-83.513
G05
X152.381Y-103.663G85X152.381Y-102.563
G05
X152.381Y-122.713G85X152.381Y-121.613
G05
X153.181Y-148.938G85X152.228Y-148.388
G05
X157.684Y-151.538G85X156.732Y-150.988
G05
X159.017Y-151.73G85X159.567Y-150.777
G05
T4
X161.236Y-130.108G85X161.736Y-130.108
G05
X161.236Y-134.508G85X161.736Y-134.508
G05
X162.136Y-130.108G85X162.636Y-130.108
G05
X162.136Y-134.508G85X162.636Y-134.508
G05
X166.136Y-130.108G85X166.636Y-130.108
G05
X166.636Y-134.508G85X166.136Y-134.508
G05
X169.136Y-130.108G85X169.636Y-130.108
G05
X169.636Y-134.508G85X169.136Y-134.508
G05
M30
