<?xml version="1.0" standalone="no"?>
<!DOCTYPE svg PUBLIC "-//W3C//DTD SVG 20010904//EN"
 "http://www.w3.org/TR/2001/REC-SVG-20010904/DTD/svg10.dtd">
<svg version="1.0" xmlns="http://www.w3.org/2000/svg"
 width="677.000000pt" height="1016.000000pt" viewBox="0 0 677.000000 1016.000000"
 preserveAspectRatio="xMidYMid meet">

<g transform="translate(0.000000,1016.000000) scale(0.100000,-0.100000)"
fill="#000000" stroke="none">
<path d="M2853 10018 c-28 -13 -36 -34 -23 -58 6 -10 10 -85 10 -167 0 -150
-17 -254 -63 -379 -8 -23 -18 -72 -22 -110 -4 -37 -14 -84 -22 -103 -9 -20
-19 -72 -23 -116 -13 -133 -40 -346 -51 -408 -5 -32 -15 -113 -20 -180 -6 -67
-22 -164 -35 -217 -13 -52 -24 -122 -24 -156 0 -35 -7 -90 -16 -124 -8 -33
-13 -74 -9 -90 3 -15 1 -48 -5 -71 -7 -24 -13 -86 -14 -139 -2 -70 -8 -111
-25 -156 -18 -48 -21 -69 -14 -95 14 -52 -1 -205 -27 -274 -44 -118 -66 -330
-76 -745 -10 -393 -12 -451 -23 -655 -6 -110 -15 -222 -21 -250 -11 -48 -20
-106 -55 -345 -8 -58 -15 -130 -15 -160 0 -81 -27 -148 -74 -181 -63 -46 -137
-69 -224 -69 -84 0 -121 -15 -167 -68 -45 -51 -85 -137 -85 -183 -1 -39 -7
-51 -51 -98 l-50 -54 -82 6 c-45 4 -100 13 -122 21 -22 8 -62 15 -88 16 -42 0
-53 -4 -77 -30 -32 -34 -126 -221 -145 -290 -29 -101 -65 -191 -119 -300 -71
-142 -121 -321 -130 -462 -4 -53 -13 -128 -21 -165 -8 -37 -22 -176 -30 -308
-29 -449 -34 -476 -116 -599 -21 -32 -39 -67 -39 -78 0 -42 55 -93 132 -123
40 -15 98 -45 128 -66 63 -44 143 -68 250 -76 69 -5 82 -3 165 29 50 20 104
38 122 42 28 7 34 14 48 62 14 47 22 59 61 84 82 52 176 48 221 -9 60 -76 81
-207 44 -279 -10 -20 -28 -86 -40 -147 -11 -60 -26 -134 -33 -163 -9 -42 -9
-64 0 -98 7 -24 12 -52 12 -62 0 -41 24 -95 60 -137 52 -60 59 -74 71 -142 7
-41 34 -101 92 -206 74 -134 92 -158 188 -255 58 -59 114 -114 125 -122 38
-31 231 -148 299 -182 39 -19 114 -58 167 -86 168 -90 184 -94 340 -94 155 0
205 11 214 48 5 19 11 23 29 18 17 -4 32 2 55 25 18 16 35 31 38 33 18 8 65
84 82 131 10 28 28 74 40 101 l22 49 -27 83 c-27 78 -30 84 -74 108 -26 14
-74 29 -107 35 -36 5 -80 21 -110 40 -27 17 -60 36 -74 42 -14 6 -51 23 -83
37 -42 19 -68 39 -92 72 -41 55 -122 126 -168 145 -29 12 -38 25 -65 92 -16
43 -33 104 -37 136 -5 47 -13 65 -45 102 -22 25 -41 60 -44 78 -3 17 -7 50
-10 72 -3 22 -12 65 -21 95 -19 68 -12 120 21 151 22 20 38 24 162 31 75 5
207 22 292 38 195 38 258 38 347 4 37 -14 96 -36 131 -49 35 -13 103 -46 150
-73 128 -72 165 -79 304 -52 149 28 190 41 277 84 40 20 77 36 82 36 5 0 32
11 61 24 78 36 184 66 234 66 24 0 90 -9 146 -20 57 -11 139 -20 182 -20 67 0
86 -4 124 -26 38 -23 52 -25 96 -20 28 3 99 10 157 16 179 16 218 29 345 116
102 70 113 80 119 113 8 49 -6 84 -47 112 -18 13 -52 45 -76 71 -25 27 -73 63
-113 84 -61 32 -72 42 -96 92 -31 63 -35 125 -14 237 17 89 10 158 -23 219
-28 53 -33 113 -13 158 7 15 37 53 67 85 30 33 66 78 79 102 21 38 23 52 19
129 -4 71 -10 96 -32 134 l-27 47 37 55 c20 31 40 56 43 56 11 0 71 58 71 69
0 6 5 11 10 11 6 0 10 7 10 15 0 8 6 15 14 15 25 0 104 92 135 156 52 109 88
248 96 369 3 61 11 130 17 155 21 91 20 161 -2 245 -29 108 -68 172 -160 264
-42 42 -80 86 -84 97 -3 10 -23 28 -43 39 -20 11 -62 38 -93 60 -75 53 -96 65
-119 65 -10 0 -30 9 -44 20 -14 11 -31 20 -38 20 -7 0 -20 6 -28 13 -18 15
-162 79 -296 131 -49 19 -125 40 -169 46 -43 5 -83 13 -88 16 -6 4 -83 7 -172
8 -207 2 -214 6 -250 136 -8 30 -20 78 -25 105 -5 28 -35 96 -65 151 -31 56
-56 107 -56 113 0 7 -13 38 -29 70 -36 74 -78 202 -85 266 -3 28 -21 100 -40
160 -19 61 -55 175 -80 255 -26 80 -46 156 -46 169 0 13 -29 89 -64 170 -117
268 -143 336 -150 386 -14 104 -40 201 -71 269 -18 39 -37 96 -44 126 -7 30
-19 84 -28 120 -9 36 -19 92 -23 125 -11 86 -60 265 -79 290 -5 5 -12 33 -15
60 -4 28 -16 67 -26 88 -11 21 -20 48 -20 60 0 13 -4 27 -9 32 -4 6 -14 33
-21 60 -7 28 -16 55 -20 60 -4 6 -11 39 -14 75 -8 71 -16 90 -56 136 -15 18
-31 49 -34 69 -4 21 -20 66 -36 99 -16 34 -44 106 -63 161 -19 55 -61 156 -94
225 -33 69 -65 141 -72 160 -27 72 -143 296 -163 313 -23 19 -25 20 -55 5z
m2681 -6532 c21 -37 26 -57 26 -116 0 -78 -14 -106 -68 -142 -40 -26 -50 -22
-57 25 -4 23 -15 60 -25 82 -10 22 -21 50 -24 61 -7 24 11 74 27 74 5 0 25 14
44 30 18 17 38 30 42 30 5 0 21 -20 35 -44z m-1319 -441 c138 -80 162 -269 50
-393 -112 -125 -316 -101 -403 47 -23 40 -27 56 -26 126 0 69 4 87 28 128 30
50 99 105 150 118 56 15 154 2 201 -26z"/>
</g>
</svg>
